  0
SECTION
  2
BLOCKS
  0
ENDSEC
  0
SECTION
  2
ENTITIES
  0
LINE
  8
0
 10
4.12039
 20
-62.8651
 11
8.22314
 21
-62.461
  0
LINE
  8
0
 10
8.22314
 20
-62.461
 11
12.2907
 21
-61.7895
  0
LINE
  8
0
 10
12.2907
 20
-61.7895
 11
16.3056
 21
-60.8533
  0
LINE
  8
0
 10
16.3056
 20
-60.8533
 11
20.2507
 21
-59.6566
  0
LINE
  8
0
 10
20.2507
 20
-59.6566
 11
24.1091
 21
-58.2044
  0
LINE
  8
0
 10
24.1091
 20
-58.2044
 11
27.8642
 21
-56.503
  0
LINE
  8
0
 10
27.8642
 20
-56.503
 11
31.5
 21
-54.5596
  0
LINE
  8
0
 10
31.5
 20
-54.5596
 11
35.0009
 21
-52.3826
  0
LINE
  8
0
 10
35.0009
 20
-52.3826
 11
38.352
 21
-49.9812
  0
LINE
  8
0
 10
38.352
 20
-49.9812
 11
41.5388
 21
-47.3659
  0
LINE
  8
0
 10
41.5388
 20
-47.3659
 11
44.5477
 21
-44.5477
  0
LINE
  8
0
 10
44.5477
 20
-44.5477
 11
47.3659
 21
-41.5388
  0
LINE
  8
0
 10
47.3659
 20
-41.5388
 11
49.9812
 21
-38.352
  0
LINE
  8
0
 10
49.9812
 20
-38.352
 11
52.3826
 21
-35.0009
  0
LINE
  8
0
 10
52.3826
 20
-35.0009
 11
54.5596
 21
-31.5
  0
LINE
  8
0
 10
54.5596
 20
-31.5
 11
56.503
 21
-27.8642
  0
LINE
  8
0
 10
56.503
 20
-27.8642
 11
58.2044
 21
-24.1091
  0
LINE
  8
0
 10
58.2044
 20
-24.1091
 11
59.6566
 21
-20.2507
  0
LINE
  8
0
 10
59.6566
 20
-20.2507
 11
60.8533
 21
-16.3056
  0
LINE
  8
0
 10
60.8533
 20
-16.3056
 11
61.7895
 21
-12.2907
  0
LINE
  8
0
 10
61.7895
 20
-12.2907
 11
62.461
 21
-8.22314
  0
LINE
  8
0
 10
62.461
 20
-8.22314
 11
62.8651
 21
-4.12039
  0
LINE
  8
0
 10
62.8651
 20
-4.12039
 11
62.9511
 21
-1.49356
  0
LINE
  8
0
 10
62.9511
 20
-1.49356
 11
62.6118
 21
-1.44888
  0
LINE
  8
0
 10
62.6118
 20
-1.44888
 11
62.25
 21
-1.29903
  0
LINE
  8
0
 10
62.25
 20
-1.29903
 11
61.9393
 21
-1.06065
  0
LINE
  8
0
 10
61.9393
 20
-1.06065
 11
61.701
 21
-0.75
  0
LINE
  8
0
 10
61.701
 20
-0.75
 11
61.5511
 21
-0.388214
  0
LINE
  8
0
 10
61.5511
 20
-0.388214
 11
61.5
 21
0
  0
LINE
  8
0
 10
61.5
 20
0
 11
61.5511
 21
0.388214
  0
LINE
  8
0
 10
61.5511
 20
0.388214
 11
61.701
 21
0.75
  0
LINE
  8
0
 10
61.701
 20
0.75
 11
61.9393
 21
1.06065
  0
LINE
  8
0
 10
61.9393
 20
1.06065
 11
62.25
 21
1.29903
  0
LINE
  8
0
 10
62.25
 20
1.29903
 11
62.6118
 21
1.44888
  0
LINE
  8
0
 10
62.6118
 20
1.44888
 11
62.9511
 21
1.49356
  0
LINE
  8
0
 10
62.9511
 20
1.49356
 11
62.8651
 21
4.12039
  0
LINE
  8
0
 10
62.8651
 20
4.12039
 11
62.461
 21
8.22314
  0
LINE
  8
0
 10
62.461
 20
8.22314
 11
61.7895
 21
12.2907
  0
LINE
  8
0
 10
61.7895
 20
12.2907
 11
60.8533
 21
16.3056
  0
LINE
  8
0
 10
60.8533
 20
16.3056
 11
59.6566
 21
20.2507
  0
LINE
  8
0
 10
59.6566
 20
20.2507
 11
58.2044
 21
24.1091
  0
LINE
  8
0
 10
58.2044
 20
24.1091
 11
56.503
 21
27.8642
  0
LINE
  8
0
 10
56.503
 20
27.8642
 11
54.5596
 21
31.5
  0
LINE
  8
0
 10
54.5596
 20
31.5
 11
52.3826
 21
35.0009
  0
LINE
  8
0
 10
52.3826
 20
35.0009
 11
49.9812
 21
38.352
  0
LINE
  8
0
 10
49.9812
 20
38.352
 11
47.3659
 21
41.5388
  0
LINE
  8
0
 10
47.3659
 20
41.5388
 11
44.5477
 21
44.5477
  0
LINE
  8
0
 10
44.5477
 20
44.5477
 11
41.5388
 21
47.3659
  0
LINE
  8
0
 10
41.5388
 20
47.3659
 11
38.352
 21
49.9812
  0
LINE
  8
0
 10
38.352
 20
49.9812
 11
35.0009
 21
52.3826
  0
LINE
  8
0
 10
35.0009
 20
52.3826
 11
31.5
 21
54.5596
  0
LINE
  8
0
 10
31.5
 20
54.5596
 11
27.8642
 21
56.503
  0
LINE
  8
0
 10
27.8642
 20
56.503
 11
24.1091
 21
58.2044
  0
LINE
  8
0
 10
24.1091
 20
58.2044
 11
20.2507
 21
59.6566
  0
LINE
  8
0
 10
20.2507
 20
59.6566
 11
16.3056
 21
60.8533
  0
LINE
  8
0
 10
16.3056
 20
60.8533
 11
12.2907
 21
61.7895
  0
LINE
  8
0
 10
12.2907
 20
61.7895
 11
8.22314
 21
62.461
  0
LINE
  8
0
 10
8.22314
 20
62.461
 11
4.12039
 21
62.8651
  0
LINE
  8
0
 10
4.12039
 20
62.8651
 11
0
 21
63
  0
LINE
  8
0
 10
0
 20
63
 11
-4.12039
 21
62.8651
  0
LINE
  8
0
 10
-4.12039
 20
62.8651
 11
-8.22314
 21
62.461
  0
LINE
  8
0
 10
-8.22314
 20
62.461
 11
-12.2907
 21
61.7895
  0
LINE
  8
0
 10
-12.2907
 20
61.7895
 11
-16.3056
 21
60.8533
  0
LINE
  8
0
 10
-16.3056
 20
60.8533
 11
-20.2507
 21
59.6566
  0
LINE
  8
0
 10
-20.2507
 20
59.6566
 11
-24.1091
 21
58.2044
  0
LINE
  8
0
 10
-24.1091
 20
58.2044
 11
-27.8642
 21
56.503
  0
LINE
  8
0
 10
-27.8642
 20
56.503
 11
-31.5
 21
54.5596
  0
LINE
  8
0
 10
-31.5
 20
54.5596
 11
-35.0009
 21
52.3826
  0
LINE
  8
0
 10
-35.0009
 20
52.3826
 11
-38.352
 21
49.9812
  0
LINE
  8
0
 10
-38.352
 20
49.9812
 11
-41.5388
 21
47.3659
  0
LINE
  8
0
 10
-41.5388
 20
47.3659
 11
-44.5477
 21
44.5477
  0
LINE
  8
0
 10
-44.5477
 20
44.5477
 11
-47.3659
 21
41.5388
  0
LINE
  8
0
 10
-47.3659
 20
41.5388
 11
-49.9812
 21
38.352
  0
LINE
  8
0
 10
-49.9812
 20
38.352
 11
-52.3826
 21
35.0009
  0
LINE
  8
0
 10
-52.3826
 20
35.0009
 11
-54.5596
 21
31.5
  0
LINE
  8
0
 10
-54.5596
 20
31.5
 11
-56.503
 21
27.8642
  0
LINE
  8
0
 10
-56.503
 20
27.8642
 11
-58.2044
 21
24.1091
  0
LINE
  8
0
 10
-58.2044
 20
24.1091
 11
-59.6566
 21
20.2507
  0
LINE
  8
0
 10
-59.6566
 20
20.2507
 11
-60.8533
 21
16.3056
  0
LINE
  8
0
 10
-60.8533
 20
16.3056
 11
-61.7895
 21
12.2907
  0
LINE
  8
0
 10
-61.7895
 20
12.2907
 11
-62.461
 21
8.22314
  0
LINE
  8
0
 10
-62.461
 20
8.22314
 11
-62.8651
 21
4.12039
  0
LINE
  8
0
 10
-62.8651
 20
4.12039
 11
-63
 21
0
  0
LINE
  8
0
 10
-63
 20
0
 11
-62.8651
 21
-4.12039
  0
LINE
  8
0
 10
-62.8651
 20
-4.12039
 11
-62.461
 21
-8.22314
  0
LINE
  8
0
 10
-62.461
 20
-8.22314
 11
-61.7895
 21
-12.2907
  0
LINE
  8
0
 10
-61.7895
 20
-12.2907
 11
-60.8533
 21
-16.3056
  0
LINE
  8
0
 10
-60.8533
 20
-16.3056
 11
-59.6566
 21
-20.2507
  0
LINE
  8
0
 10
-59.6566
 20
-20.2507
 11
-58.2044
 21
-24.1091
  0
LINE
  8
0
 10
-58.2044
 20
-24.1091
 11
-56.503
 21
-27.8642
  0
LINE
  8
0
 10
-56.503
 20
-27.8642
 11
-54.5596
 21
-31.5
  0
LINE
  8
0
 10
-54.5596
 20
-31.5
 11
-52.3826
 21
-35.0009
  0
LINE
  8
0
 10
-52.3826
 20
-35.0009
 11
-49.9812
 21
-38.352
  0
LINE
  8
0
 10
-49.9812
 20
-38.352
 11
-47.3659
 21
-41.5388
  0
LINE
  8
0
 10
-47.3659
 20
-41.5388
 11
-44.5477
 21
-44.5477
  0
LINE
  8
0
 10
-44.5477
 20
-44.5477
 11
-41.5388
 21
-47.3659
  0
LINE
  8
0
 10
-41.5388
 20
-47.3659
 11
-38.352
 21
-49.9812
  0
LINE
  8
0
 10
-38.352
 20
-49.9812
 11
-35.0009
 21
-52.3826
  0
LINE
  8
0
 10
-35.0009
 20
-52.3826
 11
-31.5
 21
-54.5596
  0
LINE
  8
0
 10
-31.5
 20
-54.5596
 11
-27.8642
 21
-56.503
  0
LINE
  8
0
 10
-27.8642
 20
-56.503
 11
-24.1091
 21
-58.2044
  0
LINE
  8
0
 10
-24.1091
 20
-58.2044
 11
-20.2507
 21
-59.6566
  0
LINE
  8
0
 10
-20.2507
 20
-59.6566
 11
-16.3056
 21
-60.8533
  0
LINE
  8
0
 10
-16.3056
 20
-60.8533
 11
-12.2907
 21
-61.7895
  0
LINE
  8
0
 10
-12.2907
 20
-61.7895
 11
-8.22314
 21
-62.461
  0
LINE
  8
0
 10
-8.22314
 20
-62.461
 11
-4.12039
 21
-62.8651
  0
LINE
  8
0
 10
-4.12039
 20
-62.8651
 11
0
 21
-63
  0
LINE
  8
0
 10
0
 20
-63
 11
4.12039
 21
-62.8651
  0
LINE
  8
0
 10
40.8977
 20
39.2659
 11
40.7838
 21
39.2772
  0
LINE
  8
0
 10
40.7838
 20
39.2772
 11
40.6708
 21
39.2958
  0
LINE
  8
0
 10
40.6708
 20
39.2958
 11
40.5592
 21
39.3218
  0
LINE
  8
0
 10
40.5592
 20
39.3218
 11
40.4497
 21
39.3551
  0
LINE
  8
0
 10
40.4497
 20
39.3551
 11
40.3425
 21
39.3954
  0
LINE
  8
0
 10
40.3425
 20
39.3954
 11
40.2382
 21
39.4427
  0
LINE
  8
0
 10
40.2382
 20
39.4427
 11
40.1372
 21
39.4966
  0
LINE
  8
0
 10
40.1372
 20
39.4966
 11
40.0399
 21
39.5571
  0
LINE
  8
0
 10
40.0399
 20
39.5571
 11
39.9469
 21
39.6238
  0
LINE
  8
0
 10
39.9469
 20
39.6238
 11
39.8583
 21
39.6965
  0
LINE
  8
0
 10
39.8583
 20
39.6965
 11
39.7747
 21
39.7747
  0
LINE
  8
0
 10
39.7747
 20
39.7747
 11
39.6965
 21
39.8583
  0
LINE
  8
0
 10
39.6965
 20
39.8583
 11
39.6238
 21
39.9469
  0
LINE
  8
0
 10
39.6238
 20
39.9469
 11
39.5571
 21
40.0399
  0
LINE
  8
0
 10
39.5571
 20
40.0399
 11
39.4966
 21
40.1372
  0
LINE
  8
0
 10
39.4966
 20
40.1372
 11
39.4427
 21
40.2382
  0
LINE
  8
0
 10
39.4427
 20
40.2382
 11
39.3954
 21
40.3425
  0
LINE
  8
0
 10
39.3954
 20
40.3425
 11
39.3551
 21
40.4497
  0
LINE
  8
0
 10
39.3551
 20
40.4497
 11
39.3218
 21
40.5592
  0
LINE
  8
0
 10
39.3218
 20
40.5592
 11
39.2958
 21
40.6708
  0
LINE
  8
0
 10
39.2958
 20
40.6708
 11
39.2772
 21
40.7838
  0
LINE
  8
0
 10
39.2772
 20
40.7838
 11
39.2659
 21
40.8977
  0
LINE
  8
0
 10
39.2659
 20
40.8977
 11
39.2622
 21
41.0122
  0
LINE
  8
0
 10
39.2622
 20
41.0122
 11
39.2659
 21
41.1266
  0
LINE
  8
0
 10
39.2659
 20
41.1266
 11
39.2772
 21
41.2406
  0
LINE
  8
0
 10
39.2772
 20
41.2406
 11
39.2958
 21
41.3536
  0
LINE
  8
0
 10
39.2958
 20
41.3536
 11
39.3218
 21
41.4651
  0
LINE
  8
0
 10
39.3218
 20
41.4651
 11
39.3551
 21
41.5747
  0
LINE
  8
0
 10
39.3551
 20
41.5747
 11
39.3954
 21
41.6819
  0
LINE
  8
0
 10
39.3954
 20
41.6819
 11
39.4427
 21
41.7862
  0
LINE
  8
0
 10
39.4427
 20
41.7862
 11
39.4966
 21
41.8872
  0
LINE
  8
0
 10
39.4966
 20
41.8872
 11
39.5571
 21
41.9844
  0
LINE
  8
0
 10
39.5571
 20
41.9844
 11
39.6238
 21
42.0775
  0
LINE
  8
0
 10
39.6238
 20
42.0775
 11
39.6965
 21
42.166
  0
LINE
  8
0
 10
39.6965
 20
42.166
 11
39.7747
 21
42.2496
  0
LINE
  8
0
 10
39.7747
 20
42.2496
 11
39.8583
 21
42.3279
  0
LINE
  8
0
 10
39.8583
 20
42.3279
 11
39.9469
 21
42.4006
  0
LINE
  8
0
 10
39.9469
 20
42.4006
 11
40.0399
 21
42.4673
  0
LINE
  8
0
 10
40.0399
 20
42.4673
 11
40.1372
 21
42.5277
  0
LINE
  8
0
 10
40.1372
 20
42.5277
 11
40.2382
 21
42.5817
  0
LINE
  8
0
 10
40.2382
 20
42.5817
 11
40.3425
 21
42.629
  0
LINE
  8
0
 10
40.3425
 20
42.629
 11
40.4497
 21
42.6693
  0
LINE
  8
0
 10
40.4497
 20
42.6693
 11
40.5592
 21
42.7026
  0
LINE
  8
0
 10
40.5592
 20
42.7026
 11
40.6708
 21
42.7286
  0
LINE
  8
0
 10
40.6708
 20
42.7286
 11
40.7838
 21
42.7472
  0
LINE
  8
0
 10
40.7838
 20
42.7472
 11
40.8977
 21
42.7584
  0
LINE
  8
0
 10
40.8977
 20
42.7584
 11
41.0122
 21
42.7622
  0
LINE
  8
0
 10
41.0122
 20
42.7622
 11
41.1266
 21
42.7584
  0
LINE
  8
0
 10
41.1266
 20
42.7584
 11
41.2406
 21
42.7472
  0
LINE
  8
0
 10
41.2406
 20
42.7472
 11
41.3536
 21
42.7286
  0
LINE
  8
0
 10
41.3536
 20
42.7286
 11
41.4651
 21
42.7026
  0
LINE
  8
0
 10
41.4651
 20
42.7026
 11
41.5747
 21
42.6693
  0
LINE
  8
0
 10
41.5747
 20
42.6693
 11
41.6819
 21
42.629
  0
LINE
  8
0
 10
41.6819
 20
42.629
 11
41.7862
 21
42.5817
  0
LINE
  8
0
 10
41.7862
 20
42.5817
 11
41.8872
 21
42.5277
  0
LINE
  8
0
 10
41.8872
 20
42.5277
 11
41.9844
 21
42.4673
  0
LINE
  8
0
 10
41.9844
 20
42.4673
 11
42.0775
 21
42.4006
  0
LINE
  8
0
 10
42.0775
 20
42.4006
 11
42.166
 21
42.3279
  0
LINE
  8
0
 10
42.166
 20
42.3279
 11
42.2496
 21
42.2496
  0
LINE
  8
0
 10
42.2496
 20
42.2496
 11
42.3279
 21
42.166
  0
LINE
  8
0
 10
42.3279
 20
42.166
 11
42.4006
 21
42.0775
  0
LINE
  8
0
 10
42.4006
 20
42.0775
 11
42.4673
 21
41.9844
  0
LINE
  8
0
 10
42.4673
 20
41.9844
 11
42.5277
 21
41.8872
  0
LINE
  8
0
 10
42.5277
 20
41.8872
 11
42.5817
 21
41.7862
  0
LINE
  8
0
 10
42.5817
 20
41.7862
 11
42.629
 21
41.6819
  0
LINE
  8
0
 10
42.629
 20
41.6819
 11
42.6693
 21
41.5747
  0
LINE
  8
0
 10
42.6693
 20
41.5747
 11
42.7026
 21
41.4651
  0
LINE
  8
0
 10
42.7026
 20
41.4651
 11
42.7286
 21
41.3536
  0
LINE
  8
0
 10
42.7286
 20
41.3536
 11
42.7472
 21
41.2406
  0
LINE
  8
0
 10
42.7472
 20
41.2406
 11
42.7584
 21
41.1266
  0
LINE
  8
0
 10
42.7584
 20
41.1266
 11
42.7622
 21
41.0122
  0
LINE
  8
0
 10
42.7622
 20
41.0122
 11
42.7584
 21
40.8977
  0
LINE
  8
0
 10
42.7584
 20
40.8977
 11
42.7472
 21
40.7838
  0
LINE
  8
0
 10
42.7472
 20
40.7838
 11
42.7286
 21
40.6708
  0
LINE
  8
0
 10
42.7286
 20
40.6708
 11
42.7026
 21
40.5592
  0
LINE
  8
0
 10
42.7026
 20
40.5592
 11
42.6693
 21
40.4497
  0
LINE
  8
0
 10
42.6693
 20
40.4497
 11
42.629
 21
40.3425
  0
LINE
  8
0
 10
42.629
 20
40.3425
 11
42.5817
 21
40.2382
  0
LINE
  8
0
 10
42.5817
 20
40.2382
 11
42.5277
 21
40.1372
  0
LINE
  8
0
 10
42.5277
 20
40.1372
 11
42.4673
 21
40.0399
  0
LINE
  8
0
 10
42.4673
 20
40.0399
 11
42.4006
 21
39.9469
  0
LINE
  8
0
 10
42.4006
 20
39.9469
 11
42.3279
 21
39.8583
  0
LINE
  8
0
 10
42.3279
 20
39.8583
 11
42.2496
 21
39.7747
  0
LINE
  8
0
 10
42.2496
 20
39.7747
 11
42.166
 21
39.6965
  0
LINE
  8
0
 10
42.166
 20
39.6965
 11
42.0775
 21
39.6238
  0
LINE
  8
0
 10
42.0775
 20
39.6238
 11
41.9844
 21
39.5571
  0
LINE
  8
0
 10
41.9844
 20
39.5571
 11
41.8872
 21
39.4966
  0
LINE
  8
0
 10
41.8872
 20
39.4966
 11
41.7862
 21
39.4427
  0
LINE
  8
0
 10
41.7862
 20
39.4427
 11
41.6819
 21
39.3954
  0
LINE
  8
0
 10
41.6819
 20
39.3954
 11
41.5747
 21
39.3551
  0
LINE
  8
0
 10
41.5747
 20
39.3551
 11
41.4651
 21
39.3218
  0
LINE
  8
0
 10
41.4651
 20
39.3218
 11
41.3536
 21
39.2958
  0
LINE
  8
0
 10
41.3536
 20
39.2958
 11
41.2406
 21
39.2772
  0
LINE
  8
0
 10
41.2406
 20
39.2772
 11
41.1266
 21
39.2659
  0
LINE
  8
0
 10
41.1266
 20
39.2659
 11
41.0122
 21
39.2622
  0
LINE
  8
0
 10
41.0122
 20
39.2622
 11
40.8977
 21
39.2659
  0
LINE
  8
0
 10
-41.1266
 20
39.2659
 11
-41.2406
 21
39.2772
  0
LINE
  8
0
 10
-41.2406
 20
39.2772
 11
-41.3536
 21
39.2958
  0
LINE
  8
0
 10
-41.3536
 20
39.2958
 11
-41.4651
 21
39.3218
  0
LINE
  8
0
 10
-41.4651
 20
39.3218
 11
-41.5747
 21
39.3551
  0
LINE
  8
0
 10
-41.5747
 20
39.3551
 11
-41.6819
 21
39.3954
  0
LINE
  8
0
 10
-41.6819
 20
39.3954
 11
-41.7862
 21
39.4427
  0
LINE
  8
0
 10
-41.7862
 20
39.4427
 11
-41.8872
 21
39.4966
  0
LINE
  8
0
 10
-41.8872
 20
39.4966
 11
-41.9844
 21
39.5571
  0
LINE
  8
0
 10
-41.9844
 20
39.5571
 11
-42.0775
 21
39.6238
  0
LINE
  8
0
 10
-42.0775
 20
39.6238
 11
-42.166
 21
39.6965
  0
LINE
  8
0
 10
-42.166
 20
39.6965
 11
-42.2496
 21
39.7747
  0
LINE
  8
0
 10
-42.2496
 20
39.7747
 11
-42.3279
 21
39.8583
  0
LINE
  8
0
 10
-42.3279
 20
39.8583
 11
-42.4006
 21
39.9469
  0
LINE
  8
0
 10
-42.4006
 20
39.9469
 11
-42.4673
 21
40.0399
  0
LINE
  8
0
 10
-42.4673
 20
40.0399
 11
-42.5277
 21
40.1372
  0
LINE
  8
0
 10
-42.5277
 20
40.1372
 11
-42.5817
 21
40.2382
  0
LINE
  8
0
 10
-42.5817
 20
40.2382
 11
-42.629
 21
40.3425
  0
LINE
  8
0
 10
-42.629
 20
40.3425
 11
-42.6693
 21
40.4497
  0
LINE
  8
0
 10
-42.6693
 20
40.4497
 11
-42.7026
 21
40.5592
  0
LINE
  8
0
 10
-42.7026
 20
40.5592
 11
-42.7286
 21
40.6708
  0
LINE
  8
0
 10
-42.7286
 20
40.6708
 11
-42.7472
 21
40.7838
  0
LINE
  8
0
 10
-42.7472
 20
40.7838
 11
-42.7584
 21
40.8977
  0
LINE
  8
0
 10
-42.7584
 20
40.8977
 11
-42.7622
 21
41.0122
  0
LINE
  8
0
 10
-42.7622
 20
41.0122
 11
-42.7584
 21
41.1266
  0
LINE
  8
0
 10
-42.7584
 20
41.1266
 11
-42.7472
 21
41.2406
  0
LINE
  8
0
 10
-42.7472
 20
41.2406
 11
-42.7286
 21
41.3536
  0
LINE
  8
0
 10
-42.7286
 20
41.3536
 11
-42.7026
 21
41.4651
  0
LINE
  8
0
 10
-42.7026
 20
41.4651
 11
-42.6693
 21
41.5747
  0
LINE
  8
0
 10
-42.6693
 20
41.5747
 11
-42.629
 21
41.6819
  0
LINE
  8
0
 10
-42.629
 20
41.6819
 11
-42.5817
 21
41.7862
  0
LINE
  8
0
 10
-42.5817
 20
41.7862
 11
-42.5277
 21
41.8872
  0
LINE
  8
0
 10
-42.5277
 20
41.8872
 11
-42.4673
 21
41.9844
  0
LINE
  8
0
 10
-42.4673
 20
41.9844
 11
-42.4006
 21
42.0775
  0
LINE
  8
0
 10
-42.4006
 20
42.0775
 11
-42.3279
 21
42.166
  0
LINE
  8
0
 10
-42.3279
 20
42.166
 11
-42.2496
 21
42.2496
  0
LINE
  8
0
 10
-42.2496
 20
42.2496
 11
-42.166
 21
42.3279
  0
LINE
  8
0
 10
-42.166
 20
42.3279
 11
-42.0775
 21
42.4006
  0
LINE
  8
0
 10
-42.0775
 20
42.4006
 11
-41.9844
 21
42.4673
  0
LINE
  8
0
 10
-41.9844
 20
42.4673
 11
-41.8872
 21
42.5277
  0
LINE
  8
0
 10
-41.8872
 20
42.5277
 11
-41.7862
 21
42.5817
  0
LINE
  8
0
 10
-41.7862
 20
42.5817
 11
-41.6819
 21
42.629
  0
LINE
  8
0
 10
-41.6819
 20
42.629
 11
-41.5747
 21
42.6693
  0
LINE
  8
0
 10
-41.5747
 20
42.6693
 11
-41.4651
 21
42.7026
  0
LINE
  8
0
 10
-41.4651
 20
42.7026
 11
-41.3536
 21
42.7286
  0
LINE
  8
0
 10
-41.3536
 20
42.7286
 11
-41.2406
 21
42.7472
  0
LINE
  8
0
 10
-41.2406
 20
42.7472
 11
-41.1266
 21
42.7584
  0
LINE
  8
0
 10
-41.1266
 20
42.7584
 11
-41.0122
 21
42.7622
  0
LINE
  8
0
 10
-41.0122
 20
42.7622
 11
-40.8977
 21
42.7584
  0
LINE
  8
0
 10
-40.8977
 20
42.7584
 11
-40.7838
 21
42.7472
  0
LINE
  8
0
 10
-40.7838
 20
42.7472
 11
-40.6708
 21
42.7286
  0
LINE
  8
0
 10
-40.6708
 20
42.7286
 11
-40.5592
 21
42.7026
  0
LINE
  8
0
 10
-40.5592
 20
42.7026
 11
-40.4497
 21
42.6693
  0
LINE
  8
0
 10
-40.4497
 20
42.6693
 11
-40.3425
 21
42.629
  0
LINE
  8
0
 10
-40.3425
 20
42.629
 11
-40.2382
 21
42.5817
  0
LINE
  8
0
 10
-40.2382
 20
42.5817
 11
-40.1372
 21
42.5277
  0
LINE
  8
0
 10
-40.1372
 20
42.5277
 11
-40.0399
 21
42.4673
  0
LINE
  8
0
 10
-40.0399
 20
42.4673
 11
-39.9469
 21
42.4006
  0
LINE
  8
0
 10
-39.9469
 20
42.4006
 11
-39.8583
 21
42.3279
  0
LINE
  8
0
 10
-39.8583
 20
42.3279
 11
-39.7747
 21
42.2496
  0
LINE
  8
0
 10
-39.7747
 20
42.2496
 11
-39.6965
 21
42.166
  0
LINE
  8
0
 10
-39.6965
 20
42.166
 11
-39.6238
 21
42.0775
  0
LINE
  8
0
 10
-39.6238
 20
42.0775
 11
-39.5571
 21
41.9844
  0
LINE
  8
0
 10
-39.5571
 20
41.9844
 11
-39.4966
 21
41.8872
  0
LINE
  8
0
 10
-39.4966
 20
41.8872
 11
-39.4427
 21
41.7862
  0
LINE
  8
0
 10
-39.4427
 20
41.7862
 11
-39.3954
 21
41.6819
  0
LINE
  8
0
 10
-39.3954
 20
41.6819
 11
-39.3551
 21
41.5747
  0
LINE
  8
0
 10
-39.3551
 20
41.5747
 11
-39.3218
 21
41.4651
  0
LINE
  8
0
 10
-39.3218
 20
41.4651
 11
-39.2958
 21
41.3536
  0
LINE
  8
0
 10
-39.2958
 20
41.3536
 11
-39.2772
 21
41.2406
  0
LINE
  8
0
 10
-39.2772
 20
41.2406
 11
-39.2659
 21
41.1266
  0
LINE
  8
0
 10
-39.2659
 20
41.1266
 11
-39.2622
 21
41.0122
  0
LINE
  8
0
 10
-39.2622
 20
41.0122
 11
-39.2659
 21
40.8977
  0
LINE
  8
0
 10
-39.2659
 20
40.8977
 11
-39.2772
 21
40.7838
  0
LINE
  8
0
 10
-39.2772
 20
40.7838
 11
-39.2958
 21
40.6708
  0
LINE
  8
0
 10
-39.2958
 20
40.6708
 11
-39.3218
 21
40.5592
  0
LINE
  8
0
 10
-39.3218
 20
40.5592
 11
-39.3551
 21
40.4497
  0
LINE
  8
0
 10
-39.3551
 20
40.4497
 11
-39.3954
 21
40.3425
  0
LINE
  8
0
 10
-39.3954
 20
40.3425
 11
-39.4427
 21
40.2382
  0
LINE
  8
0
 10
-39.4427
 20
40.2382
 11
-39.4966
 21
40.1372
  0
LINE
  8
0
 10
-39.4966
 20
40.1372
 11
-39.5571
 21
40.0399
  0
LINE
  8
0
 10
-39.5571
 20
40.0399
 11
-39.6238
 21
39.9469
  0
LINE
  8
0
 10
-39.6238
 20
39.9469
 11
-39.6965
 21
39.8583
  0
LINE
  8
0
 10
-39.6965
 20
39.8583
 11
-39.7747
 21
39.7747
  0
LINE
  8
0
 10
-39.7747
 20
39.7747
 11
-39.8583
 21
39.6965
  0
LINE
  8
0
 10
-39.8583
 20
39.6965
 11
-39.9469
 21
39.6238
  0
LINE
  8
0
 10
-39.9469
 20
39.6238
 11
-40.0399
 21
39.5571
  0
LINE
  8
0
 10
-40.0399
 20
39.5571
 11
-40.1372
 21
39.4966
  0
LINE
  8
0
 10
-40.1372
 20
39.4966
 11
-40.2382
 21
39.4427
  0
LINE
  8
0
 10
-40.2382
 20
39.4427
 11
-40.3425
 21
39.3954
  0
LINE
  8
0
 10
-40.3425
 20
39.3954
 11
-40.4497
 21
39.3551
  0
LINE
  8
0
 10
-40.4497
 20
39.3551
 11
-40.5592
 21
39.3218
  0
LINE
  8
0
 10
-40.5592
 20
39.3218
 11
-40.6708
 21
39.2958
  0
LINE
  8
0
 10
-40.6708
 20
39.2958
 11
-40.7838
 21
39.2772
  0
LINE
  8
0
 10
-40.7838
 20
39.2772
 11
-40.8977
 21
39.2659
  0
LINE
  8
0
 10
-40.8977
 20
39.2659
 11
-41.0122
 21
39.2622
  0
LINE
  8
0
 10
-41.0122
 20
39.2622
 11
-41.1266
 21
39.2659
  0
LINE
  8
0
 10
18.9774
 20
17.3456
 11
18.8634
 21
17.3568
  0
LINE
  8
0
 10
18.8634
 20
17.3568
 11
18.7505
 21
17.3755
  0
LINE
  8
0
 10
18.7505
 20
17.3755
 11
18.6389
 21
17.4015
  0
LINE
  8
0
 10
18.6389
 20
17.4015
 11
18.5294
 21
17.4348
  0
LINE
  8
0
 10
18.5294
 20
17.4348
 11
18.4222
 21
17.4751
  0
LINE
  8
0
 10
18.4222
 20
17.4751
 11
18.3179
 21
17.5224
  0
LINE
  8
0
 10
18.3179
 20
17.5224
 11
18.2169
 21
17.5763
  0
LINE
  8
0
 10
18.2169
 20
17.5763
 11
18.1196
 21
17.6368
  0
LINE
  8
0
 10
18.1196
 20
17.6368
 11
18.0266
 21
17.7035
  0
LINE
  8
0
 10
18.0266
 20
17.7035
 11
17.938
 21
17.7762
  0
LINE
  8
0
 10
17.938
 20
17.7762
 11
17.8544
 21
17.8544
  0
LINE
  8
0
 10
17.8544
 20
17.8544
 11
17.7762
 21
17.938
  0
LINE
  8
0
 10
17.7762
 20
17.938
 11
17.7035
 21
18.0266
  0
LINE
  8
0
 10
17.7035
 20
18.0266
 11
17.6368
 21
18.1196
  0
LINE
  8
0
 10
17.6368
 20
18.1196
 11
17.5763
 21
18.2169
  0
LINE
  8
0
 10
17.5763
 20
18.2169
 11
17.5224
 21
18.3179
  0
LINE
  8
0
 10
17.5224
 20
18.3179
 11
17.4751
 21
18.4222
  0
LINE
  8
0
 10
17.4751
 20
18.4222
 11
17.4348
 21
18.5294
  0
LINE
  8
0
 10
17.4348
 20
18.5294
 11
17.4015
 21
18.6389
  0
LINE
  8
0
 10
17.4015
 20
18.6389
 11
17.3755
 21
18.7505
  0
LINE
  8
0
 10
17.3755
 20
18.7505
 11
17.3568
 21
18.8634
  0
LINE
  8
0
 10
17.3568
 20
18.8634
 11
17.3456
 21
18.9774
  0
LINE
  8
0
 10
17.3456
 20
18.9774
 11
17.3419
 21
19.0919
  0
LINE
  8
0
 10
17.3419
 20
19.0919
 11
17.3456
 21
19.2063
  0
LINE
  8
0
 10
17.3456
 20
19.2063
 11
17.3568
 21
19.3203
  0
LINE
  8
0
 10
17.3568
 20
19.3203
 11
17.3755
 21
19.4333
  0
LINE
  8
0
 10
17.3755
 20
19.4333
 11
17.4015
 21
19.5448
  0
LINE
  8
0
 10
17.4015
 20
19.5448
 11
17.4348
 21
19.6544
  0
LINE
  8
0
 10
17.4348
 20
19.6544
 11
17.4751
 21
19.7616
  0
LINE
  8
0
 10
17.4751
 20
19.7616
 11
17.5224
 21
19.8659
  0
LINE
  8
0
 10
17.5224
 20
19.8659
 11
17.5763
 21
19.9669
  0
LINE
  8
0
 10
17.5763
 20
19.9669
 11
17.6368
 21
20.0641
  0
LINE
  8
0
 10
17.6368
 20
20.0641
 11
17.7035
 21
20.1572
  0
LINE
  8
0
 10
17.7035
 20
20.1572
 11
17.7762
 21
20.2457
  0
LINE
  8
0
 10
17.7762
 20
20.2457
 11
17.8544
 21
20.3293
  0
LINE
  8
0
 10
17.8544
 20
20.3293
 11
17.938
 21
20.4076
  0
LINE
  8
0
 10
17.938
 20
20.4076
 11
18.0266
 21
20.4802
  0
LINE
  8
0
 10
18.0266
 20
20.4802
 11
18.1196
 21
20.547
  0
LINE
  8
0
 10
18.1196
 20
20.547
 11
18.2169
 21
20.6074
  0
LINE
  8
0
 10
18.2169
 20
20.6074
 11
18.3179
 21
20.6614
  0
LINE
  8
0
 10
18.3179
 20
20.6614
 11
18.4222
 21
20.7087
  0
LINE
  8
0
 10
18.4222
 20
20.7087
 11
18.5294
 21
20.749
  0
LINE
  8
0
 10
18.5294
 20
20.749
 11
18.6389
 21
20.7822
  0
LINE
  8
0
 10
18.6389
 20
20.7822
 11
18.7505
 21
20.8082
  0
LINE
  8
0
 10
18.7505
 20
20.8082
 11
18.8634
 21
20.8269
  0
LINE
  8
0
 10
18.8634
 20
20.8269
 11
18.9774
 21
20.8381
  0
LINE
  8
0
 10
18.9774
 20
20.8381
 11
19.0919
 21
20.8419
  0
LINE
  8
0
 10
19.0919
 20
20.8419
 11
19.2063
 21
20.8381
  0
LINE
  8
0
 10
19.2063
 20
20.8381
 11
19.3203
 21
20.8269
  0
LINE
  8
0
 10
19.3203
 20
20.8269
 11
19.4333
 21
20.8082
  0
LINE
  8
0
 10
19.4333
 20
20.8082
 11
19.5448
 21
20.7822
  0
LINE
  8
0
 10
19.5448
 20
20.7822
 11
19.6544
 21
20.749
  0
LINE
  8
0
 10
19.6544
 20
20.749
 11
19.7616
 21
20.7087
  0
LINE
  8
0
 10
19.7616
 20
20.7087
 11
19.8659
 21
20.6614
  0
LINE
  8
0
 10
19.8659
 20
20.6614
 11
19.9669
 21
20.6074
  0
LINE
  8
0
 10
19.9669
 20
20.6074
 11
20.0641
 21
20.547
  0
LINE
  8
0
 10
20.0641
 20
20.547
 11
20.1572
 21
20.4802
  0
LINE
  8
0
 10
20.1572
 20
20.4802
 11
20.2457
 21
20.4076
  0
LINE
  8
0
 10
20.2457
 20
20.4076
 11
20.3293
 21
20.3293
  0
LINE
  8
0
 10
20.3293
 20
20.3293
 11
20.4076
 21
20.2457
  0
LINE
  8
0
 10
20.4076
 20
20.2457
 11
20.4802
 21
20.1572
  0
LINE
  8
0
 10
20.4802
 20
20.1572
 11
20.547
 21
20.0641
  0
LINE
  8
0
 10
20.547
 20
20.0641
 11
20.6074
 21
19.9669
  0
LINE
  8
0
 10
20.6074
 20
19.9669
 11
20.6614
 21
19.8659
  0
LINE
  8
0
 10
20.6614
 20
19.8659
 11
20.7087
 21
19.7616
  0
LINE
  8
0
 10
20.7087
 20
19.7616
 11
20.749
 21
19.6544
  0
LINE
  8
0
 10
20.749
 20
19.6544
 11
20.7822
 21
19.5448
  0
LINE
  8
0
 10
20.7822
 20
19.5448
 11
20.8082
 21
19.4333
  0
LINE
  8
0
 10
20.8082
 20
19.4333
 11
20.8269
 21
19.3203
  0
LINE
  8
0
 10
20.8269
 20
19.3203
 11
20.8381
 21
19.2063
  0
LINE
  8
0
 10
20.8381
 20
19.2063
 11
20.8419
 21
19.0919
  0
LINE
  8
0
 10
20.8419
 20
19.0919
 11
20.8381
 21
18.9774
  0
LINE
  8
0
 10
20.8381
 20
18.9774
 11
20.8269
 21
18.8634
  0
LINE
  8
0
 10
20.8269
 20
18.8634
 11
20.8082
 21
18.7505
  0
LINE
  8
0
 10
20.8082
 20
18.7505
 11
20.7822
 21
18.6389
  0
LINE
  8
0
 10
20.7822
 20
18.6389
 11
20.749
 21
18.5294
  0
LINE
  8
0
 10
20.749
 20
18.5294
 11
20.7087
 21
18.4222
  0
LINE
  8
0
 10
20.7087
 20
18.4222
 11
20.6614
 21
18.3179
  0
LINE
  8
0
 10
20.6614
 20
18.3179
 11
20.6074
 21
18.2169
  0
LINE
  8
0
 10
20.6074
 20
18.2169
 11
20.547
 21
18.1196
  0
LINE
  8
0
 10
20.547
 20
18.1196
 11
20.4802
 21
18.0266
  0
LINE
  8
0
 10
20.4802
 20
18.0266
 11
20.4076
 21
17.938
  0
LINE
  8
0
 10
20.4076
 20
17.938
 11
20.3293
 21
17.8544
  0
LINE
  8
0
 10
20.3293
 20
17.8544
 11
20.2457
 21
17.7762
  0
LINE
  8
0
 10
20.2457
 20
17.7762
 11
20.1572
 21
17.7035
  0
LINE
  8
0
 10
20.1572
 20
17.7035
 11
20.0641
 21
17.6368
  0
LINE
  8
0
 10
20.0641
 20
17.6368
 11
19.9669
 21
17.5763
  0
LINE
  8
0
 10
19.9669
 20
17.5763
 11
19.8659
 21
17.5224
  0
LINE
  8
0
 10
19.8659
 20
17.5224
 11
19.7616
 21
17.4751
  0
LINE
  8
0
 10
19.7616
 20
17.4751
 11
19.6544
 21
17.4348
  0
LINE
  8
0
 10
19.6544
 20
17.4348
 11
19.5448
 21
17.4015
  0
LINE
  8
0
 10
19.5448
 20
17.4015
 11
19.4333
 21
17.3755
  0
LINE
  8
0
 10
19.4333
 20
17.3755
 11
19.3203
 21
17.3568
  0
LINE
  8
0
 10
19.3203
 20
17.3568
 11
19.2063
 21
17.3456
  0
LINE
  8
0
 10
19.2063
 20
17.3456
 11
19.0919
 21
17.3419
  0
LINE
  8
0
 10
19.0919
 20
17.3419
 11
18.9774
 21
17.3456
  0
LINE
  8
0
 10
-19.2063
 20
17.3456
 11
-19.3203
 21
17.3568
  0
LINE
  8
0
 10
-19.3203
 20
17.3568
 11
-19.4333
 21
17.3755
  0
LINE
  8
0
 10
-19.4333
 20
17.3755
 11
-19.5448
 21
17.4015
  0
LINE
  8
0
 10
-19.5448
 20
17.4015
 11
-19.6544
 21
17.4348
  0
LINE
  8
0
 10
-19.6544
 20
17.4348
 11
-19.7616
 21
17.4751
  0
LINE
  8
0
 10
-19.7616
 20
17.4751
 11
-19.8659
 21
17.5224
  0
LINE
  8
0
 10
-19.8659
 20
17.5224
 11
-19.9669
 21
17.5763
  0
LINE
  8
0
 10
-19.9669
 20
17.5763
 11
-20.0641
 21
17.6368
  0
LINE
  8
0
 10
-20.0641
 20
17.6368
 11
-20.1572
 21
17.7035
  0
LINE
  8
0
 10
-20.1572
 20
17.7035
 11
-20.2457
 21
17.7762
  0
LINE
  8
0
 10
-20.2457
 20
17.7762
 11
-20.3293
 21
17.8544
  0
LINE
  8
0
 10
-20.3293
 20
17.8544
 11
-20.4076
 21
17.938
  0
LINE
  8
0
 10
-20.4076
 20
17.938
 11
-20.4802
 21
18.0266
  0
LINE
  8
0
 10
-20.4802
 20
18.0266
 11
-20.547
 21
18.1196
  0
LINE
  8
0
 10
-20.547
 20
18.1196
 11
-20.6074
 21
18.2169
  0
LINE
  8
0
 10
-20.6074
 20
18.2169
 11
-20.6614
 21
18.3179
  0
LINE
  8
0
 10
-20.6614
 20
18.3179
 11
-20.7087
 21
18.4222
  0
LINE
  8
0
 10
-20.7087
 20
18.4222
 11
-20.749
 21
18.5294
  0
LINE
  8
0
 10
-20.749
 20
18.5294
 11
-20.7822
 21
18.6389
  0
LINE
  8
0
 10
-20.7822
 20
18.6389
 11
-20.8082
 21
18.7505
  0
LINE
  8
0
 10
-20.8082
 20
18.7505
 11
-20.8269
 21
18.8634
  0
LINE
  8
0
 10
-20.8269
 20
18.8634
 11
-20.8381
 21
18.9774
  0
LINE
  8
0
 10
-20.8381
 20
18.9774
 11
-20.8419
 21
19.0919
  0
LINE
  8
0
 10
-20.8419
 20
19.0919
 11
-20.8381
 21
19.2063
  0
LINE
  8
0
 10
-20.8381
 20
19.2063
 11
-20.8269
 21
19.3203
  0
LINE
  8
0
 10
-20.8269
 20
19.3203
 11
-20.8082
 21
19.4333
  0
LINE
  8
0
 10
-20.8082
 20
19.4333
 11
-20.7822
 21
19.5448
  0
LINE
  8
0
 10
-20.7822
 20
19.5448
 11
-20.749
 21
19.6544
  0
LINE
  8
0
 10
-20.749
 20
19.6544
 11
-20.7087
 21
19.7616
  0
LINE
  8
0
 10
-20.7087
 20
19.7616
 11
-20.6614
 21
19.8659
  0
LINE
  8
0
 10
-20.6614
 20
19.8659
 11
-20.6074
 21
19.9669
  0
LINE
  8
0
 10
-20.6074
 20
19.9669
 11
-20.547
 21
20.0641
  0
LINE
  8
0
 10
-20.547
 20
20.0641
 11
-20.4802
 21
20.1572
  0
LINE
  8
0
 10
-20.4802
 20
20.1572
 11
-20.4076
 21
20.2457
  0
LINE
  8
0
 10
-20.4076
 20
20.2457
 11
-20.3293
 21
20.3293
  0
LINE
  8
0
 10
-20.3293
 20
20.3293
 11
-20.2457
 21
20.4076
  0
LINE
  8
0
 10
-20.2457
 20
20.4076
 11
-20.1572
 21
20.4802
  0
LINE
  8
0
 10
-20.1572
 20
20.4802
 11
-20.0641
 21
20.547
  0
LINE
  8
0
 10
-20.0641
 20
20.547
 11
-19.9669
 21
20.6074
  0
LINE
  8
0
 10
-19.9669
 20
20.6074
 11
-19.8659
 21
20.6614
  0
LINE
  8
0
 10
-19.8659
 20
20.6614
 11
-19.7616
 21
20.7087
  0
LINE
  8
0
 10
-19.7616
 20
20.7087
 11
-19.6544
 21
20.749
  0
LINE
  8
0
 10
-19.6544
 20
20.749
 11
-19.5448
 21
20.7822
  0
LINE
  8
0
 10
-19.5448
 20
20.7822
 11
-19.4333
 21
20.8082
  0
LINE
  8
0
 10
-19.4333
 20
20.8082
 11
-19.3203
 21
20.8269
  0
LINE
  8
0
 10
-19.3203
 20
20.8269
 11
-19.2063
 21
20.8381
  0
LINE
  8
0
 10
-19.2063
 20
20.8381
 11
-19.0919
 21
20.8419
  0
LINE
  8
0
 10
-19.0919
 20
20.8419
 11
-18.9774
 21
20.8381
  0
LINE
  8
0
 10
-18.9774
 20
20.8381
 11
-18.8634
 21
20.8269
  0
LINE
  8
0
 10
-18.8634
 20
20.8269
 11
-18.7505
 21
20.8082
  0
LINE
  8
0
 10
-18.7505
 20
20.8082
 11
-18.6389
 21
20.7822
  0
LINE
  8
0
 10
-18.6389
 20
20.7822
 11
-18.5294
 21
20.749
  0
LINE
  8
0
 10
-18.5294
 20
20.749
 11
-18.4222
 21
20.7087
  0
LINE
  8
0
 10
-18.4222
 20
20.7087
 11
-18.3179
 21
20.6614
  0
LINE
  8
0
 10
-18.3179
 20
20.6614
 11
-18.2169
 21
20.6074
  0
LINE
  8
0
 10
-18.2169
 20
20.6074
 11
-18.1196
 21
20.547
  0
LINE
  8
0
 10
-18.1196
 20
20.547
 11
-18.0266
 21
20.4802
  0
LINE
  8
0
 10
-18.0266
 20
20.4802
 11
-17.938
 21
20.4076
  0
LINE
  8
0
 10
-17.938
 20
20.4076
 11
-17.8544
 21
20.3293
  0
LINE
  8
0
 10
-17.8544
 20
20.3293
 11
-17.7762
 21
20.2457
  0
LINE
  8
0
 10
-17.7762
 20
20.2457
 11
-17.7035
 21
20.1572
  0
LINE
  8
0
 10
-17.7035
 20
20.1572
 11
-17.6368
 21
20.0641
  0
LINE
  8
0
 10
-17.6368
 20
20.0641
 11
-17.5763
 21
19.9669
  0
LINE
  8
0
 10
-17.5763
 20
19.9669
 11
-17.5224
 21
19.8659
  0
LINE
  8
0
 10
-17.5224
 20
19.8659
 11
-17.4751
 21
19.7616
  0
LINE
  8
0
 10
-17.4751
 20
19.7616
 11
-17.4348
 21
19.6544
  0
LINE
  8
0
 10
-17.4348
 20
19.6544
 11
-17.4015
 21
19.5448
  0
LINE
  8
0
 10
-17.4015
 20
19.5448
 11
-17.3755
 21
19.4333
  0
LINE
  8
0
 10
-17.3755
 20
19.4333
 11
-17.3568
 21
19.3203
  0
LINE
  8
0
 10
-17.3568
 20
19.3203
 11
-17.3456
 21
19.2063
  0
LINE
  8
0
 10
-17.3456
 20
19.2063
 11
-17.3419
 21
19.0919
  0
LINE
  8
0
 10
-17.3419
 20
19.0919
 11
-17.3456
 21
18.9774
  0
LINE
  8
0
 10
-17.3456
 20
18.9774
 11
-17.3568
 21
18.8634
  0
LINE
  8
0
 10
-17.3568
 20
18.8634
 11
-17.3755
 21
18.7505
  0
LINE
  8
0
 10
-17.3755
 20
18.7505
 11
-17.4015
 21
18.6389
  0
LINE
  8
0
 10
-17.4015
 20
18.6389
 11
-17.4348
 21
18.5294
  0
LINE
  8
0
 10
-17.4348
 20
18.5294
 11
-17.4751
 21
18.4222
  0
LINE
  8
0
 10
-17.4751
 20
18.4222
 11
-17.5224
 21
18.3179
  0
LINE
  8
0
 10
-17.5224
 20
18.3179
 11
-17.5763
 21
18.2169
  0
LINE
  8
0
 10
-17.5763
 20
18.2169
 11
-17.6368
 21
18.1196
  0
LINE
  8
0
 10
-17.6368
 20
18.1196
 11
-17.7035
 21
18.0266
  0
LINE
  8
0
 10
-17.7035
 20
18.0266
 11
-17.7762
 21
17.938
  0
LINE
  8
0
 10
-17.7762
 20
17.938
 11
-17.8544
 21
17.8544
  0
LINE
  8
0
 10
-17.8544
 20
17.8544
 11
-17.938
 21
17.7762
  0
LINE
  8
0
 10
-17.938
 20
17.7762
 11
-18.0266
 21
17.7035
  0
LINE
  8
0
 10
-18.0266
 20
17.7035
 11
-18.1196
 21
17.6368
  0
LINE
  8
0
 10
-18.1196
 20
17.6368
 11
-18.2169
 21
17.5763
  0
LINE
  8
0
 10
-18.2169
 20
17.5763
 11
-18.3179
 21
17.5224
  0
LINE
  8
0
 10
-18.3179
 20
17.5224
 11
-18.4222
 21
17.4751
  0
LINE
  8
0
 10
-18.4222
 20
17.4751
 11
-18.5294
 21
17.4348
  0
LINE
  8
0
 10
-18.5294
 20
17.4348
 11
-18.6389
 21
17.4015
  0
LINE
  8
0
 10
-18.6389
 20
17.4015
 11
-18.7505
 21
17.3755
  0
LINE
  8
0
 10
-18.7505
 20
17.3755
 11
-18.8634
 21
17.3568
  0
LINE
  8
0
 10
-18.8634
 20
17.3568
 11
-18.9774
 21
17.3456
  0
LINE
  8
0
 10
-18.9774
 20
17.3456
 11
-19.0919
 21
17.3419
  0
LINE
  8
0
 10
-19.0919
 20
17.3419
 11
-19.2063
 21
17.3456
  0
LINE
  8
0
 10
-0.14061
 20
15.3546
 11
-0.280624
 21
15.3684
  0
LINE
  8
0
 10
-0.280624
 20
15.3684
 11
-0.419434
 21
15.3913
  0
LINE
  8
0
 10
-0.419434
 20
15.3913
 11
-0.556458
 21
15.4232
  0
LINE
  8
0
 10
-0.556458
 20
15.4232
 11
-0.691086
 21
15.4641
  0
LINE
  8
0
 10
-0.691086
 20
15.4641
 11
-0.822769
 21
15.5137
  0
LINE
  8
0
 10
-0.822769
 20
15.5137
 11
-0.950912
 21
15.5717
  0
LINE
  8
0
 10
-0.950912
 20
15.5717
 11
-1.075
 21
15.638
  0
LINE
  8
0
 10
-1.075
 20
15.638
 11
-1.19447
 21
15.7123
  0
LINE
  8
0
 10
-1.19447
 20
15.7123
 11
-1.30882
 21
15.7943
  0
LINE
  8
0
 10
-1.30882
 20
15.7943
 11
-1.41759
 21
15.8835
  0
LINE
  8
0
 10
-1.41759
 20
15.8835
 11
-1.52028
 21
15.9797
  0
LINE
  8
0
 10
-1.52028
 20
15.9797
 11
-1.61646
 21
16.0824
  0
LINE
  8
0
 10
-1.61646
 20
16.0824
 11
-1.7057
 21
16.1912
  0
LINE
  8
0
 10
-1.7057
 20
16.1912
 11
-1.78766
 21
16.3055
  0
LINE
  8
0
 10
-1.78766
 20
16.3055
 11
-1.86195
 21
16.425
  0
LINE
  8
0
 10
-1.86195
 20
16.425
 11
-1.92827
 21
16.5491
  0
LINE
  8
0
 10
-1.92827
 20
16.5491
 11
-1.98633
 21
16.6772
  0
LINE
  8
0
 10
-1.98633
 20
16.6772
 11
-2.03589
 21
16.8089
  0
LINE
  8
0
 10
-2.03589
 20
16.8089
 11
-2.07674
 21
16.9435
  0
LINE
  8
0
 10
-2.07674
 20
16.9435
 11
-2.10867
 21
17.0806
  0
LINE
  8
0
 10
-2.10867
 20
17.0806
 11
-2.13159
 21
17.2194
  0
LINE
  8
0
 10
-2.13159
 20
17.2194
 11
-2.14539
 21
17.3594
  0
LINE
  8
0
 10
-2.14539
 20
17.3594
 11
-2.14999
 21
17.5
  0
LINE
  8
0
 10
-2.14999
 20
17.5
 11
-2.14539
 21
17.6406
  0
LINE
  8
0
 10
-2.14539
 20
17.6406
 11
-2.13159
 21
17.7806
  0
LINE
  8
0
 10
-2.13159
 20
17.7806
 11
-2.10867
 21
17.9194
  0
LINE
  8
0
 10
-2.10867
 20
17.9194
 11
-2.07674
 21
18.0565
  0
LINE
  8
0
 10
-2.07674
 20
18.0565
 11
-2.03589
 21
18.1911
  0
LINE
  8
0
 10
-2.03589
 20
18.1911
 11
-1.98633
 21
18.3228
  0
LINE
  8
0
 10
-1.98633
 20
18.3228
 11
-1.92827
 21
18.4509
  0
LINE
  8
0
 10
-1.92827
 20
18.4509
 11
-1.86195
 21
18.575
  0
LINE
  8
0
 10
-1.86195
 20
18.575
 11
-1.78766
 21
18.6945
  0
LINE
  8
0
 10
-1.78766
 20
18.6945
 11
-1.7057
 21
18.8088
  0
LINE
  8
0
 10
-1.7057
 20
18.8088
 11
-1.61646
 21
18.9176
  0
LINE
  8
0
 10
-1.61646
 20
18.9176
 11
-1.52028
 21
19.0203
  0
LINE
  8
0
 10
-1.52028
 20
19.0203
 11
-1.41759
 21
19.1165
  0
LINE
  8
0
 10
-1.41759
 20
19.1165
 11
-1.30882
 21
19.2057
  0
LINE
  8
0
 10
-1.30882
 20
19.2057
 11
-1.19447
 21
19.2877
  0
LINE
  8
0
 10
-1.19447
 20
19.2877
 11
-1.075
 21
19.362
  0
LINE
  8
0
 10
-1.075
 20
19.362
 11
-0.950912
 21
19.4283
  0
LINE
  8
0
 10
-0.950912
 20
19.4283
 11
-0.822769
 21
19.4863
  0
LINE
  8
0
 10
-0.822769
 20
19.4863
 11
-0.691086
 21
19.5359
  0
LINE
  8
0
 10
-0.691086
 20
19.5359
 11
-0.556458
 21
19.5767
  0
LINE
  8
0
 10
-0.556458
 20
19.5767
 11
-0.419434
 21
19.6087
  0
LINE
  8
0
 10
-0.419434
 20
19.6087
 11
-0.280624
 21
19.6316
  0
LINE
  8
0
 10
-0.280624
 20
19.6316
 11
-0.14061
 21
19.6454
  0
LINE
  8
0
 10
-0.14061
 20
19.6454
 11
0
 21
19.65
  0
LINE
  8
0
 10
0
 20
19.65
 11
0.14061
 21
19.6454
  0
LINE
  8
0
 10
0.14061
 20
19.6454
 11
0.280624
 21
19.6316
  0
LINE
  8
0
 10
0.280624
 20
19.6316
 11
0.419434
 21
19.6087
  0
LINE
  8
0
 10
0.419434
 20
19.6087
 11
0.556458
 21
19.5767
  0
LINE
  8
0
 10
0.556458
 20
19.5767
 11
0.691086
 21
19.5359
  0
LINE
  8
0
 10
0.691086
 20
19.5359
 11
0.822769
 21
19.4863
  0
LINE
  8
0
 10
0.822769
 20
19.4863
 11
0.950912
 21
19.4283
  0
LINE
  8
0
 10
0.950912
 20
19.4283
 11
1.075
 21
19.362
  0
LINE
  8
0
 10
1.075
 20
19.362
 11
1.19447
 21
19.2877
  0
LINE
  8
0
 10
1.19447
 20
19.2877
 11
1.30882
 21
19.2057
  0
LINE
  8
0
 10
1.30882
 20
19.2057
 11
1.41759
 21
19.1165
  0
LINE
  8
0
 10
1.41759
 20
19.1165
 11
1.52028
 21
19.0203
  0
LINE
  8
0
 10
1.52028
 20
19.0203
 11
1.61646
 21
18.9176
  0
LINE
  8
0
 10
1.61646
 20
18.9176
 11
1.7057
 21
18.8088
  0
LINE
  8
0
 10
1.7057
 20
18.8088
 11
1.78766
 21
18.6945
  0
LINE
  8
0
 10
1.78766
 20
18.6945
 11
1.86195
 21
18.575
  0
LINE
  8
0
 10
1.86195
 20
18.575
 11
1.92827
 21
18.4509
  0
LINE
  8
0
 10
1.92827
 20
18.4509
 11
1.98633
 21
18.3228
  0
LINE
  8
0
 10
1.98633
 20
18.3228
 11
2.03589
 21
18.1911
  0
LINE
  8
0
 10
2.03589
 20
18.1911
 11
2.07674
 21
18.0565
  0
LINE
  8
0
 10
2.07674
 20
18.0565
 11
2.10867
 21
17.9194
  0
LINE
  8
0
 10
2.10867
 20
17.9194
 11
2.13159
 21
17.7806
  0
LINE
  8
0
 10
2.13159
 20
17.7806
 11
2.14539
 21
17.6406
  0
LINE
  8
0
 10
2.14539
 20
17.6406
 11
2.14999
 21
17.5
  0
LINE
  8
0
 10
2.14999
 20
17.5
 11
2.14539
 21
17.3594
  0
LINE
  8
0
 10
2.14539
 20
17.3594
 11
2.13159
 21
17.2194
  0
LINE
  8
0
 10
2.13159
 20
17.2194
 11
2.10867
 21
17.0806
  0
LINE
  8
0
 10
2.10867
 20
17.0806
 11
2.07674
 21
16.9435
  0
LINE
  8
0
 10
2.07674
 20
16.9435
 11
2.03589
 21
16.8089
  0
LINE
  8
0
 10
2.03589
 20
16.8089
 11
1.98633
 21
16.6772
  0
LINE
  8
0
 10
1.98633
 20
16.6772
 11
1.92827
 21
16.5491
  0
LINE
  8
0
 10
1.92827
 20
16.5491
 11
1.86195
 21
16.425
  0
LINE
  8
0
 10
1.86195
 20
16.425
 11
1.78766
 21
16.3055
  0
LINE
  8
0
 10
1.78766
 20
16.3055
 11
1.7057
 21
16.1912
  0
LINE
  8
0
 10
1.7057
 20
16.1912
 11
1.61646
 21
16.0824
  0
LINE
  8
0
 10
1.61646
 20
16.0824
 11
1.52028
 21
15.9797
  0
LINE
  8
0
 10
1.52028
 20
15.9797
 11
1.41759
 21
15.8835
  0
LINE
  8
0
 10
1.41759
 20
15.8835
 11
1.30882
 21
15.7943
  0
LINE
  8
0
 10
1.30882
 20
15.7943
 11
1.19447
 21
15.7123
  0
LINE
  8
0
 10
1.19447
 20
15.7123
 11
1.075
 21
15.638
  0
LINE
  8
0
 10
1.075
 20
15.638
 11
0.950912
 21
15.5717
  0
LINE
  8
0
 10
0.950912
 20
15.5717
 11
0.822769
 21
15.5137
  0
LINE
  8
0
 10
0.822769
 20
15.5137
 11
0.691086
 21
15.4641
  0
LINE
  8
0
 10
0.691086
 20
15.4641
 11
0.556458
 21
15.4232
  0
LINE
  8
0
 10
0.556458
 20
15.4232
 11
0.419434
 21
15.3913
  0
LINE
  8
0
 10
0.419434
 20
15.3913
 11
0.280624
 21
15.3684
  0
LINE
  8
0
 10
0.280624
 20
15.3684
 11
0.14061
 21
15.3546
  0
LINE
  8
0
 10
0.14061
 20
15.3546
 11
0
 21
15.35
  0
LINE
  8
0
 10
0
 20
15.35
 11
-0.14061
 21
15.3546
  0
LINE
  8
0
 10
-0.850235
 20
-12.9722
 11
-1.69684
 21
-12.8888
  0
LINE
  8
0
 10
-1.69684
 20
-12.8888
 11
-2.53616
 21
-12.7502
  0
LINE
  8
0
 10
-2.53616
 20
-12.7502
 11
-3.36464
 21
-12.557
  0
LINE
  8
0
 10
-3.36464
 20
-12.557
 11
-4.17871
 21
-12.3101
  0
LINE
  8
0
 10
-4.17871
 20
-12.3101
 11
-4.97488
 21
-12.0104
  0
LINE
  8
0
 10
-4.97488
 20
-12.0104
 11
-5.74974
 21
-11.6593
  0
LINE
  8
0
 10
-5.74974
 20
-11.6593
 11
-6.5
 21
-11.2583
  0
LINE
  8
0
 10
-6.5
 20
-11.2583
 11
-7.22241
 21
-10.8091
  0
LINE
  8
0
 10
-7.22241
 20
-10.8091
 11
-7.91389
 21
-10.3136
  0
LINE
  8
0
 10
-7.91389
 20
-10.3136
 11
-8.57149
 21
-9.77391
  0
LINE
  8
0
 10
-8.57149
 20
-9.77391
 11
-9.19238
 21
-9.19238
  0
LINE
  8
0
 10
-9.19238
 20
-9.19238
 11
-9.77391
 21
-8.57149
  0
LINE
  8
0
 10
-9.77391
 20
-8.57149
 11
-10.3136
 21
-7.91389
  0
LINE
  8
0
 10
-10.3136
 20
-7.91389
 11
-10.8091
 21
-7.22241
  0
LINE
  8
0
 10
-10.8091
 20
-7.22241
 11
-11.2583
 21
-6.5
  0
LINE
  8
0
 10
-11.2583
 20
-6.5
 11
-11.6593
 21
-5.74974
  0
LINE
  8
0
 10
-11.6593
 20
-5.74974
 11
-12.0104
 21
-4.97488
  0
LINE
  8
0
 10
-12.0104
 20
-4.97488
 11
-12.3101
 21
-4.17871
  0
LINE
  8
0
 10
-12.3101
 20
-4.17871
 11
-12.557
 21
-3.36464
  0
LINE
  8
0
 10
-12.557
 20
-3.36464
 11
-12.7502
 21
-2.53616
  0
LINE
  8
0
 10
-12.7502
 20
-2.53616
 11
-12.8888
 21
-1.69684
  0
LINE
  8
0
 10
-12.8888
 20
-1.69684
 11
-12.9722
 21
-0.850235
  0
LINE
  8
0
 10
-12.9722
 20
-0.850235
 11
-13
 21
0
  0
LINE
  8
0
 10
-13
 20
0
 11
-12.9722
 21
0.850235
  0
LINE
  8
0
 10
-12.9722
 20
0.850235
 11
-12.8888
 21
1.69684
  0
LINE
  8
0
 10
-12.8888
 20
1.69684
 11
-12.7502
 21
2.53616
  0
LINE
  8
0
 10
-12.7502
 20
2.53616
 11
-12.557
 21
3.36464
  0
LINE
  8
0
 10
-12.557
 20
3.36464
 11
-12.3101
 21
4.17871
  0
LINE
  8
0
 10
-12.3101
 20
4.17871
 11
-12.0104
 21
4.97488
  0
LINE
  8
0
 10
-12.0104
 20
4.97488
 11
-11.6593
 21
5.74974
  0
LINE
  8
0
 10
-11.6593
 20
5.74974
 11
-11.2583
 21
6.5
  0
LINE
  8
0
 10
-11.2583
 20
6.5
 11
-10.8091
 21
7.22241
  0
LINE
  8
0
 10
-10.8091
 20
7.22241
 11
-10.3136
 21
7.91389
  0
LINE
  8
0
 10
-10.3136
 20
7.91389
 11
-9.77391
 21
8.57149
  0
LINE
  8
0
 10
-9.77391
 20
8.57149
 11
-9.19238
 21
9.19238
  0
LINE
  8
0
 10
-9.19238
 20
9.19238
 11
-8.57149
 21
9.77391
  0
LINE
  8
0
 10
-8.57149
 20
9.77391
 11
-7.91389
 21
10.3136
  0
LINE
  8
0
 10
-7.91389
 20
10.3136
 11
-7.22241
 21
10.8091
  0
LINE
  8
0
 10
-7.22241
 20
10.8091
 11
-6.5
 21
11.2583
  0
LINE
  8
0
 10
-6.5
 20
11.2583
 11
-5.74974
 21
11.6593
  0
LINE
  8
0
 10
-5.74974
 20
11.6593
 11
-4.97488
 21
12.0104
  0
LINE
  8
0
 10
-4.97488
 20
12.0104
 11
-4.17871
 21
12.3101
  0
LINE
  8
0
 10
-4.17871
 20
12.3101
 11
-3.36464
 21
12.557
  0
LINE
  8
0
 10
-3.36464
 20
12.557
 11
-2.53616
 21
12.7502
  0
LINE
  8
0
 10
-2.53616
 20
12.7502
 11
-1.69684
 21
12.8888
  0
LINE
  8
0
 10
-1.69684
 20
12.8888
 11
-0.850235
 21
12.9722
  0
LINE
  8
0
 10
-0.850235
 20
12.9722
 11
0
 21
13
  0
LINE
  8
0
 10
0
 20
13
 11
0.850235
 21
12.9722
  0
LINE
  8
0
 10
0.850235
 20
12.9722
 11
1.69684
 21
12.8888
  0
LINE
  8
0
 10
1.69684
 20
12.8888
 11
2.53616
 21
12.7502
  0
LINE
  8
0
 10
2.53616
 20
12.7502
 11
3.36464
 21
12.557
  0
LINE
  8
0
 10
3.36464
 20
12.557
 11
4.17871
 21
12.3101
  0
LINE
  8
0
 10
4.17871
 20
12.3101
 11
4.97488
 21
12.0104
  0
LINE
  8
0
 10
4.97488
 20
12.0104
 11
5.74974
 21
11.6593
  0
LINE
  8
0
 10
5.74974
 20
11.6593
 11
6.5
 21
11.2583
  0
LINE
  8
0
 10
6.5
 20
11.2583
 11
7.22241
 21
10.8091
  0
LINE
  8
0
 10
7.22241
 20
10.8091
 11
7.91389
 21
10.3136
  0
LINE
  8
0
 10
7.91389
 20
10.3136
 11
8.57149
 21
9.77391
  0
LINE
  8
0
 10
8.57149
 20
9.77391
 11
9.19238
 21
9.19238
  0
LINE
  8
0
 10
9.19238
 20
9.19238
 11
9.77391
 21
8.57149
  0
LINE
  8
0
 10
9.77391
 20
8.57149
 11
10.3136
 21
7.91389
  0
LINE
  8
0
 10
10.3136
 20
7.91389
 11
10.8091
 21
7.22241
  0
LINE
  8
0
 10
10.8091
 20
7.22241
 11
11.2583
 21
6.5
  0
LINE
  8
0
 10
11.2583
 20
6.5
 11
11.6593
 21
5.74974
  0
LINE
  8
0
 10
11.6593
 20
5.74974
 11
12.0104
 21
4.97488
  0
LINE
  8
0
 10
12.0104
 20
4.97488
 11
12.3101
 21
4.17871
  0
LINE
  8
0
 10
12.3101
 20
4.17871
 11
12.557
 21
3.36464
  0
LINE
  8
0
 10
12.557
 20
3.36464
 11
12.7502
 21
2.53616
  0
LINE
  8
0
 10
12.7502
 20
2.53616
 11
12.8888
 21
1.69684
  0
LINE
  8
0
 10
12.8888
 20
1.69684
 11
12.9722
 21
0.850235
  0
LINE
  8
0
 10
12.9722
 20
0.850235
 11
13
 21
0
  0
LINE
  8
0
 10
13
 20
0
 11
12.9722
 21
-0.850235
  0
LINE
  8
0
 10
12.9722
 20
-0.850235
 11
12.8888
 21
-1.69684
  0
LINE
  8
0
 10
12.8888
 20
-1.69684
 11
12.7502
 21
-2.53616
  0
LINE
  8
0
 10
12.7502
 20
-2.53616
 11
12.557
 21
-3.36464
  0
LINE
  8
0
 10
12.557
 20
-3.36464
 11
12.3101
 21
-4.17871
  0
LINE
  8
0
 10
12.3101
 20
-4.17871
 11
12.0104
 21
-4.97488
  0
LINE
  8
0
 10
12.0104
 20
-4.97488
 11
11.6593
 21
-5.74974
  0
LINE
  8
0
 10
11.6593
 20
-5.74974
 11
11.2583
 21
-6.5
  0
LINE
  8
0
 10
11.2583
 20
-6.5
 11
10.8091
 21
-7.22241
  0
LINE
  8
0
 10
10.8091
 20
-7.22241
 11
10.3136
 21
-7.91389
  0
LINE
  8
0
 10
10.3136
 20
-7.91389
 11
9.77391
 21
-8.57149
  0
LINE
  8
0
 10
9.77391
 20
-8.57149
 11
9.19238
 21
-9.19238
  0
LINE
  8
0
 10
9.19238
 20
-9.19238
 11
8.57149
 21
-9.77391
  0
LINE
  8
0
 10
8.57149
 20
-9.77391
 11
7.91389
 21
-10.3136
  0
LINE
  8
0
 10
7.91389
 20
-10.3136
 11
7.22241
 21
-10.8091
  0
LINE
  8
0
 10
7.22241
 20
-10.8091
 11
6.5
 21
-11.2583
  0
LINE
  8
0
 10
6.5
 20
-11.2583
 11
5.74974
 21
-11.6593
  0
LINE
  8
0
 10
5.74974
 20
-11.6593
 11
4.97488
 21
-12.0104
  0
LINE
  8
0
 10
4.97488
 20
-12.0104
 11
4.17871
 21
-12.3101
  0
LINE
  8
0
 10
4.17871
 20
-12.3101
 11
3.36464
 21
-12.557
  0
LINE
  8
0
 10
3.36464
 20
-12.557
 11
2.53616
 21
-12.7502
  0
LINE
  8
0
 10
2.53616
 20
-12.7502
 11
1.69684
 21
-12.8888
  0
LINE
  8
0
 10
1.69684
 20
-12.8888
 11
0.850235
 21
-12.9722
  0
LINE
  8
0
 10
0.850235
 20
-12.9722
 11
0
 21
-13
  0
LINE
  8
0
 10
0
 20
-13
 11
-0.850235
 21
-12.9722
  0
LINE
  8
0
 10
17.3594
 20
-2.14539
 11
17.2194
 21
-2.13159
  0
LINE
  8
0
 10
17.2194
 20
-2.13159
 11
17.0806
 21
-2.10867
  0
LINE
  8
0
 10
17.0806
 20
-2.10867
 11
16.9435
 21
-2.07674
  0
LINE
  8
0
 10
16.9435
 20
-2.07674
 11
16.8089
 21
-2.03589
  0
LINE
  8
0
 10
16.8089
 20
-2.03589
 11
16.6772
 21
-1.98633
  0
LINE
  8
0
 10
16.6772
 20
-1.98633
 11
16.5491
 21
-1.92827
  0
LINE
  8
0
 10
16.5491
 20
-1.92827
 11
16.425
 21
-1.86195
  0
LINE
  8
0
 10
16.425
 20
-1.86195
 11
16.3055
 21
-1.78766
  0
LINE
  8
0
 10
16.3055
 20
-1.78766
 11
16.1912
 21
-1.7057
  0
LINE
  8
0
 10
16.1912
 20
-1.7057
 11
16.0824
 21
-1.61646
  0
LINE
  8
0
 10
16.0824
 20
-1.61646
 11
15.9797
 21
-1.52028
  0
LINE
  8
0
 10
15.9797
 20
-1.52028
 11
15.8835
 21
-1.41759
  0
LINE
  8
0
 10
15.8835
 20
-1.41759
 11
15.7943
 21
-1.30882
  0
LINE
  8
0
 10
15.7943
 20
-1.30882
 11
15.7123
 21
-1.19447
  0
LINE
  8
0
 10
15.7123
 20
-1.19447
 11
15.638
 21
-1.075
  0
LINE
  8
0
 10
15.638
 20
-1.075
 11
15.5717
 21
-0.950912
  0
LINE
  8
0
 10
15.5717
 20
-0.950912
 11
15.5137
 21
-0.822769
  0
LINE
  8
0
 10
15.5137
 20
-0.822769
 11
15.4641
 21
-0.691086
  0
LINE
  8
0
 10
15.4641
 20
-0.691086
 11
15.4232
 21
-0.556458
  0
LINE
  8
0
 10
15.4232
 20
-0.556458
 11
15.3913
 21
-0.419434
  0
LINE
  8
0
 10
15.3913
 20
-0.419434
 11
15.3684
 21
-0.280624
  0
LINE
  8
0
 10
15.3684
 20
-0.280624
 11
15.3546
 21
-0.14061
  0
LINE
  8
0
 10
15.3546
 20
-0.14061
 11
15.35
 21
0
  0
LINE
  8
0
 10
15.35
 20
0
 11
15.3546
 21
0.14061
  0
LINE
  8
0
 10
15.3546
 20
0.14061
 11
15.3684
 21
0.280624
  0
LINE
  8
0
 10
15.3684
 20
0.280624
 11
15.3913
 21
0.419434
  0
LINE
  8
0
 10
15.3913
 20
0.419434
 11
15.4232
 21
0.556458
  0
LINE
  8
0
 10
15.4232
 20
0.556458
 11
15.4641
 21
0.691086
  0
LINE
  8
0
 10
15.4641
 20
0.691086
 11
15.5137
 21
0.822769
  0
LINE
  8
0
 10
15.5137
 20
0.822769
 11
15.5717
 21
0.950912
  0
LINE
  8
0
 10
15.5717
 20
0.950912
 11
15.638
 21
1.075
  0
LINE
  8
0
 10
15.638
 20
1.075
 11
15.7123
 21
1.19447
  0
LINE
  8
0
 10
15.7123
 20
1.19447
 11
15.7943
 21
1.30882
  0
LINE
  8
0
 10
15.7943
 20
1.30882
 11
15.8835
 21
1.41759
  0
LINE
  8
0
 10
15.8835
 20
1.41759
 11
15.9797
 21
1.52028
  0
LINE
  8
0
 10
15.9797
 20
1.52028
 11
16.0824
 21
1.61646
  0
LINE
  8
0
 10
16.0824
 20
1.61646
 11
16.1912
 21
1.7057
  0
LINE
  8
0
 10
16.1912
 20
1.7057
 11
16.3055
 21
1.78766
  0
LINE
  8
0
 10
16.3055
 20
1.78766
 11
16.425
 21
1.86195
  0
LINE
  8
0
 10
16.425
 20
1.86195
 11
16.5491
 21
1.92827
  0
LINE
  8
0
 10
16.5491
 20
1.92827
 11
16.6772
 21
1.98633
  0
LINE
  8
0
 10
16.6772
 20
1.98633
 11
16.8089
 21
2.03589
  0
LINE
  8
0
 10
16.8089
 20
2.03589
 11
16.9435
 21
2.07674
  0
LINE
  8
0
 10
16.9435
 20
2.07674
 11
17.0806
 21
2.10867
  0
LINE
  8
0
 10
17.0806
 20
2.10867
 11
17.2194
 21
2.13159
  0
LINE
  8
0
 10
17.2194
 20
2.13159
 11
17.3594
 21
2.14539
  0
LINE
  8
0
 10
17.3594
 20
2.14539
 11
17.5
 21
2.14999
  0
LINE
  8
0
 10
17.5
 20
2.14999
 11
17.6406
 21
2.14539
  0
LINE
  8
0
 10
17.6406
 20
2.14539
 11
17.7806
 21
2.13159
  0
LINE
  8
0
 10
17.7806
 20
2.13159
 11
17.9194
 21
2.10867
  0
LINE
  8
0
 10
17.9194
 20
2.10867
 11
18.0565
 21
2.07674
  0
LINE
  8
0
 10
18.0565
 20
2.07674
 11
18.1911
 21
2.03589
  0
LINE
  8
0
 10
18.1911
 20
2.03589
 11
18.3228
 21
1.98633
  0
LINE
  8
0
 10
18.3228
 20
1.98633
 11
18.4509
 21
1.92827
  0
LINE
  8
0
 10
18.4509
 20
1.92827
 11
18.575
 21
1.86195
  0
LINE
  8
0
 10
18.575
 20
1.86195
 11
18.6945
 21
1.78766
  0
LINE
  8
0
 10
18.6945
 20
1.78766
 11
18.8088
 21
1.7057
  0
LINE
  8
0
 10
18.8088
 20
1.7057
 11
18.9176
 21
1.61646
  0
LINE
  8
0
 10
18.9176
 20
1.61646
 11
19.0203
 21
1.52028
  0
LINE
  8
0
 10
19.0203
 20
1.52028
 11
19.1165
 21
1.41759
  0
LINE
  8
0
 10
19.1165
 20
1.41759
 11
19.2057
 21
1.30882
  0
LINE
  8
0
 10
19.2057
 20
1.30882
 11
19.2877
 21
1.19447
  0
LINE
  8
0
 10
19.2877
 20
1.19447
 11
19.362
 21
1.075
  0
LINE
  8
0
 10
19.362
 20
1.075
 11
19.4283
 21
0.950912
  0
LINE
  8
0
 10
19.4283
 20
0.950912
 11
19.4863
 21
0.822769
  0
LINE
  8
0
 10
19.4863
 20
0.822769
 11
19.5359
 21
0.691086
  0
LINE
  8
0
 10
19.5359
 20
0.691086
 11
19.5767
 21
0.556458
  0
LINE
  8
0
 10
19.5767
 20
0.556458
 11
19.6087
 21
0.419434
  0
LINE
  8
0
 10
19.6087
 20
0.419434
 11
19.6316
 21
0.280624
  0
LINE
  8
0
 10
19.6316
 20
0.280624
 11
19.6454
 21
0.14061
  0
LINE
  8
0
 10
19.6454
 20
0.14061
 11
19.65
 21
0
  0
LINE
  8
0
 10
19.65
 20
0
 11
19.6454
 21
-0.14061
  0
LINE
  8
0
 10
19.6454
 20
-0.14061
 11
19.6316
 21
-0.280624
  0
LINE
  8
0
 10
19.6316
 20
-0.280624
 11
19.6087
 21
-0.419434
  0
LINE
  8
0
 10
19.6087
 20
-0.419434
 11
19.5767
 21
-0.556458
  0
LINE
  8
0
 10
19.5767
 20
-0.556458
 11
19.5359
 21
-0.691086
  0
LINE
  8
0
 10
19.5359
 20
-0.691086
 11
19.4863
 21
-0.822769
  0
LINE
  8
0
 10
19.4863
 20
-0.822769
 11
19.4283
 21
-0.950912
  0
LINE
  8
0
 10
19.4283
 20
-0.950912
 11
19.362
 21
-1.075
  0
LINE
  8
0
 10
19.362
 20
-1.075
 11
19.2877
 21
-1.19447
  0
LINE
  8
0
 10
19.2877
 20
-1.19447
 11
19.2057
 21
-1.30882
  0
LINE
  8
0
 10
19.2057
 20
-1.30882
 11
19.1165
 21
-1.41759
  0
LINE
  8
0
 10
19.1165
 20
-1.41759
 11
19.0203
 21
-1.52028
  0
LINE
  8
0
 10
19.0203
 20
-1.52028
 11
18.9176
 21
-1.61646
  0
LINE
  8
0
 10
18.9176
 20
-1.61646
 11
18.8088
 21
-1.7057
  0
LINE
  8
0
 10
18.8088
 20
-1.7057
 11
18.6945
 21
-1.78766
  0
LINE
  8
0
 10
18.6945
 20
-1.78766
 11
18.575
 21
-1.86195
  0
LINE
  8
0
 10
18.575
 20
-1.86195
 11
18.4509
 21
-1.92827
  0
LINE
  8
0
 10
18.4509
 20
-1.92827
 11
18.3228
 21
-1.98633
  0
LINE
  8
0
 10
18.3228
 20
-1.98633
 11
18.1911
 21
-2.03589
  0
LINE
  8
0
 10
18.1911
 20
-2.03589
 11
18.0565
 21
-2.07674
  0
LINE
  8
0
 10
18.0565
 20
-2.07674
 11
17.9194
 21
-2.10867
  0
LINE
  8
0
 10
17.9194
 20
-2.10867
 11
17.7806
 21
-2.13159
  0
LINE
  8
0
 10
17.7806
 20
-2.13159
 11
17.6406
 21
-2.14539
  0
LINE
  8
0
 10
17.6406
 20
-2.14539
 11
17.5
 21
-2.14999
  0
LINE
  8
0
 10
17.5
 20
-2.14999
 11
17.3594
 21
-2.14539
  0
LINE
  8
0
 10
-17.6406
 20
-2.14539
 11
-17.7806
 21
-2.13159
  0
LINE
  8
0
 10
-17.7806
 20
-2.13159
 11
-17.9194
 21
-2.10867
  0
LINE
  8
0
 10
-17.9194
 20
-2.10867
 11
-18.0565
 21
-2.07674
  0
LINE
  8
0
 10
-18.0565
 20
-2.07674
 11
-18.1911
 21
-2.03589
  0
LINE
  8
0
 10
-18.1911
 20
-2.03589
 11
-18.3228
 21
-1.98633
  0
LINE
  8
0
 10
-18.3228
 20
-1.98633
 11
-18.4509
 21
-1.92827
  0
LINE
  8
0
 10
-18.4509
 20
-1.92827
 11
-18.575
 21
-1.86195
  0
LINE
  8
0
 10
-18.575
 20
-1.86195
 11
-18.6945
 21
-1.78766
  0
LINE
  8
0
 10
-18.6945
 20
-1.78766
 11
-18.8088
 21
-1.7057
  0
LINE
  8
0
 10
-18.8088
 20
-1.7057
 11
-18.9176
 21
-1.61646
  0
LINE
  8
0
 10
-18.9176
 20
-1.61646
 11
-19.0203
 21
-1.52028
  0
LINE
  8
0
 10
-19.0203
 20
-1.52028
 11
-19.1165
 21
-1.41759
  0
LINE
  8
0
 10
-19.1165
 20
-1.41759
 11
-19.2057
 21
-1.30882
  0
LINE
  8
0
 10
-19.2057
 20
-1.30882
 11
-19.2877
 21
-1.19447
  0
LINE
  8
0
 10
-19.2877
 20
-1.19447
 11
-19.362
 21
-1.075
  0
LINE
  8
0
 10
-19.362
 20
-1.075
 11
-19.4283
 21
-0.950912
  0
LINE
  8
0
 10
-19.4283
 20
-0.950912
 11
-19.4863
 21
-0.822769
  0
LINE
  8
0
 10
-19.4863
 20
-0.822769
 11
-19.5359
 21
-0.691086
  0
LINE
  8
0
 10
-19.5359
 20
-0.691086
 11
-19.5767
 21
-0.556458
  0
LINE
  8
0
 10
-19.5767
 20
-0.556458
 11
-19.6087
 21
-0.419434
  0
LINE
  8
0
 10
-19.6087
 20
-0.419434
 11
-19.6316
 21
-0.280624
  0
LINE
  8
0
 10
-19.6316
 20
-0.280624
 11
-19.6454
 21
-0.14061
  0
LINE
  8
0
 10
-19.6454
 20
-0.14061
 11
-19.65
 21
0
  0
LINE
  8
0
 10
-19.65
 20
0
 11
-19.6454
 21
0.14061
  0
LINE
  8
0
 10
-19.6454
 20
0.14061
 11
-19.6316
 21
0.280624
  0
LINE
  8
0
 10
-19.6316
 20
0.280624
 11
-19.6087
 21
0.419434
  0
LINE
  8
0
 10
-19.6087
 20
0.419434
 11
-19.5767
 21
0.556458
  0
LINE
  8
0
 10
-19.5767
 20
0.556458
 11
-19.5359
 21
0.691086
  0
LINE
  8
0
 10
-19.5359
 20
0.691086
 11
-19.4863
 21
0.822769
  0
LINE
  8
0
 10
-19.4863
 20
0.822769
 11
-19.4283
 21
0.950912
  0
LINE
  8
0
 10
-19.4283
 20
0.950912
 11
-19.362
 21
1.075
  0
LINE
  8
0
 10
-19.362
 20
1.075
 11
-19.2877
 21
1.19447
  0
LINE
  8
0
 10
-19.2877
 20
1.19447
 11
-19.2057
 21
1.30882
  0
LINE
  8
0
 10
-19.2057
 20
1.30882
 11
-19.1165
 21
1.41759
  0
LINE
  8
0
 10
-19.1165
 20
1.41759
 11
-19.0203
 21
1.52028
  0
LINE
  8
0
 10
-19.0203
 20
1.52028
 11
-18.9176
 21
1.61646
  0
LINE
  8
0
 10
-18.9176
 20
1.61646
 11
-18.8088
 21
1.7057
  0
LINE
  8
0
 10
-18.8088
 20
1.7057
 11
-18.6945
 21
1.78766
  0
LINE
  8
0
 10
-18.6945
 20
1.78766
 11
-18.575
 21
1.86195
  0
LINE
  8
0
 10
-18.575
 20
1.86195
 11
-18.4509
 21
1.92827
  0
LINE
  8
0
 10
-18.4509
 20
1.92827
 11
-18.3228
 21
1.98633
  0
LINE
  8
0
 10
-18.3228
 20
1.98633
 11
-18.1911
 21
2.03589
  0
LINE
  8
0
 10
-18.1911
 20
2.03589
 11
-18.0565
 21
2.07674
  0
LINE
  8
0
 10
-18.0565
 20
2.07674
 11
-17.9194
 21
2.10867
  0
LINE
  8
0
 10
-17.9194
 20
2.10867
 11
-17.7806
 21
2.13159
  0
LINE
  8
0
 10
-17.7806
 20
2.13159
 11
-17.6406
 21
2.14539
  0
LINE
  8
0
 10
-17.6406
 20
2.14539
 11
-17.5
 21
2.14999
  0
LINE
  8
0
 10
-17.5
 20
2.14999
 11
-17.3594
 21
2.14539
  0
LINE
  8
0
 10
-17.3594
 20
2.14539
 11
-17.2194
 21
2.13159
  0
LINE
  8
0
 10
-17.2194
 20
2.13159
 11
-17.0806
 21
2.10867
  0
LINE
  8
0
 10
-17.0806
 20
2.10867
 11
-16.9435
 21
2.07674
  0
LINE
  8
0
 10
-16.9435
 20
2.07674
 11
-16.8089
 21
2.03589
  0
LINE
  8
0
 10
-16.8089
 20
2.03589
 11
-16.6772
 21
1.98633
  0
LINE
  8
0
 10
-16.6772
 20
1.98633
 11
-16.5491
 21
1.92827
  0
LINE
  8
0
 10
-16.5491
 20
1.92827
 11
-16.425
 21
1.86195
  0
LINE
  8
0
 10
-16.425
 20
1.86195
 11
-16.3055
 21
1.78766
  0
LINE
  8
0
 10
-16.3055
 20
1.78766
 11
-16.1912
 21
1.7057
  0
LINE
  8
0
 10
-16.1912
 20
1.7057
 11
-16.0824
 21
1.61646
  0
LINE
  8
0
 10
-16.0824
 20
1.61646
 11
-15.9797
 21
1.52028
  0
LINE
  8
0
 10
-15.9797
 20
1.52028
 11
-15.8835
 21
1.41759
  0
LINE
  8
0
 10
-15.8835
 20
1.41759
 11
-15.7943
 21
1.30882
  0
LINE
  8
0
 10
-15.7943
 20
1.30882
 11
-15.7123
 21
1.19447
  0
LINE
  8
0
 10
-15.7123
 20
1.19447
 11
-15.638
 21
1.075
  0
LINE
  8
0
 10
-15.638
 20
1.075
 11
-15.5717
 21
0.950912
  0
LINE
  8
0
 10
-15.5717
 20
0.950912
 11
-15.5137
 21
0.822769
  0
LINE
  8
0
 10
-15.5137
 20
0.822769
 11
-15.4641
 21
0.691086
  0
LINE
  8
0
 10
-15.4641
 20
0.691086
 11
-15.4232
 21
0.556458
  0
LINE
  8
0
 10
-15.4232
 20
0.556458
 11
-15.3913
 21
0.419434
  0
LINE
  8
0
 10
-15.3913
 20
0.419434
 11
-15.3684
 21
0.280624
  0
LINE
  8
0
 10
-15.3684
 20
0.280624
 11
-15.3546
 21
0.14061
  0
LINE
  8
0
 10
-15.3546
 20
0.14061
 11
-15.35
 21
0
  0
LINE
  8
0
 10
-15.35
 20
0
 11
-15.3546
 21
-0.14061
  0
LINE
  8
0
 10
-15.3546
 20
-0.14061
 11
-15.3684
 21
-0.280624
  0
LINE
  8
0
 10
-15.3684
 20
-0.280624
 11
-15.3913
 21
-0.419434
  0
LINE
  8
0
 10
-15.3913
 20
-0.419434
 11
-15.4232
 21
-0.556458
  0
LINE
  8
0
 10
-15.4232
 20
-0.556458
 11
-15.4641
 21
-0.691086
  0
LINE
  8
0
 10
-15.4641
 20
-0.691086
 11
-15.5137
 21
-0.822769
  0
LINE
  8
0
 10
-15.5137
 20
-0.822769
 11
-15.5717
 21
-0.950912
  0
LINE
  8
0
 10
-15.5717
 20
-0.950912
 11
-15.638
 21
-1.075
  0
LINE
  8
0
 10
-15.638
 20
-1.075
 11
-15.7123
 21
-1.19447
  0
LINE
  8
0
 10
-15.7123
 20
-1.19447
 11
-15.7943
 21
-1.30882
  0
LINE
  8
0
 10
-15.7943
 20
-1.30882
 11
-15.8835
 21
-1.41759
  0
LINE
  8
0
 10
-15.8835
 20
-1.41759
 11
-15.9797
 21
-1.52028
  0
LINE
  8
0
 10
-15.9797
 20
-1.52028
 11
-16.0824
 21
-1.61646
  0
LINE
  8
0
 10
-16.0824
 20
-1.61646
 11
-16.1912
 21
-1.7057
  0
LINE
  8
0
 10
-16.1912
 20
-1.7057
 11
-16.3055
 21
-1.78766
  0
LINE
  8
0
 10
-16.3055
 20
-1.78766
 11
-16.425
 21
-1.86195
  0
LINE
  8
0
 10
-16.425
 20
-1.86195
 11
-16.5491
 21
-1.92827
  0
LINE
  8
0
 10
-16.5491
 20
-1.92827
 11
-16.6772
 21
-1.98633
  0
LINE
  8
0
 10
-16.6772
 20
-1.98633
 11
-16.8089
 21
-2.03589
  0
LINE
  8
0
 10
-16.8089
 20
-2.03589
 11
-16.9435
 21
-2.07674
  0
LINE
  8
0
 10
-16.9435
 20
-2.07674
 11
-17.0806
 21
-2.10867
  0
LINE
  8
0
 10
-17.0806
 20
-2.10867
 11
-17.2194
 21
-2.13159
  0
LINE
  8
0
 10
-17.2194
 20
-2.13159
 11
-17.3594
 21
-2.14539
  0
LINE
  8
0
 10
-17.3594
 20
-2.14539
 11
-17.5
 21
-2.14999
  0
LINE
  8
0
 10
-17.5
 20
-2.14999
 11
-17.6406
 21
-2.14539
  0
LINE
  8
0
 10
-0.14061
 20
-19.6454
 11
-0.280624
 21
-19.6316
  0
LINE
  8
0
 10
-0.280624
 20
-19.6316
 11
-0.419434
 21
-19.6087
  0
LINE
  8
0
 10
-0.419434
 20
-19.6087
 11
-0.556458
 21
-19.5767
  0
LINE
  8
0
 10
-0.556458
 20
-19.5767
 11
-0.691086
 21
-19.5359
  0
LINE
  8
0
 10
-0.691086
 20
-19.5359
 11
-0.822769
 21
-19.4863
  0
LINE
  8
0
 10
-0.822769
 20
-19.4863
 11
-0.950912
 21
-19.4283
  0
LINE
  8
0
 10
-0.950912
 20
-19.4283
 11
-1.075
 21
-19.362
  0
LINE
  8
0
 10
-1.075
 20
-19.362
 11
-1.19447
 21
-19.2877
  0
LINE
  8
0
 10
-1.19447
 20
-19.2877
 11
-1.30882
 21
-19.2057
  0
LINE
  8
0
 10
-1.30882
 20
-19.2057
 11
-1.41759
 21
-19.1165
  0
LINE
  8
0
 10
-1.41759
 20
-19.1165
 11
-1.52028
 21
-19.0203
  0
LINE
  8
0
 10
-1.52028
 20
-19.0203
 11
-1.61646
 21
-18.9176
  0
LINE
  8
0
 10
-1.61646
 20
-18.9176
 11
-1.7057
 21
-18.8088
  0
LINE
  8
0
 10
-1.7057
 20
-18.8088
 11
-1.78766
 21
-18.6945
  0
LINE
  8
0
 10
-1.78766
 20
-18.6945
 11
-1.86195
 21
-18.575
  0
LINE
  8
0
 10
-1.86195
 20
-18.575
 11
-1.92827
 21
-18.4509
  0
LINE
  8
0
 10
-1.92827
 20
-18.4509
 11
-1.98633
 21
-18.3228
  0
LINE
  8
0
 10
-1.98633
 20
-18.3228
 11
-2.03589
 21
-18.1911
  0
LINE
  8
0
 10
-2.03589
 20
-18.1911
 11
-2.07674
 21
-18.0565
  0
LINE
  8
0
 10
-2.07674
 20
-18.0565
 11
-2.10867
 21
-17.9194
  0
LINE
  8
0
 10
-2.10867
 20
-17.9194
 11
-2.13159
 21
-17.7806
  0
LINE
  8
0
 10
-2.13159
 20
-17.7806
 11
-2.14539
 21
-17.6406
  0
LINE
  8
0
 10
-2.14539
 20
-17.6406
 11
-2.14999
 21
-17.5
  0
LINE
  8
0
 10
-2.14999
 20
-17.5
 11
-2.14539
 21
-17.3594
  0
LINE
  8
0
 10
-2.14539
 20
-17.3594
 11
-2.13159
 21
-17.2194
  0
LINE
  8
0
 10
-2.13159
 20
-17.2194
 11
-2.10867
 21
-17.0806
  0
LINE
  8
0
 10
-2.10867
 20
-17.0806
 11
-2.07674
 21
-16.9435
  0
LINE
  8
0
 10
-2.07674
 20
-16.9435
 11
-2.03589
 21
-16.8089
  0
LINE
  8
0
 10
-2.03589
 20
-16.8089
 11
-1.98633
 21
-16.6772
  0
LINE
  8
0
 10
-1.98633
 20
-16.6772
 11
-1.92827
 21
-16.5491
  0
LINE
  8
0
 10
-1.92827
 20
-16.5491
 11
-1.86195
 21
-16.425
  0
LINE
  8
0
 10
-1.86195
 20
-16.425
 11
-1.78766
 21
-16.3055
  0
LINE
  8
0
 10
-1.78766
 20
-16.3055
 11
-1.7057
 21
-16.1912
  0
LINE
  8
0
 10
-1.7057
 20
-16.1912
 11
-1.61646
 21
-16.0824
  0
LINE
  8
0
 10
-1.61646
 20
-16.0824
 11
-1.52028
 21
-15.9797
  0
LINE
  8
0
 10
-1.52028
 20
-15.9797
 11
-1.41759
 21
-15.8835
  0
LINE
  8
0
 10
-1.41759
 20
-15.8835
 11
-1.30882
 21
-15.7943
  0
LINE
  8
0
 10
-1.30882
 20
-15.7943
 11
-1.19447
 21
-15.7123
  0
LINE
  8
0
 10
-1.19447
 20
-15.7123
 11
-1.075
 21
-15.638
  0
LINE
  8
0
 10
-1.075
 20
-15.638
 11
-0.950912
 21
-15.5717
  0
LINE
  8
0
 10
-0.950912
 20
-15.5717
 11
-0.822769
 21
-15.5137
  0
LINE
  8
0
 10
-0.822769
 20
-15.5137
 11
-0.691086
 21
-15.4641
  0
LINE
  8
0
 10
-0.691086
 20
-15.4641
 11
-0.556458
 21
-15.4232
  0
LINE
  8
0
 10
-0.556458
 20
-15.4232
 11
-0.419434
 21
-15.3913
  0
LINE
  8
0
 10
-0.419434
 20
-15.3913
 11
-0.280624
 21
-15.3684
  0
LINE
  8
0
 10
-0.280624
 20
-15.3684
 11
-0.14061
 21
-15.3546
  0
LINE
  8
0
 10
-0.14061
 20
-15.3546
 11
0
 21
-15.35
  0
LINE
  8
0
 10
0
 20
-15.35
 11
0.14061
 21
-15.3546
  0
LINE
  8
0
 10
0.14061
 20
-15.3546
 11
0.280624
 21
-15.3684
  0
LINE
  8
0
 10
0.280624
 20
-15.3684
 11
0.419434
 21
-15.3913
  0
LINE
  8
0
 10
0.419434
 20
-15.3913
 11
0.556458
 21
-15.4232
  0
LINE
  8
0
 10
0.556458
 20
-15.4232
 11
0.691086
 21
-15.4641
  0
LINE
  8
0
 10
0.691086
 20
-15.4641
 11
0.822769
 21
-15.5137
  0
LINE
  8
0
 10
0.822769
 20
-15.5137
 11
0.950912
 21
-15.5717
  0
LINE
  8
0
 10
0.950912
 20
-15.5717
 11
1.075
 21
-15.638
  0
LINE
  8
0
 10
1.075
 20
-15.638
 11
1.19447
 21
-15.7123
  0
LINE
  8
0
 10
1.19447
 20
-15.7123
 11
1.30882
 21
-15.7943
  0
LINE
  8
0
 10
1.30882
 20
-15.7943
 11
1.41759
 21
-15.8835
  0
LINE
  8
0
 10
1.41759
 20
-15.8835
 11
1.52028
 21
-15.9797
  0
LINE
  8
0
 10
1.52028
 20
-15.9797
 11
1.61646
 21
-16.0824
  0
LINE
  8
0
 10
1.61646
 20
-16.0824
 11
1.7057
 21
-16.1912
  0
LINE
  8
0
 10
1.7057
 20
-16.1912
 11
1.78766
 21
-16.3055
  0
LINE
  8
0
 10
1.78766
 20
-16.3055
 11
1.86195
 21
-16.425
  0
LINE
  8
0
 10
1.86195
 20
-16.425
 11
1.92827
 21
-16.5491
  0
LINE
  8
0
 10
1.92827
 20
-16.5491
 11
1.98633
 21
-16.6772
  0
LINE
  8
0
 10
1.98633
 20
-16.6772
 11
2.03589
 21
-16.8089
  0
LINE
  8
0
 10
2.03589
 20
-16.8089
 11
2.07674
 21
-16.9435
  0
LINE
  8
0
 10
2.07674
 20
-16.9435
 11
2.10867
 21
-17.0806
  0
LINE
  8
0
 10
2.10867
 20
-17.0806
 11
2.13159
 21
-17.2194
  0
LINE
  8
0
 10
2.13159
 20
-17.2194
 11
2.14539
 21
-17.3594
  0
LINE
  8
0
 10
2.14539
 20
-17.3594
 11
2.14999
 21
-17.5
  0
LINE
  8
0
 10
2.14999
 20
-17.5
 11
2.14539
 21
-17.6406
  0
LINE
  8
0
 10
2.14539
 20
-17.6406
 11
2.13159
 21
-17.7806
  0
LINE
  8
0
 10
2.13159
 20
-17.7806
 11
2.10867
 21
-17.9194
  0
LINE
  8
0
 10
2.10867
 20
-17.9194
 11
2.07674
 21
-18.0565
  0
LINE
  8
0
 10
2.07674
 20
-18.0565
 11
2.03589
 21
-18.1911
  0
LINE
  8
0
 10
2.03589
 20
-18.1911
 11
1.98633
 21
-18.3228
  0
LINE
  8
0
 10
1.98633
 20
-18.3228
 11
1.92827
 21
-18.4509
  0
LINE
  8
0
 10
1.92827
 20
-18.4509
 11
1.86195
 21
-18.575
  0
LINE
  8
0
 10
1.86195
 20
-18.575
 11
1.78766
 21
-18.6945
  0
LINE
  8
0
 10
1.78766
 20
-18.6945
 11
1.7057
 21
-18.8088
  0
LINE
  8
0
 10
1.7057
 20
-18.8088
 11
1.61646
 21
-18.9176
  0
LINE
  8
0
 10
1.61646
 20
-18.9176
 11
1.52028
 21
-19.0203
  0
LINE
  8
0
 10
1.52028
 20
-19.0203
 11
1.41759
 21
-19.1165
  0
LINE
  8
0
 10
1.41759
 20
-19.1165
 11
1.30882
 21
-19.2057
  0
LINE
  8
0
 10
1.30882
 20
-19.2057
 11
1.19447
 21
-19.2877
  0
LINE
  8
0
 10
1.19447
 20
-19.2877
 11
1.075
 21
-19.362
  0
LINE
  8
0
 10
1.075
 20
-19.362
 11
0.950912
 21
-19.4283
  0
LINE
  8
0
 10
0.950912
 20
-19.4283
 11
0.822769
 21
-19.4863
  0
LINE
  8
0
 10
0.822769
 20
-19.4863
 11
0.691086
 21
-19.5359
  0
LINE
  8
0
 10
0.691086
 20
-19.5359
 11
0.556458
 21
-19.5767
  0
LINE
  8
0
 10
0.556458
 20
-19.5767
 11
0.419434
 21
-19.6087
  0
LINE
  8
0
 10
0.419434
 20
-19.6087
 11
0.280624
 21
-19.6316
  0
LINE
  8
0
 10
0.280624
 20
-19.6316
 11
0.14061
 21
-19.6454
  0
LINE
  8
0
 10
0.14061
 20
-19.6454
 11
0
 21
-19.65
  0
LINE
  8
0
 10
0
 20
-19.65
 11
-0.14061
 21
-19.6454
  0
LINE
  8
0
 10
-19.2063
 20
-20.8381
 11
-19.3203
 21
-20.8269
  0
LINE
  8
0
 10
-19.3203
 20
-20.8269
 11
-19.4333
 21
-20.8082
  0
LINE
  8
0
 10
-19.4333
 20
-20.8082
 11
-19.5448
 21
-20.7822
  0
LINE
  8
0
 10
-19.5448
 20
-20.7822
 11
-19.6544
 21
-20.749
  0
LINE
  8
0
 10
-19.6544
 20
-20.749
 11
-19.7616
 21
-20.7087
  0
LINE
  8
0
 10
-19.7616
 20
-20.7087
 11
-19.8659
 21
-20.6614
  0
LINE
  8
0
 10
-19.8659
 20
-20.6614
 11
-19.9669
 21
-20.6074
  0
LINE
  8
0
 10
-19.9669
 20
-20.6074
 11
-20.0641
 21
-20.547
  0
LINE
  8
0
 10
-20.0641
 20
-20.547
 11
-20.1572
 21
-20.4802
  0
LINE
  8
0
 10
-20.1572
 20
-20.4802
 11
-20.2457
 21
-20.4076
  0
LINE
  8
0
 10
-20.2457
 20
-20.4076
 11
-20.3293
 21
-20.3293
  0
LINE
  8
0
 10
-20.3293
 20
-20.3293
 11
-20.4076
 21
-20.2457
  0
LINE
  8
0
 10
-20.4076
 20
-20.2457
 11
-20.4802
 21
-20.1572
  0
LINE
  8
0
 10
-20.4802
 20
-20.1572
 11
-20.547
 21
-20.0641
  0
LINE
  8
0
 10
-20.547
 20
-20.0641
 11
-20.6074
 21
-19.9669
  0
LINE
  8
0
 10
-20.6074
 20
-19.9669
 11
-20.6614
 21
-19.8659
  0
LINE
  8
0
 10
-20.6614
 20
-19.8659
 11
-20.7087
 21
-19.7616
  0
LINE
  8
0
 10
-20.7087
 20
-19.7616
 11
-20.749
 21
-19.6544
  0
LINE
  8
0
 10
-20.749
 20
-19.6544
 11
-20.7822
 21
-19.5448
  0
LINE
  8
0
 10
-20.7822
 20
-19.5448
 11
-20.8082
 21
-19.4333
  0
LINE
  8
0
 10
-20.8082
 20
-19.4333
 11
-20.8269
 21
-19.3203
  0
LINE
  8
0
 10
-20.8269
 20
-19.3203
 11
-20.8381
 21
-19.2063
  0
LINE
  8
0
 10
-20.8381
 20
-19.2063
 11
-20.8419
 21
-19.0919
  0
LINE
  8
0
 10
-20.8419
 20
-19.0919
 11
-20.8381
 21
-18.9774
  0
LINE
  8
0
 10
-20.8381
 20
-18.9774
 11
-20.8269
 21
-18.8634
  0
LINE
  8
0
 10
-20.8269
 20
-18.8634
 11
-20.8082
 21
-18.7505
  0
LINE
  8
0
 10
-20.8082
 20
-18.7505
 11
-20.7822
 21
-18.6389
  0
LINE
  8
0
 10
-20.7822
 20
-18.6389
 11
-20.749
 21
-18.5294
  0
LINE
  8
0
 10
-20.749
 20
-18.5294
 11
-20.7087
 21
-18.4222
  0
LINE
  8
0
 10
-20.7087
 20
-18.4222
 11
-20.6614
 21
-18.3179
  0
LINE
  8
0
 10
-20.6614
 20
-18.3179
 11
-20.6074
 21
-18.2169
  0
LINE
  8
0
 10
-20.6074
 20
-18.2169
 11
-20.547
 21
-18.1196
  0
LINE
  8
0
 10
-20.547
 20
-18.1196
 11
-20.4802
 21
-18.0266
  0
LINE
  8
0
 10
-20.4802
 20
-18.0266
 11
-20.4076
 21
-17.938
  0
LINE
  8
0
 10
-20.4076
 20
-17.938
 11
-20.3293
 21
-17.8544
  0
LINE
  8
0
 10
-20.3293
 20
-17.8544
 11
-20.2457
 21
-17.7762
  0
LINE
  8
0
 10
-20.2457
 20
-17.7762
 11
-20.1572
 21
-17.7035
  0
LINE
  8
0
 10
-20.1572
 20
-17.7035
 11
-20.0641
 21
-17.6368
  0
LINE
  8
0
 10
-20.0641
 20
-17.6368
 11
-19.9669
 21
-17.5763
  0
LINE
  8
0
 10
-19.9669
 20
-17.5763
 11
-19.8659
 21
-17.5224
  0
LINE
  8
0
 10
-19.8659
 20
-17.5224
 11
-19.7616
 21
-17.4751
  0
LINE
  8
0
 10
-19.7616
 20
-17.4751
 11
-19.6544
 21
-17.4348
  0
LINE
  8
0
 10
-19.6544
 20
-17.4348
 11
-19.5448
 21
-17.4015
  0
LINE
  8
0
 10
-19.5448
 20
-17.4015
 11
-19.4333
 21
-17.3755
  0
LINE
  8
0
 10
-19.4333
 20
-17.3755
 11
-19.3203
 21
-17.3568
  0
LINE
  8
0
 10
-19.3203
 20
-17.3568
 11
-19.2063
 21
-17.3456
  0
LINE
  8
0
 10
-19.2063
 20
-17.3456
 11
-19.0919
 21
-17.3419
  0
LINE
  8
0
 10
-19.0919
 20
-17.3419
 11
-18.9774
 21
-17.3456
  0
LINE
  8
0
 10
-18.9774
 20
-17.3456
 11
-18.8634
 21
-17.3568
  0
LINE
  8
0
 10
-18.8634
 20
-17.3568
 11
-18.7505
 21
-17.3755
  0
LINE
  8
0
 10
-18.7505
 20
-17.3755
 11
-18.6389
 21
-17.4015
  0
LINE
  8
0
 10
-18.6389
 20
-17.4015
 11
-18.5294
 21
-17.4348
  0
LINE
  8
0
 10
-18.5294
 20
-17.4348
 11
-18.4222
 21
-17.4751
  0
LINE
  8
0
 10
-18.4222
 20
-17.4751
 11
-18.3179
 21
-17.5224
  0
LINE
  8
0
 10
-18.3179
 20
-17.5224
 11
-18.2169
 21
-17.5763
  0
LINE
  8
0
 10
-18.2169
 20
-17.5763
 11
-18.1196
 21
-17.6368
  0
LINE
  8
0
 10
-18.1196
 20
-17.6368
 11
-18.0266
 21
-17.7035
  0
LINE
  8
0
 10
-18.0266
 20
-17.7035
 11
-17.938
 21
-17.7762
  0
LINE
  8
0
 10
-17.938
 20
-17.7762
 11
-17.8544
 21
-17.8544
  0
LINE
  8
0
 10
-17.8544
 20
-17.8544
 11
-17.7762
 21
-17.938
  0
LINE
  8
0
 10
-17.7762
 20
-17.938
 11
-17.7035
 21
-18.0266
  0
LINE
  8
0
 10
-17.7035
 20
-18.0266
 11
-17.6368
 21
-18.1196
  0
LINE
  8
0
 10
-17.6368
 20
-18.1196
 11
-17.5763
 21
-18.2169
  0
LINE
  8
0
 10
-17.5763
 20
-18.2169
 11
-17.5224
 21
-18.3179
  0
LINE
  8
0
 10
-17.5224
 20
-18.3179
 11
-17.4751
 21
-18.4222
  0
LINE
  8
0
 10
-17.4751
 20
-18.4222
 11
-17.4348
 21
-18.5294
  0
LINE
  8
0
 10
-17.4348
 20
-18.5294
 11
-17.4015
 21
-18.6389
  0
LINE
  8
0
 10
-17.4015
 20
-18.6389
 11
-17.3755
 21
-18.7505
  0
LINE
  8
0
 10
-17.3755
 20
-18.7505
 11
-17.3568
 21
-18.8634
  0
LINE
  8
0
 10
-17.3568
 20
-18.8634
 11
-17.3456
 21
-18.9774
  0
LINE
  8
0
 10
-17.3456
 20
-18.9774
 11
-17.3419
 21
-19.0919
  0
LINE
  8
0
 10
-17.3419
 20
-19.0919
 11
-17.3456
 21
-19.2063
  0
LINE
  8
0
 10
-17.3456
 20
-19.2063
 11
-17.3568
 21
-19.3203
  0
LINE
  8
0
 10
-17.3568
 20
-19.3203
 11
-17.3755
 21
-19.4333
  0
LINE
  8
0
 10
-17.3755
 20
-19.4333
 11
-17.4015
 21
-19.5448
  0
LINE
  8
0
 10
-17.4015
 20
-19.5448
 11
-17.4348
 21
-19.6544
  0
LINE
  8
0
 10
-17.4348
 20
-19.6544
 11
-17.4751
 21
-19.7616
  0
LINE
  8
0
 10
-17.4751
 20
-19.7616
 11
-17.5224
 21
-19.8659
  0
LINE
  8
0
 10
-17.5224
 20
-19.8659
 11
-17.5763
 21
-19.9669
  0
LINE
  8
0
 10
-17.5763
 20
-19.9669
 11
-17.6368
 21
-20.0641
  0
LINE
  8
0
 10
-17.6368
 20
-20.0641
 11
-17.7035
 21
-20.1572
  0
LINE
  8
0
 10
-17.7035
 20
-20.1572
 11
-17.7762
 21
-20.2457
  0
LINE
  8
0
 10
-17.7762
 20
-20.2457
 11
-17.8544
 21
-20.3293
  0
LINE
  8
0
 10
-17.8544
 20
-20.3293
 11
-17.938
 21
-20.4076
  0
LINE
  8
0
 10
-17.938
 20
-20.4076
 11
-18.0266
 21
-20.4802
  0
LINE
  8
0
 10
-18.0266
 20
-20.4802
 11
-18.1196
 21
-20.547
  0
LINE
  8
0
 10
-18.1196
 20
-20.547
 11
-18.2169
 21
-20.6074
  0
LINE
  8
0
 10
-18.2169
 20
-20.6074
 11
-18.3179
 21
-20.6614
  0
LINE
  8
0
 10
-18.3179
 20
-20.6614
 11
-18.4222
 21
-20.7087
  0
LINE
  8
0
 10
-18.4222
 20
-20.7087
 11
-18.5294
 21
-20.749
  0
LINE
  8
0
 10
-18.5294
 20
-20.749
 11
-18.6389
 21
-20.7822
  0
LINE
  8
0
 10
-18.6389
 20
-20.7822
 11
-18.7505
 21
-20.8082
  0
LINE
  8
0
 10
-18.7505
 20
-20.8082
 11
-18.8634
 21
-20.8269
  0
LINE
  8
0
 10
-18.8634
 20
-20.8269
 11
-18.9774
 21
-20.8381
  0
LINE
  8
0
 10
-18.9774
 20
-20.8381
 11
-19.0919
 21
-20.8419
  0
LINE
  8
0
 10
-19.0919
 20
-20.8419
 11
-19.2063
 21
-20.8381
  0
LINE
  8
0
 10
18.9774
 20
-20.8381
 11
18.8634
 21
-20.8269
  0
LINE
  8
0
 10
18.8634
 20
-20.8269
 11
18.7505
 21
-20.8082
  0
LINE
  8
0
 10
18.7505
 20
-20.8082
 11
18.6389
 21
-20.7822
  0
LINE
  8
0
 10
18.6389
 20
-20.7822
 11
18.5294
 21
-20.749
  0
LINE
  8
0
 10
18.5294
 20
-20.749
 11
18.4222
 21
-20.7087
  0
LINE
  8
0
 10
18.4222
 20
-20.7087
 11
18.3179
 21
-20.6614
  0
LINE
  8
0
 10
18.3179
 20
-20.6614
 11
18.2169
 21
-20.6074
  0
LINE
  8
0
 10
18.2169
 20
-20.6074
 11
18.1196
 21
-20.547
  0
LINE
  8
0
 10
18.1196
 20
-20.547
 11
18.0266
 21
-20.4802
  0
LINE
  8
0
 10
18.0266
 20
-20.4802
 11
17.938
 21
-20.4076
  0
LINE
  8
0
 10
17.938
 20
-20.4076
 11
17.8544
 21
-20.3293
  0
LINE
  8
0
 10
17.8544
 20
-20.3293
 11
17.7762
 21
-20.2457
  0
LINE
  8
0
 10
17.7762
 20
-20.2457
 11
17.7035
 21
-20.1572
  0
LINE
  8
0
 10
17.7035
 20
-20.1572
 11
17.6368
 21
-20.0641
  0
LINE
  8
0
 10
17.6368
 20
-20.0641
 11
17.5763
 21
-19.9669
  0
LINE
  8
0
 10
17.5763
 20
-19.9669
 11
17.5224
 21
-19.8659
  0
LINE
  8
0
 10
17.5224
 20
-19.8659
 11
17.4751
 21
-19.7616
  0
LINE
  8
0
 10
17.4751
 20
-19.7616
 11
17.4348
 21
-19.6544
  0
LINE
  8
0
 10
17.4348
 20
-19.6544
 11
17.4015
 21
-19.5448
  0
LINE
  8
0
 10
17.4015
 20
-19.5448
 11
17.3755
 21
-19.4333
  0
LINE
  8
0
 10
17.3755
 20
-19.4333
 11
17.3568
 21
-19.3203
  0
LINE
  8
0
 10
17.3568
 20
-19.3203
 11
17.3456
 21
-19.2063
  0
LINE
  8
0
 10
17.3456
 20
-19.2063
 11
17.3419
 21
-19.0919
  0
LINE
  8
0
 10
17.3419
 20
-19.0919
 11
17.3456
 21
-18.9774
  0
LINE
  8
0
 10
17.3456
 20
-18.9774
 11
17.3568
 21
-18.8634
  0
LINE
  8
0
 10
17.3568
 20
-18.8634
 11
17.3755
 21
-18.7505
  0
LINE
  8
0
 10
17.3755
 20
-18.7505
 11
17.4015
 21
-18.6389
  0
LINE
  8
0
 10
17.4015
 20
-18.6389
 11
17.4348
 21
-18.5294
  0
LINE
  8
0
 10
17.4348
 20
-18.5294
 11
17.4751
 21
-18.4222
  0
LINE
  8
0
 10
17.4751
 20
-18.4222
 11
17.5224
 21
-18.3179
  0
LINE
  8
0
 10
17.5224
 20
-18.3179
 11
17.5763
 21
-18.2169
  0
LINE
  8
0
 10
17.5763
 20
-18.2169
 11
17.6368
 21
-18.1196
  0
LINE
  8
0
 10
17.6368
 20
-18.1196
 11
17.7035
 21
-18.0266
  0
LINE
  8
0
 10
17.7035
 20
-18.0266
 11
17.7762
 21
-17.938
  0
LINE
  8
0
 10
17.7762
 20
-17.938
 11
17.8544
 21
-17.8544
  0
LINE
  8
0
 10
17.8544
 20
-17.8544
 11
17.938
 21
-17.7762
  0
LINE
  8
0
 10
17.938
 20
-17.7762
 11
18.0266
 21
-17.7035
  0
LINE
  8
0
 10
18.0266
 20
-17.7035
 11
18.1196
 21
-17.6368
  0
LINE
  8
0
 10
18.1196
 20
-17.6368
 11
18.2169
 21
-17.5763
  0
LINE
  8
0
 10
18.2169
 20
-17.5763
 11
18.3179
 21
-17.5224
  0
LINE
  8
0
 10
18.3179
 20
-17.5224
 11
18.4222
 21
-17.4751
  0
LINE
  8
0
 10
18.4222
 20
-17.4751
 11
18.5294
 21
-17.4348
  0
LINE
  8
0
 10
18.5294
 20
-17.4348
 11
18.6389
 21
-17.4015
  0
LINE
  8
0
 10
18.6389
 20
-17.4015
 11
18.7505
 21
-17.3755
  0
LINE
  8
0
 10
18.7505
 20
-17.3755
 11
18.8634
 21
-17.3568
  0
LINE
  8
0
 10
18.8634
 20
-17.3568
 11
18.9774
 21
-17.3456
  0
LINE
  8
0
 10
18.9774
 20
-17.3456
 11
19.0919
 21
-17.3419
  0
LINE
  8
0
 10
19.0919
 20
-17.3419
 11
19.2063
 21
-17.3456
  0
LINE
  8
0
 10
19.2063
 20
-17.3456
 11
19.3203
 21
-17.3568
  0
LINE
  8
0
 10
19.3203
 20
-17.3568
 11
19.4333
 21
-17.3755
  0
LINE
  8
0
 10
19.4333
 20
-17.3755
 11
19.5448
 21
-17.4015
  0
LINE
  8
0
 10
19.5448
 20
-17.4015
 11
19.6544
 21
-17.4348
  0
LINE
  8
0
 10
19.6544
 20
-17.4348
 11
19.7616
 21
-17.4751
  0
LINE
  8
0
 10
19.7616
 20
-17.4751
 11
19.8659
 21
-17.5224
  0
LINE
  8
0
 10
19.8659
 20
-17.5224
 11
19.9669
 21
-17.5763
  0
LINE
  8
0
 10
19.9669
 20
-17.5763
 11
20.0641
 21
-17.6368
  0
LINE
  8
0
 10
20.0641
 20
-17.6368
 11
20.1572
 21
-17.7035
  0
LINE
  8
0
 10
20.1572
 20
-17.7035
 11
20.2457
 21
-17.7762
  0
LINE
  8
0
 10
20.2457
 20
-17.7762
 11
20.3293
 21
-17.8544
  0
LINE
  8
0
 10
20.3293
 20
-17.8544
 11
20.4076
 21
-17.938
  0
LINE
  8
0
 10
20.4076
 20
-17.938
 11
20.4802
 21
-18.0266
  0
LINE
  8
0
 10
20.4802
 20
-18.0266
 11
20.547
 21
-18.1196
  0
LINE
  8
0
 10
20.547
 20
-18.1196
 11
20.6074
 21
-18.2169
  0
LINE
  8
0
 10
20.6074
 20
-18.2169
 11
20.6614
 21
-18.3179
  0
LINE
  8
0
 10
20.6614
 20
-18.3179
 11
20.7087
 21
-18.4222
  0
LINE
  8
0
 10
20.7087
 20
-18.4222
 11
20.749
 21
-18.5294
  0
LINE
  8
0
 10
20.749
 20
-18.5294
 11
20.7822
 21
-18.6389
  0
LINE
  8
0
 10
20.7822
 20
-18.6389
 11
20.8082
 21
-18.7505
  0
LINE
  8
0
 10
20.8082
 20
-18.7505
 11
20.8269
 21
-18.8634
  0
LINE
  8
0
 10
20.8269
 20
-18.8634
 11
20.8381
 21
-18.9774
  0
LINE
  8
0
 10
20.8381
 20
-18.9774
 11
20.8419
 21
-19.0919
  0
LINE
  8
0
 10
20.8419
 20
-19.0919
 11
20.8381
 21
-19.2063
  0
LINE
  8
0
 10
20.8381
 20
-19.2063
 11
20.8269
 21
-19.3203
  0
LINE
  8
0
 10
20.8269
 20
-19.3203
 11
20.8082
 21
-19.4333
  0
LINE
  8
0
 10
20.8082
 20
-19.4333
 11
20.7822
 21
-19.5448
  0
LINE
  8
0
 10
20.7822
 20
-19.5448
 11
20.749
 21
-19.6544
  0
LINE
  8
0
 10
20.749
 20
-19.6544
 11
20.7087
 21
-19.7616
  0
LINE
  8
0
 10
20.7087
 20
-19.7616
 11
20.6614
 21
-19.8659
  0
LINE
  8
0
 10
20.6614
 20
-19.8659
 11
20.6074
 21
-19.9669
  0
LINE
  8
0
 10
20.6074
 20
-19.9669
 11
20.547
 21
-20.0641
  0
LINE
  8
0
 10
20.547
 20
-20.0641
 11
20.4802
 21
-20.1572
  0
LINE
  8
0
 10
20.4802
 20
-20.1572
 11
20.4076
 21
-20.2457
  0
LINE
  8
0
 10
20.4076
 20
-20.2457
 11
20.3293
 21
-20.3293
  0
LINE
  8
0
 10
20.3293
 20
-20.3293
 11
20.2457
 21
-20.4076
  0
LINE
  8
0
 10
20.2457
 20
-20.4076
 11
20.1572
 21
-20.4802
  0
LINE
  8
0
 10
20.1572
 20
-20.4802
 11
20.0641
 21
-20.547
  0
LINE
  8
0
 10
20.0641
 20
-20.547
 11
19.9669
 21
-20.6074
  0
LINE
  8
0
 10
19.9669
 20
-20.6074
 11
19.8659
 21
-20.6614
  0
LINE
  8
0
 10
19.8659
 20
-20.6614
 11
19.7616
 21
-20.7087
  0
LINE
  8
0
 10
19.7616
 20
-20.7087
 11
19.6544
 21
-20.749
  0
LINE
  8
0
 10
19.6544
 20
-20.749
 11
19.5448
 21
-20.7822
  0
LINE
  8
0
 10
19.5448
 20
-20.7822
 11
19.4333
 21
-20.8082
  0
LINE
  8
0
 10
19.4333
 20
-20.8082
 11
19.3203
 21
-20.8269
  0
LINE
  8
0
 10
19.3203
 20
-20.8269
 11
19.2063
 21
-20.8381
  0
LINE
  8
0
 10
19.2063
 20
-20.8381
 11
19.0919
 21
-20.8419
  0
LINE
  8
0
 10
19.0919
 20
-20.8419
 11
18.9774
 21
-20.8381
  0
LINE
  8
0
 10
-41.1266
 20
-42.7584
 11
-41.2406
 21
-42.7472
  0
LINE
  8
0
 10
-41.2406
 20
-42.7472
 11
-41.3536
 21
-42.7286
  0
LINE
  8
0
 10
-41.3536
 20
-42.7286
 11
-41.4651
 21
-42.7026
  0
LINE
  8
0
 10
-41.4651
 20
-42.7026
 11
-41.5747
 21
-42.6693
  0
LINE
  8
0
 10
-41.5747
 20
-42.6693
 11
-41.6819
 21
-42.629
  0
LINE
  8
0
 10
-41.6819
 20
-42.629
 11
-41.7862
 21
-42.5817
  0
LINE
  8
0
 10
-41.7862
 20
-42.5817
 11
-41.8872
 21
-42.5277
  0
LINE
  8
0
 10
-41.8872
 20
-42.5277
 11
-41.9844
 21
-42.4673
  0
LINE
  8
0
 10
-41.9844
 20
-42.4673
 11
-42.0775
 21
-42.4006
  0
LINE
  8
0
 10
-42.0775
 20
-42.4006
 11
-42.166
 21
-42.3279
  0
LINE
  8
0
 10
-42.166
 20
-42.3279
 11
-42.2496
 21
-42.2496
  0
LINE
  8
0
 10
-42.2496
 20
-42.2496
 11
-42.3279
 21
-42.166
  0
LINE
  8
0
 10
-42.3279
 20
-42.166
 11
-42.4006
 21
-42.0775
  0
LINE
  8
0
 10
-42.4006
 20
-42.0775
 11
-42.4673
 21
-41.9844
  0
LINE
  8
0
 10
-42.4673
 20
-41.9844
 11
-42.5277
 21
-41.8872
  0
LINE
  8
0
 10
-42.5277
 20
-41.8872
 11
-42.5817
 21
-41.7862
  0
LINE
  8
0
 10
-42.5817
 20
-41.7862
 11
-42.629
 21
-41.6819
  0
LINE
  8
0
 10
-42.629
 20
-41.6819
 11
-42.6693
 21
-41.5747
  0
LINE
  8
0
 10
-42.6693
 20
-41.5747
 11
-42.7026
 21
-41.4651
  0
LINE
  8
0
 10
-42.7026
 20
-41.4651
 11
-42.7286
 21
-41.3536
  0
LINE
  8
0
 10
-42.7286
 20
-41.3536
 11
-42.7472
 21
-41.2406
  0
LINE
  8
0
 10
-42.7472
 20
-41.2406
 11
-42.7584
 21
-41.1266
  0
LINE
  8
0
 10
-42.7584
 20
-41.1266
 11
-42.7622
 21
-41.0122
  0
LINE
  8
0
 10
-42.7622
 20
-41.0122
 11
-42.7584
 21
-40.8977
  0
LINE
  8
0
 10
-42.7584
 20
-40.8977
 11
-42.7472
 21
-40.7838
  0
LINE
  8
0
 10
-42.7472
 20
-40.7838
 11
-42.7286
 21
-40.6708
  0
LINE
  8
0
 10
-42.7286
 20
-40.6708
 11
-42.7026
 21
-40.5592
  0
LINE
  8
0
 10
-42.7026
 20
-40.5592
 11
-42.6693
 21
-40.4497
  0
LINE
  8
0
 10
-42.6693
 20
-40.4497
 11
-42.629
 21
-40.3425
  0
LINE
  8
0
 10
-42.629
 20
-40.3425
 11
-42.5817
 21
-40.2382
  0
LINE
  8
0
 10
-42.5817
 20
-40.2382
 11
-42.5277
 21
-40.1372
  0
LINE
  8
0
 10
-42.5277
 20
-40.1372
 11
-42.4673
 21
-40.0399
  0
LINE
  8
0
 10
-42.4673
 20
-40.0399
 11
-42.4006
 21
-39.9469
  0
LINE
  8
0
 10
-42.4006
 20
-39.9469
 11
-42.3279
 21
-39.8583
  0
LINE
  8
0
 10
-42.3279
 20
-39.8583
 11
-42.2496
 21
-39.7747
  0
LINE
  8
0
 10
-42.2496
 20
-39.7747
 11
-42.166
 21
-39.6965
  0
LINE
  8
0
 10
-42.166
 20
-39.6965
 11
-42.0775
 21
-39.6238
  0
LINE
  8
0
 10
-42.0775
 20
-39.6238
 11
-41.9844
 21
-39.5571
  0
LINE
  8
0
 10
-41.9844
 20
-39.5571
 11
-41.8872
 21
-39.4966
  0
LINE
  8
0
 10
-41.8872
 20
-39.4966
 11
-41.7862
 21
-39.4427
  0
LINE
  8
0
 10
-41.7862
 20
-39.4427
 11
-41.6819
 21
-39.3954
  0
LINE
  8
0
 10
-41.6819
 20
-39.3954
 11
-41.5747
 21
-39.3551
  0
LINE
  8
0
 10
-41.5747
 20
-39.3551
 11
-41.4651
 21
-39.3218
  0
LINE
  8
0
 10
-41.4651
 20
-39.3218
 11
-41.3536
 21
-39.2958
  0
LINE
  8
0
 10
-41.3536
 20
-39.2958
 11
-41.2406
 21
-39.2772
  0
LINE
  8
0
 10
-41.2406
 20
-39.2772
 11
-41.1266
 21
-39.2659
  0
LINE
  8
0
 10
-41.1266
 20
-39.2659
 11
-41.0122
 21
-39.2622
  0
LINE
  8
0
 10
-41.0122
 20
-39.2622
 11
-40.8977
 21
-39.2659
  0
LINE
  8
0
 10
-40.8977
 20
-39.2659
 11
-40.7838
 21
-39.2772
  0
LINE
  8
0
 10
-40.7838
 20
-39.2772
 11
-40.6708
 21
-39.2958
  0
LINE
  8
0
 10
-40.6708
 20
-39.2958
 11
-40.5592
 21
-39.3218
  0
LINE
  8
0
 10
-40.5592
 20
-39.3218
 11
-40.4497
 21
-39.3551
  0
LINE
  8
0
 10
-40.4497
 20
-39.3551
 11
-40.3425
 21
-39.3954
  0
LINE
  8
0
 10
-40.3425
 20
-39.3954
 11
-40.2382
 21
-39.4427
  0
LINE
  8
0
 10
-40.2382
 20
-39.4427
 11
-40.1372
 21
-39.4966
  0
LINE
  8
0
 10
-40.1372
 20
-39.4966
 11
-40.0399
 21
-39.5571
  0
LINE
  8
0
 10
-40.0399
 20
-39.5571
 11
-39.9469
 21
-39.6238
  0
LINE
  8
0
 10
-39.9469
 20
-39.6238
 11
-39.8583
 21
-39.6965
  0
LINE
  8
0
 10
-39.8583
 20
-39.6965
 11
-39.7747
 21
-39.7747
  0
LINE
  8
0
 10
-39.7747
 20
-39.7747
 11
-39.6965
 21
-39.8583
  0
LINE
  8
0
 10
-39.6965
 20
-39.8583
 11
-39.6238
 21
-39.9469
  0
LINE
  8
0
 10
-39.6238
 20
-39.9469
 11
-39.5571
 21
-40.0399
  0
LINE
  8
0
 10
-39.5571
 20
-40.0399
 11
-39.4966
 21
-40.1372
  0
LINE
  8
0
 10
-39.4966
 20
-40.1372
 11
-39.4427
 21
-40.2382
  0
LINE
  8
0
 10
-39.4427
 20
-40.2382
 11
-39.3954
 21
-40.3425
  0
LINE
  8
0
 10
-39.3954
 20
-40.3425
 11
-39.3551
 21
-40.4497
  0
LINE
  8
0
 10
-39.3551
 20
-40.4497
 11
-39.3218
 21
-40.5592
  0
LINE
  8
0
 10
-39.3218
 20
-40.5592
 11
-39.2958
 21
-40.6708
  0
LINE
  8
0
 10
-39.2958
 20
-40.6708
 11
-39.2772
 21
-40.7838
  0
LINE
  8
0
 10
-39.2772
 20
-40.7838
 11
-39.2659
 21
-40.8977
  0
LINE
  8
0
 10
-39.2659
 20
-40.8977
 11
-39.2622
 21
-41.0122
  0
LINE
  8
0
 10
-39.2622
 20
-41.0122
 11
-39.2659
 21
-41.1266
  0
LINE
  8
0
 10
-39.2659
 20
-41.1266
 11
-39.2772
 21
-41.2406
  0
LINE
  8
0
 10
-39.2772
 20
-41.2406
 11
-39.2958
 21
-41.3536
  0
LINE
  8
0
 10
-39.2958
 20
-41.3536
 11
-39.3218
 21
-41.4651
  0
LINE
  8
0
 10
-39.3218
 20
-41.4651
 11
-39.3551
 21
-41.5747
  0
LINE
  8
0
 10
-39.3551
 20
-41.5747
 11
-39.3954
 21
-41.6819
  0
LINE
  8
0
 10
-39.3954
 20
-41.6819
 11
-39.4427
 21
-41.7862
  0
LINE
  8
0
 10
-39.4427
 20
-41.7862
 11
-39.4966
 21
-41.8872
  0
LINE
  8
0
 10
-39.4966
 20
-41.8872
 11
-39.5571
 21
-41.9844
  0
LINE
  8
0
 10
-39.5571
 20
-41.9844
 11
-39.6238
 21
-42.0775
  0
LINE
  8
0
 10
-39.6238
 20
-42.0775
 11
-39.6965
 21
-42.166
  0
LINE
  8
0
 10
-39.6965
 20
-42.166
 11
-39.7747
 21
-42.2496
  0
LINE
  8
0
 10
-39.7747
 20
-42.2496
 11
-39.8583
 21
-42.3279
  0
LINE
  8
0
 10
-39.8583
 20
-42.3279
 11
-39.9469
 21
-42.4006
  0
LINE
  8
0
 10
-39.9469
 20
-42.4006
 11
-40.0399
 21
-42.4673
  0
LINE
  8
0
 10
-40.0399
 20
-42.4673
 11
-40.1372
 21
-42.5277
  0
LINE
  8
0
 10
-40.1372
 20
-42.5277
 11
-40.2382
 21
-42.5817
  0
LINE
  8
0
 10
-40.2382
 20
-42.5817
 11
-40.3425
 21
-42.629
  0
LINE
  8
0
 10
-40.3425
 20
-42.629
 11
-40.4497
 21
-42.6693
  0
LINE
  8
0
 10
-40.4497
 20
-42.6693
 11
-40.5592
 21
-42.7026
  0
LINE
  8
0
 10
-40.5592
 20
-42.7026
 11
-40.6708
 21
-42.7286
  0
LINE
  8
0
 10
-40.6708
 20
-42.7286
 11
-40.7838
 21
-42.7472
  0
LINE
  8
0
 10
-40.7838
 20
-42.7472
 11
-40.8977
 21
-42.7584
  0
LINE
  8
0
 10
-40.8977
 20
-42.7584
 11
-41.0122
 21
-42.7622
  0
LINE
  8
0
 10
-41.0122
 20
-42.7622
 11
-41.1266
 21
-42.7584
  0
LINE
  8
0
 10
40.8977
 20
-42.7584
 11
40.7838
 21
-42.7472
  0
LINE
  8
0
 10
40.7838
 20
-42.7472
 11
40.6708
 21
-42.7286
  0
LINE
  8
0
 10
40.6708
 20
-42.7286
 11
40.5592
 21
-42.7026
  0
LINE
  8
0
 10
40.5592
 20
-42.7026
 11
40.4497
 21
-42.6693
  0
LINE
  8
0
 10
40.4497
 20
-42.6693
 11
40.3425
 21
-42.629
  0
LINE
  8
0
 10
40.3425
 20
-42.629
 11
40.2382
 21
-42.5817
  0
LINE
  8
0
 10
40.2382
 20
-42.5817
 11
40.1372
 21
-42.5277
  0
LINE
  8
0
 10
40.1372
 20
-42.5277
 11
40.0399
 21
-42.4673
  0
LINE
  8
0
 10
40.0399
 20
-42.4673
 11
39.9469
 21
-42.4006
  0
LINE
  8
0
 10
39.9469
 20
-42.4006
 11
39.8583
 21
-42.3279
  0
LINE
  8
0
 10
39.8583
 20
-42.3279
 11
39.7747
 21
-42.2496
  0
LINE
  8
0
 10
39.7747
 20
-42.2496
 11
39.6965
 21
-42.166
  0
LINE
  8
0
 10
39.6965
 20
-42.166
 11
39.6238
 21
-42.0775
  0
LINE
  8
0
 10
39.6238
 20
-42.0775
 11
39.5571
 21
-41.9844
  0
LINE
  8
0
 10
39.5571
 20
-41.9844
 11
39.4966
 21
-41.8872
  0
LINE
  8
0
 10
39.4966
 20
-41.8872
 11
39.4427
 21
-41.7862
  0
LINE
  8
0
 10
39.4427
 20
-41.7862
 11
39.3954
 21
-41.6819
  0
LINE
  8
0
 10
39.3954
 20
-41.6819
 11
39.3551
 21
-41.5747
  0
LINE
  8
0
 10
39.3551
 20
-41.5747
 11
39.3218
 21
-41.4651
  0
LINE
  8
0
 10
39.3218
 20
-41.4651
 11
39.2958
 21
-41.3536
  0
LINE
  8
0
 10
39.2958
 20
-41.3536
 11
39.2772
 21
-41.2406
  0
LINE
  8
0
 10
39.2772
 20
-41.2406
 11
39.2659
 21
-41.1266
  0
LINE
  8
0
 10
39.2659
 20
-41.1266
 11
39.2622
 21
-41.0122
  0
LINE
  8
0
 10
39.2622
 20
-41.0122
 11
39.2659
 21
-40.8977
  0
LINE
  8
0
 10
39.2659
 20
-40.8977
 11
39.2772
 21
-40.7838
  0
LINE
  8
0
 10
39.2772
 20
-40.7838
 11
39.2958
 21
-40.6708
  0
LINE
  8
0
 10
39.2958
 20
-40.6708
 11
39.3218
 21
-40.5592
  0
LINE
  8
0
 10
39.3218
 20
-40.5592
 11
39.3551
 21
-40.4497
  0
LINE
  8
0
 10
39.3551
 20
-40.4497
 11
39.3954
 21
-40.3425
  0
LINE
  8
0
 10
39.3954
 20
-40.3425
 11
39.4427
 21
-40.2382
  0
LINE
  8
0
 10
39.4427
 20
-40.2382
 11
39.4966
 21
-40.1372
  0
LINE
  8
0
 10
39.4966
 20
-40.1372
 11
39.5571
 21
-40.0399
  0
LINE
  8
0
 10
39.5571
 20
-40.0399
 11
39.6238
 21
-39.9469
  0
LINE
  8
0
 10
39.6238
 20
-39.9469
 11
39.6965
 21
-39.8583
  0
LINE
  8
0
 10
39.6965
 20
-39.8583
 11
39.7747
 21
-39.7747
  0
LINE
  8
0
 10
39.7747
 20
-39.7747
 11
39.8583
 21
-39.6965
  0
LINE
  8
0
 10
39.8583
 20
-39.6965
 11
39.9469
 21
-39.6238
  0
LINE
  8
0
 10
39.9469
 20
-39.6238
 11
40.0399
 21
-39.5571
  0
LINE
  8
0
 10
40.0399
 20
-39.5571
 11
40.1372
 21
-39.4966
  0
LINE
  8
0
 10
40.1372
 20
-39.4966
 11
40.2382
 21
-39.4427
  0
LINE
  8
0
 10
40.2382
 20
-39.4427
 11
40.3425
 21
-39.3954
  0
LINE
  8
0
 10
40.3425
 20
-39.3954
 11
40.4497
 21
-39.3551
  0
LINE
  8
0
 10
40.4497
 20
-39.3551
 11
40.5592
 21
-39.3218
  0
LINE
  8
0
 10
40.5592
 20
-39.3218
 11
40.6708
 21
-39.2958
  0
LINE
  8
0
 10
40.6708
 20
-39.2958
 11
40.7838
 21
-39.2772
  0
LINE
  8
0
 10
40.7838
 20
-39.2772
 11
40.8977
 21
-39.2659
  0
LINE
  8
0
 10
40.8977
 20
-39.2659
 11
41.0122
 21
-39.2622
  0
LINE
  8
0
 10
41.0122
 20
-39.2622
 11
41.1266
 21
-39.2659
  0
LINE
  8
0
 10
41.1266
 20
-39.2659
 11
41.2406
 21
-39.2772
  0
LINE
  8
0
 10
41.2406
 20
-39.2772
 11
41.3536
 21
-39.2958
  0
LINE
  8
0
 10
41.3536
 20
-39.2958
 11
41.4651
 21
-39.3218
  0
LINE
  8
0
 10
41.4651
 20
-39.3218
 11
41.5747
 21
-39.3551
  0
LINE
  8
0
 10
41.5747
 20
-39.3551
 11
41.6819
 21
-39.3954
  0
LINE
  8
0
 10
41.6819
 20
-39.3954
 11
41.7862
 21
-39.4427
  0
LINE
  8
0
 10
41.7862
 20
-39.4427
 11
41.8872
 21
-39.4966
  0
LINE
  8
0
 10
41.8872
 20
-39.4966
 11
41.9844
 21
-39.5571
  0
LINE
  8
0
 10
41.9844
 20
-39.5571
 11
42.0775
 21
-39.6238
  0
LINE
  8
0
 10
42.0775
 20
-39.6238
 11
42.166
 21
-39.6965
  0
LINE
  8
0
 10
42.166
 20
-39.6965
 11
42.2496
 21
-39.7747
  0
LINE
  8
0
 10
42.2496
 20
-39.7747
 11
42.3279
 21
-39.8583
  0
LINE
  8
0
 10
42.3279
 20
-39.8583
 11
42.4006
 21
-39.9469
  0
LINE
  8
0
 10
42.4006
 20
-39.9469
 11
42.4673
 21
-40.0399
  0
LINE
  8
0
 10
42.4673
 20
-40.0399
 11
42.5277
 21
-40.1372
  0
LINE
  8
0
 10
42.5277
 20
-40.1372
 11
42.5817
 21
-40.2382
  0
LINE
  8
0
 10
42.5817
 20
-40.2382
 11
42.629
 21
-40.3425
  0
LINE
  8
0
 10
42.629
 20
-40.3425
 11
42.6693
 21
-40.4497
  0
LINE
  8
0
 10
42.6693
 20
-40.4497
 11
42.7026
 21
-40.5592
  0
LINE
  8
0
 10
42.7026
 20
-40.5592
 11
42.7286
 21
-40.6708
  0
LINE
  8
0
 10
42.7286
 20
-40.6708
 11
42.7472
 21
-40.7838
  0
LINE
  8
0
 10
42.7472
 20
-40.7838
 11
42.7584
 21
-40.8977
  0
LINE
  8
0
 10
42.7584
 20
-40.8977
 11
42.7622
 21
-41.0122
  0
LINE
  8
0
 10
42.7622
 20
-41.0122
 11
42.7584
 21
-41.1266
  0
LINE
  8
0
 10
42.7584
 20
-41.1266
 11
42.7472
 21
-41.2406
  0
LINE
  8
0
 10
42.7472
 20
-41.2406
 11
42.7286
 21
-41.3536
  0
LINE
  8
0
 10
42.7286
 20
-41.3536
 11
42.7026
 21
-41.4651
  0
LINE
  8
0
 10
42.7026
 20
-41.4651
 11
42.6693
 21
-41.5747
  0
LINE
  8
0
 10
42.6693
 20
-41.5747
 11
42.629
 21
-41.6819
  0
LINE
  8
0
 10
42.629
 20
-41.6819
 11
42.5817
 21
-41.7862
  0
LINE
  8
0
 10
42.5817
 20
-41.7862
 11
42.5277
 21
-41.8872
  0
LINE
  8
0
 10
42.5277
 20
-41.8872
 11
42.4673
 21
-41.9844
  0
LINE
  8
0
 10
42.4673
 20
-41.9844
 11
42.4006
 21
-42.0775
  0
LINE
  8
0
 10
42.4006
 20
-42.0775
 11
42.3279
 21
-42.166
  0
LINE
  8
0
 10
42.3279
 20
-42.166
 11
42.2496
 21
-42.2496
  0
LINE
  8
0
 10
42.2496
 20
-42.2496
 11
42.166
 21
-42.3279
  0
LINE
  8
0
 10
42.166
 20
-42.3279
 11
42.0775
 21
-42.4006
  0
LINE
  8
0
 10
42.0775
 20
-42.4006
 11
41.9844
 21
-42.4673
  0
LINE
  8
0
 10
41.9844
 20
-42.4673
 11
41.8872
 21
-42.5277
  0
LINE
  8
0
 10
41.8872
 20
-42.5277
 11
41.7862
 21
-42.5817
  0
LINE
  8
0
 10
41.7862
 20
-42.5817
 11
41.6819
 21
-42.629
  0
LINE
  8
0
 10
41.6819
 20
-42.629
 11
41.5747
 21
-42.6693
  0
LINE
  8
0
 10
41.5747
 20
-42.6693
 11
41.4651
 21
-42.7026
  0
LINE
  8
0
 10
41.4651
 20
-42.7026
 11
41.3536
 21
-42.7286
  0
LINE
  8
0
 10
41.3536
 20
-42.7286
 11
41.2406
 21
-42.7472
  0
LINE
  8
0
 10
41.2406
 20
-42.7472
 11
41.1266
 21
-42.7584
  0
LINE
  8
0
 10
41.1266
 20
-42.7584
 11
41.0122
 21
-42.7622
  0
LINE
  8
0
 10
41.0122
 20
-42.7622
 11
40.8977
 21
-42.7584
  0
ENDSEC
  0
SECTION
  2
OBJECTS
  0
DICTIONARY
  0
ENDSEC
  0
EOF
