  0
SECTION
  2
BLOCKS
  0
ENDSEC
  0
SECTION
  2
ENTITIES
  0
LINE
  8
0
 10
4.15309
 20
-63.364
 11
8.28841
 21
-62.9567
  0
LINE
  8
0
 10
8.28841
 20
-62.9567
 11
12.3882
 21
-62.2799
  0
LINE
  8
0
 10
12.3882
 20
-62.2799
 11
16.435
 21
-61.3363
  0
LINE
  8
0
 10
16.435
 20
-61.3363
 11
20.4114
 21
-60.1301
  0
LINE
  8
0
 10
20.4114
 20
-60.1301
 11
24.3004
 21
-58.6663
  0
LINE
  8
0
 10
24.3004
 20
-58.6663
 11
28.0853
 21
-56.9514
  0
LINE
  8
0
 10
28.0853
 20
-56.9514
 11
31.75
 21
-54.9926
  0
LINE
  8
0
 10
31.75
 20
-54.9926
 11
35.2787
 21
-52.7983
  0
LINE
  8
0
 10
35.2787
 20
-52.7983
 11
38.6563
 21
-50.3779
  0
LINE
  8
0
 10
38.6563
 20
-50.3779
 11
41.8685
 21
-47.7418
  0
LINE
  8
0
 10
41.8685
 20
-47.7418
 11
44.9013
 21
-44.9013
  0
LINE
  8
0
 10
44.9013
 20
-44.9013
 11
47.7418
 21
-41.8685
  0
LINE
  8
0
 10
47.7418
 20
-41.8685
 11
50.3779
 21
-38.6563
  0
LINE
  8
0
 10
50.3779
 20
-38.6563
 11
52.7983
 21
-35.2787
  0
LINE
  8
0
 10
52.7983
 20
-35.2787
 11
54.9926
 21
-31.75
  0
LINE
  8
0
 10
54.9926
 20
-31.75
 11
56.9514
 21
-28.0853
  0
LINE
  8
0
 10
56.9514
 20
-28.0853
 11
58.6663
 21
-24.3004
  0
LINE
  8
0
 10
58.6663
 20
-24.3004
 11
60.1301
 21
-20.4114
  0
LINE
  8
0
 10
60.1301
 20
-20.4114
 11
61.3363
 21
-16.435
  0
LINE
  8
0
 10
61.3363
 20
-16.435
 11
62.2799
 21
-12.3882
  0
LINE
  8
0
 10
62.2799
 20
-12.3882
 11
62.9567
 21
-8.28841
  0
LINE
  8
0
 10
62.9567
 20
-8.28841
 11
63.364
 21
-4.15309
  0
LINE
  8
0
 10
63.364
 20
-4.15309
 11
63.4511
 21
-1.49356
  0
LINE
  8
0
 10
63.4511
 20
-1.49356
 11
63.1118
 21
-1.44888
  0
LINE
  8
0
 10
63.1118
 20
-1.44888
 11
62.75
 21
-1.29903
  0
LINE
  8
0
 10
62.75
 20
-1.29903
 11
62.4393
 21
-1.06065
  0
LINE
  8
0
 10
62.4393
 20
-1.06065
 11
62.201
 21
-0.75
  0
LINE
  8
0
 10
62.201
 20
-0.75
 11
62.0511
 21
-0.388214
  0
LINE
  8
0
 10
62.0511
 20
-0.388214
 11
62
 21
0
  0
LINE
  8
0
 10
62
 20
0
 11
62.0511
 21
0.388214
  0
LINE
  8
0
 10
62.0511
 20
0.388214
 11
62.201
 21
0.75
  0
LINE
  8
0
 10
62.201
 20
0.75
 11
62.4393
 21
1.06065
  0
LINE
  8
0
 10
62.4393
 20
1.06065
 11
62.75
 21
1.29903
  0
LINE
  8
0
 10
62.75
 20
1.29903
 11
63.1118
 21
1.44888
  0
LINE
  8
0
 10
63.1118
 20
1.44888
 11
63.4511
 21
1.49356
  0
LINE
  8
0
 10
63.4511
 20
1.49356
 11
63.364
 21
4.15309
  0
LINE
  8
0
 10
63.364
 20
4.15309
 11
62.9567
 21
8.28841
  0
LINE
  8
0
 10
62.9567
 20
8.28841
 11
62.2799
 21
12.3882
  0
LINE
  8
0
 10
62.2799
 20
12.3882
 11
61.3363
 21
16.435
  0
LINE
  8
0
 10
61.3363
 20
16.435
 11
60.1301
 21
20.4114
  0
LINE
  8
0
 10
60.1301
 20
20.4114
 11
58.6663
 21
24.3004
  0
LINE
  8
0
 10
58.6663
 20
24.3004
 11
56.9514
 21
28.0853
  0
LINE
  8
0
 10
56.9514
 20
28.0853
 11
54.9926
 21
31.75
  0
LINE
  8
0
 10
54.9926
 20
31.75
 11
52.7983
 21
35.2787
  0
LINE
  8
0
 10
52.7983
 20
35.2787
 11
50.3779
 21
38.6563
  0
LINE
  8
0
 10
50.3779
 20
38.6563
 11
47.7418
 21
41.8685
  0
LINE
  8
0
 10
47.7418
 20
41.8685
 11
44.9013
 21
44.9013
  0
LINE
  8
0
 10
44.9013
 20
44.9013
 11
41.8685
 21
47.7418
  0
LINE
  8
0
 10
41.8685
 20
47.7418
 11
38.6563
 21
50.3779
  0
LINE
  8
0
 10
38.6563
 20
50.3779
 11
35.2787
 21
52.7983
  0
LINE
  8
0
 10
35.2787
 20
52.7983
 11
31.75
 21
54.9926
  0
LINE
  8
0
 10
31.75
 20
54.9926
 11
28.0853
 21
56.9514
  0
LINE
  8
0
 10
28.0853
 20
56.9514
 11
24.3004
 21
58.6663
  0
LINE
  8
0
 10
24.3004
 20
58.6663
 11
20.4114
 21
60.1301
  0
LINE
  8
0
 10
20.4114
 20
60.1301
 11
16.435
 21
61.3363
  0
LINE
  8
0
 10
16.435
 20
61.3363
 11
12.3882
 21
62.2799
  0
LINE
  8
0
 10
12.3882
 20
62.2799
 11
8.28841
 21
62.9567
  0
LINE
  8
0
 10
8.28841
 20
62.9567
 11
4.15309
 21
63.364
  0
LINE
  8
0
 10
4.15309
 20
63.364
 11
0
 21
63.5
  0
LINE
  8
0
 10
0
 20
63.5
 11
-4.15309
 21
63.364
  0
LINE
  8
0
 10
-4.15309
 20
63.364
 11
-8.28841
 21
62.9567
  0
LINE
  8
0
 10
-8.28841
 20
62.9567
 11
-12.3882
 21
62.2799
  0
LINE
  8
0
 10
-12.3882
 20
62.2799
 11
-16.435
 21
61.3363
  0
LINE
  8
0
 10
-16.435
 20
61.3363
 11
-20.4114
 21
60.1301
  0
LINE
  8
0
 10
-20.4114
 20
60.1301
 11
-24.3004
 21
58.6663
  0
LINE
  8
0
 10
-24.3004
 20
58.6663
 11
-28.0853
 21
56.9514
  0
LINE
  8
0
 10
-28.0853
 20
56.9514
 11
-31.75
 21
54.9926
  0
LINE
  8
0
 10
-31.75
 20
54.9926
 11
-35.2787
 21
52.7983
  0
LINE
  8
0
 10
-35.2787
 20
52.7983
 11
-38.6563
 21
50.3779
  0
LINE
  8
0
 10
-38.6563
 20
50.3779
 11
-41.8685
 21
47.7418
  0
LINE
  8
0
 10
-41.8685
 20
47.7418
 11
-44.9013
 21
44.9013
  0
LINE
  8
0
 10
-44.9013
 20
44.9013
 11
-47.7418
 21
41.8685
  0
LINE
  8
0
 10
-47.7418
 20
41.8685
 11
-50.3779
 21
38.6563
  0
LINE
  8
0
 10
-50.3779
 20
38.6563
 11
-52.7983
 21
35.2787
  0
LINE
  8
0
 10
-52.7983
 20
35.2787
 11
-54.9926
 21
31.75
  0
LINE
  8
0
 10
-54.9926
 20
31.75
 11
-56.9514
 21
28.0853
  0
LINE
  8
0
 10
-56.9514
 20
28.0853
 11
-58.6663
 21
24.3004
  0
LINE
  8
0
 10
-58.6663
 20
24.3004
 11
-60.1301
 21
20.4114
  0
LINE
  8
0
 10
-60.1301
 20
20.4114
 11
-61.3363
 21
16.435
  0
LINE
  8
0
 10
-61.3363
 20
16.435
 11
-62.2799
 21
12.3882
  0
LINE
  8
0
 10
-62.2799
 20
12.3882
 11
-62.9567
 21
8.28841
  0
LINE
  8
0
 10
-62.9567
 20
8.28841
 11
-63.364
 21
4.15309
  0
LINE
  8
0
 10
-63.364
 20
4.15309
 11
-63.5
 21
0
  0
LINE
  8
0
 10
-63.5
 20
0
 11
-63.364
 21
-4.15309
  0
LINE
  8
0
 10
-63.364
 20
-4.15309
 11
-62.9567
 21
-8.28841
  0
LINE
  8
0
 10
-62.9567
 20
-8.28841
 11
-62.2799
 21
-12.3882
  0
LINE
  8
0
 10
-62.2799
 20
-12.3882
 11
-61.3363
 21
-16.435
  0
LINE
  8
0
 10
-61.3363
 20
-16.435
 11
-60.1301
 21
-20.4114
  0
LINE
  8
0
 10
-60.1301
 20
-20.4114
 11
-58.6663
 21
-24.3004
  0
LINE
  8
0
 10
-58.6663
 20
-24.3004
 11
-56.9514
 21
-28.0853
  0
LINE
  8
0
 10
-56.9514
 20
-28.0853
 11
-54.9926
 21
-31.75
  0
LINE
  8
0
 10
-54.9926
 20
-31.75
 11
-52.7983
 21
-35.2787
  0
LINE
  8
0
 10
-52.7983
 20
-35.2787
 11
-50.3779
 21
-38.6563
  0
LINE
  8
0
 10
-50.3779
 20
-38.6563
 11
-47.7418
 21
-41.8685
  0
LINE
  8
0
 10
-47.7418
 20
-41.8685
 11
-44.9013
 21
-44.9013
  0
LINE
  8
0
 10
-44.9013
 20
-44.9013
 11
-41.8685
 21
-47.7418
  0
LINE
  8
0
 10
-41.8685
 20
-47.7418
 11
-38.6563
 21
-50.3779
  0
LINE
  8
0
 10
-38.6563
 20
-50.3779
 11
-35.2787
 21
-52.7983
  0
LINE
  8
0
 10
-35.2787
 20
-52.7983
 11
-31.75
 21
-54.9926
  0
LINE
  8
0
 10
-31.75
 20
-54.9926
 11
-28.0853
 21
-56.9514
  0
LINE
  8
0
 10
-28.0853
 20
-56.9514
 11
-24.3004
 21
-58.6663
  0
LINE
  8
0
 10
-24.3004
 20
-58.6663
 11
-20.4114
 21
-60.1301
  0
LINE
  8
0
 10
-20.4114
 20
-60.1301
 11
-16.435
 21
-61.3363
  0
LINE
  8
0
 10
-16.435
 20
-61.3363
 11
-12.3882
 21
-62.2799
  0
LINE
  8
0
 10
-12.3882
 20
-62.2799
 11
-8.28841
 21
-62.9567
  0
LINE
  8
0
 10
-8.28841
 20
-62.9567
 11
-4.15309
 21
-63.364
  0
LINE
  8
0
 10
-4.15309
 20
-63.364
 11
0
 21
-63.5
  0
LINE
  8
0
 10
0
 20
-63.5
 11
4.15309
 21
-63.364
  0
LINE
  8
0
 10
-0.114441
 20
55.2537
 11
-0.228409
 21
55.265
  0
LINE
  8
0
 10
-0.228409
 20
55.265
 11
-0.3414
 21
55.2836
  0
LINE
  8
0
 10
-0.3414
 20
55.2836
 11
-0.452927
 21
55.3096
  0
LINE
  8
0
 10
-0.452927
 20
55.3096
 11
-0.562515
 21
55.3429
  0
LINE
  8
0
 10
-0.562515
 20
55.3429
 11
-0.669693
 21
55.3832
  0
LINE
  8
0
 10
-0.669693
 20
55.3832
 11
-0.774002
 21
55.4305
  0
LINE
  8
0
 10
-0.774002
 20
55.4305
 11
-0.875
 21
55.4845
  0
LINE
  8
0
 10
-0.875
 20
55.4845
 11
-0.972244
 21
55.5449
  0
LINE
  8
0
 10
-0.972244
 20
55.5449
 11
-1.06532
 21
55.6116
  0
LINE
  8
0
 10
-1.06532
 20
55.6116
 11
-1.15385
 21
55.6843
  0
LINE
  8
0
 10
-1.15385
 20
55.6843
 11
-1.23743
 21
55.7626
  0
LINE
  8
0
 10
-1.23743
 20
55.7626
 11
-1.31572
 21
55.8461
  0
LINE
  8
0
 10
-1.31572
 20
55.8461
 11
-1.38837
 21
55.9347
  0
LINE
  8
0
 10
-1.38837
 20
55.9347
 11
-1.45506
 21
56.0277
  0
LINE
  8
0
 10
-1.45506
 20
56.0277
 11
-1.51553
 21
56.125
  0
LINE
  8
0
 10
-1.51553
 20
56.125
 11
-1.56952
 21
56.226
  0
LINE
  8
0
 10
-1.56952
 20
56.226
 11
-1.61678
 21
56.3303
  0
LINE
  8
0
 10
-1.61678
 20
56.3303
 11
-1.65712
 21
56.4375
  0
LINE
  8
0
 10
-1.65712
 20
56.4375
 11
-1.69037
 21
56.5471
  0
LINE
  8
0
 10
-1.69037
 20
56.5471
 11
-1.71637
 21
56.6586
  0
LINE
  8
0
 10
-1.71637
 20
56.6586
 11
-1.73502
 21
56.7716
  0
LINE
  8
0
 10
-1.73502
 20
56.7716
 11
-1.74625
 21
56.8855
  0
LINE
  8
0
 10
-1.74625
 20
56.8855
 11
-1.75
 21
57
  0
LINE
  8
0
 10
-1.75
 20
57
 11
-1.74625
 21
57.1144
  0
LINE
  8
0
 10
-1.74625
 20
57.1144
 11
-1.73502
 21
57.2284
  0
LINE
  8
0
 10
-1.73502
 20
57.2284
 11
-1.71637
 21
57.3414
  0
LINE
  8
0
 10
-1.71637
 20
57.3414
 11
-1.69037
 21
57.4529
  0
LINE
  8
0
 10
-1.69037
 20
57.4529
 11
-1.65712
 21
57.5625
  0
LINE
  8
0
 10
-1.65712
 20
57.5625
 11
-1.61678
 21
57.6697
  0
LINE
  8
0
 10
-1.61678
 20
57.6697
 11
-1.56952
 21
57.774
  0
LINE
  8
0
 10
-1.56952
 20
57.774
 11
-1.51553
 21
57.875
  0
LINE
  8
0
 10
-1.51553
 20
57.875
 11
-1.45506
 21
57.9722
  0
LINE
  8
0
 10
-1.45506
 20
57.9722
 11
-1.38837
 21
58.0653
  0
LINE
  8
0
 10
-1.38837
 20
58.0653
 11
-1.31572
 21
58.1539
  0
LINE
  8
0
 10
-1.31572
 20
58.1539
 11
-1.23743
 21
58.2374
  0
LINE
  8
0
 10
-1.23743
 20
58.2374
 11
-1.15385
 21
58.3157
  0
LINE
  8
0
 10
-1.15385
 20
58.3157
 11
-1.06532
 21
58.3884
  0
LINE
  8
0
 10
-1.06532
 20
58.3884
 11
-0.972244
 21
58.4551
  0
LINE
  8
0
 10
-0.972244
 20
58.4551
 11
-0.875
 21
58.5155
  0
LINE
  8
0
 10
-0.875
 20
58.5155
 11
-0.774002
 21
58.5695
  0
LINE
  8
0
 10
-0.774002
 20
58.5695
 11
-0.669693
 21
58.6168
  0
LINE
  8
0
 10
-0.669693
 20
58.6168
 11
-0.562515
 21
58.6571
  0
LINE
  8
0
 10
-0.562515
 20
58.6571
 11
-0.452927
 21
58.6904
  0
LINE
  8
0
 10
-0.452927
 20
58.6904
 11
-0.3414
 21
58.7164
  0
LINE
  8
0
 10
-0.3414
 20
58.7164
 11
-0.228409
 21
58.735
  0
LINE
  8
0
 10
-0.228409
 20
58.735
 11
-0.114441
 21
58.7462
  0
LINE
  8
0
 10
-0.114441
 20
58.7462
 11
0
 21
58.75
  0
LINE
  8
0
 10
0
 20
58.75
 11
0.114441
 21
58.7462
  0
LINE
  8
0
 10
0.114441
 20
58.7462
 11
0.228409
 21
58.735
  0
LINE
  8
0
 10
0.228409
 20
58.735
 11
0.3414
 21
58.7164
  0
LINE
  8
0
 10
0.3414
 20
58.7164
 11
0.452927
 21
58.6904
  0
LINE
  8
0
 10
0.452927
 20
58.6904
 11
0.562515
 21
58.6571
  0
LINE
  8
0
 10
0.562515
 20
58.6571
 11
0.669693
 21
58.6168
  0
LINE
  8
0
 10
0.669693
 20
58.6168
 11
0.774002
 21
58.5695
  0
LINE
  8
0
 10
0.774002
 20
58.5695
 11
0.875
 21
58.5155
  0
LINE
  8
0
 10
0.875
 20
58.5155
 11
0.972244
 21
58.4551
  0
LINE
  8
0
 10
0.972244
 20
58.4551
 11
1.06532
 21
58.3884
  0
LINE
  8
0
 10
1.06532
 20
58.3884
 11
1.15385
 21
58.3157
  0
LINE
  8
0
 10
1.15385
 20
58.3157
 11
1.23743
 21
58.2374
  0
LINE
  8
0
 10
1.23743
 20
58.2374
 11
1.31572
 21
58.1539
  0
LINE
  8
0
 10
1.31572
 20
58.1539
 11
1.38837
 21
58.0653
  0
LINE
  8
0
 10
1.38837
 20
58.0653
 11
1.45506
 21
57.9722
  0
LINE
  8
0
 10
1.45506
 20
57.9722
 11
1.51553
 21
57.875
  0
LINE
  8
0
 10
1.51553
 20
57.875
 11
1.56952
 21
57.774
  0
LINE
  8
0
 10
1.56952
 20
57.774
 11
1.61678
 21
57.6697
  0
LINE
  8
0
 10
1.61678
 20
57.6697
 11
1.65712
 21
57.5625
  0
LINE
  8
0
 10
1.65712
 20
57.5625
 11
1.69037
 21
57.4529
  0
LINE
  8
0
 10
1.69037
 20
57.4529
 11
1.71637
 21
57.3414
  0
LINE
  8
0
 10
1.71637
 20
57.3414
 11
1.73502
 21
57.2284
  0
LINE
  8
0
 10
1.73502
 20
57.2284
 11
1.74625
 21
57.1144
  0
LINE
  8
0
 10
1.74625
 20
57.1144
 11
1.75
 21
57
  0
LINE
  8
0
 10
1.75
 20
57
 11
1.74625
 21
56.8855
  0
LINE
  8
0
 10
1.74625
 20
56.8855
 11
1.73502
 21
56.7716
  0
LINE
  8
0
 10
1.73502
 20
56.7716
 11
1.71637
 21
56.6586
  0
LINE
  8
0
 10
1.71637
 20
56.6586
 11
1.69037
 21
56.5471
  0
LINE
  8
0
 10
1.69037
 20
56.5471
 11
1.65712
 21
56.4375
  0
LINE
  8
0
 10
1.65712
 20
56.4375
 11
1.61678
 21
56.3303
  0
LINE
  8
0
 10
1.61678
 20
56.3303
 11
1.56952
 21
56.226
  0
LINE
  8
0
 10
1.56952
 20
56.226
 11
1.51553
 21
56.125
  0
LINE
  8
0
 10
1.51553
 20
56.125
 11
1.45506
 21
56.0277
  0
LINE
  8
0
 10
1.45506
 20
56.0277
 11
1.38837
 21
55.9347
  0
LINE
  8
0
 10
1.38837
 20
55.9347
 11
1.31572
 21
55.8461
  0
LINE
  8
0
 10
1.31572
 20
55.8461
 11
1.23743
 21
55.7626
  0
LINE
  8
0
 10
1.23743
 20
55.7626
 11
1.15385
 21
55.6843
  0
LINE
  8
0
 10
1.15385
 20
55.6843
 11
1.06532
 21
55.6116
  0
LINE
  8
0
 10
1.06532
 20
55.6116
 11
0.972244
 21
55.5449
  0
LINE
  8
0
 10
0.972244
 20
55.5449
 11
0.875
 21
55.4845
  0
LINE
  8
0
 10
0.875
 20
55.4845
 11
0.774002
 21
55.4305
  0
LINE
  8
0
 10
0.774002
 20
55.4305
 11
0.669693
 21
55.3832
  0
LINE
  8
0
 10
0.669693
 20
55.3832
 11
0.562515
 21
55.3429
  0
LINE
  8
0
 10
0.562515
 20
55.3429
 11
0.452927
 21
55.3096
  0
LINE
  8
0
 10
0.452927
 20
55.3096
 11
0.3414
 21
55.2836
  0
LINE
  8
0
 10
0.3414
 20
55.2836
 11
0.228409
 21
55.265
  0
LINE
  8
0
 10
0.228409
 20
55.265
 11
0.114441
 21
55.2537
  0
LINE
  8
0
 10
0.114441
 20
55.2537
 11
0
 21
55.25
  0
LINE
  8
0
 10
0
 20
55.25
 11
-0.114441
 21
55.2537
  0
LINE
  8
0
 10
-0.114441
 20
25.2537
 11
-0.228409
 21
25.265
  0
LINE
  8
0
 10
-0.228409
 20
25.265
 11
-0.3414
 21
25.2836
  0
LINE
  8
0
 10
-0.3414
 20
25.2836
 11
-0.452927
 21
25.3096
  0
LINE
  8
0
 10
-0.452927
 20
25.3096
 11
-0.562515
 21
25.3429
  0
LINE
  8
0
 10
-0.562515
 20
25.3429
 11
-0.669693
 21
25.3832
  0
LINE
  8
0
 10
-0.669693
 20
25.3832
 11
-0.774002
 21
25.4305
  0
LINE
  8
0
 10
-0.774002
 20
25.4305
 11
-0.875
 21
25.4845
  0
LINE
  8
0
 10
-0.875
 20
25.4845
 11
-0.972244
 21
25.5449
  0
LINE
  8
0
 10
-0.972244
 20
25.5449
 11
-1.06532
 21
25.6116
  0
LINE
  8
0
 10
-1.06532
 20
25.6116
 11
-1.15385
 21
25.6843
  0
LINE
  8
0
 10
-1.15385
 20
25.6843
 11
-1.23743
 21
25.7626
  0
LINE
  8
0
 10
-1.23743
 20
25.7626
 11
-1.31572
 21
25.8461
  0
LINE
  8
0
 10
-1.31572
 20
25.8461
 11
-1.38837
 21
25.9347
  0
LINE
  8
0
 10
-1.38837
 20
25.9347
 11
-1.45506
 21
26.0277
  0
LINE
  8
0
 10
-1.45506
 20
26.0277
 11
-1.51553
 21
26.125
  0
LINE
  8
0
 10
-1.51553
 20
26.125
 11
-1.56952
 21
26.226
  0
LINE
  8
0
 10
-1.56952
 20
26.226
 11
-1.61678
 21
26.3303
  0
LINE
  8
0
 10
-1.61678
 20
26.3303
 11
-1.65712
 21
26.4375
  0
LINE
  8
0
 10
-1.65712
 20
26.4375
 11
-1.69037
 21
26.5471
  0
LINE
  8
0
 10
-1.69037
 20
26.5471
 11
-1.71637
 21
26.6586
  0
LINE
  8
0
 10
-1.71637
 20
26.6586
 11
-1.73502
 21
26.7716
  0
LINE
  8
0
 10
-1.73502
 20
26.7716
 11
-1.74625
 21
26.8855
  0
LINE
  8
0
 10
-1.74625
 20
26.8855
 11
-1.75
 21
27
  0
LINE
  8
0
 10
-1.75
 20
27
 11
-1.74625
 21
27.1144
  0
LINE
  8
0
 10
-1.74625
 20
27.1144
 11
-1.73502
 21
27.2284
  0
LINE
  8
0
 10
-1.73502
 20
27.2284
 11
-1.71637
 21
27.3414
  0
LINE
  8
0
 10
-1.71637
 20
27.3414
 11
-1.69037
 21
27.4529
  0
LINE
  8
0
 10
-1.69037
 20
27.4529
 11
-1.65712
 21
27.5625
  0
LINE
  8
0
 10
-1.65712
 20
27.5625
 11
-1.61678
 21
27.6697
  0
LINE
  8
0
 10
-1.61678
 20
27.6697
 11
-1.56952
 21
27.774
  0
LINE
  8
0
 10
-1.56952
 20
27.774
 11
-1.51553
 21
27.875
  0
LINE
  8
0
 10
-1.51553
 20
27.875
 11
-1.45506
 21
27.9722
  0
LINE
  8
0
 10
-1.45506
 20
27.9722
 11
-1.38837
 21
28.0653
  0
LINE
  8
0
 10
-1.38837
 20
28.0653
 11
-1.31572
 21
28.1539
  0
LINE
  8
0
 10
-1.31572
 20
28.1539
 11
-1.23743
 21
28.2374
  0
LINE
  8
0
 10
-1.23743
 20
28.2374
 11
-1.15385
 21
28.3157
  0
LINE
  8
0
 10
-1.15385
 20
28.3157
 11
-1.06532
 21
28.3884
  0
LINE
  8
0
 10
-1.06532
 20
28.3884
 11
-0.972244
 21
28.4551
  0
LINE
  8
0
 10
-0.972244
 20
28.4551
 11
-0.875
 21
28.5155
  0
LINE
  8
0
 10
-0.875
 20
28.5155
 11
-0.774002
 21
28.5695
  0
LINE
  8
0
 10
-0.774002
 20
28.5695
 11
-0.669693
 21
28.6168
  0
LINE
  8
0
 10
-0.669693
 20
28.6168
 11
-0.562515
 21
28.6571
  0
LINE
  8
0
 10
-0.562515
 20
28.6571
 11
-0.452927
 21
28.6904
  0
LINE
  8
0
 10
-0.452927
 20
28.6904
 11
-0.3414
 21
28.7164
  0
LINE
  8
0
 10
-0.3414
 20
28.7164
 11
-0.228409
 21
28.735
  0
LINE
  8
0
 10
-0.228409
 20
28.735
 11
-0.114441
 21
28.7462
  0
LINE
  8
0
 10
-0.114441
 20
28.7462
 11
0
 21
28.75
  0
LINE
  8
0
 10
0
 20
28.75
 11
0.114441
 21
28.7462
  0
LINE
  8
0
 10
0.114441
 20
28.7462
 11
0.228409
 21
28.735
  0
LINE
  8
0
 10
0.228409
 20
28.735
 11
0.3414
 21
28.7164
  0
LINE
  8
0
 10
0.3414
 20
28.7164
 11
0.452927
 21
28.6904
  0
LINE
  8
0
 10
0.452927
 20
28.6904
 11
0.562515
 21
28.6571
  0
LINE
  8
0
 10
0.562515
 20
28.6571
 11
0.669693
 21
28.6168
  0
LINE
  8
0
 10
0.669693
 20
28.6168
 11
0.774002
 21
28.5695
  0
LINE
  8
0
 10
0.774002
 20
28.5695
 11
0.875
 21
28.5155
  0
LINE
  8
0
 10
0.875
 20
28.5155
 11
0.972244
 21
28.4551
  0
LINE
  8
0
 10
0.972244
 20
28.4551
 11
1.06532
 21
28.3884
  0
LINE
  8
0
 10
1.06532
 20
28.3884
 11
1.15385
 21
28.3157
  0
LINE
  8
0
 10
1.15385
 20
28.3157
 11
1.23743
 21
28.2374
  0
LINE
  8
0
 10
1.23743
 20
28.2374
 11
1.31572
 21
28.1539
  0
LINE
  8
0
 10
1.31572
 20
28.1539
 11
1.38837
 21
28.0653
  0
LINE
  8
0
 10
1.38837
 20
28.0653
 11
1.45506
 21
27.9722
  0
LINE
  8
0
 10
1.45506
 20
27.9722
 11
1.51553
 21
27.875
  0
LINE
  8
0
 10
1.51553
 20
27.875
 11
1.56952
 21
27.774
  0
LINE
  8
0
 10
1.56952
 20
27.774
 11
1.61678
 21
27.6697
  0
LINE
  8
0
 10
1.61678
 20
27.6697
 11
1.65712
 21
27.5625
  0
LINE
  8
0
 10
1.65712
 20
27.5625
 11
1.69037
 21
27.4529
  0
LINE
  8
0
 10
1.69037
 20
27.4529
 11
1.71637
 21
27.3414
  0
LINE
  8
0
 10
1.71637
 20
27.3414
 11
1.73502
 21
27.2284
  0
LINE
  8
0
 10
1.73502
 20
27.2284
 11
1.74625
 21
27.1144
  0
LINE
  8
0
 10
1.74625
 20
27.1144
 11
1.75
 21
27
  0
LINE
  8
0
 10
1.75
 20
27
 11
1.74625
 21
26.8855
  0
LINE
  8
0
 10
1.74625
 20
26.8855
 11
1.73502
 21
26.7716
  0
LINE
  8
0
 10
1.73502
 20
26.7716
 11
1.71637
 21
26.6586
  0
LINE
  8
0
 10
1.71637
 20
26.6586
 11
1.69037
 21
26.5471
  0
LINE
  8
0
 10
1.69037
 20
26.5471
 11
1.65712
 21
26.4375
  0
LINE
  8
0
 10
1.65712
 20
26.4375
 11
1.61678
 21
26.3303
  0
LINE
  8
0
 10
1.61678
 20
26.3303
 11
1.56952
 21
26.226
  0
LINE
  8
0
 10
1.56952
 20
26.226
 11
1.51553
 21
26.125
  0
LINE
  8
0
 10
1.51553
 20
26.125
 11
1.45506
 21
26.0277
  0
LINE
  8
0
 10
1.45506
 20
26.0277
 11
1.38837
 21
25.9347
  0
LINE
  8
0
 10
1.38837
 20
25.9347
 11
1.31572
 21
25.8461
  0
LINE
  8
0
 10
1.31572
 20
25.8461
 11
1.23743
 21
25.7626
  0
LINE
  8
0
 10
1.23743
 20
25.7626
 11
1.15385
 21
25.6843
  0
LINE
  8
0
 10
1.15385
 20
25.6843
 11
1.06532
 21
25.6116
  0
LINE
  8
0
 10
1.06532
 20
25.6116
 11
0.972244
 21
25.5449
  0
LINE
  8
0
 10
0.972244
 20
25.5449
 11
0.875
 21
25.4845
  0
LINE
  8
0
 10
0.875
 20
25.4845
 11
0.774002
 21
25.4305
  0
LINE
  8
0
 10
0.774002
 20
25.4305
 11
0.669693
 21
25.3832
  0
LINE
  8
0
 10
0.669693
 20
25.3832
 11
0.562515
 21
25.3429
  0
LINE
  8
0
 10
0.562515
 20
25.3429
 11
0.452927
 21
25.3096
  0
LINE
  8
0
 10
0.452927
 20
25.3096
 11
0.3414
 21
25.2836
  0
LINE
  8
0
 10
0.3414
 20
25.2836
 11
0.228409
 21
25.265
  0
LINE
  8
0
 10
0.228409
 20
25.265
 11
0.114441
 21
25.2537
  0
LINE
  8
0
 10
0.114441
 20
25.2537
 11
0
 21
25.25
  0
LINE
  8
0
 10
0
 20
25.25
 11
-0.114441
 21
25.2537
  0
LINE
  8
0
 10
12.5873
 20
10.5825
 11
12.4473
 21
10.5963
  0
LINE
  8
0
 10
12.4473
 20
10.5963
 11
12.3085
 21
10.6192
  0
LINE
  8
0
 10
12.3085
 20
10.6192
 11
12.1714
 21
10.6512
  0
LINE
  8
0
 10
12.1714
 20
10.6512
 11
12.0368
 21
10.692
  0
LINE
  8
0
 10
12.0368
 20
10.692
 11
11.9052
 21
10.7416
  0
LINE
  8
0
 10
11.9052
 20
10.7416
 11
11.777
 21
10.7996
  0
LINE
  8
0
 10
11.777
 20
10.7996
 11
11.6529
 21
10.866
  0
LINE
  8
0
 10
11.6529
 20
10.866
 11
11.5334
 21
10.9403
  0
LINE
  8
0
 10
11.5334
 20
10.9403
 11
11.4191
 21
11.0222
  0
LINE
  8
0
 10
11.4191
 20
11.0222
 11
11.3103
 21
11.1115
  0
LINE
  8
0
 10
11.3103
 20
11.1115
 11
11.2076
 21
11.2076
  0
LINE
  8
0
 10
11.2076
 20
11.2076
 11
11.1115
 21
11.3103
  0
LINE
  8
0
 10
11.1115
 20
11.3103
 11
11.0222
 21
11.4191
  0
LINE
  8
0
 10
11.0222
 20
11.4191
 11
10.9403
 21
11.5334
  0
LINE
  8
0
 10
10.9403
 20
11.5334
 11
10.866
 21
11.6529
  0
LINE
  8
0
 10
10.866
 20
11.6529
 11
10.7996
 21
11.777
  0
LINE
  8
0
 10
10.7996
 20
11.777
 11
10.7416
 21
11.9052
  0
LINE
  8
0
 10
10.7416
 20
11.9052
 11
10.692
 21
12.0368
  0
LINE
  8
0
 10
10.692
 20
12.0368
 11
10.6512
 21
12.1714
  0
LINE
  8
0
 10
10.6512
 20
12.1714
 11
10.6192
 21
12.3085
  0
LINE
  8
0
 10
10.6192
 20
12.3085
 11
10.5963
 21
12.4473
  0
LINE
  8
0
 10
10.5963
 20
12.4473
 11
10.5825
 21
12.5873
  0
LINE
  8
0
 10
10.5825
 20
12.5873
 11
10.5779
 21
12.7279
  0
LINE
  8
0
 10
10.5779
 20
12.7279
 11
10.5825
 21
12.8685
  0
LINE
  8
0
 10
10.5825
 20
12.8685
 11
10.5963
 21
13.0085
  0
LINE
  8
0
 10
10.5963
 20
13.0085
 11
10.6192
 21
13.1474
  0
LINE
  8
0
 10
10.6192
 20
13.1474
 11
10.6512
 21
13.2844
  0
LINE
  8
0
 10
10.6512
 20
13.2844
 11
10.692
 21
13.419
  0
LINE
  8
0
 10
10.692
 20
13.419
 11
10.7416
 21
13.5507
  0
LINE
  8
0
 10
10.7416
 20
13.5507
 11
10.7996
 21
13.6788
  0
LINE
  8
0
 10
10.7996
 20
13.6788
 11
10.866
 21
13.8029
  0
LINE
  8
0
 10
10.866
 20
13.8029
 11
10.9403
 21
13.9224
  0
LINE
  8
0
 10
10.9403
 20
13.9224
 11
11.0222
 21
14.0368
  0
LINE
  8
0
 10
11.0222
 20
14.0368
 11
11.1115
 21
14.1455
  0
LINE
  8
0
 10
11.1115
 20
14.1455
 11
11.2076
 21
14.2482
  0
LINE
  8
0
 10
11.2076
 20
14.2482
 11
11.3103
 21
14.3444
  0
LINE
  8
0
 10
11.3103
 20
14.3444
 11
11.4191
 21
14.4336
  0
LINE
  8
0
 10
11.4191
 20
14.4336
 11
11.5334
 21
14.5156
  0
LINE
  8
0
 10
11.5334
 20
14.5156
 11
11.6529
 21
14.5899
  0
LINE
  8
0
 10
11.6529
 20
14.5899
 11
11.777
 21
14.6562
  0
LINE
  8
0
 10
11.777
 20
14.6562
 11
11.9052
 21
14.7142
  0
LINE
  8
0
 10
11.9052
 20
14.7142
 11
12.0368
 21
14.7638
  0
LINE
  8
0
 10
12.0368
 20
14.7638
 11
12.1714
 21
14.8047
  0
LINE
  8
0
 10
12.1714
 20
14.8047
 11
12.3085
 21
14.8366
  0
LINE
  8
0
 10
12.3085
 20
14.8366
 11
12.4473
 21
14.8595
  0
LINE
  8
0
 10
12.4473
 20
14.8595
 11
12.5873
 21
14.8733
  0
LINE
  8
0
 10
12.5873
 20
14.8733
 11
12.7279
 21
14.8779
  0
LINE
  8
0
 10
12.7279
 20
14.8779
 11
12.8685
 21
14.8733
  0
LINE
  8
0
 10
12.8685
 20
14.8733
 11
13.0085
 21
14.8595
  0
LINE
  8
0
 10
13.0085
 20
14.8595
 11
13.1474
 21
14.8366
  0
LINE
  8
0
 10
13.1474
 20
14.8366
 11
13.2844
 21
14.8047
  0
LINE
  8
0
 10
13.2844
 20
14.8047
 11
13.419
 21
14.7638
  0
LINE
  8
0
 10
13.419
 20
14.7638
 11
13.5507
 21
14.7142
  0
LINE
  8
0
 10
13.5507
 20
14.7142
 11
13.6788
 21
14.6562
  0
LINE
  8
0
 10
13.6788
 20
14.6562
 11
13.8029
 21
14.5899
  0
LINE
  8
0
 10
13.8029
 20
14.5899
 11
13.9224
 21
14.5156
  0
LINE
  8
0
 10
13.9224
 20
14.5156
 11
14.0368
 21
14.4336
  0
LINE
  8
0
 10
14.0368
 20
14.4336
 11
14.1455
 21
14.3444
  0
LINE
  8
0
 10
14.1455
 20
14.3444
 11
14.2482
 21
14.2482
  0
LINE
  8
0
 10
14.2482
 20
14.2482
 11
14.3444
 21
14.1455
  0
LINE
  8
0
 10
14.3444
 20
14.1455
 11
14.4336
 21
14.0368
  0
LINE
  8
0
 10
14.4336
 20
14.0368
 11
14.5156
 21
13.9224
  0
LINE
  8
0
 10
14.5156
 20
13.9224
 11
14.5899
 21
13.8029
  0
LINE
  8
0
 10
14.5899
 20
13.8029
 11
14.6562
 21
13.6788
  0
LINE
  8
0
 10
14.6562
 20
13.6788
 11
14.7142
 21
13.5507
  0
LINE
  8
0
 10
14.7142
 20
13.5507
 11
14.7638
 21
13.419
  0
LINE
  8
0
 10
14.7638
 20
13.419
 11
14.8047
 21
13.2844
  0
LINE
  8
0
 10
14.8047
 20
13.2844
 11
14.8366
 21
13.1474
  0
LINE
  8
0
 10
14.8366
 20
13.1474
 11
14.8595
 21
13.0085
  0
LINE
  8
0
 10
14.8595
 20
13.0085
 11
14.8733
 21
12.8685
  0
LINE
  8
0
 10
14.8733
 20
12.8685
 11
14.8779
 21
12.7279
  0
LINE
  8
0
 10
14.8779
 20
12.7279
 11
14.8733
 21
12.5873
  0
LINE
  8
0
 10
14.8733
 20
12.5873
 11
14.8595
 21
12.4473
  0
LINE
  8
0
 10
14.8595
 20
12.4473
 11
14.8366
 21
12.3085
  0
LINE
  8
0
 10
14.8366
 20
12.3085
 11
14.8047
 21
12.1714
  0
LINE
  8
0
 10
14.8047
 20
12.1714
 11
14.7638
 21
12.0368
  0
LINE
  8
0
 10
14.7638
 20
12.0368
 11
14.7142
 21
11.9052
  0
LINE
  8
0
 10
14.7142
 20
11.9052
 11
14.6562
 21
11.777
  0
LINE
  8
0
 10
14.6562
 20
11.777
 11
14.5899
 21
11.6529
  0
LINE
  8
0
 10
14.5899
 20
11.6529
 11
14.5156
 21
11.5334
  0
LINE
  8
0
 10
14.5156
 20
11.5334
 11
14.4336
 21
11.4191
  0
LINE
  8
0
 10
14.4336
 20
11.4191
 11
14.3444
 21
11.3103
  0
LINE
  8
0
 10
14.3444
 20
11.3103
 11
14.2482
 21
11.2076
  0
LINE
  8
0
 10
14.2482
 20
11.2076
 11
14.1455
 21
11.1115
  0
LINE
  8
0
 10
14.1455
 20
11.1115
 11
14.0368
 21
11.0222
  0
LINE
  8
0
 10
14.0368
 20
11.0222
 11
13.9224
 21
10.9403
  0
LINE
  8
0
 10
13.9224
 20
10.9403
 11
13.8029
 21
10.866
  0
LINE
  8
0
 10
13.8029
 20
10.866
 11
13.6788
 21
10.7996
  0
LINE
  8
0
 10
13.6788
 20
10.7996
 11
13.5507
 21
10.7416
  0
LINE
  8
0
 10
13.5507
 20
10.7416
 11
13.419
 21
10.692
  0
LINE
  8
0
 10
13.419
 20
10.692
 11
13.2844
 21
10.6512
  0
LINE
  8
0
 10
13.2844
 20
10.6512
 11
13.1474
 21
10.6192
  0
LINE
  8
0
 10
13.1474
 20
10.6192
 11
13.0085
 21
10.5963
  0
LINE
  8
0
 10
13.0085
 20
10.5963
 11
12.8685
 21
10.5825
  0
LINE
  8
0
 10
12.8685
 20
10.5825
 11
12.7279
 21
10.5779
  0
LINE
  8
0
 10
12.7279
 20
10.5779
 11
12.5873
 21
10.5825
  0
LINE
  8
0
 10
-12.8685
 20
10.5825
 11
-13.0085
 21
10.5963
  0
LINE
  8
0
 10
-13.0085
 20
10.5963
 11
-13.1474
 21
10.6192
  0
LINE
  8
0
 10
-13.1474
 20
10.6192
 11
-13.2844
 21
10.6512
  0
LINE
  8
0
 10
-13.2844
 20
10.6512
 11
-13.419
 21
10.692
  0
LINE
  8
0
 10
-13.419
 20
10.692
 11
-13.5507
 21
10.7416
  0
LINE
  8
0
 10
-13.5507
 20
10.7416
 11
-13.6788
 21
10.7996
  0
LINE
  8
0
 10
-13.6788
 20
10.7996
 11
-13.8029
 21
10.866
  0
LINE
  8
0
 10
-13.8029
 20
10.866
 11
-13.9224
 21
10.9403
  0
LINE
  8
0
 10
-13.9224
 20
10.9403
 11
-14.0368
 21
11.0222
  0
LINE
  8
0
 10
-14.0368
 20
11.0222
 11
-14.1455
 21
11.1115
  0
LINE
  8
0
 10
-14.1455
 20
11.1115
 11
-14.2482
 21
11.2076
  0
LINE
  8
0
 10
-14.2482
 20
11.2076
 11
-14.3444
 21
11.3103
  0
LINE
  8
0
 10
-14.3444
 20
11.3103
 11
-14.4336
 21
11.4191
  0
LINE
  8
0
 10
-14.4336
 20
11.4191
 11
-14.5156
 21
11.5334
  0
LINE
  8
0
 10
-14.5156
 20
11.5334
 11
-14.5899
 21
11.6529
  0
LINE
  8
0
 10
-14.5899
 20
11.6529
 11
-14.6562
 21
11.777
  0
LINE
  8
0
 10
-14.6562
 20
11.777
 11
-14.7142
 21
11.9052
  0
LINE
  8
0
 10
-14.7142
 20
11.9052
 11
-14.7638
 21
12.0368
  0
LINE
  8
0
 10
-14.7638
 20
12.0368
 11
-14.8047
 21
12.1714
  0
LINE
  8
0
 10
-14.8047
 20
12.1714
 11
-14.8366
 21
12.3085
  0
LINE
  8
0
 10
-14.8366
 20
12.3085
 11
-14.8595
 21
12.4473
  0
LINE
  8
0
 10
-14.8595
 20
12.4473
 11
-14.8733
 21
12.5873
  0
LINE
  8
0
 10
-14.8733
 20
12.5873
 11
-14.8779
 21
12.7279
  0
LINE
  8
0
 10
-14.8779
 20
12.7279
 11
-14.8733
 21
12.8685
  0
LINE
  8
0
 10
-14.8733
 20
12.8685
 11
-14.8595
 21
13.0085
  0
LINE
  8
0
 10
-14.8595
 20
13.0085
 11
-14.8366
 21
13.1474
  0
LINE
  8
0
 10
-14.8366
 20
13.1474
 11
-14.8047
 21
13.2844
  0
LINE
  8
0
 10
-14.8047
 20
13.2844
 11
-14.7638
 21
13.419
  0
LINE
  8
0
 10
-14.7638
 20
13.419
 11
-14.7142
 21
13.5507
  0
LINE
  8
0
 10
-14.7142
 20
13.5507
 11
-14.6562
 21
13.6788
  0
LINE
  8
0
 10
-14.6562
 20
13.6788
 11
-14.5899
 21
13.8029
  0
LINE
  8
0
 10
-14.5899
 20
13.8029
 11
-14.5156
 21
13.9224
  0
LINE
  8
0
 10
-14.5156
 20
13.9224
 11
-14.4336
 21
14.0368
  0
LINE
  8
0
 10
-14.4336
 20
14.0368
 11
-14.3444
 21
14.1455
  0
LINE
  8
0
 10
-14.3444
 20
14.1455
 11
-14.2482
 21
14.2482
  0
LINE
  8
0
 10
-14.2482
 20
14.2482
 11
-14.1455
 21
14.3444
  0
LINE
  8
0
 10
-14.1455
 20
14.3444
 11
-14.0368
 21
14.4336
  0
LINE
  8
0
 10
-14.0368
 20
14.4336
 11
-13.9224
 21
14.5156
  0
LINE
  8
0
 10
-13.9224
 20
14.5156
 11
-13.8029
 21
14.5899
  0
LINE
  8
0
 10
-13.8029
 20
14.5899
 11
-13.6788
 21
14.6562
  0
LINE
  8
0
 10
-13.6788
 20
14.6562
 11
-13.5507
 21
14.7142
  0
LINE
  8
0
 10
-13.5507
 20
14.7142
 11
-13.419
 21
14.7638
  0
LINE
  8
0
 10
-13.419
 20
14.7638
 11
-13.2844
 21
14.8047
  0
LINE
  8
0
 10
-13.2844
 20
14.8047
 11
-13.1474
 21
14.8366
  0
LINE
  8
0
 10
-13.1474
 20
14.8366
 11
-13.0085
 21
14.8595
  0
LINE
  8
0
 10
-13.0085
 20
14.8595
 11
-12.8685
 21
14.8733
  0
LINE
  8
0
 10
-12.8685
 20
14.8733
 11
-12.7279
 21
14.8779
  0
LINE
  8
0
 10
-12.7279
 20
14.8779
 11
-12.5873
 21
14.8733
  0
LINE
  8
0
 10
-12.5873
 20
14.8733
 11
-12.4473
 21
14.8595
  0
LINE
  8
0
 10
-12.4473
 20
14.8595
 11
-12.3085
 21
14.8366
  0
LINE
  8
0
 10
-12.3085
 20
14.8366
 11
-12.1714
 21
14.8047
  0
LINE
  8
0
 10
-12.1714
 20
14.8047
 11
-12.0368
 21
14.7638
  0
LINE
  8
0
 10
-12.0368
 20
14.7638
 11
-11.9052
 21
14.7142
  0
LINE
  8
0
 10
-11.9052
 20
14.7142
 11
-11.777
 21
14.6562
  0
LINE
  8
0
 10
-11.777
 20
14.6562
 11
-11.6529
 21
14.5899
  0
LINE
  8
0
 10
-11.6529
 20
14.5899
 11
-11.5334
 21
14.5156
  0
LINE
  8
0
 10
-11.5334
 20
14.5156
 11
-11.4191
 21
14.4336
  0
LINE
  8
0
 10
-11.4191
 20
14.4336
 11
-11.3103
 21
14.3444
  0
LINE
  8
0
 10
-11.3103
 20
14.3444
 11
-11.2076
 21
14.2482
  0
LINE
  8
0
 10
-11.2076
 20
14.2482
 11
-11.1115
 21
14.1455
  0
LINE
  8
0
 10
-11.1115
 20
14.1455
 11
-11.0222
 21
14.0368
  0
LINE
  8
0
 10
-11.0222
 20
14.0368
 11
-10.9403
 21
13.9224
  0
LINE
  8
0
 10
-10.9403
 20
13.9224
 11
-10.866
 21
13.8029
  0
LINE
  8
0
 10
-10.866
 20
13.8029
 11
-10.7996
 21
13.6788
  0
LINE
  8
0
 10
-10.7996
 20
13.6788
 11
-10.7416
 21
13.5507
  0
LINE
  8
0
 10
-10.7416
 20
13.5507
 11
-10.692
 21
13.419
  0
LINE
  8
0
 10
-10.692
 20
13.419
 11
-10.6512
 21
13.2844
  0
LINE
  8
0
 10
-10.6512
 20
13.2844
 11
-10.6192
 21
13.1474
  0
LINE
  8
0
 10
-10.6192
 20
13.1474
 11
-10.5963
 21
13.0085
  0
LINE
  8
0
 10
-10.5963
 20
13.0085
 11
-10.5825
 21
12.8685
  0
LINE
  8
0
 10
-10.5825
 20
12.8685
 11
-10.5779
 21
12.7279
  0
LINE
  8
0
 10
-10.5779
 20
12.7279
 11
-10.5825
 21
12.5873
  0
LINE
  8
0
 10
-10.5825
 20
12.5873
 11
-10.5963
 21
12.4473
  0
LINE
  8
0
 10
-10.5963
 20
12.4473
 11
-10.6192
 21
12.3085
  0
LINE
  8
0
 10
-10.6192
 20
12.3085
 11
-10.6512
 21
12.1714
  0
LINE
  8
0
 10
-10.6512
 20
12.1714
 11
-10.692
 21
12.0368
  0
LINE
  8
0
 10
-10.692
 20
12.0368
 11
-10.7416
 21
11.9052
  0
LINE
  8
0
 10
-10.7416
 20
11.9052
 11
-10.7996
 21
11.777
  0
LINE
  8
0
 10
-10.7996
 20
11.777
 11
-10.866
 21
11.6529
  0
LINE
  8
0
 10
-10.866
 20
11.6529
 11
-10.9403
 21
11.5334
  0
LINE
  8
0
 10
-10.9403
 20
11.5334
 11
-11.0222
 21
11.4191
  0
LINE
  8
0
 10
-11.0222
 20
11.4191
 11
-11.1115
 21
11.3103
  0
LINE
  8
0
 10
-11.1115
 20
11.3103
 11
-11.2076
 21
11.2076
  0
LINE
  8
0
 10
-11.2076
 20
11.2076
 11
-11.3103
 21
11.1115
  0
LINE
  8
0
 10
-11.3103
 20
11.1115
 11
-11.4191
 21
11.0222
  0
LINE
  8
0
 10
-11.4191
 20
11.0222
 11
-11.5334
 21
10.9403
  0
LINE
  8
0
 10
-11.5334
 20
10.9403
 11
-11.6529
 21
10.866
  0
LINE
  8
0
 10
-11.6529
 20
10.866
 11
-11.777
 21
10.7996
  0
LINE
  8
0
 10
-11.777
 20
10.7996
 11
-11.9052
 21
10.7416
  0
LINE
  8
0
 10
-11.9052
 20
10.7416
 11
-12.0368
 21
10.692
  0
LINE
  8
0
 10
-12.0368
 20
10.692
 11
-12.1714
 21
10.6512
  0
LINE
  8
0
 10
-12.1714
 20
10.6512
 11
-12.3085
 21
10.6192
  0
LINE
  8
0
 10
-12.3085
 20
10.6192
 11
-12.4473
 21
10.5963
  0
LINE
  8
0
 10
-12.4473
 20
10.5963
 11
-12.5873
 21
10.5825
  0
LINE
  8
0
 10
-12.5873
 20
10.5825
 11
-12.7279
 21
10.5779
  0
LINE
  8
0
 10
-12.7279
 20
10.5779
 11
-12.8685
 21
10.5825
  0
LINE
  8
0
 10
-0.850235
 20
-12.9722
 11
-1.69684
 21
-12.8888
  0
LINE
  8
0
 10
-1.69684
 20
-12.8888
 11
-2.53616
 21
-12.7502
  0
LINE
  8
0
 10
-2.53616
 20
-12.7502
 11
-3.36464
 21
-12.557
  0
LINE
  8
0
 10
-3.36464
 20
-12.557
 11
-4.17871
 21
-12.3101
  0
LINE
  8
0
 10
-4.17871
 20
-12.3101
 11
-4.97488
 21
-12.0104
  0
LINE
  8
0
 10
-4.97488
 20
-12.0104
 11
-5.74974
 21
-11.6593
  0
LINE
  8
0
 10
-5.74974
 20
-11.6593
 11
-6.5
 21
-11.2583
  0
LINE
  8
0
 10
-6.5
 20
-11.2583
 11
-7.22241
 21
-10.8091
  0
LINE
  8
0
 10
-7.22241
 20
-10.8091
 11
-7.91389
 21
-10.3136
  0
LINE
  8
0
 10
-7.91389
 20
-10.3136
 11
-8.57149
 21
-9.77391
  0
LINE
  8
0
 10
-8.57149
 20
-9.77391
 11
-9.19238
 21
-9.19238
  0
LINE
  8
0
 10
-9.19238
 20
-9.19238
 11
-9.77391
 21
-8.57149
  0
LINE
  8
0
 10
-9.77391
 20
-8.57149
 11
-10.3136
 21
-7.91389
  0
LINE
  8
0
 10
-10.3136
 20
-7.91389
 11
-10.8091
 21
-7.22241
  0
LINE
  8
0
 10
-10.8091
 20
-7.22241
 11
-11.2583
 21
-6.5
  0
LINE
  8
0
 10
-11.2583
 20
-6.5
 11
-11.6593
 21
-5.74974
  0
LINE
  8
0
 10
-11.6593
 20
-5.74974
 11
-12.0104
 21
-4.97488
  0
LINE
  8
0
 10
-12.0104
 20
-4.97488
 11
-12.3101
 21
-4.17871
  0
LINE
  8
0
 10
-12.3101
 20
-4.17871
 11
-12.557
 21
-3.36464
  0
LINE
  8
0
 10
-12.557
 20
-3.36464
 11
-12.7502
 21
-2.53616
  0
LINE
  8
0
 10
-12.7502
 20
-2.53616
 11
-12.8888
 21
-1.69684
  0
LINE
  8
0
 10
-12.8888
 20
-1.69684
 11
-12.9722
 21
-0.850235
  0
LINE
  8
0
 10
-12.9722
 20
-0.850235
 11
-13
 21
0
  0
LINE
  8
0
 10
-13
 20
0
 11
-12.9722
 21
0.850235
  0
LINE
  8
0
 10
-12.9722
 20
0.850235
 11
-12.8888
 21
1.69684
  0
LINE
  8
0
 10
-12.8888
 20
1.69684
 11
-12.7502
 21
2.53616
  0
LINE
  8
0
 10
-12.7502
 20
2.53616
 11
-12.557
 21
3.36464
  0
LINE
  8
0
 10
-12.557
 20
3.36464
 11
-12.3101
 21
4.17871
  0
LINE
  8
0
 10
-12.3101
 20
4.17871
 11
-12.0104
 21
4.97488
  0
LINE
  8
0
 10
-12.0104
 20
4.97488
 11
-11.6593
 21
5.74974
  0
LINE
  8
0
 10
-11.6593
 20
5.74974
 11
-11.2583
 21
6.5
  0
LINE
  8
0
 10
-11.2583
 20
6.5
 11
-10.8091
 21
7.22241
  0
LINE
  8
0
 10
-10.8091
 20
7.22241
 11
-10.3136
 21
7.91389
  0
LINE
  8
0
 10
-10.3136
 20
7.91389
 11
-9.77391
 21
8.57149
  0
LINE
  8
0
 10
-9.77391
 20
8.57149
 11
-9.19238
 21
9.19238
  0
LINE
  8
0
 10
-9.19238
 20
9.19238
 11
-8.57149
 21
9.77391
  0
LINE
  8
0
 10
-8.57149
 20
9.77391
 11
-7.91389
 21
10.3136
  0
LINE
  8
0
 10
-7.91389
 20
10.3136
 11
-7.22241
 21
10.8091
  0
LINE
  8
0
 10
-7.22241
 20
10.8091
 11
-6.5
 21
11.2583
  0
LINE
  8
0
 10
-6.5
 20
11.2583
 11
-5.74974
 21
11.6593
  0
LINE
  8
0
 10
-5.74974
 20
11.6593
 11
-4.97488
 21
12.0104
  0
LINE
  8
0
 10
-4.97488
 20
12.0104
 11
-4.17871
 21
12.3101
  0
LINE
  8
0
 10
-4.17871
 20
12.3101
 11
-3.36464
 21
12.557
  0
LINE
  8
0
 10
-3.36464
 20
12.557
 11
-2.53616
 21
12.7502
  0
LINE
  8
0
 10
-2.53616
 20
12.7502
 11
-1.69684
 21
12.8888
  0
LINE
  8
0
 10
-1.69684
 20
12.8888
 11
-0.850235
 21
12.9722
  0
LINE
  8
0
 10
-0.850235
 20
12.9722
 11
0
 21
13
  0
LINE
  8
0
 10
0
 20
13
 11
0.850235
 21
12.9722
  0
LINE
  8
0
 10
0.850235
 20
12.9722
 11
1.69684
 21
12.8888
  0
LINE
  8
0
 10
1.69684
 20
12.8888
 11
2.53616
 21
12.7502
  0
LINE
  8
0
 10
2.53616
 20
12.7502
 11
3.36464
 21
12.557
  0
LINE
  8
0
 10
3.36464
 20
12.557
 11
4.17871
 21
12.3101
  0
LINE
  8
0
 10
4.17871
 20
12.3101
 11
4.97488
 21
12.0104
  0
LINE
  8
0
 10
4.97488
 20
12.0104
 11
5.74974
 21
11.6593
  0
LINE
  8
0
 10
5.74974
 20
11.6593
 11
6.5
 21
11.2583
  0
LINE
  8
0
 10
6.5
 20
11.2583
 11
7.22241
 21
10.8091
  0
LINE
  8
0
 10
7.22241
 20
10.8091
 11
7.91389
 21
10.3136
  0
LINE
  8
0
 10
7.91389
 20
10.3136
 11
8.57149
 21
9.77391
  0
LINE
  8
0
 10
8.57149
 20
9.77391
 11
9.19238
 21
9.19238
  0
LINE
  8
0
 10
9.19238
 20
9.19238
 11
9.77391
 21
8.57149
  0
LINE
  8
0
 10
9.77391
 20
8.57149
 11
10.3136
 21
7.91389
  0
LINE
  8
0
 10
10.3136
 20
7.91389
 11
10.8091
 21
7.22241
  0
LINE
  8
0
 10
10.8091
 20
7.22241
 11
11.2583
 21
6.5
  0
LINE
  8
0
 10
11.2583
 20
6.5
 11
11.6593
 21
5.74974
  0
LINE
  8
0
 10
11.6593
 20
5.74974
 11
12.0104
 21
4.97488
  0
LINE
  8
0
 10
12.0104
 20
4.97488
 11
12.3101
 21
4.17871
  0
LINE
  8
0
 10
12.3101
 20
4.17871
 11
12.557
 21
3.36464
  0
LINE
  8
0
 10
12.557
 20
3.36464
 11
12.7502
 21
2.53616
  0
LINE
  8
0
 10
12.7502
 20
2.53616
 11
12.8888
 21
1.69684
  0
LINE
  8
0
 10
12.8888
 20
1.69684
 11
12.9722
 21
0.850235
  0
LINE
  8
0
 10
12.9722
 20
0.850235
 11
13
 21
0
  0
LINE
  8
0
 10
13
 20
0
 11
12.9722
 21
-0.850235
  0
LINE
  8
0
 10
12.9722
 20
-0.850235
 11
12.8888
 21
-1.69684
  0
LINE
  8
0
 10
12.8888
 20
-1.69684
 11
12.7502
 21
-2.53616
  0
LINE
  8
0
 10
12.7502
 20
-2.53616
 11
12.557
 21
-3.36464
  0
LINE
  8
0
 10
12.557
 20
-3.36464
 11
12.3101
 21
-4.17871
  0
LINE
  8
0
 10
12.3101
 20
-4.17871
 11
12.0104
 21
-4.97488
  0
LINE
  8
0
 10
12.0104
 20
-4.97488
 11
11.6593
 21
-5.74974
  0
LINE
  8
0
 10
11.6593
 20
-5.74974
 11
11.2583
 21
-6.5
  0
LINE
  8
0
 10
11.2583
 20
-6.5
 11
10.8091
 21
-7.22241
  0
LINE
  8
0
 10
10.8091
 20
-7.22241
 11
10.3136
 21
-7.91389
  0
LINE
  8
0
 10
10.3136
 20
-7.91389
 11
9.77391
 21
-8.57149
  0
LINE
  8
0
 10
9.77391
 20
-8.57149
 11
9.19238
 21
-9.19238
  0
LINE
  8
0
 10
9.19238
 20
-9.19238
 11
8.57149
 21
-9.77391
  0
LINE
  8
0
 10
8.57149
 20
-9.77391
 11
7.91389
 21
-10.3136
  0
LINE
  8
0
 10
7.91389
 20
-10.3136
 11
7.22241
 21
-10.8091
  0
LINE
  8
0
 10
7.22241
 20
-10.8091
 11
6.5
 21
-11.2583
  0
LINE
  8
0
 10
6.5
 20
-11.2583
 11
5.74974
 21
-11.6593
  0
LINE
  8
0
 10
5.74974
 20
-11.6593
 11
4.97488
 21
-12.0104
  0
LINE
  8
0
 10
4.97488
 20
-12.0104
 11
4.17871
 21
-12.3101
  0
LINE
  8
0
 10
4.17871
 20
-12.3101
 11
3.36464
 21
-12.557
  0
LINE
  8
0
 10
3.36464
 20
-12.557
 11
2.53616
 21
-12.7502
  0
LINE
  8
0
 10
2.53616
 20
-12.7502
 11
1.69684
 21
-12.8888
  0
LINE
  8
0
 10
1.69684
 20
-12.8888
 11
0.850235
 21
-12.9722
  0
LINE
  8
0
 10
0.850235
 20
-12.9722
 11
0
 21
-13
  0
LINE
  8
0
 10
0
 20
-13
 11
-0.850235
 21
-12.9722
  0
LINE
  8
0
 10
26.8855
 20
-1.74625
 11
26.7716
 21
-1.73502
  0
LINE
  8
0
 10
26.7716
 20
-1.73502
 11
26.6586
 21
-1.71637
  0
LINE
  8
0
 10
26.6586
 20
-1.71637
 11
26.5471
 21
-1.69037
  0
LINE
  8
0
 10
26.5471
 20
-1.69037
 11
26.4375
 21
-1.65712
  0
LINE
  8
0
 10
26.4375
 20
-1.65712
 11
26.3303
 21
-1.61678
  0
LINE
  8
0
 10
26.3303
 20
-1.61678
 11
26.226
 21
-1.56952
  0
LINE
  8
0
 10
26.226
 20
-1.56952
 11
26.125
 21
-1.51553
  0
LINE
  8
0
 10
26.125
 20
-1.51553
 11
26.0277
 21
-1.45506
  0
LINE
  8
0
 10
26.0277
 20
-1.45506
 11
25.9347
 21
-1.38837
  0
LINE
  8
0
 10
25.9347
 20
-1.38837
 11
25.8461
 21
-1.31572
  0
LINE
  8
0
 10
25.8461
 20
-1.31572
 11
25.7626
 21
-1.23743
  0
LINE
  8
0
 10
25.7626
 20
-1.23743
 11
25.6843
 21
-1.15385
  0
LINE
  8
0
 10
25.6843
 20
-1.15385
 11
25.6116
 21
-1.06532
  0
LINE
  8
0
 10
25.6116
 20
-1.06532
 11
25.5449
 21
-0.972244
  0
LINE
  8
0
 10
25.5449
 20
-0.972244
 11
25.4845
 21
-0.875
  0
LINE
  8
0
 10
25.4845
 20
-0.875
 11
25.4305
 21
-0.774002
  0
LINE
  8
0
 10
25.4305
 20
-0.774002
 11
25.3832
 21
-0.669693
  0
LINE
  8
0
 10
25.3832
 20
-0.669693
 11
25.3429
 21
-0.562515
  0
LINE
  8
0
 10
25.3429
 20
-0.562515
 11
25.3096
 21
-0.452927
  0
LINE
  8
0
 10
25.3096
 20
-0.452927
 11
25.2836
 21
-0.3414
  0
LINE
  8
0
 10
25.2836
 20
-0.3414
 11
25.265
 21
-0.228409
  0
LINE
  8
0
 10
25.265
 20
-0.228409
 11
25.2537
 21
-0.114441
  0
LINE
  8
0
 10
25.2537
 20
-0.114441
 11
25.25
 21
0
  0
LINE
  8
0
 10
25.25
 20
0
 11
25.2537
 21
0.114441
  0
LINE
  8
0
 10
25.2537
 20
0.114441
 11
25.265
 21
0.228409
  0
LINE
  8
0
 10
25.265
 20
0.228409
 11
25.2836
 21
0.3414
  0
LINE
  8
0
 10
25.2836
 20
0.3414
 11
25.3096
 21
0.452927
  0
LINE
  8
0
 10
25.3096
 20
0.452927
 11
25.3429
 21
0.562515
  0
LINE
  8
0
 10
25.3429
 20
0.562515
 11
25.3832
 21
0.669693
  0
LINE
  8
0
 10
25.3832
 20
0.669693
 11
25.4305
 21
0.774002
  0
LINE
  8
0
 10
25.4305
 20
0.774002
 11
25.4845
 21
0.875
  0
LINE
  8
0
 10
25.4845
 20
0.875
 11
25.5449
 21
0.972244
  0
LINE
  8
0
 10
25.5449
 20
0.972244
 11
25.6116
 21
1.06532
  0
LINE
  8
0
 10
25.6116
 20
1.06532
 11
25.6843
 21
1.15385
  0
LINE
  8
0
 10
25.6843
 20
1.15385
 11
25.7626
 21
1.23743
  0
LINE
  8
0
 10
25.7626
 20
1.23743
 11
25.8461
 21
1.31572
  0
LINE
  8
0
 10
25.8461
 20
1.31572
 11
25.9347
 21
1.38837
  0
LINE
  8
0
 10
25.9347
 20
1.38837
 11
26.0277
 21
1.45506
  0
LINE
  8
0
 10
26.0277
 20
1.45506
 11
26.125
 21
1.51553
  0
LINE
  8
0
 10
26.125
 20
1.51553
 11
26.226
 21
1.56952
  0
LINE
  8
0
 10
26.226
 20
1.56952
 11
26.3303
 21
1.61678
  0
LINE
  8
0
 10
26.3303
 20
1.61678
 11
26.4375
 21
1.65712
  0
LINE
  8
0
 10
26.4375
 20
1.65712
 11
26.5471
 21
1.69037
  0
LINE
  8
0
 10
26.5471
 20
1.69037
 11
26.6586
 21
1.71637
  0
LINE
  8
0
 10
26.6586
 20
1.71637
 11
26.7716
 21
1.73502
  0
LINE
  8
0
 10
26.7716
 20
1.73502
 11
26.8855
 21
1.74625
  0
LINE
  8
0
 10
26.8855
 20
1.74625
 11
27
 21
1.75
  0
LINE
  8
0
 10
27
 20
1.75
 11
27.1144
 21
1.74625
  0
LINE
  8
0
 10
27.1144
 20
1.74625
 11
27.2284
 21
1.73502
  0
LINE
  8
0
 10
27.2284
 20
1.73502
 11
27.3414
 21
1.71637
  0
LINE
  8
0
 10
27.3414
 20
1.71637
 11
27.4529
 21
1.69037
  0
LINE
  8
0
 10
27.4529
 20
1.69037
 11
27.5625
 21
1.65712
  0
LINE
  8
0
 10
27.5625
 20
1.65712
 11
27.6697
 21
1.61678
  0
LINE
  8
0
 10
27.6697
 20
1.61678
 11
27.774
 21
1.56952
  0
LINE
  8
0
 10
27.774
 20
1.56952
 11
27.875
 21
1.51553
  0
LINE
  8
0
 10
27.875
 20
1.51553
 11
27.9722
 21
1.45506
  0
LINE
  8
0
 10
27.9722
 20
1.45506
 11
28.0653
 21
1.38837
  0
LINE
  8
0
 10
28.0653
 20
1.38837
 11
28.1539
 21
1.31572
  0
LINE
  8
0
 10
28.1539
 20
1.31572
 11
28.2374
 21
1.23743
  0
LINE
  8
0
 10
28.2374
 20
1.23743
 11
28.3157
 21
1.15385
  0
LINE
  8
0
 10
28.3157
 20
1.15385
 11
28.3884
 21
1.06532
  0
LINE
  8
0
 10
28.3884
 20
1.06532
 11
28.4551
 21
0.972244
  0
LINE
  8
0
 10
28.4551
 20
0.972244
 11
28.5155
 21
0.875
  0
LINE
  8
0
 10
28.5155
 20
0.875
 11
28.5695
 21
0.774002
  0
LINE
  8
0
 10
28.5695
 20
0.774002
 11
28.6168
 21
0.669693
  0
LINE
  8
0
 10
28.6168
 20
0.669693
 11
28.6571
 21
0.562515
  0
LINE
  8
0
 10
28.6571
 20
0.562515
 11
28.6904
 21
0.452927
  0
LINE
  8
0
 10
28.6904
 20
0.452927
 11
28.7164
 21
0.3414
  0
LINE
  8
0
 10
28.7164
 20
0.3414
 11
28.735
 21
0.228409
  0
LINE
  8
0
 10
28.735
 20
0.228409
 11
28.7462
 21
0.114441
  0
LINE
  8
0
 10
28.7462
 20
0.114441
 11
28.75
 21
0
  0
LINE
  8
0
 10
28.75
 20
0
 11
28.7462
 21
-0.114441
  0
LINE
  8
0
 10
28.7462
 20
-0.114441
 11
28.735
 21
-0.228409
  0
LINE
  8
0
 10
28.735
 20
-0.228409
 11
28.7164
 21
-0.3414
  0
LINE
  8
0
 10
28.7164
 20
-0.3414
 11
28.6904
 21
-0.452927
  0
LINE
  8
0
 10
28.6904
 20
-0.452927
 11
28.6571
 21
-0.562515
  0
LINE
  8
0
 10
28.6571
 20
-0.562515
 11
28.6168
 21
-0.669693
  0
LINE
  8
0
 10
28.6168
 20
-0.669693
 11
28.5695
 21
-0.774002
  0
LINE
  8
0
 10
28.5695
 20
-0.774002
 11
28.5155
 21
-0.875
  0
LINE
  8
0
 10
28.5155
 20
-0.875
 11
28.4551
 21
-0.972244
  0
LINE
  8
0
 10
28.4551
 20
-0.972244
 11
28.3884
 21
-1.06532
  0
LINE
  8
0
 10
28.3884
 20
-1.06532
 11
28.3157
 21
-1.15385
  0
LINE
  8
0
 10
28.3157
 20
-1.15385
 11
28.2374
 21
-1.23743
  0
LINE
  8
0
 10
28.2374
 20
-1.23743
 11
28.1539
 21
-1.31572
  0
LINE
  8
0
 10
28.1539
 20
-1.31572
 11
28.0653
 21
-1.38837
  0
LINE
  8
0
 10
28.0653
 20
-1.38837
 11
27.9722
 21
-1.45506
  0
LINE
  8
0
 10
27.9722
 20
-1.45506
 11
27.875
 21
-1.51553
  0
LINE
  8
0
 10
27.875
 20
-1.51553
 11
27.774
 21
-1.56952
  0
LINE
  8
0
 10
27.774
 20
-1.56952
 11
27.6697
 21
-1.61678
  0
LINE
  8
0
 10
27.6697
 20
-1.61678
 11
27.5625
 21
-1.65712
  0
LINE
  8
0
 10
27.5625
 20
-1.65712
 11
27.4529
 21
-1.69037
  0
LINE
  8
0
 10
27.4529
 20
-1.69037
 11
27.3414
 21
-1.71637
  0
LINE
  8
0
 10
27.3414
 20
-1.71637
 11
27.2284
 21
-1.73502
  0
LINE
  8
0
 10
27.2284
 20
-1.73502
 11
27.1144
 21
-1.74625
  0
LINE
  8
0
 10
27.1144
 20
-1.74625
 11
27
 21
-1.75
  0
LINE
  8
0
 10
27
 20
-1.75
 11
26.8855
 21
-1.74625
  0
LINE
  8
0
 10
-27.1144
 20
-1.74625
 11
-27.2284
 21
-1.73502
  0
LINE
  8
0
 10
-27.2284
 20
-1.73502
 11
-27.3414
 21
-1.71637
  0
LINE
  8
0
 10
-27.3414
 20
-1.71637
 11
-27.4529
 21
-1.69037
  0
LINE
  8
0
 10
-27.4529
 20
-1.69037
 11
-27.5625
 21
-1.65712
  0
LINE
  8
0
 10
-27.5625
 20
-1.65712
 11
-27.6697
 21
-1.61678
  0
LINE
  8
0
 10
-27.6697
 20
-1.61678
 11
-27.774
 21
-1.56952
  0
LINE
  8
0
 10
-27.774
 20
-1.56952
 11
-27.875
 21
-1.51553
  0
LINE
  8
0
 10
-27.875
 20
-1.51553
 11
-27.9722
 21
-1.45506
  0
LINE
  8
0
 10
-27.9722
 20
-1.45506
 11
-28.0653
 21
-1.38837
  0
LINE
  8
0
 10
-28.0653
 20
-1.38837
 11
-28.1539
 21
-1.31572
  0
LINE
  8
0
 10
-28.1539
 20
-1.31572
 11
-28.2374
 21
-1.23743
  0
LINE
  8
0
 10
-28.2374
 20
-1.23743
 11
-28.3157
 21
-1.15385
  0
LINE
  8
0
 10
-28.3157
 20
-1.15385
 11
-28.3884
 21
-1.06532
  0
LINE
  8
0
 10
-28.3884
 20
-1.06532
 11
-28.4551
 21
-0.972244
  0
LINE
  8
0
 10
-28.4551
 20
-0.972244
 11
-28.5155
 21
-0.875
  0
LINE
  8
0
 10
-28.5155
 20
-0.875
 11
-28.5695
 21
-0.774002
  0
LINE
  8
0
 10
-28.5695
 20
-0.774002
 11
-28.6168
 21
-0.669693
  0
LINE
  8
0
 10
-28.6168
 20
-0.669693
 11
-28.6571
 21
-0.562515
  0
LINE
  8
0
 10
-28.6571
 20
-0.562515
 11
-28.6904
 21
-0.452927
  0
LINE
  8
0
 10
-28.6904
 20
-0.452927
 11
-28.7164
 21
-0.3414
  0
LINE
  8
0
 10
-28.7164
 20
-0.3414
 11
-28.735
 21
-0.228409
  0
LINE
  8
0
 10
-28.735
 20
-0.228409
 11
-28.7462
 21
-0.114441
  0
LINE
  8
0
 10
-28.7462
 20
-0.114441
 11
-28.75
 21
0
  0
LINE
  8
0
 10
-28.75
 20
0
 11
-28.7462
 21
0.114441
  0
LINE
  8
0
 10
-28.7462
 20
0.114441
 11
-28.735
 21
0.228409
  0
LINE
  8
0
 10
-28.735
 20
0.228409
 11
-28.7164
 21
0.3414
  0
LINE
  8
0
 10
-28.7164
 20
0.3414
 11
-28.6904
 21
0.452927
  0
LINE
  8
0
 10
-28.6904
 20
0.452927
 11
-28.6571
 21
0.562515
  0
LINE
  8
0
 10
-28.6571
 20
0.562515
 11
-28.6168
 21
0.669693
  0
LINE
  8
0
 10
-28.6168
 20
0.669693
 11
-28.5695
 21
0.774002
  0
LINE
  8
0
 10
-28.5695
 20
0.774002
 11
-28.5155
 21
0.875
  0
LINE
  8
0
 10
-28.5155
 20
0.875
 11
-28.4551
 21
0.972244
  0
LINE
  8
0
 10
-28.4551
 20
0.972244
 11
-28.3884
 21
1.06532
  0
LINE
  8
0
 10
-28.3884
 20
1.06532
 11
-28.3157
 21
1.15385
  0
LINE
  8
0
 10
-28.3157
 20
1.15385
 11
-28.2374
 21
1.23743
  0
LINE
  8
0
 10
-28.2374
 20
1.23743
 11
-28.1539
 21
1.31572
  0
LINE
  8
0
 10
-28.1539
 20
1.31572
 11
-28.0653
 21
1.38837
  0
LINE
  8
0
 10
-28.0653
 20
1.38837
 11
-27.9722
 21
1.45506
  0
LINE
  8
0
 10
-27.9722
 20
1.45506
 11
-27.875
 21
1.51553
  0
LINE
  8
0
 10
-27.875
 20
1.51553
 11
-27.774
 21
1.56952
  0
LINE
  8
0
 10
-27.774
 20
1.56952
 11
-27.6697
 21
1.61678
  0
LINE
  8
0
 10
-27.6697
 20
1.61678
 11
-27.5625
 21
1.65712
  0
LINE
  8
0
 10
-27.5625
 20
1.65712
 11
-27.4529
 21
1.69037
  0
LINE
  8
0
 10
-27.4529
 20
1.69037
 11
-27.3414
 21
1.71637
  0
LINE
  8
0
 10
-27.3414
 20
1.71637
 11
-27.2284
 21
1.73502
  0
LINE
  8
0
 10
-27.2284
 20
1.73502
 11
-27.1144
 21
1.74625
  0
LINE
  8
0
 10
-27.1144
 20
1.74625
 11
-27
 21
1.75
  0
LINE
  8
0
 10
-27
 20
1.75
 11
-26.8855
 21
1.74625
  0
LINE
  8
0
 10
-26.8855
 20
1.74625
 11
-26.7716
 21
1.73502
  0
LINE
  8
0
 10
-26.7716
 20
1.73502
 11
-26.6586
 21
1.71637
  0
LINE
  8
0
 10
-26.6586
 20
1.71637
 11
-26.5471
 21
1.69037
  0
LINE
  8
0
 10
-26.5471
 20
1.69037
 11
-26.4375
 21
1.65712
  0
LINE
  8
0
 10
-26.4375
 20
1.65712
 11
-26.3303
 21
1.61678
  0
LINE
  8
0
 10
-26.3303
 20
1.61678
 11
-26.226
 21
1.56952
  0
LINE
  8
0
 10
-26.226
 20
1.56952
 11
-26.125
 21
1.51553
  0
LINE
  8
0
 10
-26.125
 20
1.51553
 11
-26.0277
 21
1.45506
  0
LINE
  8
0
 10
-26.0277
 20
1.45506
 11
-25.9347
 21
1.38837
  0
LINE
  8
0
 10
-25.9347
 20
1.38837
 11
-25.8461
 21
1.31572
  0
LINE
  8
0
 10
-25.8461
 20
1.31572
 11
-25.7626
 21
1.23743
  0
LINE
  8
0
 10
-25.7626
 20
1.23743
 11
-25.6843
 21
1.15385
  0
LINE
  8
0
 10
-25.6843
 20
1.15385
 11
-25.6116
 21
1.06532
  0
LINE
  8
0
 10
-25.6116
 20
1.06532
 11
-25.5449
 21
0.972244
  0
LINE
  8
0
 10
-25.5449
 20
0.972244
 11
-25.4845
 21
0.875
  0
LINE
  8
0
 10
-25.4845
 20
0.875
 11
-25.4305
 21
0.774002
  0
LINE
  8
0
 10
-25.4305
 20
0.774002
 11
-25.3832
 21
0.669693
  0
LINE
  8
0
 10
-25.3832
 20
0.669693
 11
-25.3429
 21
0.562515
  0
LINE
  8
0
 10
-25.3429
 20
0.562515
 11
-25.3096
 21
0.452927
  0
LINE
  8
0
 10
-25.3096
 20
0.452927
 11
-25.2836
 21
0.3414
  0
LINE
  8
0
 10
-25.2836
 20
0.3414
 11
-25.265
 21
0.228409
  0
LINE
  8
0
 10
-25.265
 20
0.228409
 11
-25.2537
 21
0.114441
  0
LINE
  8
0
 10
-25.2537
 20
0.114441
 11
-25.25
 21
0
  0
LINE
  8
0
 10
-25.25
 20
0
 11
-25.2537
 21
-0.114441
  0
LINE
  8
0
 10
-25.2537
 20
-0.114441
 11
-25.265
 21
-0.228409
  0
LINE
  8
0
 10
-25.265
 20
-0.228409
 11
-25.2836
 21
-0.3414
  0
LINE
  8
0
 10
-25.2836
 20
-0.3414
 11
-25.3096
 21
-0.452927
  0
LINE
  8
0
 10
-25.3096
 20
-0.452927
 11
-25.3429
 21
-0.562515
  0
LINE
  8
0
 10
-25.3429
 20
-0.562515
 11
-25.3832
 21
-0.669693
  0
LINE
  8
0
 10
-25.3832
 20
-0.669693
 11
-25.4305
 21
-0.774002
  0
LINE
  8
0
 10
-25.4305
 20
-0.774002
 11
-25.4845
 21
-0.875
  0
LINE
  8
0
 10
-25.4845
 20
-0.875
 11
-25.5449
 21
-0.972244
  0
LINE
  8
0
 10
-25.5449
 20
-0.972244
 11
-25.6116
 21
-1.06532
  0
LINE
  8
0
 10
-25.6116
 20
-1.06532
 11
-25.6843
 21
-1.15385
  0
LINE
  8
0
 10
-25.6843
 20
-1.15385
 11
-25.7626
 21
-1.23743
  0
LINE
  8
0
 10
-25.7626
 20
-1.23743
 11
-25.8461
 21
-1.31572
  0
LINE
  8
0
 10
-25.8461
 20
-1.31572
 11
-25.9347
 21
-1.38837
  0
LINE
  8
0
 10
-25.9347
 20
-1.38837
 11
-26.0277
 21
-1.45506
  0
LINE
  8
0
 10
-26.0277
 20
-1.45506
 11
-26.125
 21
-1.51553
  0
LINE
  8
0
 10
-26.125
 20
-1.51553
 11
-26.226
 21
-1.56952
  0
LINE
  8
0
 10
-26.226
 20
-1.56952
 11
-26.3303
 21
-1.61678
  0
LINE
  8
0
 10
-26.3303
 20
-1.61678
 11
-26.4375
 21
-1.65712
  0
LINE
  8
0
 10
-26.4375
 20
-1.65712
 11
-26.5471
 21
-1.69037
  0
LINE
  8
0
 10
-26.5471
 20
-1.69037
 11
-26.6586
 21
-1.71637
  0
LINE
  8
0
 10
-26.6586
 20
-1.71637
 11
-26.7716
 21
-1.73502
  0
LINE
  8
0
 10
-26.7716
 20
-1.73502
 11
-26.8855
 21
-1.74625
  0
LINE
  8
0
 10
-26.8855
 20
-1.74625
 11
-27
 21
-1.75
  0
LINE
  8
0
 10
-27
 20
-1.75
 11
-27.1144
 21
-1.74625
  0
LINE
  8
0
 10
56.8855
 20
-1.74625
 11
56.7716
 21
-1.73502
  0
LINE
  8
0
 10
56.7716
 20
-1.73502
 11
56.6586
 21
-1.71637
  0
LINE
  8
0
 10
56.6586
 20
-1.71637
 11
56.5471
 21
-1.69037
  0
LINE
  8
0
 10
56.5471
 20
-1.69037
 11
56.4375
 21
-1.65712
  0
LINE
  8
0
 10
56.4375
 20
-1.65712
 11
56.3303
 21
-1.61678
  0
LINE
  8
0
 10
56.3303
 20
-1.61678
 11
56.226
 21
-1.56952
  0
LINE
  8
0
 10
56.226
 20
-1.56952
 11
56.125
 21
-1.51553
  0
LINE
  8
0
 10
56.125
 20
-1.51553
 11
56.0277
 21
-1.45506
  0
LINE
  8
0
 10
56.0277
 20
-1.45506
 11
55.9347
 21
-1.38837
  0
LINE
  8
0
 10
55.9347
 20
-1.38837
 11
55.8461
 21
-1.31572
  0
LINE
  8
0
 10
55.8461
 20
-1.31572
 11
55.7626
 21
-1.23743
  0
LINE
  8
0
 10
55.7626
 20
-1.23743
 11
55.6843
 21
-1.15385
  0
LINE
  8
0
 10
55.6843
 20
-1.15385
 11
55.6116
 21
-1.06532
  0
LINE
  8
0
 10
55.6116
 20
-1.06532
 11
55.5449
 21
-0.972244
  0
LINE
  8
0
 10
55.5449
 20
-0.972244
 11
55.4845
 21
-0.875
  0
LINE
  8
0
 10
55.4845
 20
-0.875
 11
55.4305
 21
-0.774002
  0
LINE
  8
0
 10
55.4305
 20
-0.774002
 11
55.3832
 21
-0.669693
  0
LINE
  8
0
 10
55.3832
 20
-0.669693
 11
55.3429
 21
-0.562515
  0
LINE
  8
0
 10
55.3429
 20
-0.562515
 11
55.3096
 21
-0.452927
  0
LINE
  8
0
 10
55.3096
 20
-0.452927
 11
55.2836
 21
-0.3414
  0
LINE
  8
0
 10
55.2836
 20
-0.3414
 11
55.265
 21
-0.228409
  0
LINE
  8
0
 10
55.265
 20
-0.228409
 11
55.2537
 21
-0.114441
  0
LINE
  8
0
 10
55.2537
 20
-0.114441
 11
55.25
 21
0
  0
LINE
  8
0
 10
55.25
 20
0
 11
55.2537
 21
0.114441
  0
LINE
  8
0
 10
55.2537
 20
0.114441
 11
55.265
 21
0.228409
  0
LINE
  8
0
 10
55.265
 20
0.228409
 11
55.2836
 21
0.3414
  0
LINE
  8
0
 10
55.2836
 20
0.3414
 11
55.3096
 21
0.452927
  0
LINE
  8
0
 10
55.3096
 20
0.452927
 11
55.3429
 21
0.562515
  0
LINE
  8
0
 10
55.3429
 20
0.562515
 11
55.3832
 21
0.669693
  0
LINE
  8
0
 10
55.3832
 20
0.669693
 11
55.4305
 21
0.774002
  0
LINE
  8
0
 10
55.4305
 20
0.774002
 11
55.4845
 21
0.875
  0
LINE
  8
0
 10
55.4845
 20
0.875
 11
55.5449
 21
0.972244
  0
LINE
  8
0
 10
55.5449
 20
0.972244
 11
55.6116
 21
1.06532
  0
LINE
  8
0
 10
55.6116
 20
1.06532
 11
55.6843
 21
1.15385
  0
LINE
  8
0
 10
55.6843
 20
1.15385
 11
55.7626
 21
1.23743
  0
LINE
  8
0
 10
55.7626
 20
1.23743
 11
55.8461
 21
1.31572
  0
LINE
  8
0
 10
55.8461
 20
1.31572
 11
55.9347
 21
1.38837
  0
LINE
  8
0
 10
55.9347
 20
1.38837
 11
56.0277
 21
1.45506
  0
LINE
  8
0
 10
56.0277
 20
1.45506
 11
56.125
 21
1.51553
  0
LINE
  8
0
 10
56.125
 20
1.51553
 11
56.226
 21
1.56952
  0
LINE
  8
0
 10
56.226
 20
1.56952
 11
56.3303
 21
1.61678
  0
LINE
  8
0
 10
56.3303
 20
1.61678
 11
56.4375
 21
1.65712
  0
LINE
  8
0
 10
56.4375
 20
1.65712
 11
56.5471
 21
1.69037
  0
LINE
  8
0
 10
56.5471
 20
1.69037
 11
56.6586
 21
1.71637
  0
LINE
  8
0
 10
56.6586
 20
1.71637
 11
56.7716
 21
1.73502
  0
LINE
  8
0
 10
56.7716
 20
1.73502
 11
56.8855
 21
1.74625
  0
LINE
  8
0
 10
56.8855
 20
1.74625
 11
57
 21
1.75
  0
LINE
  8
0
 10
57
 20
1.75
 11
57.1144
 21
1.74625
  0
LINE
  8
0
 10
57.1144
 20
1.74625
 11
57.2284
 21
1.73502
  0
LINE
  8
0
 10
57.2284
 20
1.73502
 11
57.3414
 21
1.71637
  0
LINE
  8
0
 10
57.3414
 20
1.71637
 11
57.4529
 21
1.69037
  0
LINE
  8
0
 10
57.4529
 20
1.69037
 11
57.5625
 21
1.65712
  0
LINE
  8
0
 10
57.5625
 20
1.65712
 11
57.6697
 21
1.61678
  0
LINE
  8
0
 10
57.6697
 20
1.61678
 11
57.774
 21
1.56952
  0
LINE
  8
0
 10
57.774
 20
1.56952
 11
57.875
 21
1.51553
  0
LINE
  8
0
 10
57.875
 20
1.51553
 11
57.9722
 21
1.45506
  0
LINE
  8
0
 10
57.9722
 20
1.45506
 11
58.0653
 21
1.38837
  0
LINE
  8
0
 10
58.0653
 20
1.38837
 11
58.1539
 21
1.31572
  0
LINE
  8
0
 10
58.1539
 20
1.31572
 11
58.2374
 21
1.23743
  0
LINE
  8
0
 10
58.2374
 20
1.23743
 11
58.3157
 21
1.15385
  0
LINE
  8
0
 10
58.3157
 20
1.15385
 11
58.3884
 21
1.06532
  0
LINE
  8
0
 10
58.3884
 20
1.06532
 11
58.4551
 21
0.972244
  0
LINE
  8
0
 10
58.4551
 20
0.972244
 11
58.5155
 21
0.875
  0
LINE
  8
0
 10
58.5155
 20
0.875
 11
58.5695
 21
0.774002
  0
LINE
  8
0
 10
58.5695
 20
0.774002
 11
58.6168
 21
0.669693
  0
LINE
  8
0
 10
58.6168
 20
0.669693
 11
58.6571
 21
0.562515
  0
LINE
  8
0
 10
58.6571
 20
0.562515
 11
58.6904
 21
0.452927
  0
LINE
  8
0
 10
58.6904
 20
0.452927
 11
58.7164
 21
0.3414
  0
LINE
  8
0
 10
58.7164
 20
0.3414
 11
58.735
 21
0.228409
  0
LINE
  8
0
 10
58.735
 20
0.228409
 11
58.7462
 21
0.114441
  0
LINE
  8
0
 10
58.7462
 20
0.114441
 11
58.75
 21
0
  0
LINE
  8
0
 10
58.75
 20
0
 11
58.7462
 21
-0.114441
  0
LINE
  8
0
 10
58.7462
 20
-0.114441
 11
58.735
 21
-0.228409
  0
LINE
  8
0
 10
58.735
 20
-0.228409
 11
58.7164
 21
-0.3414
  0
LINE
  8
0
 10
58.7164
 20
-0.3414
 11
58.6904
 21
-0.452927
  0
LINE
  8
0
 10
58.6904
 20
-0.452927
 11
58.6571
 21
-0.562515
  0
LINE
  8
0
 10
58.6571
 20
-0.562515
 11
58.6168
 21
-0.669693
  0
LINE
  8
0
 10
58.6168
 20
-0.669693
 11
58.5695
 21
-0.774002
  0
LINE
  8
0
 10
58.5695
 20
-0.774002
 11
58.5155
 21
-0.875
  0
LINE
  8
0
 10
58.5155
 20
-0.875
 11
58.4551
 21
-0.972244
  0
LINE
  8
0
 10
58.4551
 20
-0.972244
 11
58.3884
 21
-1.06532
  0
LINE
  8
0
 10
58.3884
 20
-1.06532
 11
58.3157
 21
-1.15385
  0
LINE
  8
0
 10
58.3157
 20
-1.15385
 11
58.2374
 21
-1.23743
  0
LINE
  8
0
 10
58.2374
 20
-1.23743
 11
58.1539
 21
-1.31572
  0
LINE
  8
0
 10
58.1539
 20
-1.31572
 11
58.0653
 21
-1.38837
  0
LINE
  8
0
 10
58.0653
 20
-1.38837
 11
57.9722
 21
-1.45506
  0
LINE
  8
0
 10
57.9722
 20
-1.45506
 11
57.875
 21
-1.51553
  0
LINE
  8
0
 10
57.875
 20
-1.51553
 11
57.774
 21
-1.56952
  0
LINE
  8
0
 10
57.774
 20
-1.56952
 11
57.6697
 21
-1.61678
  0
LINE
  8
0
 10
57.6697
 20
-1.61678
 11
57.5625
 21
-1.65712
  0
LINE
  8
0
 10
57.5625
 20
-1.65712
 11
57.4529
 21
-1.69037
  0
LINE
  8
0
 10
57.4529
 20
-1.69037
 11
57.3414
 21
-1.71637
  0
LINE
  8
0
 10
57.3414
 20
-1.71637
 11
57.2284
 21
-1.73502
  0
LINE
  8
0
 10
57.2284
 20
-1.73502
 11
57.1144
 21
-1.74625
  0
LINE
  8
0
 10
57.1144
 20
-1.74625
 11
57
 21
-1.75
  0
LINE
  8
0
 10
57
 20
-1.75
 11
56.8855
 21
-1.74625
  0
LINE
  8
0
 10
-57.1144
 20
-1.74625
 11
-57.2284
 21
-1.73502
  0
LINE
  8
0
 10
-57.2284
 20
-1.73502
 11
-57.3414
 21
-1.71637
  0
LINE
  8
0
 10
-57.3414
 20
-1.71637
 11
-57.4529
 21
-1.69037
  0
LINE
  8
0
 10
-57.4529
 20
-1.69037
 11
-57.5625
 21
-1.65712
  0
LINE
  8
0
 10
-57.5625
 20
-1.65712
 11
-57.6697
 21
-1.61678
  0
LINE
  8
0
 10
-57.6697
 20
-1.61678
 11
-57.774
 21
-1.56952
  0
LINE
  8
0
 10
-57.774
 20
-1.56952
 11
-57.875
 21
-1.51553
  0
LINE
  8
0
 10
-57.875
 20
-1.51553
 11
-57.9722
 21
-1.45506
  0
LINE
  8
0
 10
-57.9722
 20
-1.45506
 11
-58.0653
 21
-1.38837
  0
LINE
  8
0
 10
-58.0653
 20
-1.38837
 11
-58.1539
 21
-1.31572
  0
LINE
  8
0
 10
-58.1539
 20
-1.31572
 11
-58.2374
 21
-1.23743
  0
LINE
  8
0
 10
-58.2374
 20
-1.23743
 11
-58.3157
 21
-1.15385
  0
LINE
  8
0
 10
-58.3157
 20
-1.15385
 11
-58.3884
 21
-1.06532
  0
LINE
  8
0
 10
-58.3884
 20
-1.06532
 11
-58.4551
 21
-0.972244
  0
LINE
  8
0
 10
-58.4551
 20
-0.972244
 11
-58.5155
 21
-0.875
  0
LINE
  8
0
 10
-58.5155
 20
-0.875
 11
-58.5695
 21
-0.774002
  0
LINE
  8
0
 10
-58.5695
 20
-0.774002
 11
-58.6168
 21
-0.669693
  0
LINE
  8
0
 10
-58.6168
 20
-0.669693
 11
-58.6571
 21
-0.562515
  0
LINE
  8
0
 10
-58.6571
 20
-0.562515
 11
-58.6904
 21
-0.452927
  0
LINE
  8
0
 10
-58.6904
 20
-0.452927
 11
-58.7164
 21
-0.3414
  0
LINE
  8
0
 10
-58.7164
 20
-0.3414
 11
-58.735
 21
-0.228409
  0
LINE
  8
0
 10
-58.735
 20
-0.228409
 11
-58.7462
 21
-0.114441
  0
LINE
  8
0
 10
-58.7462
 20
-0.114441
 11
-58.75
 21
0
  0
LINE
  8
0
 10
-58.75
 20
0
 11
-58.7462
 21
0.114441
  0
LINE
  8
0
 10
-58.7462
 20
0.114441
 11
-58.735
 21
0.228409
  0
LINE
  8
0
 10
-58.735
 20
0.228409
 11
-58.7164
 21
0.3414
  0
LINE
  8
0
 10
-58.7164
 20
0.3414
 11
-58.6904
 21
0.452927
  0
LINE
  8
0
 10
-58.6904
 20
0.452927
 11
-58.6571
 21
0.562515
  0
LINE
  8
0
 10
-58.6571
 20
0.562515
 11
-58.6168
 21
0.669693
  0
LINE
  8
0
 10
-58.6168
 20
0.669693
 11
-58.5695
 21
0.774002
  0
LINE
  8
0
 10
-58.5695
 20
0.774002
 11
-58.5155
 21
0.875
  0
LINE
  8
0
 10
-58.5155
 20
0.875
 11
-58.4551
 21
0.972244
  0
LINE
  8
0
 10
-58.4551
 20
0.972244
 11
-58.3884
 21
1.06532
  0
LINE
  8
0
 10
-58.3884
 20
1.06532
 11
-58.3157
 21
1.15385
  0
LINE
  8
0
 10
-58.3157
 20
1.15385
 11
-58.2374
 21
1.23743
  0
LINE
  8
0
 10
-58.2374
 20
1.23743
 11
-58.1539
 21
1.31572
  0
LINE
  8
0
 10
-58.1539
 20
1.31572
 11
-58.0653
 21
1.38837
  0
LINE
  8
0
 10
-58.0653
 20
1.38837
 11
-57.9722
 21
1.45506
  0
LINE
  8
0
 10
-57.9722
 20
1.45506
 11
-57.875
 21
1.51553
  0
LINE
  8
0
 10
-57.875
 20
1.51553
 11
-57.774
 21
1.56952
  0
LINE
  8
0
 10
-57.774
 20
1.56952
 11
-57.6697
 21
1.61678
  0
LINE
  8
0
 10
-57.6697
 20
1.61678
 11
-57.5625
 21
1.65712
  0
LINE
  8
0
 10
-57.5625
 20
1.65712
 11
-57.4529
 21
1.69037
  0
LINE
  8
0
 10
-57.4529
 20
1.69037
 11
-57.3414
 21
1.71637
  0
LINE
  8
0
 10
-57.3414
 20
1.71637
 11
-57.2284
 21
1.73502
  0
LINE
  8
0
 10
-57.2284
 20
1.73502
 11
-57.1144
 21
1.74625
  0
LINE
  8
0
 10
-57.1144
 20
1.74625
 11
-57
 21
1.75
  0
LINE
  8
0
 10
-57
 20
1.75
 11
-56.8855
 21
1.74625
  0
LINE
  8
0
 10
-56.8855
 20
1.74625
 11
-56.7716
 21
1.73502
  0
LINE
  8
0
 10
-56.7716
 20
1.73502
 11
-56.6586
 21
1.71637
  0
LINE
  8
0
 10
-56.6586
 20
1.71637
 11
-56.5471
 21
1.69037
  0
LINE
  8
0
 10
-56.5471
 20
1.69037
 11
-56.4375
 21
1.65712
  0
LINE
  8
0
 10
-56.4375
 20
1.65712
 11
-56.3303
 21
1.61678
  0
LINE
  8
0
 10
-56.3303
 20
1.61678
 11
-56.226
 21
1.56952
  0
LINE
  8
0
 10
-56.226
 20
1.56952
 11
-56.125
 21
1.51553
  0
LINE
  8
0
 10
-56.125
 20
1.51553
 11
-56.0277
 21
1.45506
  0
LINE
  8
0
 10
-56.0277
 20
1.45506
 11
-55.9347
 21
1.38837
  0
LINE
  8
0
 10
-55.9347
 20
1.38837
 11
-55.8461
 21
1.31572
  0
LINE
  8
0
 10
-55.8461
 20
1.31572
 11
-55.7626
 21
1.23743
  0
LINE
  8
0
 10
-55.7626
 20
1.23743
 11
-55.6843
 21
1.15385
  0
LINE
  8
0
 10
-55.6843
 20
1.15385
 11
-55.6116
 21
1.06532
  0
LINE
  8
0
 10
-55.6116
 20
1.06532
 11
-55.5449
 21
0.972244
  0
LINE
  8
0
 10
-55.5449
 20
0.972244
 11
-55.4845
 21
0.875
  0
LINE
  8
0
 10
-55.4845
 20
0.875
 11
-55.4305
 21
0.774002
  0
LINE
  8
0
 10
-55.4305
 20
0.774002
 11
-55.3832
 21
0.669693
  0
LINE
  8
0
 10
-55.3832
 20
0.669693
 11
-55.3429
 21
0.562515
  0
LINE
  8
0
 10
-55.3429
 20
0.562515
 11
-55.3096
 21
0.452927
  0
LINE
  8
0
 10
-55.3096
 20
0.452927
 11
-55.2836
 21
0.3414
  0
LINE
  8
0
 10
-55.2836
 20
0.3414
 11
-55.265
 21
0.228409
  0
LINE
  8
0
 10
-55.265
 20
0.228409
 11
-55.2537
 21
0.114441
  0
LINE
  8
0
 10
-55.2537
 20
0.114441
 11
-55.25
 21
0
  0
LINE
  8
0
 10
-55.25
 20
0
 11
-55.2537
 21
-0.114441
  0
LINE
  8
0
 10
-55.2537
 20
-0.114441
 11
-55.265
 21
-0.228409
  0
LINE
  8
0
 10
-55.265
 20
-0.228409
 11
-55.2836
 21
-0.3414
  0
LINE
  8
0
 10
-55.2836
 20
-0.3414
 11
-55.3096
 21
-0.452927
  0
LINE
  8
0
 10
-55.3096
 20
-0.452927
 11
-55.3429
 21
-0.562515
  0
LINE
  8
0
 10
-55.3429
 20
-0.562515
 11
-55.3832
 21
-0.669693
  0
LINE
  8
0
 10
-55.3832
 20
-0.669693
 11
-55.4305
 21
-0.774002
  0
LINE
  8
0
 10
-55.4305
 20
-0.774002
 11
-55.4845
 21
-0.875
  0
LINE
  8
0
 10
-55.4845
 20
-0.875
 11
-55.5449
 21
-0.972244
  0
LINE
  8
0
 10
-55.5449
 20
-0.972244
 11
-55.6116
 21
-1.06532
  0
LINE
  8
0
 10
-55.6116
 20
-1.06532
 11
-55.6843
 21
-1.15385
  0
LINE
  8
0
 10
-55.6843
 20
-1.15385
 11
-55.7626
 21
-1.23743
  0
LINE
  8
0
 10
-55.7626
 20
-1.23743
 11
-55.8461
 21
-1.31572
  0
LINE
  8
0
 10
-55.8461
 20
-1.31572
 11
-55.9347
 21
-1.38837
  0
LINE
  8
0
 10
-55.9347
 20
-1.38837
 11
-56.0277
 21
-1.45506
  0
LINE
  8
0
 10
-56.0277
 20
-1.45506
 11
-56.125
 21
-1.51553
  0
LINE
  8
0
 10
-56.125
 20
-1.51553
 11
-56.226
 21
-1.56952
  0
LINE
  8
0
 10
-56.226
 20
-1.56952
 11
-56.3303
 21
-1.61678
  0
LINE
  8
0
 10
-56.3303
 20
-1.61678
 11
-56.4375
 21
-1.65712
  0
LINE
  8
0
 10
-56.4375
 20
-1.65712
 11
-56.5471
 21
-1.69037
  0
LINE
  8
0
 10
-56.5471
 20
-1.69037
 11
-56.6586
 21
-1.71637
  0
LINE
  8
0
 10
-56.6586
 20
-1.71637
 11
-56.7716
 21
-1.73502
  0
LINE
  8
0
 10
-56.7716
 20
-1.73502
 11
-56.8855
 21
-1.74625
  0
LINE
  8
0
 10
-56.8855
 20
-1.74625
 11
-57
 21
-1.75
  0
LINE
  8
0
 10
-57
 20
-1.75
 11
-57.1144
 21
-1.74625
  0
LINE
  8
0
 10
-12.8685
 20
-14.8733
 11
-13.0085
 21
-14.8595
  0
LINE
  8
0
 10
-13.0085
 20
-14.8595
 11
-13.1474
 21
-14.8366
  0
LINE
  8
0
 10
-13.1474
 20
-14.8366
 11
-13.2844
 21
-14.8047
  0
LINE
  8
0
 10
-13.2844
 20
-14.8047
 11
-13.419
 21
-14.7638
  0
LINE
  8
0
 10
-13.419
 20
-14.7638
 11
-13.5507
 21
-14.7142
  0
LINE
  8
0
 10
-13.5507
 20
-14.7142
 11
-13.6788
 21
-14.6562
  0
LINE
  8
0
 10
-13.6788
 20
-14.6562
 11
-13.8029
 21
-14.5899
  0
LINE
  8
0
 10
-13.8029
 20
-14.5899
 11
-13.9224
 21
-14.5156
  0
LINE
  8
0
 10
-13.9224
 20
-14.5156
 11
-14.0368
 21
-14.4336
  0
LINE
  8
0
 10
-14.0368
 20
-14.4336
 11
-14.1455
 21
-14.3444
  0
LINE
  8
0
 10
-14.1455
 20
-14.3444
 11
-14.2482
 21
-14.2482
  0
LINE
  8
0
 10
-14.2482
 20
-14.2482
 11
-14.3444
 21
-14.1455
  0
LINE
  8
0
 10
-14.3444
 20
-14.1455
 11
-14.4336
 21
-14.0368
  0
LINE
  8
0
 10
-14.4336
 20
-14.0368
 11
-14.5156
 21
-13.9224
  0
LINE
  8
0
 10
-14.5156
 20
-13.9224
 11
-14.5899
 21
-13.8029
  0
LINE
  8
0
 10
-14.5899
 20
-13.8029
 11
-14.6562
 21
-13.6788
  0
LINE
  8
0
 10
-14.6562
 20
-13.6788
 11
-14.7142
 21
-13.5507
  0
LINE
  8
0
 10
-14.7142
 20
-13.5507
 11
-14.7638
 21
-13.419
  0
LINE
  8
0
 10
-14.7638
 20
-13.419
 11
-14.8047
 21
-13.2844
  0
LINE
  8
0
 10
-14.8047
 20
-13.2844
 11
-14.8366
 21
-13.1474
  0
LINE
  8
0
 10
-14.8366
 20
-13.1474
 11
-14.8595
 21
-13.0085
  0
LINE
  8
0
 10
-14.8595
 20
-13.0085
 11
-14.8733
 21
-12.8685
  0
LINE
  8
0
 10
-14.8733
 20
-12.8685
 11
-14.8779
 21
-12.7279
  0
LINE
  8
0
 10
-14.8779
 20
-12.7279
 11
-14.8733
 21
-12.5873
  0
LINE
  8
0
 10
-14.8733
 20
-12.5873
 11
-14.8595
 21
-12.4473
  0
LINE
  8
0
 10
-14.8595
 20
-12.4473
 11
-14.8366
 21
-12.3085
  0
LINE
  8
0
 10
-14.8366
 20
-12.3085
 11
-14.8047
 21
-12.1714
  0
LINE
  8
0
 10
-14.8047
 20
-12.1714
 11
-14.7638
 21
-12.0368
  0
LINE
  8
0
 10
-14.7638
 20
-12.0368
 11
-14.7142
 21
-11.9052
  0
LINE
  8
0
 10
-14.7142
 20
-11.9052
 11
-14.6562
 21
-11.777
  0
LINE
  8
0
 10
-14.6562
 20
-11.777
 11
-14.5899
 21
-11.6529
  0
LINE
  8
0
 10
-14.5899
 20
-11.6529
 11
-14.5156
 21
-11.5334
  0
LINE
  8
0
 10
-14.5156
 20
-11.5334
 11
-14.4336
 21
-11.4191
  0
LINE
  8
0
 10
-14.4336
 20
-11.4191
 11
-14.3444
 21
-11.3103
  0
LINE
  8
0
 10
-14.3444
 20
-11.3103
 11
-14.2482
 21
-11.2076
  0
LINE
  8
0
 10
-14.2482
 20
-11.2076
 11
-14.1455
 21
-11.1115
  0
LINE
  8
0
 10
-14.1455
 20
-11.1115
 11
-14.0368
 21
-11.0222
  0
LINE
  8
0
 10
-14.0368
 20
-11.0222
 11
-13.9224
 21
-10.9403
  0
LINE
  8
0
 10
-13.9224
 20
-10.9403
 11
-13.8029
 21
-10.866
  0
LINE
  8
0
 10
-13.8029
 20
-10.866
 11
-13.6788
 21
-10.7996
  0
LINE
  8
0
 10
-13.6788
 20
-10.7996
 11
-13.5507
 21
-10.7416
  0
LINE
  8
0
 10
-13.5507
 20
-10.7416
 11
-13.419
 21
-10.692
  0
LINE
  8
0
 10
-13.419
 20
-10.692
 11
-13.2844
 21
-10.6512
  0
LINE
  8
0
 10
-13.2844
 20
-10.6512
 11
-13.1474
 21
-10.6192
  0
LINE
  8
0
 10
-13.1474
 20
-10.6192
 11
-13.0085
 21
-10.5963
  0
LINE
  8
0
 10
-13.0085
 20
-10.5963
 11
-12.8685
 21
-10.5825
  0
LINE
  8
0
 10
-12.8685
 20
-10.5825
 11
-12.7279
 21
-10.5779
  0
LINE
  8
0
 10
-12.7279
 20
-10.5779
 11
-12.5873
 21
-10.5825
  0
LINE
  8
0
 10
-12.5873
 20
-10.5825
 11
-12.4473
 21
-10.5963
  0
LINE
  8
0
 10
-12.4473
 20
-10.5963
 11
-12.3085
 21
-10.6192
  0
LINE
  8
0
 10
-12.3085
 20
-10.6192
 11
-12.1714
 21
-10.6512
  0
LINE
  8
0
 10
-12.1714
 20
-10.6512
 11
-12.0368
 21
-10.692
  0
LINE
  8
0
 10
-12.0368
 20
-10.692
 11
-11.9052
 21
-10.7416
  0
LINE
  8
0
 10
-11.9052
 20
-10.7416
 11
-11.777
 21
-10.7996
  0
LINE
  8
0
 10
-11.777
 20
-10.7996
 11
-11.6529
 21
-10.866
  0
LINE
  8
0
 10
-11.6529
 20
-10.866
 11
-11.5334
 21
-10.9403
  0
LINE
  8
0
 10
-11.5334
 20
-10.9403
 11
-11.4191
 21
-11.0222
  0
LINE
  8
0
 10
-11.4191
 20
-11.0222
 11
-11.3103
 21
-11.1115
  0
LINE
  8
0
 10
-11.3103
 20
-11.1115
 11
-11.2076
 21
-11.2076
  0
LINE
  8
0
 10
-11.2076
 20
-11.2076
 11
-11.1115
 21
-11.3103
  0
LINE
  8
0
 10
-11.1115
 20
-11.3103
 11
-11.0222
 21
-11.4191
  0
LINE
  8
0
 10
-11.0222
 20
-11.4191
 11
-10.9403
 21
-11.5334
  0
LINE
  8
0
 10
-10.9403
 20
-11.5334
 11
-10.866
 21
-11.6529
  0
LINE
  8
0
 10
-10.866
 20
-11.6529
 11
-10.7996
 21
-11.777
  0
LINE
  8
0
 10
-10.7996
 20
-11.777
 11
-10.7416
 21
-11.9052
  0
LINE
  8
0
 10
-10.7416
 20
-11.9052
 11
-10.692
 21
-12.0368
  0
LINE
  8
0
 10
-10.692
 20
-12.0368
 11
-10.6512
 21
-12.1714
  0
LINE
  8
0
 10
-10.6512
 20
-12.1714
 11
-10.6192
 21
-12.3085
  0
LINE
  8
0
 10
-10.6192
 20
-12.3085
 11
-10.5963
 21
-12.4473
  0
LINE
  8
0
 10
-10.5963
 20
-12.4473
 11
-10.5825
 21
-12.5873
  0
LINE
  8
0
 10
-10.5825
 20
-12.5873
 11
-10.5779
 21
-12.7279
  0
LINE
  8
0
 10
-10.5779
 20
-12.7279
 11
-10.5825
 21
-12.8685
  0
LINE
  8
0
 10
-10.5825
 20
-12.8685
 11
-10.5963
 21
-13.0085
  0
LINE
  8
0
 10
-10.5963
 20
-13.0085
 11
-10.6192
 21
-13.1474
  0
LINE
  8
0
 10
-10.6192
 20
-13.1474
 11
-10.6512
 21
-13.2844
  0
LINE
  8
0
 10
-10.6512
 20
-13.2844
 11
-10.692
 21
-13.419
  0
LINE
  8
0
 10
-10.692
 20
-13.419
 11
-10.7416
 21
-13.5507
  0
LINE
  8
0
 10
-10.7416
 20
-13.5507
 11
-10.7996
 21
-13.6788
  0
LINE
  8
0
 10
-10.7996
 20
-13.6788
 11
-10.866
 21
-13.8029
  0
LINE
  8
0
 10
-10.866
 20
-13.8029
 11
-10.9403
 21
-13.9224
  0
LINE
  8
0
 10
-10.9403
 20
-13.9224
 11
-11.0222
 21
-14.0368
  0
LINE
  8
0
 10
-11.0222
 20
-14.0368
 11
-11.1115
 21
-14.1455
  0
LINE
  8
0
 10
-11.1115
 20
-14.1455
 11
-11.2076
 21
-14.2482
  0
LINE
  8
0
 10
-11.2076
 20
-14.2482
 11
-11.3103
 21
-14.3444
  0
LINE
  8
0
 10
-11.3103
 20
-14.3444
 11
-11.4191
 21
-14.4336
  0
LINE
  8
0
 10
-11.4191
 20
-14.4336
 11
-11.5334
 21
-14.5156
  0
LINE
  8
0
 10
-11.5334
 20
-14.5156
 11
-11.6529
 21
-14.5899
  0
LINE
  8
0
 10
-11.6529
 20
-14.5899
 11
-11.777
 21
-14.6562
  0
LINE
  8
0
 10
-11.777
 20
-14.6562
 11
-11.9052
 21
-14.7142
  0
LINE
  8
0
 10
-11.9052
 20
-14.7142
 11
-12.0368
 21
-14.7638
  0
LINE
  8
0
 10
-12.0368
 20
-14.7638
 11
-12.1714
 21
-14.8047
  0
LINE
  8
0
 10
-12.1714
 20
-14.8047
 11
-12.3085
 21
-14.8366
  0
LINE
  8
0
 10
-12.3085
 20
-14.8366
 11
-12.4473
 21
-14.8595
  0
LINE
  8
0
 10
-12.4473
 20
-14.8595
 11
-12.5873
 21
-14.8733
  0
LINE
  8
0
 10
-12.5873
 20
-14.8733
 11
-12.7279
 21
-14.8779
  0
LINE
  8
0
 10
-12.7279
 20
-14.8779
 11
-12.8685
 21
-14.8733
  0
LINE
  8
0
 10
12.5873
 20
-14.8733
 11
12.4473
 21
-14.8595
  0
LINE
  8
0
 10
12.4473
 20
-14.8595
 11
12.3085
 21
-14.8366
  0
LINE
  8
0
 10
12.3085
 20
-14.8366
 11
12.1714
 21
-14.8047
  0
LINE
  8
0
 10
12.1714
 20
-14.8047
 11
12.0368
 21
-14.7638
  0
LINE
  8
0
 10
12.0368
 20
-14.7638
 11
11.9052
 21
-14.7142
  0
LINE
  8
0
 10
11.9052
 20
-14.7142
 11
11.777
 21
-14.6562
  0
LINE
  8
0
 10
11.777
 20
-14.6562
 11
11.6529
 21
-14.5899
  0
LINE
  8
0
 10
11.6529
 20
-14.5899
 11
11.5334
 21
-14.5156
  0
LINE
  8
0
 10
11.5334
 20
-14.5156
 11
11.4191
 21
-14.4336
  0
LINE
  8
0
 10
11.4191
 20
-14.4336
 11
11.3103
 21
-14.3444
  0
LINE
  8
0
 10
11.3103
 20
-14.3444
 11
11.2076
 21
-14.2482
  0
LINE
  8
0
 10
11.2076
 20
-14.2482
 11
11.1115
 21
-14.1455
  0
LINE
  8
0
 10
11.1115
 20
-14.1455
 11
11.0222
 21
-14.0368
  0
LINE
  8
0
 10
11.0222
 20
-14.0368
 11
10.9403
 21
-13.9224
  0
LINE
  8
0
 10
10.9403
 20
-13.9224
 11
10.866
 21
-13.8029
  0
LINE
  8
0
 10
10.866
 20
-13.8029
 11
10.7996
 21
-13.6788
  0
LINE
  8
0
 10
10.7996
 20
-13.6788
 11
10.7416
 21
-13.5507
  0
LINE
  8
0
 10
10.7416
 20
-13.5507
 11
10.692
 21
-13.419
  0
LINE
  8
0
 10
10.692
 20
-13.419
 11
10.6512
 21
-13.2844
  0
LINE
  8
0
 10
10.6512
 20
-13.2844
 11
10.6192
 21
-13.1474
  0
LINE
  8
0
 10
10.6192
 20
-13.1474
 11
10.5963
 21
-13.0085
  0
LINE
  8
0
 10
10.5963
 20
-13.0085
 11
10.5825
 21
-12.8685
  0
LINE
  8
0
 10
10.5825
 20
-12.8685
 11
10.5779
 21
-12.7279
  0
LINE
  8
0
 10
10.5779
 20
-12.7279
 11
10.5825
 21
-12.5873
  0
LINE
  8
0
 10
10.5825
 20
-12.5873
 11
10.5963
 21
-12.4473
  0
LINE
  8
0
 10
10.5963
 20
-12.4473
 11
10.6192
 21
-12.3085
  0
LINE
  8
0
 10
10.6192
 20
-12.3085
 11
10.6512
 21
-12.1714
  0
LINE
  8
0
 10
10.6512
 20
-12.1714
 11
10.692
 21
-12.0368
  0
LINE
  8
0
 10
10.692
 20
-12.0368
 11
10.7416
 21
-11.9052
  0
LINE
  8
0
 10
10.7416
 20
-11.9052
 11
10.7996
 21
-11.777
  0
LINE
  8
0
 10
10.7996
 20
-11.777
 11
10.866
 21
-11.6529
  0
LINE
  8
0
 10
10.866
 20
-11.6529
 11
10.9403
 21
-11.5334
  0
LINE
  8
0
 10
10.9403
 20
-11.5334
 11
11.0222
 21
-11.4191
  0
LINE
  8
0
 10
11.0222
 20
-11.4191
 11
11.1115
 21
-11.3103
  0
LINE
  8
0
 10
11.1115
 20
-11.3103
 11
11.2076
 21
-11.2076
  0
LINE
  8
0
 10
11.2076
 20
-11.2076
 11
11.3103
 21
-11.1115
  0
LINE
  8
0
 10
11.3103
 20
-11.1115
 11
11.4191
 21
-11.0222
  0
LINE
  8
0
 10
11.4191
 20
-11.0222
 11
11.5334
 21
-10.9403
  0
LINE
  8
0
 10
11.5334
 20
-10.9403
 11
11.6529
 21
-10.866
  0
LINE
  8
0
 10
11.6529
 20
-10.866
 11
11.777
 21
-10.7996
  0
LINE
  8
0
 10
11.777
 20
-10.7996
 11
11.9052
 21
-10.7416
  0
LINE
  8
0
 10
11.9052
 20
-10.7416
 11
12.0368
 21
-10.692
  0
LINE
  8
0
 10
12.0368
 20
-10.692
 11
12.1714
 21
-10.6512
  0
LINE
  8
0
 10
12.1714
 20
-10.6512
 11
12.3085
 21
-10.6192
  0
LINE
  8
0
 10
12.3085
 20
-10.6192
 11
12.4473
 21
-10.5963
  0
LINE
  8
0
 10
12.4473
 20
-10.5963
 11
12.5873
 21
-10.5825
  0
LINE
  8
0
 10
12.5873
 20
-10.5825
 11
12.7279
 21
-10.5779
  0
LINE
  8
0
 10
12.7279
 20
-10.5779
 11
12.8685
 21
-10.5825
  0
LINE
  8
0
 10
12.8685
 20
-10.5825
 11
13.0085
 21
-10.5963
  0
LINE
  8
0
 10
13.0085
 20
-10.5963
 11
13.1474
 21
-10.6192
  0
LINE
  8
0
 10
13.1474
 20
-10.6192
 11
13.2844
 21
-10.6512
  0
LINE
  8
0
 10
13.2844
 20
-10.6512
 11
13.419
 21
-10.692
  0
LINE
  8
0
 10
13.419
 20
-10.692
 11
13.5507
 21
-10.7416
  0
LINE
  8
0
 10
13.5507
 20
-10.7416
 11
13.6788
 21
-10.7996
  0
LINE
  8
0
 10
13.6788
 20
-10.7996
 11
13.8029
 21
-10.866
  0
LINE
  8
0
 10
13.8029
 20
-10.866
 11
13.9224
 21
-10.9403
  0
LINE
  8
0
 10
13.9224
 20
-10.9403
 11
14.0368
 21
-11.0222
  0
LINE
  8
0
 10
14.0368
 20
-11.0222
 11
14.1455
 21
-11.1115
  0
LINE
  8
0
 10
14.1455
 20
-11.1115
 11
14.2482
 21
-11.2076
  0
LINE
  8
0
 10
14.2482
 20
-11.2076
 11
14.3444
 21
-11.3103
  0
LINE
  8
0
 10
14.3444
 20
-11.3103
 11
14.4336
 21
-11.4191
  0
LINE
  8
0
 10
14.4336
 20
-11.4191
 11
14.5156
 21
-11.5334
  0
LINE
  8
0
 10
14.5156
 20
-11.5334
 11
14.5899
 21
-11.6529
  0
LINE
  8
0
 10
14.5899
 20
-11.6529
 11
14.6562
 21
-11.777
  0
LINE
  8
0
 10
14.6562
 20
-11.777
 11
14.7142
 21
-11.9052
  0
LINE
  8
0
 10
14.7142
 20
-11.9052
 11
14.7638
 21
-12.0368
  0
LINE
  8
0
 10
14.7638
 20
-12.0368
 11
14.8047
 21
-12.1714
  0
LINE
  8
0
 10
14.8047
 20
-12.1714
 11
14.8366
 21
-12.3085
  0
LINE
  8
0
 10
14.8366
 20
-12.3085
 11
14.8595
 21
-12.4473
  0
LINE
  8
0
 10
14.8595
 20
-12.4473
 11
14.8733
 21
-12.5873
  0
LINE
  8
0
 10
14.8733
 20
-12.5873
 11
14.8779
 21
-12.7279
  0
LINE
  8
0
 10
14.8779
 20
-12.7279
 11
14.8733
 21
-12.8685
  0
LINE
  8
0
 10
14.8733
 20
-12.8685
 11
14.8595
 21
-13.0085
  0
LINE
  8
0
 10
14.8595
 20
-13.0085
 11
14.8366
 21
-13.1474
  0
LINE
  8
0
 10
14.8366
 20
-13.1474
 11
14.8047
 21
-13.2844
  0
LINE
  8
0
 10
14.8047
 20
-13.2844
 11
14.7638
 21
-13.419
  0
LINE
  8
0
 10
14.7638
 20
-13.419
 11
14.7142
 21
-13.5507
  0
LINE
  8
0
 10
14.7142
 20
-13.5507
 11
14.6562
 21
-13.6788
  0
LINE
  8
0
 10
14.6562
 20
-13.6788
 11
14.5899
 21
-13.8029
  0
LINE
  8
0
 10
14.5899
 20
-13.8029
 11
14.5156
 21
-13.9224
  0
LINE
  8
0
 10
14.5156
 20
-13.9224
 11
14.4336
 21
-14.0368
  0
LINE
  8
0
 10
14.4336
 20
-14.0368
 11
14.3444
 21
-14.1455
  0
LINE
  8
0
 10
14.3444
 20
-14.1455
 11
14.2482
 21
-14.2482
  0
LINE
  8
0
 10
14.2482
 20
-14.2482
 11
14.1455
 21
-14.3444
  0
LINE
  8
0
 10
14.1455
 20
-14.3444
 11
14.0368
 21
-14.4336
  0
LINE
  8
0
 10
14.0368
 20
-14.4336
 11
13.9224
 21
-14.5156
  0
LINE
  8
0
 10
13.9224
 20
-14.5156
 11
13.8029
 21
-14.5899
  0
LINE
  8
0
 10
13.8029
 20
-14.5899
 11
13.6788
 21
-14.6562
  0
LINE
  8
0
 10
13.6788
 20
-14.6562
 11
13.5507
 21
-14.7142
  0
LINE
  8
0
 10
13.5507
 20
-14.7142
 11
13.419
 21
-14.7638
  0
LINE
  8
0
 10
13.419
 20
-14.7638
 11
13.2844
 21
-14.8047
  0
LINE
  8
0
 10
13.2844
 20
-14.8047
 11
13.1474
 21
-14.8366
  0
LINE
  8
0
 10
13.1474
 20
-14.8366
 11
13.0085
 21
-14.8595
  0
LINE
  8
0
 10
13.0085
 20
-14.8595
 11
12.8685
 21
-14.8733
  0
LINE
  8
0
 10
12.8685
 20
-14.8733
 11
12.7279
 21
-14.8779
  0
LINE
  8
0
 10
12.7279
 20
-14.8779
 11
12.5873
 21
-14.8733
  0
LINE
  8
0
 10
-0.114441
 20
-28.7462
 11
-0.228409
 21
-28.735
  0
LINE
  8
0
 10
-0.228409
 20
-28.735
 11
-0.3414
 21
-28.7164
  0
LINE
  8
0
 10
-0.3414
 20
-28.7164
 11
-0.452927
 21
-28.6904
  0
LINE
  8
0
 10
-0.452927
 20
-28.6904
 11
-0.562515
 21
-28.6571
  0
LINE
  8
0
 10
-0.562515
 20
-28.6571
 11
-0.669693
 21
-28.6168
  0
LINE
  8
0
 10
-0.669693
 20
-28.6168
 11
-0.774002
 21
-28.5695
  0
LINE
  8
0
 10
-0.774002
 20
-28.5695
 11
-0.875
 21
-28.5155
  0
LINE
  8
0
 10
-0.875
 20
-28.5155
 11
-0.972244
 21
-28.4551
  0
LINE
  8
0
 10
-0.972244
 20
-28.4551
 11
-1.06532
 21
-28.3884
  0
LINE
  8
0
 10
-1.06532
 20
-28.3884
 11
-1.15385
 21
-28.3157
  0
LINE
  8
0
 10
-1.15385
 20
-28.3157
 11
-1.23743
 21
-28.2374
  0
LINE
  8
0
 10
-1.23743
 20
-28.2374
 11
-1.31572
 21
-28.1539
  0
LINE
  8
0
 10
-1.31572
 20
-28.1539
 11
-1.38837
 21
-28.0653
  0
LINE
  8
0
 10
-1.38837
 20
-28.0653
 11
-1.45506
 21
-27.9722
  0
LINE
  8
0
 10
-1.45506
 20
-27.9722
 11
-1.51553
 21
-27.875
  0
LINE
  8
0
 10
-1.51553
 20
-27.875
 11
-1.56952
 21
-27.774
  0
LINE
  8
0
 10
-1.56952
 20
-27.774
 11
-1.61678
 21
-27.6697
  0
LINE
  8
0
 10
-1.61678
 20
-27.6697
 11
-1.65712
 21
-27.5625
  0
LINE
  8
0
 10
-1.65712
 20
-27.5625
 11
-1.69037
 21
-27.4529
  0
LINE
  8
0
 10
-1.69037
 20
-27.4529
 11
-1.71637
 21
-27.3414
  0
LINE
  8
0
 10
-1.71637
 20
-27.3414
 11
-1.73502
 21
-27.2284
  0
LINE
  8
0
 10
-1.73502
 20
-27.2284
 11
-1.74625
 21
-27.1144
  0
LINE
  8
0
 10
-1.74625
 20
-27.1144
 11
-1.75
 21
-27
  0
LINE
  8
0
 10
-1.75
 20
-27
 11
-1.74625
 21
-26.8855
  0
LINE
  8
0
 10
-1.74625
 20
-26.8855
 11
-1.73502
 21
-26.7716
  0
LINE
  8
0
 10
-1.73502
 20
-26.7716
 11
-1.71637
 21
-26.6586
  0
LINE
  8
0
 10
-1.71637
 20
-26.6586
 11
-1.69037
 21
-26.5471
  0
LINE
  8
0
 10
-1.69037
 20
-26.5471
 11
-1.65712
 21
-26.4375
  0
LINE
  8
0
 10
-1.65712
 20
-26.4375
 11
-1.61678
 21
-26.3303
  0
LINE
  8
0
 10
-1.61678
 20
-26.3303
 11
-1.56952
 21
-26.226
  0
LINE
  8
0
 10
-1.56952
 20
-26.226
 11
-1.51553
 21
-26.125
  0
LINE
  8
0
 10
-1.51553
 20
-26.125
 11
-1.45506
 21
-26.0277
  0
LINE
  8
0
 10
-1.45506
 20
-26.0277
 11
-1.38837
 21
-25.9347
  0
LINE
  8
0
 10
-1.38837
 20
-25.9347
 11
-1.31572
 21
-25.8461
  0
LINE
  8
0
 10
-1.31572
 20
-25.8461
 11
-1.23743
 21
-25.7626
  0
LINE
  8
0
 10
-1.23743
 20
-25.7626
 11
-1.15385
 21
-25.6843
  0
LINE
  8
0
 10
-1.15385
 20
-25.6843
 11
-1.06532
 21
-25.6116
  0
LINE
  8
0
 10
-1.06532
 20
-25.6116
 11
-0.972244
 21
-25.5449
  0
LINE
  8
0
 10
-0.972244
 20
-25.5449
 11
-0.875
 21
-25.4845
  0
LINE
  8
0
 10
-0.875
 20
-25.4845
 11
-0.774002
 21
-25.4305
  0
LINE
  8
0
 10
-0.774002
 20
-25.4305
 11
-0.669693
 21
-25.3832
  0
LINE
  8
0
 10
-0.669693
 20
-25.3832
 11
-0.562515
 21
-25.3429
  0
LINE
  8
0
 10
-0.562515
 20
-25.3429
 11
-0.452927
 21
-25.3096
  0
LINE
  8
0
 10
-0.452927
 20
-25.3096
 11
-0.3414
 21
-25.2836
  0
LINE
  8
0
 10
-0.3414
 20
-25.2836
 11
-0.228409
 21
-25.265
  0
LINE
  8
0
 10
-0.228409
 20
-25.265
 11
-0.114441
 21
-25.2537
  0
LINE
  8
0
 10
-0.114441
 20
-25.2537
 11
0
 21
-25.25
  0
LINE
  8
0
 10
0
 20
-25.25
 11
0.114441
 21
-25.2537
  0
LINE
  8
0
 10
0.114441
 20
-25.2537
 11
0.228409
 21
-25.265
  0
LINE
  8
0
 10
0.228409
 20
-25.265
 11
0.3414
 21
-25.2836
  0
LINE
  8
0
 10
0.3414
 20
-25.2836
 11
0.452927
 21
-25.3096
  0
LINE
  8
0
 10
0.452927
 20
-25.3096
 11
0.562515
 21
-25.3429
  0
LINE
  8
0
 10
0.562515
 20
-25.3429
 11
0.669693
 21
-25.3832
  0
LINE
  8
0
 10
0.669693
 20
-25.3832
 11
0.774002
 21
-25.4305
  0
LINE
  8
0
 10
0.774002
 20
-25.4305
 11
0.875
 21
-25.4845
  0
LINE
  8
0
 10
0.875
 20
-25.4845
 11
0.972244
 21
-25.5449
  0
LINE
  8
0
 10
0.972244
 20
-25.5449
 11
1.06532
 21
-25.6116
  0
LINE
  8
0
 10
1.06532
 20
-25.6116
 11
1.15385
 21
-25.6843
  0
LINE
  8
0
 10
1.15385
 20
-25.6843
 11
1.23743
 21
-25.7626
  0
LINE
  8
0
 10
1.23743
 20
-25.7626
 11
1.31572
 21
-25.8461
  0
LINE
  8
0
 10
1.31572
 20
-25.8461
 11
1.38837
 21
-25.9347
  0
LINE
  8
0
 10
1.38837
 20
-25.9347
 11
1.45506
 21
-26.0277
  0
LINE
  8
0
 10
1.45506
 20
-26.0277
 11
1.51553
 21
-26.125
  0
LINE
  8
0
 10
1.51553
 20
-26.125
 11
1.56952
 21
-26.226
  0
LINE
  8
0
 10
1.56952
 20
-26.226
 11
1.61678
 21
-26.3303
  0
LINE
  8
0
 10
1.61678
 20
-26.3303
 11
1.65712
 21
-26.4375
  0
LINE
  8
0
 10
1.65712
 20
-26.4375
 11
1.69037
 21
-26.5471
  0
LINE
  8
0
 10
1.69037
 20
-26.5471
 11
1.71637
 21
-26.6586
  0
LINE
  8
0
 10
1.71637
 20
-26.6586
 11
1.73502
 21
-26.7716
  0
LINE
  8
0
 10
1.73502
 20
-26.7716
 11
1.74625
 21
-26.8855
  0
LINE
  8
0
 10
1.74625
 20
-26.8855
 11
1.75
 21
-27
  0
LINE
  8
0
 10
1.75
 20
-27
 11
1.74625
 21
-27.1144
  0
LINE
  8
0
 10
1.74625
 20
-27.1144
 11
1.73502
 21
-27.2284
  0
LINE
  8
0
 10
1.73502
 20
-27.2284
 11
1.71637
 21
-27.3414
  0
LINE
  8
0
 10
1.71637
 20
-27.3414
 11
1.69037
 21
-27.4529
  0
LINE
  8
0
 10
1.69037
 20
-27.4529
 11
1.65712
 21
-27.5625
  0
LINE
  8
0
 10
1.65712
 20
-27.5625
 11
1.61678
 21
-27.6697
  0
LINE
  8
0
 10
1.61678
 20
-27.6697
 11
1.56952
 21
-27.774
  0
LINE
  8
0
 10
1.56952
 20
-27.774
 11
1.51553
 21
-27.875
  0
LINE
  8
0
 10
1.51553
 20
-27.875
 11
1.45506
 21
-27.9722
  0
LINE
  8
0
 10
1.45506
 20
-27.9722
 11
1.38837
 21
-28.0653
  0
LINE
  8
0
 10
1.38837
 20
-28.0653
 11
1.31572
 21
-28.1539
  0
LINE
  8
0
 10
1.31572
 20
-28.1539
 11
1.23743
 21
-28.2374
  0
LINE
  8
0
 10
1.23743
 20
-28.2374
 11
1.15385
 21
-28.3157
  0
LINE
  8
0
 10
1.15385
 20
-28.3157
 11
1.06532
 21
-28.3884
  0
LINE
  8
0
 10
1.06532
 20
-28.3884
 11
0.972244
 21
-28.4551
  0
LINE
  8
0
 10
0.972244
 20
-28.4551
 11
0.875
 21
-28.5155
  0
LINE
  8
0
 10
0.875
 20
-28.5155
 11
0.774002
 21
-28.5695
  0
LINE
  8
0
 10
0.774002
 20
-28.5695
 11
0.669693
 21
-28.6168
  0
LINE
  8
0
 10
0.669693
 20
-28.6168
 11
0.562515
 21
-28.6571
  0
LINE
  8
0
 10
0.562515
 20
-28.6571
 11
0.452927
 21
-28.6904
  0
LINE
  8
0
 10
0.452927
 20
-28.6904
 11
0.3414
 21
-28.7164
  0
LINE
  8
0
 10
0.3414
 20
-28.7164
 11
0.228409
 21
-28.735
  0
LINE
  8
0
 10
0.228409
 20
-28.735
 11
0.114441
 21
-28.7462
  0
LINE
  8
0
 10
0.114441
 20
-28.7462
 11
0
 21
-28.75
  0
LINE
  8
0
 10
0
 20
-28.75
 11
-0.114441
 21
-28.7462
  0
LINE
  8
0
 10
-0.114441
 20
-58.7462
 11
-0.228409
 21
-58.735
  0
LINE
  8
0
 10
-0.228409
 20
-58.735
 11
-0.3414
 21
-58.7164
  0
LINE
  8
0
 10
-0.3414
 20
-58.7164
 11
-0.452927
 21
-58.6904
  0
LINE
  8
0
 10
-0.452927
 20
-58.6904
 11
-0.562515
 21
-58.6571
  0
LINE
  8
0
 10
-0.562515
 20
-58.6571
 11
-0.669693
 21
-58.6168
  0
LINE
  8
0
 10
-0.669693
 20
-58.6168
 11
-0.774002
 21
-58.5695
  0
LINE
  8
0
 10
-0.774002
 20
-58.5695
 11
-0.875
 21
-58.5155
  0
LINE
  8
0
 10
-0.875
 20
-58.5155
 11
-0.972244
 21
-58.4551
  0
LINE
  8
0
 10
-0.972244
 20
-58.4551
 11
-1.06532
 21
-58.3884
  0
LINE
  8
0
 10
-1.06532
 20
-58.3884
 11
-1.15385
 21
-58.3157
  0
LINE
  8
0
 10
-1.15385
 20
-58.3157
 11
-1.23743
 21
-58.2374
  0
LINE
  8
0
 10
-1.23743
 20
-58.2374
 11
-1.31572
 21
-58.1539
  0
LINE
  8
0
 10
-1.31572
 20
-58.1539
 11
-1.38837
 21
-58.0653
  0
LINE
  8
0
 10
-1.38837
 20
-58.0653
 11
-1.45506
 21
-57.9722
  0
LINE
  8
0
 10
-1.45506
 20
-57.9722
 11
-1.51553
 21
-57.875
  0
LINE
  8
0
 10
-1.51553
 20
-57.875
 11
-1.56952
 21
-57.774
  0
LINE
  8
0
 10
-1.56952
 20
-57.774
 11
-1.61678
 21
-57.6697
  0
LINE
  8
0
 10
-1.61678
 20
-57.6697
 11
-1.65712
 21
-57.5625
  0
LINE
  8
0
 10
-1.65712
 20
-57.5625
 11
-1.69037
 21
-57.4529
  0
LINE
  8
0
 10
-1.69037
 20
-57.4529
 11
-1.71637
 21
-57.3414
  0
LINE
  8
0
 10
-1.71637
 20
-57.3414
 11
-1.73502
 21
-57.2284
  0
LINE
  8
0
 10
-1.73502
 20
-57.2284
 11
-1.74625
 21
-57.1144
  0
LINE
  8
0
 10
-1.74625
 20
-57.1144
 11
-1.75
 21
-57
  0
LINE
  8
0
 10
-1.75
 20
-57
 11
-1.74625
 21
-56.8855
  0
LINE
  8
0
 10
-1.74625
 20
-56.8855
 11
-1.73502
 21
-56.7716
  0
LINE
  8
0
 10
-1.73502
 20
-56.7716
 11
-1.71637
 21
-56.6586
  0
LINE
  8
0
 10
-1.71637
 20
-56.6586
 11
-1.69037
 21
-56.5471
  0
LINE
  8
0
 10
-1.69037
 20
-56.5471
 11
-1.65712
 21
-56.4375
  0
LINE
  8
0
 10
-1.65712
 20
-56.4375
 11
-1.61678
 21
-56.3303
  0
LINE
  8
0
 10
-1.61678
 20
-56.3303
 11
-1.56952
 21
-56.226
  0
LINE
  8
0
 10
-1.56952
 20
-56.226
 11
-1.51553
 21
-56.125
  0
LINE
  8
0
 10
-1.51553
 20
-56.125
 11
-1.45506
 21
-56.0277
  0
LINE
  8
0
 10
-1.45506
 20
-56.0277
 11
-1.38837
 21
-55.9347
  0
LINE
  8
0
 10
-1.38837
 20
-55.9347
 11
-1.31572
 21
-55.8461
  0
LINE
  8
0
 10
-1.31572
 20
-55.8461
 11
-1.23743
 21
-55.7626
  0
LINE
  8
0
 10
-1.23743
 20
-55.7626
 11
-1.15385
 21
-55.6843
  0
LINE
  8
0
 10
-1.15385
 20
-55.6843
 11
-1.06532
 21
-55.6116
  0
LINE
  8
0
 10
-1.06532
 20
-55.6116
 11
-0.972244
 21
-55.5449
  0
LINE
  8
0
 10
-0.972244
 20
-55.5449
 11
-0.875
 21
-55.4845
  0
LINE
  8
0
 10
-0.875
 20
-55.4845
 11
-0.774002
 21
-55.4305
  0
LINE
  8
0
 10
-0.774002
 20
-55.4305
 11
-0.669693
 21
-55.3832
  0
LINE
  8
0
 10
-0.669693
 20
-55.3832
 11
-0.562515
 21
-55.3429
  0
LINE
  8
0
 10
-0.562515
 20
-55.3429
 11
-0.452927
 21
-55.3096
  0
LINE
  8
0
 10
-0.452927
 20
-55.3096
 11
-0.3414
 21
-55.2836
  0
LINE
  8
0
 10
-0.3414
 20
-55.2836
 11
-0.228409
 21
-55.265
  0
LINE
  8
0
 10
-0.228409
 20
-55.265
 11
-0.114441
 21
-55.2537
  0
LINE
  8
0
 10
-0.114441
 20
-55.2537
 11
0
 21
-55.25
  0
LINE
  8
0
 10
0
 20
-55.25
 11
0.114441
 21
-55.2537
  0
LINE
  8
0
 10
0.114441
 20
-55.2537
 11
0.228409
 21
-55.265
  0
LINE
  8
0
 10
0.228409
 20
-55.265
 11
0.3414
 21
-55.2836
  0
LINE
  8
0
 10
0.3414
 20
-55.2836
 11
0.452927
 21
-55.3096
  0
LINE
  8
0
 10
0.452927
 20
-55.3096
 11
0.562515
 21
-55.3429
  0
LINE
  8
0
 10
0.562515
 20
-55.3429
 11
0.669693
 21
-55.3832
  0
LINE
  8
0
 10
0.669693
 20
-55.3832
 11
0.774002
 21
-55.4305
  0
LINE
  8
0
 10
0.774002
 20
-55.4305
 11
0.875
 21
-55.4845
  0
LINE
  8
0
 10
0.875
 20
-55.4845
 11
0.972244
 21
-55.5449
  0
LINE
  8
0
 10
0.972244
 20
-55.5449
 11
1.06532
 21
-55.6116
  0
LINE
  8
0
 10
1.06532
 20
-55.6116
 11
1.15385
 21
-55.6843
  0
LINE
  8
0
 10
1.15385
 20
-55.6843
 11
1.23743
 21
-55.7626
  0
LINE
  8
0
 10
1.23743
 20
-55.7626
 11
1.31572
 21
-55.8461
  0
LINE
  8
0
 10
1.31572
 20
-55.8461
 11
1.38837
 21
-55.9347
  0
LINE
  8
0
 10
1.38837
 20
-55.9347
 11
1.45506
 21
-56.0277
  0
LINE
  8
0
 10
1.45506
 20
-56.0277
 11
1.51553
 21
-56.125
  0
LINE
  8
0
 10
1.51553
 20
-56.125
 11
1.56952
 21
-56.226
  0
LINE
  8
0
 10
1.56952
 20
-56.226
 11
1.61678
 21
-56.3303
  0
LINE
  8
0
 10
1.61678
 20
-56.3303
 11
1.65712
 21
-56.4375
  0
LINE
  8
0
 10
1.65712
 20
-56.4375
 11
1.69037
 21
-56.5471
  0
LINE
  8
0
 10
1.69037
 20
-56.5471
 11
1.71637
 21
-56.6586
  0
LINE
  8
0
 10
1.71637
 20
-56.6586
 11
1.73502
 21
-56.7716
  0
LINE
  8
0
 10
1.73502
 20
-56.7716
 11
1.74625
 21
-56.8855
  0
LINE
  8
0
 10
1.74625
 20
-56.8855
 11
1.75
 21
-57
  0
LINE
  8
0
 10
1.75
 20
-57
 11
1.74625
 21
-57.1144
  0
LINE
  8
0
 10
1.74625
 20
-57.1144
 11
1.73502
 21
-57.2284
  0
LINE
  8
0
 10
1.73502
 20
-57.2284
 11
1.71637
 21
-57.3414
  0
LINE
  8
0
 10
1.71637
 20
-57.3414
 11
1.69037
 21
-57.4529
  0
LINE
  8
0
 10
1.69037
 20
-57.4529
 11
1.65712
 21
-57.5625
  0
LINE
  8
0
 10
1.65712
 20
-57.5625
 11
1.61678
 21
-57.6697
  0
LINE
  8
0
 10
1.61678
 20
-57.6697
 11
1.56952
 21
-57.774
  0
LINE
  8
0
 10
1.56952
 20
-57.774
 11
1.51553
 21
-57.875
  0
LINE
  8
0
 10
1.51553
 20
-57.875
 11
1.45506
 21
-57.9722
  0
LINE
  8
0
 10
1.45506
 20
-57.9722
 11
1.38837
 21
-58.0653
  0
LINE
  8
0
 10
1.38837
 20
-58.0653
 11
1.31572
 21
-58.1539
  0
LINE
  8
0
 10
1.31572
 20
-58.1539
 11
1.23743
 21
-58.2374
  0
LINE
  8
0
 10
1.23743
 20
-58.2374
 11
1.15385
 21
-58.3157
  0
LINE
  8
0
 10
1.15385
 20
-58.3157
 11
1.06532
 21
-58.3884
  0
LINE
  8
0
 10
1.06532
 20
-58.3884
 11
0.972244
 21
-58.4551
  0
LINE
  8
0
 10
0.972244
 20
-58.4551
 11
0.875
 21
-58.5155
  0
LINE
  8
0
 10
0.875
 20
-58.5155
 11
0.774002
 21
-58.5695
  0
LINE
  8
0
 10
0.774002
 20
-58.5695
 11
0.669693
 21
-58.6168
  0
LINE
  8
0
 10
0.669693
 20
-58.6168
 11
0.562515
 21
-58.6571
  0
LINE
  8
0
 10
0.562515
 20
-58.6571
 11
0.452927
 21
-58.6904
  0
LINE
  8
0
 10
0.452927
 20
-58.6904
 11
0.3414
 21
-58.7164
  0
LINE
  8
0
 10
0.3414
 20
-58.7164
 11
0.228409
 21
-58.735
  0
LINE
  8
0
 10
0.228409
 20
-58.735
 11
0.114441
 21
-58.7462
  0
LINE
  8
0
 10
0.114441
 20
-58.7462
 11
0
 21
-58.75
  0
LINE
  8
0
 10
0
 20
-58.75
 11
-0.114441
 21
-58.7462
  0
ENDSEC
  0
SECTION
  2
OBJECTS
  0
DICTIONARY
  0
ENDSEC
  0
EOF
