  0
SECTION
  2
BLOCKS
  0
ENDSEC
  0
SECTION
  2
ENTITIES
  0
LINE
  8
0
 10
4.57822
 20
-69.8501
 11
9.13683
 21
-69.4011
  0
LINE
  8
0
 10
9.13683
 20
-69.4011
 11
13.6563
 21
-68.655
  0
LINE
  8
0
 10
13.6563
 20
-68.655
 11
18.1173
 21
-67.6148
  0
LINE
  8
0
 10
18.1173
 20
-67.6148
 11
22.5007
 21
-66.2851
  0
LINE
  8
0
 10
22.5007
 20
-66.2851
 11
26.7878
 21
-64.6716
  0
LINE
  8
0
 10
26.7878
 20
-64.6716
 11
30.9602
 21
-62.7811
  0
LINE
  8
0
 10
30.9602
 20
-62.7811
 11
35
 21
-60.6218
  0
LINE
  8
0
 10
35
 20
-60.6218
 11
38.8899
 21
-58.2029
  0
LINE
  8
0
 10
38.8899
 20
-58.2029
 11
42.6133
 21
-55.5347
  0
LINE
  8
0
 10
42.6133
 20
-55.5347
 11
46.1542
 21
-52.6288
  0
LINE
  8
0
 10
46.1542
 20
-52.6288
 11
49.4975
 21
-49.4975
  0
LINE
  8
0
 10
49.4975
 20
-49.4975
 11
52.6288
 21
-46.1542
  0
LINE
  8
0
 10
52.6288
 20
-46.1542
 11
55.5347
 21
-42.6133
  0
LINE
  8
0
 10
55.5347
 20
-42.6133
 11
58.2029
 21
-38.8899
  0
LINE
  8
0
 10
58.2029
 20
-38.8899
 11
60.6218
 21
-35
  0
LINE
  8
0
 10
60.6218
 20
-35
 11
62.7811
 21
-30.9602
  0
LINE
  8
0
 10
62.7811
 20
-30.9602
 11
64.6716
 21
-26.7878
  0
LINE
  8
0
 10
64.6716
 20
-26.7878
 11
66.2851
 21
-22.5007
  0
LINE
  8
0
 10
66.2851
 20
-22.5007
 11
67.6148
 21
-18.1173
  0
LINE
  8
0
 10
67.6148
 20
-18.1173
 11
68.655
 21
-13.6563
  0
LINE
  8
0
 10
68.655
 20
-13.6563
 11
69.4011
 21
-9.13683
  0
LINE
  8
0
 10
69.4011
 20
-9.13683
 11
69.8501
 21
-4.57822
  0
LINE
  8
0
 10
69.8501
 20
-4.57822
 11
69.9511
 21
-1.49356
  0
LINE
  8
0
 10
69.9511
 20
-1.49356
 11
69.6118
 21
-1.44888
  0
LINE
  8
0
 10
69.6118
 20
-1.44888
 11
69.25
 21
-1.29903
  0
LINE
  8
0
 10
69.25
 20
-1.29903
 11
68.9393
 21
-1.06065
  0
LINE
  8
0
 10
68.9393
 20
-1.06065
 11
68.701
 21
-0.75
  0
LINE
  8
0
 10
68.701
 20
-0.75
 11
68.5511
 21
-0.388214
  0
LINE
  8
0
 10
68.5511
 20
-0.388214
 11
68.5
 21
0
  0
LINE
  8
0
 10
68.5
 20
0
 11
68.5511
 21
0.388214
  0
LINE
  8
0
 10
68.5511
 20
0.388214
 11
68.701
 21
0.75
  0
LINE
  8
0
 10
68.701
 20
0.75
 11
68.9393
 21
1.06065
  0
LINE
  8
0
 10
68.9393
 20
1.06065
 11
69.25
 21
1.29903
  0
LINE
  8
0
 10
69.25
 20
1.29903
 11
69.6118
 21
1.44888
  0
LINE
  8
0
 10
69.6118
 20
1.44888
 11
69.9511
 21
1.49356
  0
LINE
  8
0
 10
69.9511
 20
1.49356
 11
69.8501
 21
4.57822
  0
LINE
  8
0
 10
69.8501
 20
4.57822
 11
69.4011
 21
9.13683
  0
LINE
  8
0
 10
69.4011
 20
9.13683
 11
68.655
 21
13.6563
  0
LINE
  8
0
 10
68.655
 20
13.6563
 11
67.6148
 21
18.1173
  0
LINE
  8
0
 10
67.6148
 20
18.1173
 11
66.2851
 21
22.5007
  0
LINE
  8
0
 10
66.2851
 20
22.5007
 11
64.6716
 21
26.7878
  0
LINE
  8
0
 10
64.6716
 20
26.7878
 11
62.7811
 21
30.9602
  0
LINE
  8
0
 10
62.7811
 20
30.9602
 11
60.6218
 21
35
  0
LINE
  8
0
 10
60.6218
 20
35
 11
58.2029
 21
38.8899
  0
LINE
  8
0
 10
58.2029
 20
38.8899
 11
55.5347
 21
42.6133
  0
LINE
  8
0
 10
55.5347
 20
42.6133
 11
52.6288
 21
46.1542
  0
LINE
  8
0
 10
52.6288
 20
46.1542
 11
49.4975
 21
49.4975
  0
LINE
  8
0
 10
49.4975
 20
49.4975
 11
46.1542
 21
52.6288
  0
LINE
  8
0
 10
46.1542
 20
52.6288
 11
42.6133
 21
55.5347
  0
LINE
  8
0
 10
42.6133
 20
55.5347
 11
38.8899
 21
58.2029
  0
LINE
  8
0
 10
38.8899
 20
58.2029
 11
35
 21
60.6218
  0
LINE
  8
0
 10
35
 20
60.6218
 11
30.9602
 21
62.7811
  0
LINE
  8
0
 10
30.9602
 20
62.7811
 11
26.7878
 21
64.6716
  0
LINE
  8
0
 10
26.7878
 20
64.6716
 11
22.5007
 21
66.2851
  0
LINE
  8
0
 10
22.5007
 20
66.2851
 11
18.1173
 21
67.6148
  0
LINE
  8
0
 10
18.1173
 20
67.6148
 11
13.6563
 21
68.655
  0
LINE
  8
0
 10
13.6563
 20
68.655
 11
9.13683
 21
69.4011
  0
LINE
  8
0
 10
9.13683
 20
69.4011
 11
4.57822
 21
69.8501
  0
LINE
  8
0
 10
4.57822
 20
69.8501
 11
0
 21
70
  0
LINE
  8
0
 10
0
 20
70
 11
-4.57822
 21
69.8501
  0
LINE
  8
0
 10
-4.57822
 20
69.8501
 11
-9.13683
 21
69.4011
  0
LINE
  8
0
 10
-9.13683
 20
69.4011
 11
-13.6563
 21
68.655
  0
LINE
  8
0
 10
-13.6563
 20
68.655
 11
-18.1173
 21
67.6148
  0
LINE
  8
0
 10
-18.1173
 20
67.6148
 11
-22.5007
 21
66.2851
  0
LINE
  8
0
 10
-22.5007
 20
66.2851
 11
-26.7878
 21
64.6716
  0
LINE
  8
0
 10
-26.7878
 20
64.6716
 11
-30.9602
 21
62.7811
  0
LINE
  8
0
 10
-30.9602
 20
62.7811
 11
-35
 21
60.6218
  0
LINE
  8
0
 10
-35
 20
60.6218
 11
-38.8899
 21
58.2029
  0
LINE
  8
0
 10
-38.8899
 20
58.2029
 11
-42.6133
 21
55.5347
  0
LINE
  8
0
 10
-42.6133
 20
55.5347
 11
-46.1542
 21
52.6288
  0
LINE
  8
0
 10
-46.1542
 20
52.6288
 11
-49.4975
 21
49.4975
  0
LINE
  8
0
 10
-49.4975
 20
49.4975
 11
-52.6288
 21
46.1542
  0
LINE
  8
0
 10
-52.6288
 20
46.1542
 11
-55.5347
 21
42.6133
  0
LINE
  8
0
 10
-55.5347
 20
42.6133
 11
-58.2029
 21
38.8899
  0
LINE
  8
0
 10
-58.2029
 20
38.8899
 11
-60.6218
 21
35
  0
LINE
  8
0
 10
-60.6218
 20
35
 11
-62.7811
 21
30.9602
  0
LINE
  8
0
 10
-62.7811
 20
30.9602
 11
-64.6716
 21
26.7878
  0
LINE
  8
0
 10
-64.6716
 20
26.7878
 11
-66.2851
 21
22.5007
  0
LINE
  8
0
 10
-66.2851
 20
22.5007
 11
-67.6148
 21
18.1173
  0
LINE
  8
0
 10
-67.6148
 20
18.1173
 11
-68.655
 21
13.6563
  0
LINE
  8
0
 10
-68.655
 20
13.6563
 11
-69.4011
 21
9.13683
  0
LINE
  8
0
 10
-69.4011
 20
9.13683
 11
-69.8501
 21
4.57822
  0
LINE
  8
0
 10
-69.8501
 20
4.57822
 11
-70
 21
0
  0
LINE
  8
0
 10
-70
 20
0
 11
-69.8501
 21
-4.57822
  0
LINE
  8
0
 10
-69.8501
 20
-4.57822
 11
-69.4011
 21
-9.13683
  0
LINE
  8
0
 10
-69.4011
 20
-9.13683
 11
-68.655
 21
-13.6563
  0
LINE
  8
0
 10
-68.655
 20
-13.6563
 11
-67.6148
 21
-18.1173
  0
LINE
  8
0
 10
-67.6148
 20
-18.1173
 11
-66.2851
 21
-22.5007
  0
LINE
  8
0
 10
-66.2851
 20
-22.5007
 11
-64.6716
 21
-26.7878
  0
LINE
  8
0
 10
-64.6716
 20
-26.7878
 11
-62.7811
 21
-30.9602
  0
LINE
  8
0
 10
-62.7811
 20
-30.9602
 11
-60.6218
 21
-35
  0
LINE
  8
0
 10
-60.6218
 20
-35
 11
-58.2029
 21
-38.8899
  0
LINE
  8
0
 10
-58.2029
 20
-38.8899
 11
-55.5347
 21
-42.6133
  0
LINE
  8
0
 10
-55.5347
 20
-42.6133
 11
-52.6288
 21
-46.1542
  0
LINE
  8
0
 10
-52.6288
 20
-46.1542
 11
-49.4975
 21
-49.4975
  0
LINE
  8
0
 10
-49.4975
 20
-49.4975
 11
-46.1542
 21
-52.6288
  0
LINE
  8
0
 10
-46.1542
 20
-52.6288
 11
-42.6133
 21
-55.5347
  0
LINE
  8
0
 10
-42.6133
 20
-55.5347
 11
-38.8899
 21
-58.2029
  0
LINE
  8
0
 10
-38.8899
 20
-58.2029
 11
-35
 21
-60.6218
  0
LINE
  8
0
 10
-35
 20
-60.6218
 11
-30.9602
 21
-62.7811
  0
LINE
  8
0
 10
-30.9602
 20
-62.7811
 11
-26.7878
 21
-64.6716
  0
LINE
  8
0
 10
-26.7878
 20
-64.6716
 11
-22.5007
 21
-66.2851
  0
LINE
  8
0
 10
-22.5007
 20
-66.2851
 11
-18.1173
 21
-67.6148
  0
LINE
  8
0
 10
-18.1173
 20
-67.6148
 11
-13.6563
 21
-68.655
  0
LINE
  8
0
 10
-13.6563
 20
-68.655
 11
-9.13683
 21
-69.4011
  0
LINE
  8
0
 10
-9.13683
 20
-69.4011
 11
-4.57822
 21
-69.8501
  0
LINE
  8
0
 10
-4.57822
 20
-69.8501
 11
0
 21
-70
  0
LINE
  8
0
 10
0
 20
-70
 11
4.57822
 21
-69.8501
  0
LINE
  8
0
 10
46.5546
 20
44.9228
 11
46.4406
 21
44.934
  0
LINE
  8
0
 10
46.4406
 20
44.934
 11
46.3276
 21
44.9527
  0
LINE
  8
0
 10
46.3276
 20
44.9527
 11
46.2161
 21
44.9787
  0
LINE
  8
0
 10
46.2161
 20
44.9787
 11
46.1065
 21
45.0119
  0
LINE
  8
0
 10
46.1065
 20
45.0119
 11
45.9993
 21
45.0522
  0
LINE
  8
0
 10
45.9993
 20
45.0522
 11
45.895
 21
45.0995
  0
LINE
  8
0
 10
45.895
 20
45.0995
 11
45.794
 21
45.1535
  0
LINE
  8
0
 10
45.794
 20
45.1535
 11
45.6968
 21
45.214
  0
LINE
  8
0
 10
45.6968
 20
45.214
 11
45.6037
 21
45.2807
  0
LINE
  8
0
 10
45.6037
 20
45.2807
 11
45.5152
 21
45.3533
  0
LINE
  8
0
 10
45.5152
 20
45.3533
 11
45.4316
 21
45.4316
  0
LINE
  8
0
 10
45.4316
 20
45.4316
 11
45.3533
 21
45.5152
  0
LINE
  8
0
 10
45.3533
 20
45.5152
 11
45.2807
 21
45.6037
  0
LINE
  8
0
 10
45.2807
 20
45.6037
 11
45.214
 21
45.6968
  0
LINE
  8
0
 10
45.214
 20
45.6968
 11
45.1535
 21
45.794
  0
LINE
  8
0
 10
45.1535
 20
45.794
 11
45.0995
 21
45.895
  0
LINE
  8
0
 10
45.0995
 20
45.895
 11
45.0522
 21
45.9993
  0
LINE
  8
0
 10
45.0522
 20
45.9993
 11
45.0119
 21
46.1065
  0
LINE
  8
0
 10
45.0119
 20
46.1065
 11
44.9787
 21
46.2161
  0
LINE
  8
0
 10
44.9787
 20
46.2161
 11
44.9527
 21
46.3276
  0
LINE
  8
0
 10
44.9527
 20
46.3276
 11
44.934
 21
46.4406
  0
LINE
  8
0
 10
44.934
 20
46.4406
 11
44.9228
 21
46.5546
  0
LINE
  8
0
 10
44.9228
 20
46.5546
 11
44.919
 21
46.669
  0
LINE
  8
0
 10
44.919
 20
46.669
 11
44.9228
 21
46.7835
  0
LINE
  8
0
 10
44.9228
 20
46.7835
 11
44.934
 21
46.8975
  0
LINE
  8
0
 10
44.934
 20
46.8975
 11
44.9527
 21
47.0105
  0
LINE
  8
0
 10
44.9527
 20
47.0105
 11
44.9787
 21
47.122
  0
LINE
  8
0
 10
44.9787
 20
47.122
 11
45.0119
 21
47.2316
  0
LINE
  8
0
 10
45.0119
 20
47.2316
 11
45.0522
 21
47.3387
  0
LINE
  8
0
 10
45.0522
 20
47.3387
 11
45.0995
 21
47.443
  0
LINE
  8
0
 10
45.0995
 20
47.443
 11
45.1535
 21
47.544
  0
LINE
  8
0
 10
45.1535
 20
47.544
 11
45.214
 21
47.6413
  0
LINE
  8
0
 10
45.214
 20
47.6413
 11
45.2807
 21
47.7344
  0
LINE
  8
0
 10
45.2807
 20
47.7344
 11
45.3533
 21
47.8229
  0
LINE
  8
0
 10
45.3533
 20
47.8229
 11
45.4316
 21
47.9065
  0
LINE
  8
0
 10
45.4316
 20
47.9065
 11
45.5152
 21
47.9848
  0
LINE
  8
0
 10
45.5152
 20
47.9848
 11
45.6037
 21
48.0574
  0
LINE
  8
0
 10
45.6037
 20
48.0574
 11
45.6968
 21
48.1241
  0
LINE
  8
0
 10
45.6968
 20
48.1241
 11
45.794
 21
48.1846
  0
LINE
  8
0
 10
45.794
 20
48.1846
 11
45.895
 21
48.2386
  0
LINE
  8
0
 10
45.895
 20
48.2386
 11
45.9993
 21
48.2858
  0
LINE
  8
0
 10
45.9993
 20
48.2858
 11
46.1065
 21
48.3262
  0
LINE
  8
0
 10
46.1065
 20
48.3262
 11
46.2161
 21
48.3594
  0
LINE
  8
0
 10
46.2161
 20
48.3594
 11
46.3276
 21
48.3854
  0
LINE
  8
0
 10
46.3276
 20
48.3854
 11
46.4406
 21
48.4041
  0
LINE
  8
0
 10
46.4406
 20
48.4041
 11
46.5546
 21
48.4153
  0
LINE
  8
0
 10
46.5546
 20
48.4153
 11
46.669
 21
48.419
  0
LINE
  8
0
 10
46.669
 20
48.419
 11
46.7835
 21
48.4153
  0
LINE
  8
0
 10
46.7835
 20
48.4153
 11
46.8975
 21
48.4041
  0
LINE
  8
0
 10
46.8975
 20
48.4041
 11
47.0105
 21
48.3854
  0
LINE
  8
0
 10
47.0105
 20
48.3854
 11
47.122
 21
48.3594
  0
LINE
  8
0
 10
47.122
 20
48.3594
 11
47.2316
 21
48.3262
  0
LINE
  8
0
 10
47.2316
 20
48.3262
 11
47.3387
 21
48.2858
  0
LINE
  8
0
 10
47.3387
 20
48.2858
 11
47.443
 21
48.2386
  0
LINE
  8
0
 10
47.443
 20
48.2386
 11
47.544
 21
48.1846
  0
LINE
  8
0
 10
47.544
 20
48.1846
 11
47.6413
 21
48.1241
  0
LINE
  8
0
 10
47.6413
 20
48.1241
 11
47.7344
 21
48.0574
  0
LINE
  8
0
 10
47.7344
 20
48.0574
 11
47.8229
 21
47.9848
  0
LINE
  8
0
 10
47.8229
 20
47.9848
 11
47.9065
 21
47.9065
  0
LINE
  8
0
 10
47.9065
 20
47.9065
 11
47.9848
 21
47.8229
  0
LINE
  8
0
 10
47.9848
 20
47.8229
 11
48.0574
 21
47.7344
  0
LINE
  8
0
 10
48.0574
 20
47.7344
 11
48.1241
 21
47.6413
  0
LINE
  8
0
 10
48.1241
 20
47.6413
 11
48.1846
 21
47.544
  0
LINE
  8
0
 10
48.1846
 20
47.544
 11
48.2386
 21
47.443
  0
LINE
  8
0
 10
48.2386
 20
47.443
 11
48.2858
 21
47.3387
  0
LINE
  8
0
 10
48.2858
 20
47.3387
 11
48.3262
 21
47.2316
  0
LINE
  8
0
 10
48.3262
 20
47.2316
 11
48.3594
 21
47.122
  0
LINE
  8
0
 10
48.3594
 20
47.122
 11
48.3854
 21
47.0105
  0
LINE
  8
0
 10
48.3854
 20
47.0105
 11
48.4041
 21
46.8975
  0
LINE
  8
0
 10
48.4041
 20
46.8975
 11
48.4153
 21
46.7835
  0
LINE
  8
0
 10
48.4153
 20
46.7835
 11
48.419
 21
46.669
  0
LINE
  8
0
 10
48.419
 20
46.669
 11
48.4153
 21
46.5546
  0
LINE
  8
0
 10
48.4153
 20
46.5546
 11
48.4041
 21
46.4406
  0
LINE
  8
0
 10
48.4041
 20
46.4406
 11
48.3854
 21
46.3276
  0
LINE
  8
0
 10
48.3854
 20
46.3276
 11
48.3594
 21
46.2161
  0
LINE
  8
0
 10
48.3594
 20
46.2161
 11
48.3262
 21
46.1065
  0
LINE
  8
0
 10
48.3262
 20
46.1065
 11
48.2858
 21
45.9993
  0
LINE
  8
0
 10
48.2858
 20
45.9993
 11
48.2386
 21
45.895
  0
LINE
  8
0
 10
48.2386
 20
45.895
 11
48.1846
 21
45.794
  0
LINE
  8
0
 10
48.1846
 20
45.794
 11
48.1241
 21
45.6968
  0
LINE
  8
0
 10
48.1241
 20
45.6968
 11
48.0574
 21
45.6037
  0
LINE
  8
0
 10
48.0574
 20
45.6037
 11
47.9848
 21
45.5152
  0
LINE
  8
0
 10
47.9848
 20
45.5152
 11
47.9065
 21
45.4316
  0
LINE
  8
0
 10
47.9065
 20
45.4316
 11
47.8229
 21
45.3533
  0
LINE
  8
0
 10
47.8229
 20
45.3533
 11
47.7344
 21
45.2807
  0
LINE
  8
0
 10
47.7344
 20
45.2807
 11
47.6413
 21
45.214
  0
LINE
  8
0
 10
47.6413
 20
45.214
 11
47.544
 21
45.1535
  0
LINE
  8
0
 10
47.544
 20
45.1535
 11
47.443
 21
45.0995
  0
LINE
  8
0
 10
47.443
 20
45.0995
 11
47.3387
 21
45.0522
  0
LINE
  8
0
 10
47.3387
 20
45.0522
 11
47.2316
 21
45.0119
  0
LINE
  8
0
 10
47.2316
 20
45.0119
 11
47.122
 21
44.9787
  0
LINE
  8
0
 10
47.122
 20
44.9787
 11
47.0105
 21
44.9527
  0
LINE
  8
0
 10
47.0105
 20
44.9527
 11
46.8975
 21
44.934
  0
LINE
  8
0
 10
46.8975
 20
44.934
 11
46.7835
 21
44.9228
  0
LINE
  8
0
 10
46.7835
 20
44.9228
 11
46.669
 21
44.919
  0
LINE
  8
0
 10
46.669
 20
44.919
 11
46.5546
 21
44.9228
  0
LINE
  8
0
 10
-46.7835
 20
44.9228
 11
-46.8975
 21
44.934
  0
LINE
  8
0
 10
-46.8975
 20
44.934
 11
-47.0105
 21
44.9527
  0
LINE
  8
0
 10
-47.0105
 20
44.9527
 11
-47.122
 21
44.9787
  0
LINE
  8
0
 10
-47.122
 20
44.9787
 11
-47.2316
 21
45.0119
  0
LINE
  8
0
 10
-47.2316
 20
45.0119
 11
-47.3387
 21
45.0522
  0
LINE
  8
0
 10
-47.3387
 20
45.0522
 11
-47.443
 21
45.0995
  0
LINE
  8
0
 10
-47.443
 20
45.0995
 11
-47.544
 21
45.1535
  0
LINE
  8
0
 10
-47.544
 20
45.1535
 11
-47.6413
 21
45.214
  0
LINE
  8
0
 10
-47.6413
 20
45.214
 11
-47.7344
 21
45.2807
  0
LINE
  8
0
 10
-47.7344
 20
45.2807
 11
-47.8229
 21
45.3533
  0
LINE
  8
0
 10
-47.8229
 20
45.3533
 11
-47.9065
 21
45.4316
  0
LINE
  8
0
 10
-47.9065
 20
45.4316
 11
-47.9848
 21
45.5152
  0
LINE
  8
0
 10
-47.9848
 20
45.5152
 11
-48.0574
 21
45.6037
  0
LINE
  8
0
 10
-48.0574
 20
45.6037
 11
-48.1241
 21
45.6968
  0
LINE
  8
0
 10
-48.1241
 20
45.6968
 11
-48.1846
 21
45.794
  0
LINE
  8
0
 10
-48.1846
 20
45.794
 11
-48.2386
 21
45.895
  0
LINE
  8
0
 10
-48.2386
 20
45.895
 11
-48.2858
 21
45.9993
  0
LINE
  8
0
 10
-48.2858
 20
45.9993
 11
-48.3262
 21
46.1065
  0
LINE
  8
0
 10
-48.3262
 20
46.1065
 11
-48.3594
 21
46.2161
  0
LINE
  8
0
 10
-48.3594
 20
46.2161
 11
-48.3854
 21
46.3276
  0
LINE
  8
0
 10
-48.3854
 20
46.3276
 11
-48.4041
 21
46.4406
  0
LINE
  8
0
 10
-48.4041
 20
46.4406
 11
-48.4153
 21
46.5546
  0
LINE
  8
0
 10
-48.4153
 20
46.5546
 11
-48.419
 21
46.669
  0
LINE
  8
0
 10
-48.419
 20
46.669
 11
-48.4153
 21
46.7835
  0
LINE
  8
0
 10
-48.4153
 20
46.7835
 11
-48.4041
 21
46.8975
  0
LINE
  8
0
 10
-48.4041
 20
46.8975
 11
-48.3854
 21
47.0105
  0
LINE
  8
0
 10
-48.3854
 20
47.0105
 11
-48.3594
 21
47.122
  0
LINE
  8
0
 10
-48.3594
 20
47.122
 11
-48.3262
 21
47.2316
  0
LINE
  8
0
 10
-48.3262
 20
47.2316
 11
-48.2858
 21
47.3387
  0
LINE
  8
0
 10
-48.2858
 20
47.3387
 11
-48.2386
 21
47.443
  0
LINE
  8
0
 10
-48.2386
 20
47.443
 11
-48.1846
 21
47.544
  0
LINE
  8
0
 10
-48.1846
 20
47.544
 11
-48.1241
 21
47.6413
  0
LINE
  8
0
 10
-48.1241
 20
47.6413
 11
-48.0574
 21
47.7344
  0
LINE
  8
0
 10
-48.0574
 20
47.7344
 11
-47.9848
 21
47.8229
  0
LINE
  8
0
 10
-47.9848
 20
47.8229
 11
-47.9065
 21
47.9065
  0
LINE
  8
0
 10
-47.9065
 20
47.9065
 11
-47.8229
 21
47.9848
  0
LINE
  8
0
 10
-47.8229
 20
47.9848
 11
-47.7344
 21
48.0574
  0
LINE
  8
0
 10
-47.7344
 20
48.0574
 11
-47.6413
 21
48.1241
  0
LINE
  8
0
 10
-47.6413
 20
48.1241
 11
-47.544
 21
48.1846
  0
LINE
  8
0
 10
-47.544
 20
48.1846
 11
-47.443
 21
48.2386
  0
LINE
  8
0
 10
-47.443
 20
48.2386
 11
-47.3387
 21
48.2858
  0
LINE
  8
0
 10
-47.3387
 20
48.2858
 11
-47.2316
 21
48.3262
  0
LINE
  8
0
 10
-47.2316
 20
48.3262
 11
-47.122
 21
48.3594
  0
LINE
  8
0
 10
-47.122
 20
48.3594
 11
-47.0105
 21
48.3854
  0
LINE
  8
0
 10
-47.0105
 20
48.3854
 11
-46.8975
 21
48.4041
  0
LINE
  8
0
 10
-46.8975
 20
48.4041
 11
-46.7835
 21
48.4153
  0
LINE
  8
0
 10
-46.7835
 20
48.4153
 11
-46.669
 21
48.419
  0
LINE
  8
0
 10
-46.669
 20
48.419
 11
-46.5546
 21
48.4153
  0
LINE
  8
0
 10
-46.5546
 20
48.4153
 11
-46.4406
 21
48.4041
  0
LINE
  8
0
 10
-46.4406
 20
48.4041
 11
-46.3276
 21
48.3854
  0
LINE
  8
0
 10
-46.3276
 20
48.3854
 11
-46.2161
 21
48.3594
  0
LINE
  8
0
 10
-46.2161
 20
48.3594
 11
-46.1065
 21
48.3262
  0
LINE
  8
0
 10
-46.1065
 20
48.3262
 11
-45.9993
 21
48.2858
  0
LINE
  8
0
 10
-45.9993
 20
48.2858
 11
-45.895
 21
48.2386
  0
LINE
  8
0
 10
-45.895
 20
48.2386
 11
-45.794
 21
48.1846
  0
LINE
  8
0
 10
-45.794
 20
48.1846
 11
-45.6968
 21
48.1241
  0
LINE
  8
0
 10
-45.6968
 20
48.1241
 11
-45.6037
 21
48.0574
  0
LINE
  8
0
 10
-45.6037
 20
48.0574
 11
-45.5152
 21
47.9848
  0
LINE
  8
0
 10
-45.5152
 20
47.9848
 11
-45.4316
 21
47.9065
  0
LINE
  8
0
 10
-45.4316
 20
47.9065
 11
-45.3533
 21
47.8229
  0
LINE
  8
0
 10
-45.3533
 20
47.8229
 11
-45.2807
 21
47.7344
  0
LINE
  8
0
 10
-45.2807
 20
47.7344
 11
-45.214
 21
47.6413
  0
LINE
  8
0
 10
-45.214
 20
47.6413
 11
-45.1535
 21
47.544
  0
LINE
  8
0
 10
-45.1535
 20
47.544
 11
-45.0995
 21
47.443
  0
LINE
  8
0
 10
-45.0995
 20
47.443
 11
-45.0522
 21
47.3387
  0
LINE
  8
0
 10
-45.0522
 20
47.3387
 11
-45.0119
 21
47.2316
  0
LINE
  8
0
 10
-45.0119
 20
47.2316
 11
-44.9787
 21
47.122
  0
LINE
  8
0
 10
-44.9787
 20
47.122
 11
-44.9527
 21
47.0105
  0
LINE
  8
0
 10
-44.9527
 20
47.0105
 11
-44.934
 21
46.8975
  0
LINE
  8
0
 10
-44.934
 20
46.8975
 11
-44.9228
 21
46.7835
  0
LINE
  8
0
 10
-44.9228
 20
46.7835
 11
-44.919
 21
46.669
  0
LINE
  8
0
 10
-44.919
 20
46.669
 11
-44.9228
 21
46.5546
  0
LINE
  8
0
 10
-44.9228
 20
46.5546
 11
-44.934
 21
46.4406
  0
LINE
  8
0
 10
-44.934
 20
46.4406
 11
-44.9527
 21
46.3276
  0
LINE
  8
0
 10
-44.9527
 20
46.3276
 11
-44.9787
 21
46.2161
  0
LINE
  8
0
 10
-44.9787
 20
46.2161
 11
-45.0119
 21
46.1065
  0
LINE
  8
0
 10
-45.0119
 20
46.1065
 11
-45.0522
 21
45.9993
  0
LINE
  8
0
 10
-45.0522
 20
45.9993
 11
-45.0995
 21
45.895
  0
LINE
  8
0
 10
-45.0995
 20
45.895
 11
-45.1535
 21
45.794
  0
LINE
  8
0
 10
-45.1535
 20
45.794
 11
-45.214
 21
45.6968
  0
LINE
  8
0
 10
-45.214
 20
45.6968
 11
-45.2807
 21
45.6037
  0
LINE
  8
0
 10
-45.2807
 20
45.6037
 11
-45.3533
 21
45.5152
  0
LINE
  8
0
 10
-45.3533
 20
45.5152
 11
-45.4316
 21
45.4316
  0
LINE
  8
0
 10
-45.4316
 20
45.4316
 11
-45.5152
 21
45.3533
  0
LINE
  8
0
 10
-45.5152
 20
45.3533
 11
-45.6037
 21
45.2807
  0
LINE
  8
0
 10
-45.6037
 20
45.2807
 11
-45.6968
 21
45.214
  0
LINE
  8
0
 10
-45.6968
 20
45.214
 11
-45.794
 21
45.1535
  0
LINE
  8
0
 10
-45.794
 20
45.1535
 11
-45.895
 21
45.0995
  0
LINE
  8
0
 10
-45.895
 20
45.0995
 11
-45.9993
 21
45.0522
  0
LINE
  8
0
 10
-45.9993
 20
45.0522
 11
-46.1065
 21
45.0119
  0
LINE
  8
0
 10
-46.1065
 20
45.0119
 11
-46.2161
 21
44.9787
  0
LINE
  8
0
 10
-46.2161
 20
44.9787
 11
-46.3276
 21
44.9527
  0
LINE
  8
0
 10
-46.3276
 20
44.9527
 11
-46.4406
 21
44.934
  0
LINE
  8
0
 10
-46.4406
 20
44.934
 11
-46.5546
 21
44.9228
  0
LINE
  8
0
 10
-46.5546
 20
44.9228
 11
-46.669
 21
44.919
  0
LINE
  8
0
 10
-46.669
 20
44.919
 11
-46.7835
 21
44.9228
  0
LINE
  8
0
 10
-0.114441
 20
28.2537
 11
-0.228409
 21
28.265
  0
LINE
  8
0
 10
-0.228409
 20
28.265
 11
-0.3414
 21
28.2836
  0
LINE
  8
0
 10
-0.3414
 20
28.2836
 11
-0.452927
 21
28.3096
  0
LINE
  8
0
 10
-0.452927
 20
28.3096
 11
-0.562515
 21
28.3429
  0
LINE
  8
0
 10
-0.562515
 20
28.3429
 11
-0.669693
 21
28.3832
  0
LINE
  8
0
 10
-0.669693
 20
28.3832
 11
-0.774002
 21
28.4305
  0
LINE
  8
0
 10
-0.774002
 20
28.4305
 11
-0.875
 21
28.4845
  0
LINE
  8
0
 10
-0.875
 20
28.4845
 11
-0.972244
 21
28.5449
  0
LINE
  8
0
 10
-0.972244
 20
28.5449
 11
-1.06532
 21
28.6116
  0
LINE
  8
0
 10
-1.06532
 20
28.6116
 11
-1.15385
 21
28.6843
  0
LINE
  8
0
 10
-1.15385
 20
28.6843
 11
-1.23743
 21
28.7626
  0
LINE
  8
0
 10
-1.23743
 20
28.7626
 11
-1.31572
 21
28.8461
  0
LINE
  8
0
 10
-1.31572
 20
28.8461
 11
-1.38837
 21
28.9347
  0
LINE
  8
0
 10
-1.38837
 20
28.9347
 11
-1.45506
 21
29.0277
  0
LINE
  8
0
 10
-1.45506
 20
29.0277
 11
-1.51553
 21
29.125
  0
LINE
  8
0
 10
-1.51553
 20
29.125
 11
-1.56952
 21
29.226
  0
LINE
  8
0
 10
-1.56952
 20
29.226
 11
-1.61678
 21
29.3303
  0
LINE
  8
0
 10
-1.61678
 20
29.3303
 11
-1.65712
 21
29.4375
  0
LINE
  8
0
 10
-1.65712
 20
29.4375
 11
-1.69037
 21
29.5471
  0
LINE
  8
0
 10
-1.69037
 20
29.5471
 11
-1.71637
 21
29.6586
  0
LINE
  8
0
 10
-1.71637
 20
29.6586
 11
-1.73502
 21
29.7716
  0
LINE
  8
0
 10
-1.73502
 20
29.7716
 11
-1.74625
 21
29.8855
  0
LINE
  8
0
 10
-1.74625
 20
29.8855
 11
-1.75
 21
30
  0
LINE
  8
0
 10
-1.75
 20
30
 11
-1.74625
 21
30.1144
  0
LINE
  8
0
 10
-1.74625
 20
30.1144
 11
-1.73502
 21
30.2284
  0
LINE
  8
0
 10
-1.73502
 20
30.2284
 11
-1.71637
 21
30.3414
  0
LINE
  8
0
 10
-1.71637
 20
30.3414
 11
-1.69037
 21
30.4529
  0
LINE
  8
0
 10
-1.69037
 20
30.4529
 11
-1.65712
 21
30.5625
  0
LINE
  8
0
 10
-1.65712
 20
30.5625
 11
-1.61678
 21
30.6697
  0
LINE
  8
0
 10
-1.61678
 20
30.6697
 11
-1.56952
 21
30.774
  0
LINE
  8
0
 10
-1.56952
 20
30.774
 11
-1.51553
 21
30.875
  0
LINE
  8
0
 10
-1.51553
 20
30.875
 11
-1.45506
 21
30.9722
  0
LINE
  8
0
 10
-1.45506
 20
30.9722
 11
-1.38837
 21
31.0653
  0
LINE
  8
0
 10
-1.38837
 20
31.0653
 11
-1.31572
 21
31.1539
  0
LINE
  8
0
 10
-1.31572
 20
31.1539
 11
-1.23743
 21
31.2374
  0
LINE
  8
0
 10
-1.23743
 20
31.2374
 11
-1.15385
 21
31.3157
  0
LINE
  8
0
 10
-1.15385
 20
31.3157
 11
-1.06532
 21
31.3884
  0
LINE
  8
0
 10
-1.06532
 20
31.3884
 11
-0.972244
 21
31.4551
  0
LINE
  8
0
 10
-0.972244
 20
31.4551
 11
-0.875
 21
31.5155
  0
LINE
  8
0
 10
-0.875
 20
31.5155
 11
-0.774002
 21
31.5695
  0
LINE
  8
0
 10
-0.774002
 20
31.5695
 11
-0.669693
 21
31.6168
  0
LINE
  8
0
 10
-0.669693
 20
31.6168
 11
-0.562515
 21
31.6571
  0
LINE
  8
0
 10
-0.562515
 20
31.6571
 11
-0.452927
 21
31.6904
  0
LINE
  8
0
 10
-0.452927
 20
31.6904
 11
-0.3414
 21
31.7164
  0
LINE
  8
0
 10
-0.3414
 20
31.7164
 11
-0.228409
 21
31.735
  0
LINE
  8
0
 10
-0.228409
 20
31.735
 11
-0.114441
 21
31.7462
  0
LINE
  8
0
 10
-0.114441
 20
31.7462
 11
0
 21
31.75
  0
LINE
  8
0
 10
0
 20
31.75
 11
0.114441
 21
31.7462
  0
LINE
  8
0
 10
0.114441
 20
31.7462
 11
0.228409
 21
31.735
  0
LINE
  8
0
 10
0.228409
 20
31.735
 11
0.3414
 21
31.7164
  0
LINE
  8
0
 10
0.3414
 20
31.7164
 11
0.452927
 21
31.6904
  0
LINE
  8
0
 10
0.452927
 20
31.6904
 11
0.562515
 21
31.6571
  0
LINE
  8
0
 10
0.562515
 20
31.6571
 11
0.669693
 21
31.6168
  0
LINE
  8
0
 10
0.669693
 20
31.6168
 11
0.774002
 21
31.5695
  0
LINE
  8
0
 10
0.774002
 20
31.5695
 11
0.875
 21
31.5155
  0
LINE
  8
0
 10
0.875
 20
31.5155
 11
0.972244
 21
31.4551
  0
LINE
  8
0
 10
0.972244
 20
31.4551
 11
1.06532
 21
31.3884
  0
LINE
  8
0
 10
1.06532
 20
31.3884
 11
1.15385
 21
31.3157
  0
LINE
  8
0
 10
1.15385
 20
31.3157
 11
1.23743
 21
31.2374
  0
LINE
  8
0
 10
1.23743
 20
31.2374
 11
1.31572
 21
31.1539
  0
LINE
  8
0
 10
1.31572
 20
31.1539
 11
1.38837
 21
31.0653
  0
LINE
  8
0
 10
1.38837
 20
31.0653
 11
1.45506
 21
30.9722
  0
LINE
  8
0
 10
1.45506
 20
30.9722
 11
1.51553
 21
30.875
  0
LINE
  8
0
 10
1.51553
 20
30.875
 11
1.56952
 21
30.774
  0
LINE
  8
0
 10
1.56952
 20
30.774
 11
1.61678
 21
30.6697
  0
LINE
  8
0
 10
1.61678
 20
30.6697
 11
1.65712
 21
30.5625
  0
LINE
  8
0
 10
1.65712
 20
30.5625
 11
1.69037
 21
30.4529
  0
LINE
  8
0
 10
1.69037
 20
30.4529
 11
1.71637
 21
30.3414
  0
LINE
  8
0
 10
1.71637
 20
30.3414
 11
1.73502
 21
30.2284
  0
LINE
  8
0
 10
1.73502
 20
30.2284
 11
1.74625
 21
30.1144
  0
LINE
  8
0
 10
1.74625
 20
30.1144
 11
1.75
 21
30
  0
LINE
  8
0
 10
1.75
 20
30
 11
1.74625
 21
29.8855
  0
LINE
  8
0
 10
1.74625
 20
29.8855
 11
1.73502
 21
29.7716
  0
LINE
  8
0
 10
1.73502
 20
29.7716
 11
1.71637
 21
29.6586
  0
LINE
  8
0
 10
1.71637
 20
29.6586
 11
1.69037
 21
29.5471
  0
LINE
  8
0
 10
1.69037
 20
29.5471
 11
1.65712
 21
29.4375
  0
LINE
  8
0
 10
1.65712
 20
29.4375
 11
1.61678
 21
29.3303
  0
LINE
  8
0
 10
1.61678
 20
29.3303
 11
1.56952
 21
29.226
  0
LINE
  8
0
 10
1.56952
 20
29.226
 11
1.51553
 21
29.125
  0
LINE
  8
0
 10
1.51553
 20
29.125
 11
1.45506
 21
29.0277
  0
LINE
  8
0
 10
1.45506
 20
29.0277
 11
1.38837
 21
28.9347
  0
LINE
  8
0
 10
1.38837
 20
28.9347
 11
1.31572
 21
28.8461
  0
LINE
  8
0
 10
1.31572
 20
28.8461
 11
1.23743
 21
28.7626
  0
LINE
  8
0
 10
1.23743
 20
28.7626
 11
1.15385
 21
28.6843
  0
LINE
  8
0
 10
1.15385
 20
28.6843
 11
1.06532
 21
28.6116
  0
LINE
  8
0
 10
1.06532
 20
28.6116
 11
0.972244
 21
28.5449
  0
LINE
  8
0
 10
0.972244
 20
28.5449
 11
0.875
 21
28.4845
  0
LINE
  8
0
 10
0.875
 20
28.4845
 11
0.774002
 21
28.4305
  0
LINE
  8
0
 10
0.774002
 20
28.4305
 11
0.669693
 21
28.3832
  0
LINE
  8
0
 10
0.669693
 20
28.3832
 11
0.562515
 21
28.3429
  0
LINE
  8
0
 10
0.562515
 20
28.3429
 11
0.452927
 21
28.3096
  0
LINE
  8
0
 10
0.452927
 20
28.3096
 11
0.3414
 21
28.2836
  0
LINE
  8
0
 10
0.3414
 20
28.2836
 11
0.228409
 21
28.265
  0
LINE
  8
0
 10
0.228409
 20
28.265
 11
0.114441
 21
28.2537
  0
LINE
  8
0
 10
0.114441
 20
28.2537
 11
0
 21
28.25
  0
LINE
  8
0
 10
0
 20
28.25
 11
-0.114441
 21
28.2537
  0
LINE
  8
0
 10
12.5873
 20
10.5825
 11
12.4473
 21
10.5963
  0
LINE
  8
0
 10
12.4473
 20
10.5963
 11
12.3085
 21
10.6192
  0
LINE
  8
0
 10
12.3085
 20
10.6192
 11
12.1714
 21
10.6512
  0
LINE
  8
0
 10
12.1714
 20
10.6512
 11
12.0368
 21
10.692
  0
LINE
  8
0
 10
12.0368
 20
10.692
 11
11.9052
 21
10.7416
  0
LINE
  8
0
 10
11.9052
 20
10.7416
 11
11.777
 21
10.7996
  0
LINE
  8
0
 10
11.777
 20
10.7996
 11
11.6529
 21
10.866
  0
LINE
  8
0
 10
11.6529
 20
10.866
 11
11.5334
 21
10.9403
  0
LINE
  8
0
 10
11.5334
 20
10.9403
 11
11.4191
 21
11.0222
  0
LINE
  8
0
 10
11.4191
 20
11.0222
 11
11.3103
 21
11.1115
  0
LINE
  8
0
 10
11.3103
 20
11.1115
 11
11.2076
 21
11.2076
  0
LINE
  8
0
 10
11.2076
 20
11.2076
 11
11.1115
 21
11.3103
  0
LINE
  8
0
 10
11.1115
 20
11.3103
 11
11.0222
 21
11.4191
  0
LINE
  8
0
 10
11.0222
 20
11.4191
 11
10.9403
 21
11.5334
  0
LINE
  8
0
 10
10.9403
 20
11.5334
 11
10.866
 21
11.6529
  0
LINE
  8
0
 10
10.866
 20
11.6529
 11
10.7996
 21
11.777
  0
LINE
  8
0
 10
10.7996
 20
11.777
 11
10.7416
 21
11.9052
  0
LINE
  8
0
 10
10.7416
 20
11.9052
 11
10.692
 21
12.0368
  0
LINE
  8
0
 10
10.692
 20
12.0368
 11
10.6512
 21
12.1714
  0
LINE
  8
0
 10
10.6512
 20
12.1714
 11
10.6192
 21
12.3085
  0
LINE
  8
0
 10
10.6192
 20
12.3085
 11
10.5963
 21
12.4473
  0
LINE
  8
0
 10
10.5963
 20
12.4473
 11
10.5825
 21
12.5873
  0
LINE
  8
0
 10
10.5825
 20
12.5873
 11
10.5779
 21
12.7279
  0
LINE
  8
0
 10
10.5779
 20
12.7279
 11
10.5825
 21
12.8685
  0
LINE
  8
0
 10
10.5825
 20
12.8685
 11
10.5963
 21
13.0085
  0
LINE
  8
0
 10
10.5963
 20
13.0085
 11
10.6192
 21
13.1474
  0
LINE
  8
0
 10
10.6192
 20
13.1474
 11
10.6512
 21
13.2844
  0
LINE
  8
0
 10
10.6512
 20
13.2844
 11
10.692
 21
13.419
  0
LINE
  8
0
 10
10.692
 20
13.419
 11
10.7416
 21
13.5507
  0
LINE
  8
0
 10
10.7416
 20
13.5507
 11
10.7996
 21
13.6788
  0
LINE
  8
0
 10
10.7996
 20
13.6788
 11
10.866
 21
13.8029
  0
LINE
  8
0
 10
10.866
 20
13.8029
 11
10.9403
 21
13.9224
  0
LINE
  8
0
 10
10.9403
 20
13.9224
 11
11.0222
 21
14.0368
  0
LINE
  8
0
 10
11.0222
 20
14.0368
 11
11.1115
 21
14.1455
  0
LINE
  8
0
 10
11.1115
 20
14.1455
 11
11.2076
 21
14.2482
  0
LINE
  8
0
 10
11.2076
 20
14.2482
 11
11.3103
 21
14.3444
  0
LINE
  8
0
 10
11.3103
 20
14.3444
 11
11.4191
 21
14.4336
  0
LINE
  8
0
 10
11.4191
 20
14.4336
 11
11.5334
 21
14.5156
  0
LINE
  8
0
 10
11.5334
 20
14.5156
 11
11.6529
 21
14.5899
  0
LINE
  8
0
 10
11.6529
 20
14.5899
 11
11.777
 21
14.6562
  0
LINE
  8
0
 10
11.777
 20
14.6562
 11
11.9052
 21
14.7142
  0
LINE
  8
0
 10
11.9052
 20
14.7142
 11
12.0368
 21
14.7638
  0
LINE
  8
0
 10
12.0368
 20
14.7638
 11
12.1714
 21
14.8047
  0
LINE
  8
0
 10
12.1714
 20
14.8047
 11
12.3085
 21
14.8366
  0
LINE
  8
0
 10
12.3085
 20
14.8366
 11
12.4473
 21
14.8595
  0
LINE
  8
0
 10
12.4473
 20
14.8595
 11
12.5873
 21
14.8733
  0
LINE
  8
0
 10
12.5873
 20
14.8733
 11
12.7279
 21
14.8779
  0
LINE
  8
0
 10
12.7279
 20
14.8779
 11
12.8685
 21
14.8733
  0
LINE
  8
0
 10
12.8685
 20
14.8733
 11
13.0085
 21
14.8595
  0
LINE
  8
0
 10
13.0085
 20
14.8595
 11
13.1474
 21
14.8366
  0
LINE
  8
0
 10
13.1474
 20
14.8366
 11
13.2844
 21
14.8047
  0
LINE
  8
0
 10
13.2844
 20
14.8047
 11
13.419
 21
14.7638
  0
LINE
  8
0
 10
13.419
 20
14.7638
 11
13.5507
 21
14.7142
  0
LINE
  8
0
 10
13.5507
 20
14.7142
 11
13.6788
 21
14.6562
  0
LINE
  8
0
 10
13.6788
 20
14.6562
 11
13.8029
 21
14.5899
  0
LINE
  8
0
 10
13.8029
 20
14.5899
 11
13.9224
 21
14.5156
  0
LINE
  8
0
 10
13.9224
 20
14.5156
 11
14.0368
 21
14.4336
  0
LINE
  8
0
 10
14.0368
 20
14.4336
 11
14.1455
 21
14.3444
  0
LINE
  8
0
 10
14.1455
 20
14.3444
 11
14.2482
 21
14.2482
  0
LINE
  8
0
 10
14.2482
 20
14.2482
 11
14.3444
 21
14.1455
  0
LINE
  8
0
 10
14.3444
 20
14.1455
 11
14.4336
 21
14.0368
  0
LINE
  8
0
 10
14.4336
 20
14.0368
 11
14.5156
 21
13.9224
  0
LINE
  8
0
 10
14.5156
 20
13.9224
 11
14.5899
 21
13.8029
  0
LINE
  8
0
 10
14.5899
 20
13.8029
 11
14.6562
 21
13.6788
  0
LINE
  8
0
 10
14.6562
 20
13.6788
 11
14.7142
 21
13.5507
  0
LINE
  8
0
 10
14.7142
 20
13.5507
 11
14.7638
 21
13.419
  0
LINE
  8
0
 10
14.7638
 20
13.419
 11
14.8047
 21
13.2844
  0
LINE
  8
0
 10
14.8047
 20
13.2844
 11
14.8366
 21
13.1474
  0
LINE
  8
0
 10
14.8366
 20
13.1474
 11
14.8595
 21
13.0085
  0
LINE
  8
0
 10
14.8595
 20
13.0085
 11
14.8733
 21
12.8685
  0
LINE
  8
0
 10
14.8733
 20
12.8685
 11
14.8779
 21
12.7279
  0
LINE
  8
0
 10
14.8779
 20
12.7279
 11
14.8733
 21
12.5873
  0
LINE
  8
0
 10
14.8733
 20
12.5873
 11
14.8595
 21
12.4473
  0
LINE
  8
0
 10
14.8595
 20
12.4473
 11
14.8366
 21
12.3085
  0
LINE
  8
0
 10
14.8366
 20
12.3085
 11
14.8047
 21
12.1714
  0
LINE
  8
0
 10
14.8047
 20
12.1714
 11
14.7638
 21
12.0368
  0
LINE
  8
0
 10
14.7638
 20
12.0368
 11
14.7142
 21
11.9052
  0
LINE
  8
0
 10
14.7142
 20
11.9052
 11
14.6562
 21
11.777
  0
LINE
  8
0
 10
14.6562
 20
11.777
 11
14.5899
 21
11.6529
  0
LINE
  8
0
 10
14.5899
 20
11.6529
 11
14.5156
 21
11.5334
  0
LINE
  8
0
 10
14.5156
 20
11.5334
 11
14.4336
 21
11.4191
  0
LINE
  8
0
 10
14.4336
 20
11.4191
 11
14.3444
 21
11.3103
  0
LINE
  8
0
 10
14.3444
 20
11.3103
 11
14.2482
 21
11.2076
  0
LINE
  8
0
 10
14.2482
 20
11.2076
 11
14.1455
 21
11.1115
  0
LINE
  8
0
 10
14.1455
 20
11.1115
 11
14.0368
 21
11.0222
  0
LINE
  8
0
 10
14.0368
 20
11.0222
 11
13.9224
 21
10.9403
  0
LINE
  8
0
 10
13.9224
 20
10.9403
 11
13.8029
 21
10.866
  0
LINE
  8
0
 10
13.8029
 20
10.866
 11
13.6788
 21
10.7996
  0
LINE
  8
0
 10
13.6788
 20
10.7996
 11
13.5507
 21
10.7416
  0
LINE
  8
0
 10
13.5507
 20
10.7416
 11
13.419
 21
10.692
  0
LINE
  8
0
 10
13.419
 20
10.692
 11
13.2844
 21
10.6512
  0
LINE
  8
0
 10
13.2844
 20
10.6512
 11
13.1474
 21
10.6192
  0
LINE
  8
0
 10
13.1474
 20
10.6192
 11
13.0085
 21
10.5963
  0
LINE
  8
0
 10
13.0085
 20
10.5963
 11
12.8685
 21
10.5825
  0
LINE
  8
0
 10
12.8685
 20
10.5825
 11
12.7279
 21
10.5779
  0
LINE
  8
0
 10
12.7279
 20
10.5779
 11
12.5873
 21
10.5825
  0
LINE
  8
0
 10
-12.8685
 20
10.5825
 11
-13.0085
 21
10.5963
  0
LINE
  8
0
 10
-13.0085
 20
10.5963
 11
-13.1474
 21
10.6192
  0
LINE
  8
0
 10
-13.1474
 20
10.6192
 11
-13.2844
 21
10.6512
  0
LINE
  8
0
 10
-13.2844
 20
10.6512
 11
-13.419
 21
10.692
  0
LINE
  8
0
 10
-13.419
 20
10.692
 11
-13.5507
 21
10.7416
  0
LINE
  8
0
 10
-13.5507
 20
10.7416
 11
-13.6788
 21
10.7996
  0
LINE
  8
0
 10
-13.6788
 20
10.7996
 11
-13.8029
 21
10.866
  0
LINE
  8
0
 10
-13.8029
 20
10.866
 11
-13.9224
 21
10.9403
  0
LINE
  8
0
 10
-13.9224
 20
10.9403
 11
-14.0368
 21
11.0222
  0
LINE
  8
0
 10
-14.0368
 20
11.0222
 11
-14.1455
 21
11.1115
  0
LINE
  8
0
 10
-14.1455
 20
11.1115
 11
-14.2482
 21
11.2076
  0
LINE
  8
0
 10
-14.2482
 20
11.2076
 11
-14.3444
 21
11.3103
  0
LINE
  8
0
 10
-14.3444
 20
11.3103
 11
-14.4336
 21
11.4191
  0
LINE
  8
0
 10
-14.4336
 20
11.4191
 11
-14.5156
 21
11.5334
  0
LINE
  8
0
 10
-14.5156
 20
11.5334
 11
-14.5899
 21
11.6529
  0
LINE
  8
0
 10
-14.5899
 20
11.6529
 11
-14.6562
 21
11.777
  0
LINE
  8
0
 10
-14.6562
 20
11.777
 11
-14.7142
 21
11.9052
  0
LINE
  8
0
 10
-14.7142
 20
11.9052
 11
-14.7638
 21
12.0368
  0
LINE
  8
0
 10
-14.7638
 20
12.0368
 11
-14.8047
 21
12.1714
  0
LINE
  8
0
 10
-14.8047
 20
12.1714
 11
-14.8366
 21
12.3085
  0
LINE
  8
0
 10
-14.8366
 20
12.3085
 11
-14.8595
 21
12.4473
  0
LINE
  8
0
 10
-14.8595
 20
12.4473
 11
-14.8733
 21
12.5873
  0
LINE
  8
0
 10
-14.8733
 20
12.5873
 11
-14.8779
 21
12.7279
  0
LINE
  8
0
 10
-14.8779
 20
12.7279
 11
-14.8733
 21
12.8685
  0
LINE
  8
0
 10
-14.8733
 20
12.8685
 11
-14.8595
 21
13.0085
  0
LINE
  8
0
 10
-14.8595
 20
13.0085
 11
-14.8366
 21
13.1474
  0
LINE
  8
0
 10
-14.8366
 20
13.1474
 11
-14.8047
 21
13.2844
  0
LINE
  8
0
 10
-14.8047
 20
13.2844
 11
-14.7638
 21
13.419
  0
LINE
  8
0
 10
-14.7638
 20
13.419
 11
-14.7142
 21
13.5507
  0
LINE
  8
0
 10
-14.7142
 20
13.5507
 11
-14.6562
 21
13.6788
  0
LINE
  8
0
 10
-14.6562
 20
13.6788
 11
-14.5899
 21
13.8029
  0
LINE
  8
0
 10
-14.5899
 20
13.8029
 11
-14.5156
 21
13.9224
  0
LINE
  8
0
 10
-14.5156
 20
13.9224
 11
-14.4336
 21
14.0368
  0
LINE
  8
0
 10
-14.4336
 20
14.0368
 11
-14.3444
 21
14.1455
  0
LINE
  8
0
 10
-14.3444
 20
14.1455
 11
-14.2482
 21
14.2482
  0
LINE
  8
0
 10
-14.2482
 20
14.2482
 11
-14.1455
 21
14.3444
  0
LINE
  8
0
 10
-14.1455
 20
14.3444
 11
-14.0368
 21
14.4336
  0
LINE
  8
0
 10
-14.0368
 20
14.4336
 11
-13.9224
 21
14.5156
  0
LINE
  8
0
 10
-13.9224
 20
14.5156
 11
-13.8029
 21
14.5899
  0
LINE
  8
0
 10
-13.8029
 20
14.5899
 11
-13.6788
 21
14.6562
  0
LINE
  8
0
 10
-13.6788
 20
14.6562
 11
-13.5507
 21
14.7142
  0
LINE
  8
0
 10
-13.5507
 20
14.7142
 11
-13.419
 21
14.7638
  0
LINE
  8
0
 10
-13.419
 20
14.7638
 11
-13.2844
 21
14.8047
  0
LINE
  8
0
 10
-13.2844
 20
14.8047
 11
-13.1474
 21
14.8366
  0
LINE
  8
0
 10
-13.1474
 20
14.8366
 11
-13.0085
 21
14.8595
  0
LINE
  8
0
 10
-13.0085
 20
14.8595
 11
-12.8685
 21
14.8733
  0
LINE
  8
0
 10
-12.8685
 20
14.8733
 11
-12.7279
 21
14.8779
  0
LINE
  8
0
 10
-12.7279
 20
14.8779
 11
-12.5873
 21
14.8733
  0
LINE
  8
0
 10
-12.5873
 20
14.8733
 11
-12.4473
 21
14.8595
  0
LINE
  8
0
 10
-12.4473
 20
14.8595
 11
-12.3085
 21
14.8366
  0
LINE
  8
0
 10
-12.3085
 20
14.8366
 11
-12.1714
 21
14.8047
  0
LINE
  8
0
 10
-12.1714
 20
14.8047
 11
-12.0368
 21
14.7638
  0
LINE
  8
0
 10
-12.0368
 20
14.7638
 11
-11.9052
 21
14.7142
  0
LINE
  8
0
 10
-11.9052
 20
14.7142
 11
-11.777
 21
14.6562
  0
LINE
  8
0
 10
-11.777
 20
14.6562
 11
-11.6529
 21
14.5899
  0
LINE
  8
0
 10
-11.6529
 20
14.5899
 11
-11.5334
 21
14.5156
  0
LINE
  8
0
 10
-11.5334
 20
14.5156
 11
-11.4191
 21
14.4336
  0
LINE
  8
0
 10
-11.4191
 20
14.4336
 11
-11.3103
 21
14.3444
  0
LINE
  8
0
 10
-11.3103
 20
14.3444
 11
-11.2076
 21
14.2482
  0
LINE
  8
0
 10
-11.2076
 20
14.2482
 11
-11.1115
 21
14.1455
  0
LINE
  8
0
 10
-11.1115
 20
14.1455
 11
-11.0222
 21
14.0368
  0
LINE
  8
0
 10
-11.0222
 20
14.0368
 11
-10.9403
 21
13.9224
  0
LINE
  8
0
 10
-10.9403
 20
13.9224
 11
-10.866
 21
13.8029
  0
LINE
  8
0
 10
-10.866
 20
13.8029
 11
-10.7996
 21
13.6788
  0
LINE
  8
0
 10
-10.7996
 20
13.6788
 11
-10.7416
 21
13.5507
  0
LINE
  8
0
 10
-10.7416
 20
13.5507
 11
-10.692
 21
13.419
  0
LINE
  8
0
 10
-10.692
 20
13.419
 11
-10.6512
 21
13.2844
  0
LINE
  8
0
 10
-10.6512
 20
13.2844
 11
-10.6192
 21
13.1474
  0
LINE
  8
0
 10
-10.6192
 20
13.1474
 11
-10.5963
 21
13.0085
  0
LINE
  8
0
 10
-10.5963
 20
13.0085
 11
-10.5825
 21
12.8685
  0
LINE
  8
0
 10
-10.5825
 20
12.8685
 11
-10.5779
 21
12.7279
  0
LINE
  8
0
 10
-10.5779
 20
12.7279
 11
-10.5825
 21
12.5873
  0
LINE
  8
0
 10
-10.5825
 20
12.5873
 11
-10.5963
 21
12.4473
  0
LINE
  8
0
 10
-10.5963
 20
12.4473
 11
-10.6192
 21
12.3085
  0
LINE
  8
0
 10
-10.6192
 20
12.3085
 11
-10.6512
 21
12.1714
  0
LINE
  8
0
 10
-10.6512
 20
12.1714
 11
-10.692
 21
12.0368
  0
LINE
  8
0
 10
-10.692
 20
12.0368
 11
-10.7416
 21
11.9052
  0
LINE
  8
0
 10
-10.7416
 20
11.9052
 11
-10.7996
 21
11.777
  0
LINE
  8
0
 10
-10.7996
 20
11.777
 11
-10.866
 21
11.6529
  0
LINE
  8
0
 10
-10.866
 20
11.6529
 11
-10.9403
 21
11.5334
  0
LINE
  8
0
 10
-10.9403
 20
11.5334
 11
-11.0222
 21
11.4191
  0
LINE
  8
0
 10
-11.0222
 20
11.4191
 11
-11.1115
 21
11.3103
  0
LINE
  8
0
 10
-11.1115
 20
11.3103
 11
-11.2076
 21
11.2076
  0
LINE
  8
0
 10
-11.2076
 20
11.2076
 11
-11.3103
 21
11.1115
  0
LINE
  8
0
 10
-11.3103
 20
11.1115
 11
-11.4191
 21
11.0222
  0
LINE
  8
0
 10
-11.4191
 20
11.0222
 11
-11.5334
 21
10.9403
  0
LINE
  8
0
 10
-11.5334
 20
10.9403
 11
-11.6529
 21
10.866
  0
LINE
  8
0
 10
-11.6529
 20
10.866
 11
-11.777
 21
10.7996
  0
LINE
  8
0
 10
-11.777
 20
10.7996
 11
-11.9052
 21
10.7416
  0
LINE
  8
0
 10
-11.9052
 20
10.7416
 11
-12.0368
 21
10.692
  0
LINE
  8
0
 10
-12.0368
 20
10.692
 11
-12.1714
 21
10.6512
  0
LINE
  8
0
 10
-12.1714
 20
10.6512
 11
-12.3085
 21
10.6192
  0
LINE
  8
0
 10
-12.3085
 20
10.6192
 11
-12.4473
 21
10.5963
  0
LINE
  8
0
 10
-12.4473
 20
10.5963
 11
-12.5873
 21
10.5825
  0
LINE
  8
0
 10
-12.5873
 20
10.5825
 11
-12.7279
 21
10.5779
  0
LINE
  8
0
 10
-12.7279
 20
10.5779
 11
-12.8685
 21
10.5825
  0
LINE
  8
0
 10
-0.850235
 20
-12.9722
 11
-1.69684
 21
-12.8888
  0
LINE
  8
0
 10
-1.69684
 20
-12.8888
 11
-2.53616
 21
-12.7502
  0
LINE
  8
0
 10
-2.53616
 20
-12.7502
 11
-3.36464
 21
-12.557
  0
LINE
  8
0
 10
-3.36464
 20
-12.557
 11
-4.17871
 21
-12.3101
  0
LINE
  8
0
 10
-4.17871
 20
-12.3101
 11
-4.97488
 21
-12.0104
  0
LINE
  8
0
 10
-4.97488
 20
-12.0104
 11
-5.74974
 21
-11.6593
  0
LINE
  8
0
 10
-5.74974
 20
-11.6593
 11
-6.5
 21
-11.2583
  0
LINE
  8
0
 10
-6.5
 20
-11.2583
 11
-7.22241
 21
-10.8091
  0
LINE
  8
0
 10
-7.22241
 20
-10.8091
 11
-7.91389
 21
-10.3136
  0
LINE
  8
0
 10
-7.91389
 20
-10.3136
 11
-8.57149
 21
-9.77391
  0
LINE
  8
0
 10
-8.57149
 20
-9.77391
 11
-9.19238
 21
-9.19238
  0
LINE
  8
0
 10
-9.19238
 20
-9.19238
 11
-9.77391
 21
-8.57149
  0
LINE
  8
0
 10
-9.77391
 20
-8.57149
 11
-10.3136
 21
-7.91389
  0
LINE
  8
0
 10
-10.3136
 20
-7.91389
 11
-10.8091
 21
-7.22241
  0
LINE
  8
0
 10
-10.8091
 20
-7.22241
 11
-11.2583
 21
-6.5
  0
LINE
  8
0
 10
-11.2583
 20
-6.5
 11
-11.6593
 21
-5.74974
  0
LINE
  8
0
 10
-11.6593
 20
-5.74974
 11
-12.0104
 21
-4.97488
  0
LINE
  8
0
 10
-12.0104
 20
-4.97488
 11
-12.3101
 21
-4.17871
  0
LINE
  8
0
 10
-12.3101
 20
-4.17871
 11
-12.557
 21
-3.36464
  0
LINE
  8
0
 10
-12.557
 20
-3.36464
 11
-12.7502
 21
-2.53616
  0
LINE
  8
0
 10
-12.7502
 20
-2.53616
 11
-12.8888
 21
-1.69684
  0
LINE
  8
0
 10
-12.8888
 20
-1.69684
 11
-12.9722
 21
-0.850235
  0
LINE
  8
0
 10
-12.9722
 20
-0.850235
 11
-13
 21
0
  0
LINE
  8
0
 10
-13
 20
0
 11
-12.9722
 21
0.850235
  0
LINE
  8
0
 10
-12.9722
 20
0.850235
 11
-12.8888
 21
1.69684
  0
LINE
  8
0
 10
-12.8888
 20
1.69684
 11
-12.7502
 21
2.53616
  0
LINE
  8
0
 10
-12.7502
 20
2.53616
 11
-12.557
 21
3.36464
  0
LINE
  8
0
 10
-12.557
 20
3.36464
 11
-12.3101
 21
4.17871
  0
LINE
  8
0
 10
-12.3101
 20
4.17871
 11
-12.0104
 21
4.97488
  0
LINE
  8
0
 10
-12.0104
 20
4.97488
 11
-11.6593
 21
5.74974
  0
LINE
  8
0
 10
-11.6593
 20
5.74974
 11
-11.2583
 21
6.5
  0
LINE
  8
0
 10
-11.2583
 20
6.5
 11
-10.8091
 21
7.22241
  0
LINE
  8
0
 10
-10.8091
 20
7.22241
 11
-10.3136
 21
7.91389
  0
LINE
  8
0
 10
-10.3136
 20
7.91389
 11
-9.77391
 21
8.57149
  0
LINE
  8
0
 10
-9.77391
 20
8.57149
 11
-9.19238
 21
9.19238
  0
LINE
  8
0
 10
-9.19238
 20
9.19238
 11
-8.57149
 21
9.77391
  0
LINE
  8
0
 10
-8.57149
 20
9.77391
 11
-7.91389
 21
10.3136
  0
LINE
  8
0
 10
-7.91389
 20
10.3136
 11
-7.22241
 21
10.8091
  0
LINE
  8
0
 10
-7.22241
 20
10.8091
 11
-6.5
 21
11.2583
  0
LINE
  8
0
 10
-6.5
 20
11.2583
 11
-5.74974
 21
11.6593
  0
LINE
  8
0
 10
-5.74974
 20
11.6593
 11
-4.97488
 21
12.0104
  0
LINE
  8
0
 10
-4.97488
 20
12.0104
 11
-4.17871
 21
12.3101
  0
LINE
  8
0
 10
-4.17871
 20
12.3101
 11
-3.36464
 21
12.557
  0
LINE
  8
0
 10
-3.36464
 20
12.557
 11
-2.53616
 21
12.7502
  0
LINE
  8
0
 10
-2.53616
 20
12.7502
 11
-1.69684
 21
12.8888
  0
LINE
  8
0
 10
-1.69684
 20
12.8888
 11
-0.850235
 21
12.9722
  0
LINE
  8
0
 10
-0.850235
 20
12.9722
 11
0
 21
13
  0
LINE
  8
0
 10
0
 20
13
 11
0.850235
 21
12.9722
  0
LINE
  8
0
 10
0.850235
 20
12.9722
 11
1.69684
 21
12.8888
  0
LINE
  8
0
 10
1.69684
 20
12.8888
 11
2.53616
 21
12.7502
  0
LINE
  8
0
 10
2.53616
 20
12.7502
 11
3.36464
 21
12.557
  0
LINE
  8
0
 10
3.36464
 20
12.557
 11
4.17871
 21
12.3101
  0
LINE
  8
0
 10
4.17871
 20
12.3101
 11
4.97488
 21
12.0104
  0
LINE
  8
0
 10
4.97488
 20
12.0104
 11
5.74974
 21
11.6593
  0
LINE
  8
0
 10
5.74974
 20
11.6593
 11
6.5
 21
11.2583
  0
LINE
  8
0
 10
6.5
 20
11.2583
 11
7.22241
 21
10.8091
  0
LINE
  8
0
 10
7.22241
 20
10.8091
 11
7.91389
 21
10.3136
  0
LINE
  8
0
 10
7.91389
 20
10.3136
 11
8.57149
 21
9.77391
  0
LINE
  8
0
 10
8.57149
 20
9.77391
 11
9.19238
 21
9.19238
  0
LINE
  8
0
 10
9.19238
 20
9.19238
 11
9.77391
 21
8.57149
  0
LINE
  8
0
 10
9.77391
 20
8.57149
 11
10.3136
 21
7.91389
  0
LINE
  8
0
 10
10.3136
 20
7.91389
 11
10.8091
 21
7.22241
  0
LINE
  8
0
 10
10.8091
 20
7.22241
 11
11.2583
 21
6.5
  0
LINE
  8
0
 10
11.2583
 20
6.5
 11
11.6593
 21
5.74974
  0
LINE
  8
0
 10
11.6593
 20
5.74974
 11
12.0104
 21
4.97488
  0
LINE
  8
0
 10
12.0104
 20
4.97488
 11
12.3101
 21
4.17871
  0
LINE
  8
0
 10
12.3101
 20
4.17871
 11
12.557
 21
3.36464
  0
LINE
  8
0
 10
12.557
 20
3.36464
 11
12.7502
 21
2.53616
  0
LINE
  8
0
 10
12.7502
 20
2.53616
 11
12.8888
 21
1.69684
  0
LINE
  8
0
 10
12.8888
 20
1.69684
 11
12.9722
 21
0.850235
  0
LINE
  8
0
 10
12.9722
 20
0.850235
 11
13
 21
0
  0
LINE
  8
0
 10
13
 20
0
 11
12.9722
 21
-0.850235
  0
LINE
  8
0
 10
12.9722
 20
-0.850235
 11
12.8888
 21
-1.69684
  0
LINE
  8
0
 10
12.8888
 20
-1.69684
 11
12.7502
 21
-2.53616
  0
LINE
  8
0
 10
12.7502
 20
-2.53616
 11
12.557
 21
-3.36464
  0
LINE
  8
0
 10
12.557
 20
-3.36464
 11
12.3101
 21
-4.17871
  0
LINE
  8
0
 10
12.3101
 20
-4.17871
 11
12.0104
 21
-4.97488
  0
LINE
  8
0
 10
12.0104
 20
-4.97488
 11
11.6593
 21
-5.74974
  0
LINE
  8
0
 10
11.6593
 20
-5.74974
 11
11.2583
 21
-6.5
  0
LINE
  8
0
 10
11.2583
 20
-6.5
 11
10.8091
 21
-7.22241
  0
LINE
  8
0
 10
10.8091
 20
-7.22241
 11
10.3136
 21
-7.91389
  0
LINE
  8
0
 10
10.3136
 20
-7.91389
 11
9.77391
 21
-8.57149
  0
LINE
  8
0
 10
9.77391
 20
-8.57149
 11
9.19238
 21
-9.19238
  0
LINE
  8
0
 10
9.19238
 20
-9.19238
 11
8.57149
 21
-9.77391
  0
LINE
  8
0
 10
8.57149
 20
-9.77391
 11
7.91389
 21
-10.3136
  0
LINE
  8
0
 10
7.91389
 20
-10.3136
 11
7.22241
 21
-10.8091
  0
LINE
  8
0
 10
7.22241
 20
-10.8091
 11
6.5
 21
-11.2583
  0
LINE
  8
0
 10
6.5
 20
-11.2583
 11
5.74974
 21
-11.6593
  0
LINE
  8
0
 10
5.74974
 20
-11.6593
 11
4.97488
 21
-12.0104
  0
LINE
  8
0
 10
4.97488
 20
-12.0104
 11
4.17871
 21
-12.3101
  0
LINE
  8
0
 10
4.17871
 20
-12.3101
 11
3.36464
 21
-12.557
  0
LINE
  8
0
 10
3.36464
 20
-12.557
 11
2.53616
 21
-12.7502
  0
LINE
  8
0
 10
2.53616
 20
-12.7502
 11
1.69684
 21
-12.8888
  0
LINE
  8
0
 10
1.69684
 20
-12.8888
 11
0.850235
 21
-12.9722
  0
LINE
  8
0
 10
0.850235
 20
-12.9722
 11
0
 21
-13
  0
LINE
  8
0
 10
0
 20
-13
 11
-0.850235
 21
-12.9722
  0
LINE
  8
0
 10
29.8855
 20
-1.74625
 11
29.7716
 21
-1.73502
  0
LINE
  8
0
 10
29.7716
 20
-1.73502
 11
29.6586
 21
-1.71637
  0
LINE
  8
0
 10
29.6586
 20
-1.71637
 11
29.5471
 21
-1.69037
  0
LINE
  8
0
 10
29.5471
 20
-1.69037
 11
29.4375
 21
-1.65712
  0
LINE
  8
0
 10
29.4375
 20
-1.65712
 11
29.3303
 21
-1.61678
  0
LINE
  8
0
 10
29.3303
 20
-1.61678
 11
29.226
 21
-1.56952
  0
LINE
  8
0
 10
29.226
 20
-1.56952
 11
29.125
 21
-1.51553
  0
LINE
  8
0
 10
29.125
 20
-1.51553
 11
29.0277
 21
-1.45506
  0
LINE
  8
0
 10
29.0277
 20
-1.45506
 11
28.9347
 21
-1.38837
  0
LINE
  8
0
 10
28.9347
 20
-1.38837
 11
28.8461
 21
-1.31572
  0
LINE
  8
0
 10
28.8461
 20
-1.31572
 11
28.7626
 21
-1.23743
  0
LINE
  8
0
 10
28.7626
 20
-1.23743
 11
28.6843
 21
-1.15385
  0
LINE
  8
0
 10
28.6843
 20
-1.15385
 11
28.6116
 21
-1.06532
  0
LINE
  8
0
 10
28.6116
 20
-1.06532
 11
28.5449
 21
-0.972244
  0
LINE
  8
0
 10
28.5449
 20
-0.972244
 11
28.4845
 21
-0.875
  0
LINE
  8
0
 10
28.4845
 20
-0.875
 11
28.4305
 21
-0.774002
  0
LINE
  8
0
 10
28.4305
 20
-0.774002
 11
28.3832
 21
-0.669693
  0
LINE
  8
0
 10
28.3832
 20
-0.669693
 11
28.3429
 21
-0.562515
  0
LINE
  8
0
 10
28.3429
 20
-0.562515
 11
28.3096
 21
-0.452927
  0
LINE
  8
0
 10
28.3096
 20
-0.452927
 11
28.2836
 21
-0.3414
  0
LINE
  8
0
 10
28.2836
 20
-0.3414
 11
28.265
 21
-0.228409
  0
LINE
  8
0
 10
28.265
 20
-0.228409
 11
28.2537
 21
-0.114441
  0
LINE
  8
0
 10
28.2537
 20
-0.114441
 11
28.25
 21
0
  0
LINE
  8
0
 10
28.25
 20
0
 11
28.2537
 21
0.114441
  0
LINE
  8
0
 10
28.2537
 20
0.114441
 11
28.265
 21
0.228409
  0
LINE
  8
0
 10
28.265
 20
0.228409
 11
28.2836
 21
0.3414
  0
LINE
  8
0
 10
28.2836
 20
0.3414
 11
28.3096
 21
0.452927
  0
LINE
  8
0
 10
28.3096
 20
0.452927
 11
28.3429
 21
0.562515
  0
LINE
  8
0
 10
28.3429
 20
0.562515
 11
28.3832
 21
0.669693
  0
LINE
  8
0
 10
28.3832
 20
0.669693
 11
28.4305
 21
0.774002
  0
LINE
  8
0
 10
28.4305
 20
0.774002
 11
28.4845
 21
0.875
  0
LINE
  8
0
 10
28.4845
 20
0.875
 11
28.5449
 21
0.972244
  0
LINE
  8
0
 10
28.5449
 20
0.972244
 11
28.6116
 21
1.06532
  0
LINE
  8
0
 10
28.6116
 20
1.06532
 11
28.6843
 21
1.15385
  0
LINE
  8
0
 10
28.6843
 20
1.15385
 11
28.7626
 21
1.23743
  0
LINE
  8
0
 10
28.7626
 20
1.23743
 11
28.8461
 21
1.31572
  0
LINE
  8
0
 10
28.8461
 20
1.31572
 11
28.9347
 21
1.38837
  0
LINE
  8
0
 10
28.9347
 20
1.38837
 11
29.0277
 21
1.45506
  0
LINE
  8
0
 10
29.0277
 20
1.45506
 11
29.125
 21
1.51553
  0
LINE
  8
0
 10
29.125
 20
1.51553
 11
29.226
 21
1.56952
  0
LINE
  8
0
 10
29.226
 20
1.56952
 11
29.3303
 21
1.61678
  0
LINE
  8
0
 10
29.3303
 20
1.61678
 11
29.4375
 21
1.65712
  0
LINE
  8
0
 10
29.4375
 20
1.65712
 11
29.5471
 21
1.69037
  0
LINE
  8
0
 10
29.5471
 20
1.69037
 11
29.6586
 21
1.71637
  0
LINE
  8
0
 10
29.6586
 20
1.71637
 11
29.7716
 21
1.73502
  0
LINE
  8
0
 10
29.7716
 20
1.73502
 11
29.8855
 21
1.74625
  0
LINE
  8
0
 10
29.8855
 20
1.74625
 11
30
 21
1.75
  0
LINE
  8
0
 10
30
 20
1.75
 11
30.1144
 21
1.74625
  0
LINE
  8
0
 10
30.1144
 20
1.74625
 11
30.2284
 21
1.73502
  0
LINE
  8
0
 10
30.2284
 20
1.73502
 11
30.3414
 21
1.71637
  0
LINE
  8
0
 10
30.3414
 20
1.71637
 11
30.4529
 21
1.69037
  0
LINE
  8
0
 10
30.4529
 20
1.69037
 11
30.5625
 21
1.65712
  0
LINE
  8
0
 10
30.5625
 20
1.65712
 11
30.6697
 21
1.61678
  0
LINE
  8
0
 10
30.6697
 20
1.61678
 11
30.774
 21
1.56952
  0
LINE
  8
0
 10
30.774
 20
1.56952
 11
30.875
 21
1.51553
  0
LINE
  8
0
 10
30.875
 20
1.51553
 11
30.9722
 21
1.45506
  0
LINE
  8
0
 10
30.9722
 20
1.45506
 11
31.0653
 21
1.38837
  0
LINE
  8
0
 10
31.0653
 20
1.38837
 11
31.1539
 21
1.31572
  0
LINE
  8
0
 10
31.1539
 20
1.31572
 11
31.2374
 21
1.23743
  0
LINE
  8
0
 10
31.2374
 20
1.23743
 11
31.3157
 21
1.15385
  0
LINE
  8
0
 10
31.3157
 20
1.15385
 11
31.3884
 21
1.06532
  0
LINE
  8
0
 10
31.3884
 20
1.06532
 11
31.4551
 21
0.972244
  0
LINE
  8
0
 10
31.4551
 20
0.972244
 11
31.5155
 21
0.875
  0
LINE
  8
0
 10
31.5155
 20
0.875
 11
31.5695
 21
0.774002
  0
LINE
  8
0
 10
31.5695
 20
0.774002
 11
31.6168
 21
0.669693
  0
LINE
  8
0
 10
31.6168
 20
0.669693
 11
31.6571
 21
0.562515
  0
LINE
  8
0
 10
31.6571
 20
0.562515
 11
31.6904
 21
0.452927
  0
LINE
  8
0
 10
31.6904
 20
0.452927
 11
31.7164
 21
0.3414
  0
LINE
  8
0
 10
31.7164
 20
0.3414
 11
31.735
 21
0.228409
  0
LINE
  8
0
 10
31.735
 20
0.228409
 11
31.7462
 21
0.114441
  0
LINE
  8
0
 10
31.7462
 20
0.114441
 11
31.75
 21
0
  0
LINE
  8
0
 10
31.75
 20
0
 11
31.7462
 21
-0.114441
  0
LINE
  8
0
 10
31.7462
 20
-0.114441
 11
31.735
 21
-0.228409
  0
LINE
  8
0
 10
31.735
 20
-0.228409
 11
31.7164
 21
-0.3414
  0
LINE
  8
0
 10
31.7164
 20
-0.3414
 11
31.6904
 21
-0.452927
  0
LINE
  8
0
 10
31.6904
 20
-0.452927
 11
31.6571
 21
-0.562515
  0
LINE
  8
0
 10
31.6571
 20
-0.562515
 11
31.6168
 21
-0.669693
  0
LINE
  8
0
 10
31.6168
 20
-0.669693
 11
31.5695
 21
-0.774002
  0
LINE
  8
0
 10
31.5695
 20
-0.774002
 11
31.5155
 21
-0.875
  0
LINE
  8
0
 10
31.5155
 20
-0.875
 11
31.4551
 21
-0.972244
  0
LINE
  8
0
 10
31.4551
 20
-0.972244
 11
31.3884
 21
-1.06532
  0
LINE
  8
0
 10
31.3884
 20
-1.06532
 11
31.3157
 21
-1.15385
  0
LINE
  8
0
 10
31.3157
 20
-1.15385
 11
31.2374
 21
-1.23743
  0
LINE
  8
0
 10
31.2374
 20
-1.23743
 11
31.1539
 21
-1.31572
  0
LINE
  8
0
 10
31.1539
 20
-1.31572
 11
31.0653
 21
-1.38837
  0
LINE
  8
0
 10
31.0653
 20
-1.38837
 11
30.9722
 21
-1.45506
  0
LINE
  8
0
 10
30.9722
 20
-1.45506
 11
30.875
 21
-1.51553
  0
LINE
  8
0
 10
30.875
 20
-1.51553
 11
30.774
 21
-1.56952
  0
LINE
  8
0
 10
30.774
 20
-1.56952
 11
30.6697
 21
-1.61678
  0
LINE
  8
0
 10
30.6697
 20
-1.61678
 11
30.5625
 21
-1.65712
  0
LINE
  8
0
 10
30.5625
 20
-1.65712
 11
30.4529
 21
-1.69037
  0
LINE
  8
0
 10
30.4529
 20
-1.69037
 11
30.3414
 21
-1.71637
  0
LINE
  8
0
 10
30.3414
 20
-1.71637
 11
30.2284
 21
-1.73502
  0
LINE
  8
0
 10
30.2284
 20
-1.73502
 11
30.1144
 21
-1.74625
  0
LINE
  8
0
 10
30.1144
 20
-1.74625
 11
30
 21
-1.75
  0
LINE
  8
0
 10
30
 20
-1.75
 11
29.8855
 21
-1.74625
  0
LINE
  8
0
 10
-30.1144
 20
-1.74625
 11
-30.2284
 21
-1.73502
  0
LINE
  8
0
 10
-30.2284
 20
-1.73502
 11
-30.3414
 21
-1.71637
  0
LINE
  8
0
 10
-30.3414
 20
-1.71637
 11
-30.4529
 21
-1.69037
  0
LINE
  8
0
 10
-30.4529
 20
-1.69037
 11
-30.5625
 21
-1.65712
  0
LINE
  8
0
 10
-30.5625
 20
-1.65712
 11
-30.6697
 21
-1.61678
  0
LINE
  8
0
 10
-30.6697
 20
-1.61678
 11
-30.774
 21
-1.56952
  0
LINE
  8
0
 10
-30.774
 20
-1.56952
 11
-30.875
 21
-1.51553
  0
LINE
  8
0
 10
-30.875
 20
-1.51553
 11
-30.9722
 21
-1.45506
  0
LINE
  8
0
 10
-30.9722
 20
-1.45506
 11
-31.0653
 21
-1.38837
  0
LINE
  8
0
 10
-31.0653
 20
-1.38837
 11
-31.1539
 21
-1.31572
  0
LINE
  8
0
 10
-31.1539
 20
-1.31572
 11
-31.2374
 21
-1.23743
  0
LINE
  8
0
 10
-31.2374
 20
-1.23743
 11
-31.3157
 21
-1.15385
  0
LINE
  8
0
 10
-31.3157
 20
-1.15385
 11
-31.3884
 21
-1.06532
  0
LINE
  8
0
 10
-31.3884
 20
-1.06532
 11
-31.4551
 21
-0.972244
  0
LINE
  8
0
 10
-31.4551
 20
-0.972244
 11
-31.5155
 21
-0.875
  0
LINE
  8
0
 10
-31.5155
 20
-0.875
 11
-31.5695
 21
-0.774002
  0
LINE
  8
0
 10
-31.5695
 20
-0.774002
 11
-31.6168
 21
-0.669693
  0
LINE
  8
0
 10
-31.6168
 20
-0.669693
 11
-31.6571
 21
-0.562515
  0
LINE
  8
0
 10
-31.6571
 20
-0.562515
 11
-31.6904
 21
-0.452927
  0
LINE
  8
0
 10
-31.6904
 20
-0.452927
 11
-31.7164
 21
-0.3414
  0
LINE
  8
0
 10
-31.7164
 20
-0.3414
 11
-31.735
 21
-0.228409
  0
LINE
  8
0
 10
-31.735
 20
-0.228409
 11
-31.7462
 21
-0.114441
  0
LINE
  8
0
 10
-31.7462
 20
-0.114441
 11
-31.75
 21
0
  0
LINE
  8
0
 10
-31.75
 20
0
 11
-31.7462
 21
0.114441
  0
LINE
  8
0
 10
-31.7462
 20
0.114441
 11
-31.735
 21
0.228409
  0
LINE
  8
0
 10
-31.735
 20
0.228409
 11
-31.7164
 21
0.3414
  0
LINE
  8
0
 10
-31.7164
 20
0.3414
 11
-31.6904
 21
0.452927
  0
LINE
  8
0
 10
-31.6904
 20
0.452927
 11
-31.6571
 21
0.562515
  0
LINE
  8
0
 10
-31.6571
 20
0.562515
 11
-31.6168
 21
0.669693
  0
LINE
  8
0
 10
-31.6168
 20
0.669693
 11
-31.5695
 21
0.774002
  0
LINE
  8
0
 10
-31.5695
 20
0.774002
 11
-31.5155
 21
0.875
  0
LINE
  8
0
 10
-31.5155
 20
0.875
 11
-31.4551
 21
0.972244
  0
LINE
  8
0
 10
-31.4551
 20
0.972244
 11
-31.3884
 21
1.06532
  0
LINE
  8
0
 10
-31.3884
 20
1.06532
 11
-31.3157
 21
1.15385
  0
LINE
  8
0
 10
-31.3157
 20
1.15385
 11
-31.2374
 21
1.23743
  0
LINE
  8
0
 10
-31.2374
 20
1.23743
 11
-31.1539
 21
1.31572
  0
LINE
  8
0
 10
-31.1539
 20
1.31572
 11
-31.0653
 21
1.38837
  0
LINE
  8
0
 10
-31.0653
 20
1.38837
 11
-30.9722
 21
1.45506
  0
LINE
  8
0
 10
-30.9722
 20
1.45506
 11
-30.875
 21
1.51553
  0
LINE
  8
0
 10
-30.875
 20
1.51553
 11
-30.774
 21
1.56952
  0
LINE
  8
0
 10
-30.774
 20
1.56952
 11
-30.6697
 21
1.61678
  0
LINE
  8
0
 10
-30.6697
 20
1.61678
 11
-30.5625
 21
1.65712
  0
LINE
  8
0
 10
-30.5625
 20
1.65712
 11
-30.4529
 21
1.69037
  0
LINE
  8
0
 10
-30.4529
 20
1.69037
 11
-30.3414
 21
1.71637
  0
LINE
  8
0
 10
-30.3414
 20
1.71637
 11
-30.2284
 21
1.73502
  0
LINE
  8
0
 10
-30.2284
 20
1.73502
 11
-30.1144
 21
1.74625
  0
LINE
  8
0
 10
-30.1144
 20
1.74625
 11
-30
 21
1.75
  0
LINE
  8
0
 10
-30
 20
1.75
 11
-29.8855
 21
1.74625
  0
LINE
  8
0
 10
-29.8855
 20
1.74625
 11
-29.7716
 21
1.73502
  0
LINE
  8
0
 10
-29.7716
 20
1.73502
 11
-29.6586
 21
1.71637
  0
LINE
  8
0
 10
-29.6586
 20
1.71637
 11
-29.5471
 21
1.69037
  0
LINE
  8
0
 10
-29.5471
 20
1.69037
 11
-29.4375
 21
1.65712
  0
LINE
  8
0
 10
-29.4375
 20
1.65712
 11
-29.3303
 21
1.61678
  0
LINE
  8
0
 10
-29.3303
 20
1.61678
 11
-29.226
 21
1.56952
  0
LINE
  8
0
 10
-29.226
 20
1.56952
 11
-29.125
 21
1.51553
  0
LINE
  8
0
 10
-29.125
 20
1.51553
 11
-29.0277
 21
1.45506
  0
LINE
  8
0
 10
-29.0277
 20
1.45506
 11
-28.9347
 21
1.38837
  0
LINE
  8
0
 10
-28.9347
 20
1.38837
 11
-28.8461
 21
1.31572
  0
LINE
  8
0
 10
-28.8461
 20
1.31572
 11
-28.7626
 21
1.23743
  0
LINE
  8
0
 10
-28.7626
 20
1.23743
 11
-28.6843
 21
1.15385
  0
LINE
  8
0
 10
-28.6843
 20
1.15385
 11
-28.6116
 21
1.06532
  0
LINE
  8
0
 10
-28.6116
 20
1.06532
 11
-28.5449
 21
0.972244
  0
LINE
  8
0
 10
-28.5449
 20
0.972244
 11
-28.4845
 21
0.875
  0
LINE
  8
0
 10
-28.4845
 20
0.875
 11
-28.4305
 21
0.774002
  0
LINE
  8
0
 10
-28.4305
 20
0.774002
 11
-28.3832
 21
0.669693
  0
LINE
  8
0
 10
-28.3832
 20
0.669693
 11
-28.3429
 21
0.562515
  0
LINE
  8
0
 10
-28.3429
 20
0.562515
 11
-28.3096
 21
0.452927
  0
LINE
  8
0
 10
-28.3096
 20
0.452927
 11
-28.2836
 21
0.3414
  0
LINE
  8
0
 10
-28.2836
 20
0.3414
 11
-28.265
 21
0.228409
  0
LINE
  8
0
 10
-28.265
 20
0.228409
 11
-28.2537
 21
0.114441
  0
LINE
  8
0
 10
-28.2537
 20
0.114441
 11
-28.25
 21
0
  0
LINE
  8
0
 10
-28.25
 20
0
 11
-28.2537
 21
-0.114441
  0
LINE
  8
0
 10
-28.2537
 20
-0.114441
 11
-28.265
 21
-0.228409
  0
LINE
  8
0
 10
-28.265
 20
-0.228409
 11
-28.2836
 21
-0.3414
  0
LINE
  8
0
 10
-28.2836
 20
-0.3414
 11
-28.3096
 21
-0.452927
  0
LINE
  8
0
 10
-28.3096
 20
-0.452927
 11
-28.3429
 21
-0.562515
  0
LINE
  8
0
 10
-28.3429
 20
-0.562515
 11
-28.3832
 21
-0.669693
  0
LINE
  8
0
 10
-28.3832
 20
-0.669693
 11
-28.4305
 21
-0.774002
  0
LINE
  8
0
 10
-28.4305
 20
-0.774002
 11
-28.4845
 21
-0.875
  0
LINE
  8
0
 10
-28.4845
 20
-0.875
 11
-28.5449
 21
-0.972244
  0
LINE
  8
0
 10
-28.5449
 20
-0.972244
 11
-28.6116
 21
-1.06532
  0
LINE
  8
0
 10
-28.6116
 20
-1.06532
 11
-28.6843
 21
-1.15385
  0
LINE
  8
0
 10
-28.6843
 20
-1.15385
 11
-28.7626
 21
-1.23743
  0
LINE
  8
0
 10
-28.7626
 20
-1.23743
 11
-28.8461
 21
-1.31572
  0
LINE
  8
0
 10
-28.8461
 20
-1.31572
 11
-28.9347
 21
-1.38837
  0
LINE
  8
0
 10
-28.9347
 20
-1.38837
 11
-29.0277
 21
-1.45506
  0
LINE
  8
0
 10
-29.0277
 20
-1.45506
 11
-29.125
 21
-1.51553
  0
LINE
  8
0
 10
-29.125
 20
-1.51553
 11
-29.226
 21
-1.56952
  0
LINE
  8
0
 10
-29.226
 20
-1.56952
 11
-29.3303
 21
-1.61678
  0
LINE
  8
0
 10
-29.3303
 20
-1.61678
 11
-29.4375
 21
-1.65712
  0
LINE
  8
0
 10
-29.4375
 20
-1.65712
 11
-29.5471
 21
-1.69037
  0
LINE
  8
0
 10
-29.5471
 20
-1.69037
 11
-29.6586
 21
-1.71637
  0
LINE
  8
0
 10
-29.6586
 20
-1.71637
 11
-29.7716
 21
-1.73502
  0
LINE
  8
0
 10
-29.7716
 20
-1.73502
 11
-29.8855
 21
-1.74625
  0
LINE
  8
0
 10
-29.8855
 20
-1.74625
 11
-30
 21
-1.75
  0
LINE
  8
0
 10
-30
 20
-1.75
 11
-30.1144
 21
-1.74625
  0
LINE
  8
0
 10
-12.8685
 20
-14.8733
 11
-13.0085
 21
-14.8595
  0
LINE
  8
0
 10
-13.0085
 20
-14.8595
 11
-13.1474
 21
-14.8366
  0
LINE
  8
0
 10
-13.1474
 20
-14.8366
 11
-13.2844
 21
-14.8047
  0
LINE
  8
0
 10
-13.2844
 20
-14.8047
 11
-13.419
 21
-14.7638
  0
LINE
  8
0
 10
-13.419
 20
-14.7638
 11
-13.5507
 21
-14.7142
  0
LINE
  8
0
 10
-13.5507
 20
-14.7142
 11
-13.6788
 21
-14.6562
  0
LINE
  8
0
 10
-13.6788
 20
-14.6562
 11
-13.8029
 21
-14.5899
  0
LINE
  8
0
 10
-13.8029
 20
-14.5899
 11
-13.9224
 21
-14.5156
  0
LINE
  8
0
 10
-13.9224
 20
-14.5156
 11
-14.0368
 21
-14.4336
  0
LINE
  8
0
 10
-14.0368
 20
-14.4336
 11
-14.1455
 21
-14.3444
  0
LINE
  8
0
 10
-14.1455
 20
-14.3444
 11
-14.2482
 21
-14.2482
  0
LINE
  8
0
 10
-14.2482
 20
-14.2482
 11
-14.3444
 21
-14.1455
  0
LINE
  8
0
 10
-14.3444
 20
-14.1455
 11
-14.4336
 21
-14.0368
  0
LINE
  8
0
 10
-14.4336
 20
-14.0368
 11
-14.5156
 21
-13.9224
  0
LINE
  8
0
 10
-14.5156
 20
-13.9224
 11
-14.5899
 21
-13.8029
  0
LINE
  8
0
 10
-14.5899
 20
-13.8029
 11
-14.6562
 21
-13.6788
  0
LINE
  8
0
 10
-14.6562
 20
-13.6788
 11
-14.7142
 21
-13.5507
  0
LINE
  8
0
 10
-14.7142
 20
-13.5507
 11
-14.7638
 21
-13.419
  0
LINE
  8
0
 10
-14.7638
 20
-13.419
 11
-14.8047
 21
-13.2844
  0
LINE
  8
0
 10
-14.8047
 20
-13.2844
 11
-14.8366
 21
-13.1474
  0
LINE
  8
0
 10
-14.8366
 20
-13.1474
 11
-14.8595
 21
-13.0085
  0
LINE
  8
0
 10
-14.8595
 20
-13.0085
 11
-14.8733
 21
-12.8685
  0
LINE
  8
0
 10
-14.8733
 20
-12.8685
 11
-14.8779
 21
-12.7279
  0
LINE
  8
0
 10
-14.8779
 20
-12.7279
 11
-14.8733
 21
-12.5873
  0
LINE
  8
0
 10
-14.8733
 20
-12.5873
 11
-14.8595
 21
-12.4473
  0
LINE
  8
0
 10
-14.8595
 20
-12.4473
 11
-14.8366
 21
-12.3085
  0
LINE
  8
0
 10
-14.8366
 20
-12.3085
 11
-14.8047
 21
-12.1714
  0
LINE
  8
0
 10
-14.8047
 20
-12.1714
 11
-14.7638
 21
-12.0368
  0
LINE
  8
0
 10
-14.7638
 20
-12.0368
 11
-14.7142
 21
-11.9052
  0
LINE
  8
0
 10
-14.7142
 20
-11.9052
 11
-14.6562
 21
-11.777
  0
LINE
  8
0
 10
-14.6562
 20
-11.777
 11
-14.5899
 21
-11.6529
  0
LINE
  8
0
 10
-14.5899
 20
-11.6529
 11
-14.5156
 21
-11.5334
  0
LINE
  8
0
 10
-14.5156
 20
-11.5334
 11
-14.4336
 21
-11.4191
  0
LINE
  8
0
 10
-14.4336
 20
-11.4191
 11
-14.3444
 21
-11.3103
  0
LINE
  8
0
 10
-14.3444
 20
-11.3103
 11
-14.2482
 21
-11.2076
  0
LINE
  8
0
 10
-14.2482
 20
-11.2076
 11
-14.1455
 21
-11.1115
  0
LINE
  8
0
 10
-14.1455
 20
-11.1115
 11
-14.0368
 21
-11.0222
  0
LINE
  8
0
 10
-14.0368
 20
-11.0222
 11
-13.9224
 21
-10.9403
  0
LINE
  8
0
 10
-13.9224
 20
-10.9403
 11
-13.8029
 21
-10.866
  0
LINE
  8
0
 10
-13.8029
 20
-10.866
 11
-13.6788
 21
-10.7996
  0
LINE
  8
0
 10
-13.6788
 20
-10.7996
 11
-13.5507
 21
-10.7416
  0
LINE
  8
0
 10
-13.5507
 20
-10.7416
 11
-13.419
 21
-10.692
  0
LINE
  8
0
 10
-13.419
 20
-10.692
 11
-13.2844
 21
-10.6512
  0
LINE
  8
0
 10
-13.2844
 20
-10.6512
 11
-13.1474
 21
-10.6192
  0
LINE
  8
0
 10
-13.1474
 20
-10.6192
 11
-13.0085
 21
-10.5963
  0
LINE
  8
0
 10
-13.0085
 20
-10.5963
 11
-12.8685
 21
-10.5825
  0
LINE
  8
0
 10
-12.8685
 20
-10.5825
 11
-12.7279
 21
-10.5779
  0
LINE
  8
0
 10
-12.7279
 20
-10.5779
 11
-12.5873
 21
-10.5825
  0
LINE
  8
0
 10
-12.5873
 20
-10.5825
 11
-12.4473
 21
-10.5963
  0
LINE
  8
0
 10
-12.4473
 20
-10.5963
 11
-12.3085
 21
-10.6192
  0
LINE
  8
0
 10
-12.3085
 20
-10.6192
 11
-12.1714
 21
-10.6512
  0
LINE
  8
0
 10
-12.1714
 20
-10.6512
 11
-12.0368
 21
-10.692
  0
LINE
  8
0
 10
-12.0368
 20
-10.692
 11
-11.9052
 21
-10.7416
  0
LINE
  8
0
 10
-11.9052
 20
-10.7416
 11
-11.777
 21
-10.7996
  0
LINE
  8
0
 10
-11.777
 20
-10.7996
 11
-11.6529
 21
-10.866
  0
LINE
  8
0
 10
-11.6529
 20
-10.866
 11
-11.5334
 21
-10.9403
  0
LINE
  8
0
 10
-11.5334
 20
-10.9403
 11
-11.4191
 21
-11.0222
  0
LINE
  8
0
 10
-11.4191
 20
-11.0222
 11
-11.3103
 21
-11.1115
  0
LINE
  8
0
 10
-11.3103
 20
-11.1115
 11
-11.2076
 21
-11.2076
  0
LINE
  8
0
 10
-11.2076
 20
-11.2076
 11
-11.1115
 21
-11.3103
  0
LINE
  8
0
 10
-11.1115
 20
-11.3103
 11
-11.0222
 21
-11.4191
  0
LINE
  8
0
 10
-11.0222
 20
-11.4191
 11
-10.9403
 21
-11.5334
  0
LINE
  8
0
 10
-10.9403
 20
-11.5334
 11
-10.866
 21
-11.6529
  0
LINE
  8
0
 10
-10.866
 20
-11.6529
 11
-10.7996
 21
-11.777
  0
LINE
  8
0
 10
-10.7996
 20
-11.777
 11
-10.7416
 21
-11.9052
  0
LINE
  8
0
 10
-10.7416
 20
-11.9052
 11
-10.692
 21
-12.0368
  0
LINE
  8
0
 10
-10.692
 20
-12.0368
 11
-10.6512
 21
-12.1714
  0
LINE
  8
0
 10
-10.6512
 20
-12.1714
 11
-10.6192
 21
-12.3085
  0
LINE
  8
0
 10
-10.6192
 20
-12.3085
 11
-10.5963
 21
-12.4473
  0
LINE
  8
0
 10
-10.5963
 20
-12.4473
 11
-10.5825
 21
-12.5873
  0
LINE
  8
0
 10
-10.5825
 20
-12.5873
 11
-10.5779
 21
-12.7279
  0
LINE
  8
0
 10
-10.5779
 20
-12.7279
 11
-10.5825
 21
-12.8685
  0
LINE
  8
0
 10
-10.5825
 20
-12.8685
 11
-10.5963
 21
-13.0085
  0
LINE
  8
0
 10
-10.5963
 20
-13.0085
 11
-10.6192
 21
-13.1474
  0
LINE
  8
0
 10
-10.6192
 20
-13.1474
 11
-10.6512
 21
-13.2844
  0
LINE
  8
0
 10
-10.6512
 20
-13.2844
 11
-10.692
 21
-13.419
  0
LINE
  8
0
 10
-10.692
 20
-13.419
 11
-10.7416
 21
-13.5507
  0
LINE
  8
0
 10
-10.7416
 20
-13.5507
 11
-10.7996
 21
-13.6788
  0
LINE
  8
0
 10
-10.7996
 20
-13.6788
 11
-10.866
 21
-13.8029
  0
LINE
  8
0
 10
-10.866
 20
-13.8029
 11
-10.9403
 21
-13.9224
  0
LINE
  8
0
 10
-10.9403
 20
-13.9224
 11
-11.0222
 21
-14.0368
  0
LINE
  8
0
 10
-11.0222
 20
-14.0368
 11
-11.1115
 21
-14.1455
  0
LINE
  8
0
 10
-11.1115
 20
-14.1455
 11
-11.2076
 21
-14.2482
  0
LINE
  8
0
 10
-11.2076
 20
-14.2482
 11
-11.3103
 21
-14.3444
  0
LINE
  8
0
 10
-11.3103
 20
-14.3444
 11
-11.4191
 21
-14.4336
  0
LINE
  8
0
 10
-11.4191
 20
-14.4336
 11
-11.5334
 21
-14.5156
  0
LINE
  8
0
 10
-11.5334
 20
-14.5156
 11
-11.6529
 21
-14.5899
  0
LINE
  8
0
 10
-11.6529
 20
-14.5899
 11
-11.777
 21
-14.6562
  0
LINE
  8
0
 10
-11.777
 20
-14.6562
 11
-11.9052
 21
-14.7142
  0
LINE
  8
0
 10
-11.9052
 20
-14.7142
 11
-12.0368
 21
-14.7638
  0
LINE
  8
0
 10
-12.0368
 20
-14.7638
 11
-12.1714
 21
-14.8047
  0
LINE
  8
0
 10
-12.1714
 20
-14.8047
 11
-12.3085
 21
-14.8366
  0
LINE
  8
0
 10
-12.3085
 20
-14.8366
 11
-12.4473
 21
-14.8595
  0
LINE
  8
0
 10
-12.4473
 20
-14.8595
 11
-12.5873
 21
-14.8733
  0
LINE
  8
0
 10
-12.5873
 20
-14.8733
 11
-12.7279
 21
-14.8779
  0
LINE
  8
0
 10
-12.7279
 20
-14.8779
 11
-12.8685
 21
-14.8733
  0
LINE
  8
0
 10
12.5873
 20
-14.8733
 11
12.4473
 21
-14.8595
  0
LINE
  8
0
 10
12.4473
 20
-14.8595
 11
12.3085
 21
-14.8366
  0
LINE
  8
0
 10
12.3085
 20
-14.8366
 11
12.1714
 21
-14.8047
  0
LINE
  8
0
 10
12.1714
 20
-14.8047
 11
12.0368
 21
-14.7638
  0
LINE
  8
0
 10
12.0368
 20
-14.7638
 11
11.9052
 21
-14.7142
  0
LINE
  8
0
 10
11.9052
 20
-14.7142
 11
11.777
 21
-14.6562
  0
LINE
  8
0
 10
11.777
 20
-14.6562
 11
11.6529
 21
-14.5899
  0
LINE
  8
0
 10
11.6529
 20
-14.5899
 11
11.5334
 21
-14.5156
  0
LINE
  8
0
 10
11.5334
 20
-14.5156
 11
11.4191
 21
-14.4336
  0
LINE
  8
0
 10
11.4191
 20
-14.4336
 11
11.3103
 21
-14.3444
  0
LINE
  8
0
 10
11.3103
 20
-14.3444
 11
11.2076
 21
-14.2482
  0
LINE
  8
0
 10
11.2076
 20
-14.2482
 11
11.1115
 21
-14.1455
  0
LINE
  8
0
 10
11.1115
 20
-14.1455
 11
11.0222
 21
-14.0368
  0
LINE
  8
0
 10
11.0222
 20
-14.0368
 11
10.9403
 21
-13.9224
  0
LINE
  8
0
 10
10.9403
 20
-13.9224
 11
10.866
 21
-13.8029
  0
LINE
  8
0
 10
10.866
 20
-13.8029
 11
10.7996
 21
-13.6788
  0
LINE
  8
0
 10
10.7996
 20
-13.6788
 11
10.7416
 21
-13.5507
  0
LINE
  8
0
 10
10.7416
 20
-13.5507
 11
10.692
 21
-13.419
  0
LINE
  8
0
 10
10.692
 20
-13.419
 11
10.6512
 21
-13.2844
  0
LINE
  8
0
 10
10.6512
 20
-13.2844
 11
10.6192
 21
-13.1474
  0
LINE
  8
0
 10
10.6192
 20
-13.1474
 11
10.5963
 21
-13.0085
  0
LINE
  8
0
 10
10.5963
 20
-13.0085
 11
10.5825
 21
-12.8685
  0
LINE
  8
0
 10
10.5825
 20
-12.8685
 11
10.5779
 21
-12.7279
  0
LINE
  8
0
 10
10.5779
 20
-12.7279
 11
10.5825
 21
-12.5873
  0
LINE
  8
0
 10
10.5825
 20
-12.5873
 11
10.5963
 21
-12.4473
  0
LINE
  8
0
 10
10.5963
 20
-12.4473
 11
10.6192
 21
-12.3085
  0
LINE
  8
0
 10
10.6192
 20
-12.3085
 11
10.6512
 21
-12.1714
  0
LINE
  8
0
 10
10.6512
 20
-12.1714
 11
10.692
 21
-12.0368
  0
LINE
  8
0
 10
10.692
 20
-12.0368
 11
10.7416
 21
-11.9052
  0
LINE
  8
0
 10
10.7416
 20
-11.9052
 11
10.7996
 21
-11.777
  0
LINE
  8
0
 10
10.7996
 20
-11.777
 11
10.866
 21
-11.6529
  0
LINE
  8
0
 10
10.866
 20
-11.6529
 11
10.9403
 21
-11.5334
  0
LINE
  8
0
 10
10.9403
 20
-11.5334
 11
11.0222
 21
-11.4191
  0
LINE
  8
0
 10
11.0222
 20
-11.4191
 11
11.1115
 21
-11.3103
  0
LINE
  8
0
 10
11.1115
 20
-11.3103
 11
11.2076
 21
-11.2076
  0
LINE
  8
0
 10
11.2076
 20
-11.2076
 11
11.3103
 21
-11.1115
  0
LINE
  8
0
 10
11.3103
 20
-11.1115
 11
11.4191
 21
-11.0222
  0
LINE
  8
0
 10
11.4191
 20
-11.0222
 11
11.5334
 21
-10.9403
  0
LINE
  8
0
 10
11.5334
 20
-10.9403
 11
11.6529
 21
-10.866
  0
LINE
  8
0
 10
11.6529
 20
-10.866
 11
11.777
 21
-10.7996
  0
LINE
  8
0
 10
11.777
 20
-10.7996
 11
11.9052
 21
-10.7416
  0
LINE
  8
0
 10
11.9052
 20
-10.7416
 11
12.0368
 21
-10.692
  0
LINE
  8
0
 10
12.0368
 20
-10.692
 11
12.1714
 21
-10.6512
  0
LINE
  8
0
 10
12.1714
 20
-10.6512
 11
12.3085
 21
-10.6192
  0
LINE
  8
0
 10
12.3085
 20
-10.6192
 11
12.4473
 21
-10.5963
  0
LINE
  8
0
 10
12.4473
 20
-10.5963
 11
12.5873
 21
-10.5825
  0
LINE
  8
0
 10
12.5873
 20
-10.5825
 11
12.7279
 21
-10.5779
  0
LINE
  8
0
 10
12.7279
 20
-10.5779
 11
12.8685
 21
-10.5825
  0
LINE
  8
0
 10
12.8685
 20
-10.5825
 11
13.0085
 21
-10.5963
  0
LINE
  8
0
 10
13.0085
 20
-10.5963
 11
13.1474
 21
-10.6192
  0
LINE
  8
0
 10
13.1474
 20
-10.6192
 11
13.2844
 21
-10.6512
  0
LINE
  8
0
 10
13.2844
 20
-10.6512
 11
13.419
 21
-10.692
  0
LINE
  8
0
 10
13.419
 20
-10.692
 11
13.5507
 21
-10.7416
  0
LINE
  8
0
 10
13.5507
 20
-10.7416
 11
13.6788
 21
-10.7996
  0
LINE
  8
0
 10
13.6788
 20
-10.7996
 11
13.8029
 21
-10.866
  0
LINE
  8
0
 10
13.8029
 20
-10.866
 11
13.9224
 21
-10.9403
  0
LINE
  8
0
 10
13.9224
 20
-10.9403
 11
14.0368
 21
-11.0222
  0
LINE
  8
0
 10
14.0368
 20
-11.0222
 11
14.1455
 21
-11.1115
  0
LINE
  8
0
 10
14.1455
 20
-11.1115
 11
14.2482
 21
-11.2076
  0
LINE
  8
0
 10
14.2482
 20
-11.2076
 11
14.3444
 21
-11.3103
  0
LINE
  8
0
 10
14.3444
 20
-11.3103
 11
14.4336
 21
-11.4191
  0
LINE
  8
0
 10
14.4336
 20
-11.4191
 11
14.5156
 21
-11.5334
  0
LINE
  8
0
 10
14.5156
 20
-11.5334
 11
14.5899
 21
-11.6529
  0
LINE
  8
0
 10
14.5899
 20
-11.6529
 11
14.6562
 21
-11.777
  0
LINE
  8
0
 10
14.6562
 20
-11.777
 11
14.7142
 21
-11.9052
  0
LINE
  8
0
 10
14.7142
 20
-11.9052
 11
14.7638
 21
-12.0368
  0
LINE
  8
0
 10
14.7638
 20
-12.0368
 11
14.8047
 21
-12.1714
  0
LINE
  8
0
 10
14.8047
 20
-12.1714
 11
14.8366
 21
-12.3085
  0
LINE
  8
0
 10
14.8366
 20
-12.3085
 11
14.8595
 21
-12.4473
  0
LINE
  8
0
 10
14.8595
 20
-12.4473
 11
14.8733
 21
-12.5873
  0
LINE
  8
0
 10
14.8733
 20
-12.5873
 11
14.8779
 21
-12.7279
  0
LINE
  8
0
 10
14.8779
 20
-12.7279
 11
14.8733
 21
-12.8685
  0
LINE
  8
0
 10
14.8733
 20
-12.8685
 11
14.8595
 21
-13.0085
  0
LINE
  8
0
 10
14.8595
 20
-13.0085
 11
14.8366
 21
-13.1474
  0
LINE
  8
0
 10
14.8366
 20
-13.1474
 11
14.8047
 21
-13.2844
  0
LINE
  8
0
 10
14.8047
 20
-13.2844
 11
14.7638
 21
-13.419
  0
LINE
  8
0
 10
14.7638
 20
-13.419
 11
14.7142
 21
-13.5507
  0
LINE
  8
0
 10
14.7142
 20
-13.5507
 11
14.6562
 21
-13.6788
  0
LINE
  8
0
 10
14.6562
 20
-13.6788
 11
14.5899
 21
-13.8029
  0
LINE
  8
0
 10
14.5899
 20
-13.8029
 11
14.5156
 21
-13.9224
  0
LINE
  8
0
 10
14.5156
 20
-13.9224
 11
14.4336
 21
-14.0368
  0
LINE
  8
0
 10
14.4336
 20
-14.0368
 11
14.3444
 21
-14.1455
  0
LINE
  8
0
 10
14.3444
 20
-14.1455
 11
14.2482
 21
-14.2482
  0
LINE
  8
0
 10
14.2482
 20
-14.2482
 11
14.1455
 21
-14.3444
  0
LINE
  8
0
 10
14.1455
 20
-14.3444
 11
14.0368
 21
-14.4336
  0
LINE
  8
0
 10
14.0368
 20
-14.4336
 11
13.9224
 21
-14.5156
  0
LINE
  8
0
 10
13.9224
 20
-14.5156
 11
13.8029
 21
-14.5899
  0
LINE
  8
0
 10
13.8029
 20
-14.5899
 11
13.6788
 21
-14.6562
  0
LINE
  8
0
 10
13.6788
 20
-14.6562
 11
13.5507
 21
-14.7142
  0
LINE
  8
0
 10
13.5507
 20
-14.7142
 11
13.419
 21
-14.7638
  0
LINE
  8
0
 10
13.419
 20
-14.7638
 11
13.2844
 21
-14.8047
  0
LINE
  8
0
 10
13.2844
 20
-14.8047
 11
13.1474
 21
-14.8366
  0
LINE
  8
0
 10
13.1474
 20
-14.8366
 11
13.0085
 21
-14.8595
  0
LINE
  8
0
 10
13.0085
 20
-14.8595
 11
12.8685
 21
-14.8733
  0
LINE
  8
0
 10
12.8685
 20
-14.8733
 11
12.7279
 21
-14.8779
  0
LINE
  8
0
 10
12.7279
 20
-14.8779
 11
12.5873
 21
-14.8733
  0
LINE
  8
0
 10
-0.114441
 20
-31.7462
 11
-0.228409
 21
-31.735
  0
LINE
  8
0
 10
-0.228409
 20
-31.735
 11
-0.3414
 21
-31.7164
  0
LINE
  8
0
 10
-0.3414
 20
-31.7164
 11
-0.452927
 21
-31.6904
  0
LINE
  8
0
 10
-0.452927
 20
-31.6904
 11
-0.562515
 21
-31.6571
  0
LINE
  8
0
 10
-0.562515
 20
-31.6571
 11
-0.669693
 21
-31.6168
  0
LINE
  8
0
 10
-0.669693
 20
-31.6168
 11
-0.774002
 21
-31.5695
  0
LINE
  8
0
 10
-0.774002
 20
-31.5695
 11
-0.875
 21
-31.5155
  0
LINE
  8
0
 10
-0.875
 20
-31.5155
 11
-0.972244
 21
-31.4551
  0
LINE
  8
0
 10
-0.972244
 20
-31.4551
 11
-1.06532
 21
-31.3884
  0
LINE
  8
0
 10
-1.06532
 20
-31.3884
 11
-1.15385
 21
-31.3157
  0
LINE
  8
0
 10
-1.15385
 20
-31.3157
 11
-1.23743
 21
-31.2374
  0
LINE
  8
0
 10
-1.23743
 20
-31.2374
 11
-1.31572
 21
-31.1539
  0
LINE
  8
0
 10
-1.31572
 20
-31.1539
 11
-1.38837
 21
-31.0653
  0
LINE
  8
0
 10
-1.38837
 20
-31.0653
 11
-1.45506
 21
-30.9722
  0
LINE
  8
0
 10
-1.45506
 20
-30.9722
 11
-1.51553
 21
-30.875
  0
LINE
  8
0
 10
-1.51553
 20
-30.875
 11
-1.56952
 21
-30.774
  0
LINE
  8
0
 10
-1.56952
 20
-30.774
 11
-1.61678
 21
-30.6697
  0
LINE
  8
0
 10
-1.61678
 20
-30.6697
 11
-1.65712
 21
-30.5625
  0
LINE
  8
0
 10
-1.65712
 20
-30.5625
 11
-1.69037
 21
-30.4529
  0
LINE
  8
0
 10
-1.69037
 20
-30.4529
 11
-1.71637
 21
-30.3414
  0
LINE
  8
0
 10
-1.71637
 20
-30.3414
 11
-1.73502
 21
-30.2284
  0
LINE
  8
0
 10
-1.73502
 20
-30.2284
 11
-1.74625
 21
-30.1144
  0
LINE
  8
0
 10
-1.74625
 20
-30.1144
 11
-1.75
 21
-30
  0
LINE
  8
0
 10
-1.75
 20
-30
 11
-1.74625
 21
-29.8855
  0
LINE
  8
0
 10
-1.74625
 20
-29.8855
 11
-1.73502
 21
-29.7716
  0
LINE
  8
0
 10
-1.73502
 20
-29.7716
 11
-1.71637
 21
-29.6586
  0
LINE
  8
0
 10
-1.71637
 20
-29.6586
 11
-1.69037
 21
-29.5471
  0
LINE
  8
0
 10
-1.69037
 20
-29.5471
 11
-1.65712
 21
-29.4375
  0
LINE
  8
0
 10
-1.65712
 20
-29.4375
 11
-1.61678
 21
-29.3303
  0
LINE
  8
0
 10
-1.61678
 20
-29.3303
 11
-1.56952
 21
-29.226
  0
LINE
  8
0
 10
-1.56952
 20
-29.226
 11
-1.51553
 21
-29.125
  0
LINE
  8
0
 10
-1.51553
 20
-29.125
 11
-1.45506
 21
-29.0277
  0
LINE
  8
0
 10
-1.45506
 20
-29.0277
 11
-1.38837
 21
-28.9347
  0
LINE
  8
0
 10
-1.38837
 20
-28.9347
 11
-1.31572
 21
-28.8461
  0
LINE
  8
0
 10
-1.31572
 20
-28.8461
 11
-1.23743
 21
-28.7626
  0
LINE
  8
0
 10
-1.23743
 20
-28.7626
 11
-1.15385
 21
-28.6843
  0
LINE
  8
0
 10
-1.15385
 20
-28.6843
 11
-1.06532
 21
-28.6116
  0
LINE
  8
0
 10
-1.06532
 20
-28.6116
 11
-0.972244
 21
-28.5449
  0
LINE
  8
0
 10
-0.972244
 20
-28.5449
 11
-0.875
 21
-28.4845
  0
LINE
  8
0
 10
-0.875
 20
-28.4845
 11
-0.774002
 21
-28.4305
  0
LINE
  8
0
 10
-0.774002
 20
-28.4305
 11
-0.669693
 21
-28.3832
  0
LINE
  8
0
 10
-0.669693
 20
-28.3832
 11
-0.562515
 21
-28.3429
  0
LINE
  8
0
 10
-0.562515
 20
-28.3429
 11
-0.452927
 21
-28.3096
  0
LINE
  8
0
 10
-0.452927
 20
-28.3096
 11
-0.3414
 21
-28.2836
  0
LINE
  8
0
 10
-0.3414
 20
-28.2836
 11
-0.228409
 21
-28.265
  0
LINE
  8
0
 10
-0.228409
 20
-28.265
 11
-0.114441
 21
-28.2537
  0
LINE
  8
0
 10
-0.114441
 20
-28.2537
 11
0
 21
-28.25
  0
LINE
  8
0
 10
0
 20
-28.25
 11
0.114441
 21
-28.2537
  0
LINE
  8
0
 10
0.114441
 20
-28.2537
 11
0.228409
 21
-28.265
  0
LINE
  8
0
 10
0.228409
 20
-28.265
 11
0.3414
 21
-28.2836
  0
LINE
  8
0
 10
0.3414
 20
-28.2836
 11
0.452927
 21
-28.3096
  0
LINE
  8
0
 10
0.452927
 20
-28.3096
 11
0.562515
 21
-28.3429
  0
LINE
  8
0
 10
0.562515
 20
-28.3429
 11
0.669693
 21
-28.3832
  0
LINE
  8
0
 10
0.669693
 20
-28.3832
 11
0.774002
 21
-28.4305
  0
LINE
  8
0
 10
0.774002
 20
-28.4305
 11
0.875
 21
-28.4845
  0
LINE
  8
0
 10
0.875
 20
-28.4845
 11
0.972244
 21
-28.5449
  0
LINE
  8
0
 10
0.972244
 20
-28.5449
 11
1.06532
 21
-28.6116
  0
LINE
  8
0
 10
1.06532
 20
-28.6116
 11
1.15385
 21
-28.6843
  0
LINE
  8
0
 10
1.15385
 20
-28.6843
 11
1.23743
 21
-28.7626
  0
LINE
  8
0
 10
1.23743
 20
-28.7626
 11
1.31572
 21
-28.8461
  0
LINE
  8
0
 10
1.31572
 20
-28.8461
 11
1.38837
 21
-28.9347
  0
LINE
  8
0
 10
1.38837
 20
-28.9347
 11
1.45506
 21
-29.0277
  0
LINE
  8
0
 10
1.45506
 20
-29.0277
 11
1.51553
 21
-29.125
  0
LINE
  8
0
 10
1.51553
 20
-29.125
 11
1.56952
 21
-29.226
  0
LINE
  8
0
 10
1.56952
 20
-29.226
 11
1.61678
 21
-29.3303
  0
LINE
  8
0
 10
1.61678
 20
-29.3303
 11
1.65712
 21
-29.4375
  0
LINE
  8
0
 10
1.65712
 20
-29.4375
 11
1.69037
 21
-29.5471
  0
LINE
  8
0
 10
1.69037
 20
-29.5471
 11
1.71637
 21
-29.6586
  0
LINE
  8
0
 10
1.71637
 20
-29.6586
 11
1.73502
 21
-29.7716
  0
LINE
  8
0
 10
1.73502
 20
-29.7716
 11
1.74625
 21
-29.8855
  0
LINE
  8
0
 10
1.74625
 20
-29.8855
 11
1.75
 21
-30
  0
LINE
  8
0
 10
1.75
 20
-30
 11
1.74625
 21
-30.1144
  0
LINE
  8
0
 10
1.74625
 20
-30.1144
 11
1.73502
 21
-30.2284
  0
LINE
  8
0
 10
1.73502
 20
-30.2284
 11
1.71637
 21
-30.3414
  0
LINE
  8
0
 10
1.71637
 20
-30.3414
 11
1.69037
 21
-30.4529
  0
LINE
  8
0
 10
1.69037
 20
-30.4529
 11
1.65712
 21
-30.5625
  0
LINE
  8
0
 10
1.65712
 20
-30.5625
 11
1.61678
 21
-30.6697
  0
LINE
  8
0
 10
1.61678
 20
-30.6697
 11
1.56952
 21
-30.774
  0
LINE
  8
0
 10
1.56952
 20
-30.774
 11
1.51553
 21
-30.875
  0
LINE
  8
0
 10
1.51553
 20
-30.875
 11
1.45506
 21
-30.9722
  0
LINE
  8
0
 10
1.45506
 20
-30.9722
 11
1.38837
 21
-31.0653
  0
LINE
  8
0
 10
1.38837
 20
-31.0653
 11
1.31572
 21
-31.1539
  0
LINE
  8
0
 10
1.31572
 20
-31.1539
 11
1.23743
 21
-31.2374
  0
LINE
  8
0
 10
1.23743
 20
-31.2374
 11
1.15385
 21
-31.3157
  0
LINE
  8
0
 10
1.15385
 20
-31.3157
 11
1.06532
 21
-31.3884
  0
LINE
  8
0
 10
1.06532
 20
-31.3884
 11
0.972244
 21
-31.4551
  0
LINE
  8
0
 10
0.972244
 20
-31.4551
 11
0.875
 21
-31.5155
  0
LINE
  8
0
 10
0.875
 20
-31.5155
 11
0.774002
 21
-31.5695
  0
LINE
  8
0
 10
0.774002
 20
-31.5695
 11
0.669693
 21
-31.6168
  0
LINE
  8
0
 10
0.669693
 20
-31.6168
 11
0.562515
 21
-31.6571
  0
LINE
  8
0
 10
0.562515
 20
-31.6571
 11
0.452927
 21
-31.6904
  0
LINE
  8
0
 10
0.452927
 20
-31.6904
 11
0.3414
 21
-31.7164
  0
LINE
  8
0
 10
0.3414
 20
-31.7164
 11
0.228409
 21
-31.735
  0
LINE
  8
0
 10
0.228409
 20
-31.735
 11
0.114441
 21
-31.7462
  0
LINE
  8
0
 10
0.114441
 20
-31.7462
 11
0
 21
-31.75
  0
LINE
  8
0
 10
0
 20
-31.75
 11
-0.114441
 21
-31.7462
  0
LINE
  8
0
 10
-46.7835
 20
-48.4153
 11
-46.8975
 21
-48.4041
  0
LINE
  8
0
 10
-46.8975
 20
-48.4041
 11
-47.0105
 21
-48.3854
  0
LINE
  8
0
 10
-47.0105
 20
-48.3854
 11
-47.122
 21
-48.3594
  0
LINE
  8
0
 10
-47.122
 20
-48.3594
 11
-47.2316
 21
-48.3262
  0
LINE
  8
0
 10
-47.2316
 20
-48.3262
 11
-47.3387
 21
-48.2858
  0
LINE
  8
0
 10
-47.3387
 20
-48.2858
 11
-47.443
 21
-48.2386
  0
LINE
  8
0
 10
-47.443
 20
-48.2386
 11
-47.544
 21
-48.1846
  0
LINE
  8
0
 10
-47.544
 20
-48.1846
 11
-47.6413
 21
-48.1241
  0
LINE
  8
0
 10
-47.6413
 20
-48.1241
 11
-47.7344
 21
-48.0574
  0
LINE
  8
0
 10
-47.7344
 20
-48.0574
 11
-47.8229
 21
-47.9848
  0
LINE
  8
0
 10
-47.8229
 20
-47.9848
 11
-47.9065
 21
-47.9065
  0
LINE
  8
0
 10
-47.9065
 20
-47.9065
 11
-47.9848
 21
-47.8229
  0
LINE
  8
0
 10
-47.9848
 20
-47.8229
 11
-48.0574
 21
-47.7344
  0
LINE
  8
0
 10
-48.0574
 20
-47.7344
 11
-48.1241
 21
-47.6413
  0
LINE
  8
0
 10
-48.1241
 20
-47.6413
 11
-48.1846
 21
-47.544
  0
LINE
  8
0
 10
-48.1846
 20
-47.544
 11
-48.2386
 21
-47.443
  0
LINE
  8
0
 10
-48.2386
 20
-47.443
 11
-48.2858
 21
-47.3387
  0
LINE
  8
0
 10
-48.2858
 20
-47.3387
 11
-48.3262
 21
-47.2316
  0
LINE
  8
0
 10
-48.3262
 20
-47.2316
 11
-48.3594
 21
-47.122
  0
LINE
  8
0
 10
-48.3594
 20
-47.122
 11
-48.3854
 21
-47.0105
  0
LINE
  8
0
 10
-48.3854
 20
-47.0105
 11
-48.4041
 21
-46.8975
  0
LINE
  8
0
 10
-48.4041
 20
-46.8975
 11
-48.4153
 21
-46.7835
  0
LINE
  8
0
 10
-48.4153
 20
-46.7835
 11
-48.419
 21
-46.669
  0
LINE
  8
0
 10
-48.419
 20
-46.669
 11
-48.4153
 21
-46.5546
  0
LINE
  8
0
 10
-48.4153
 20
-46.5546
 11
-48.4041
 21
-46.4406
  0
LINE
  8
0
 10
-48.4041
 20
-46.4406
 11
-48.3854
 21
-46.3276
  0
LINE
  8
0
 10
-48.3854
 20
-46.3276
 11
-48.3594
 21
-46.2161
  0
LINE
  8
0
 10
-48.3594
 20
-46.2161
 11
-48.3262
 21
-46.1065
  0
LINE
  8
0
 10
-48.3262
 20
-46.1065
 11
-48.2858
 21
-45.9993
  0
LINE
  8
0
 10
-48.2858
 20
-45.9993
 11
-48.2386
 21
-45.895
  0
LINE
  8
0
 10
-48.2386
 20
-45.895
 11
-48.1846
 21
-45.794
  0
LINE
  8
0
 10
-48.1846
 20
-45.794
 11
-48.1241
 21
-45.6968
  0
LINE
  8
0
 10
-48.1241
 20
-45.6968
 11
-48.0574
 21
-45.6037
  0
LINE
  8
0
 10
-48.0574
 20
-45.6037
 11
-47.9848
 21
-45.5152
  0
LINE
  8
0
 10
-47.9848
 20
-45.5152
 11
-47.9065
 21
-45.4316
  0
LINE
  8
0
 10
-47.9065
 20
-45.4316
 11
-47.8229
 21
-45.3533
  0
LINE
  8
0
 10
-47.8229
 20
-45.3533
 11
-47.7344
 21
-45.2807
  0
LINE
  8
0
 10
-47.7344
 20
-45.2807
 11
-47.6413
 21
-45.214
  0
LINE
  8
0
 10
-47.6413
 20
-45.214
 11
-47.544
 21
-45.1535
  0
LINE
  8
0
 10
-47.544
 20
-45.1535
 11
-47.443
 21
-45.0995
  0
LINE
  8
0
 10
-47.443
 20
-45.0995
 11
-47.3387
 21
-45.0522
  0
LINE
  8
0
 10
-47.3387
 20
-45.0522
 11
-47.2316
 21
-45.0119
  0
LINE
  8
0
 10
-47.2316
 20
-45.0119
 11
-47.122
 21
-44.9787
  0
LINE
  8
0
 10
-47.122
 20
-44.9787
 11
-47.0105
 21
-44.9527
  0
LINE
  8
0
 10
-47.0105
 20
-44.9527
 11
-46.8975
 21
-44.934
  0
LINE
  8
0
 10
-46.8975
 20
-44.934
 11
-46.7835
 21
-44.9228
  0
LINE
  8
0
 10
-46.7835
 20
-44.9228
 11
-46.669
 21
-44.919
  0
LINE
  8
0
 10
-46.669
 20
-44.919
 11
-46.5546
 21
-44.9228
  0
LINE
  8
0
 10
-46.5546
 20
-44.9228
 11
-46.4406
 21
-44.934
  0
LINE
  8
0
 10
-46.4406
 20
-44.934
 11
-46.3276
 21
-44.9527
  0
LINE
  8
0
 10
-46.3276
 20
-44.9527
 11
-46.2161
 21
-44.9787
  0
LINE
  8
0
 10
-46.2161
 20
-44.9787
 11
-46.1065
 21
-45.0119
  0
LINE
  8
0
 10
-46.1065
 20
-45.0119
 11
-45.9993
 21
-45.0522
  0
LINE
  8
0
 10
-45.9993
 20
-45.0522
 11
-45.895
 21
-45.0995
  0
LINE
  8
0
 10
-45.895
 20
-45.0995
 11
-45.794
 21
-45.1535
  0
LINE
  8
0
 10
-45.794
 20
-45.1535
 11
-45.6968
 21
-45.214
  0
LINE
  8
0
 10
-45.6968
 20
-45.214
 11
-45.6037
 21
-45.2807
  0
LINE
  8
0
 10
-45.6037
 20
-45.2807
 11
-45.5152
 21
-45.3533
  0
LINE
  8
0
 10
-45.5152
 20
-45.3533
 11
-45.4316
 21
-45.4316
  0
LINE
  8
0
 10
-45.4316
 20
-45.4316
 11
-45.3533
 21
-45.5152
  0
LINE
  8
0
 10
-45.3533
 20
-45.5152
 11
-45.2807
 21
-45.6037
  0
LINE
  8
0
 10
-45.2807
 20
-45.6037
 11
-45.214
 21
-45.6968
  0
LINE
  8
0
 10
-45.214
 20
-45.6968
 11
-45.1535
 21
-45.794
  0
LINE
  8
0
 10
-45.1535
 20
-45.794
 11
-45.0995
 21
-45.895
  0
LINE
  8
0
 10
-45.0995
 20
-45.895
 11
-45.0522
 21
-45.9993
  0
LINE
  8
0
 10
-45.0522
 20
-45.9993
 11
-45.0119
 21
-46.1065
  0
LINE
  8
0
 10
-45.0119
 20
-46.1065
 11
-44.9787
 21
-46.2161
  0
LINE
  8
0
 10
-44.9787
 20
-46.2161
 11
-44.9527
 21
-46.3276
  0
LINE
  8
0
 10
-44.9527
 20
-46.3276
 11
-44.934
 21
-46.4406
  0
LINE
  8
0
 10
-44.934
 20
-46.4406
 11
-44.9228
 21
-46.5546
  0
LINE
  8
0
 10
-44.9228
 20
-46.5546
 11
-44.919
 21
-46.669
  0
LINE
  8
0
 10
-44.919
 20
-46.669
 11
-44.9228
 21
-46.7835
  0
LINE
  8
0
 10
-44.9228
 20
-46.7835
 11
-44.934
 21
-46.8975
  0
LINE
  8
0
 10
-44.934
 20
-46.8975
 11
-44.9527
 21
-47.0105
  0
LINE
  8
0
 10
-44.9527
 20
-47.0105
 11
-44.9787
 21
-47.122
  0
LINE
  8
0
 10
-44.9787
 20
-47.122
 11
-45.0119
 21
-47.2316
  0
LINE
  8
0
 10
-45.0119
 20
-47.2316
 11
-45.0522
 21
-47.3387
  0
LINE
  8
0
 10
-45.0522
 20
-47.3387
 11
-45.0995
 21
-47.443
  0
LINE
  8
0
 10
-45.0995
 20
-47.443
 11
-45.1535
 21
-47.544
  0
LINE
  8
0
 10
-45.1535
 20
-47.544
 11
-45.214
 21
-47.6413
  0
LINE
  8
0
 10
-45.214
 20
-47.6413
 11
-45.2807
 21
-47.7344
  0
LINE
  8
0
 10
-45.2807
 20
-47.7344
 11
-45.3533
 21
-47.8229
  0
LINE
  8
0
 10
-45.3533
 20
-47.8229
 11
-45.4316
 21
-47.9065
  0
LINE
  8
0
 10
-45.4316
 20
-47.9065
 11
-45.5152
 21
-47.9848
  0
LINE
  8
0
 10
-45.5152
 20
-47.9848
 11
-45.6037
 21
-48.0574
  0
LINE
  8
0
 10
-45.6037
 20
-48.0574
 11
-45.6968
 21
-48.1241
  0
LINE
  8
0
 10
-45.6968
 20
-48.1241
 11
-45.794
 21
-48.1846
  0
LINE
  8
0
 10
-45.794
 20
-48.1846
 11
-45.895
 21
-48.2386
  0
LINE
  8
0
 10
-45.895
 20
-48.2386
 11
-45.9993
 21
-48.2858
  0
LINE
  8
0
 10
-45.9993
 20
-48.2858
 11
-46.1065
 21
-48.3262
  0
LINE
  8
0
 10
-46.1065
 20
-48.3262
 11
-46.2161
 21
-48.3594
  0
LINE
  8
0
 10
-46.2161
 20
-48.3594
 11
-46.3276
 21
-48.3854
  0
LINE
  8
0
 10
-46.3276
 20
-48.3854
 11
-46.4406
 21
-48.4041
  0
LINE
  8
0
 10
-46.4406
 20
-48.4041
 11
-46.5546
 21
-48.4153
  0
LINE
  8
0
 10
-46.5546
 20
-48.4153
 11
-46.669
 21
-48.419
  0
LINE
  8
0
 10
-46.669
 20
-48.419
 11
-46.7835
 21
-48.4153
  0
LINE
  8
0
 10
46.5546
 20
-48.4153
 11
46.4406
 21
-48.4041
  0
LINE
  8
0
 10
46.4406
 20
-48.4041
 11
46.3276
 21
-48.3854
  0
LINE
  8
0
 10
46.3276
 20
-48.3854
 11
46.2161
 21
-48.3594
  0
LINE
  8
0
 10
46.2161
 20
-48.3594
 11
46.1065
 21
-48.3262
  0
LINE
  8
0
 10
46.1065
 20
-48.3262
 11
45.9993
 21
-48.2858
  0
LINE
  8
0
 10
45.9993
 20
-48.2858
 11
45.895
 21
-48.2386
  0
LINE
  8
0
 10
45.895
 20
-48.2386
 11
45.794
 21
-48.1846
  0
LINE
  8
0
 10
45.794
 20
-48.1846
 11
45.6968
 21
-48.1241
  0
LINE
  8
0
 10
45.6968
 20
-48.1241
 11
45.6037
 21
-48.0574
  0
LINE
  8
0
 10
45.6037
 20
-48.0574
 11
45.5152
 21
-47.9848
  0
LINE
  8
0
 10
45.5152
 20
-47.9848
 11
45.4316
 21
-47.9065
  0
LINE
  8
0
 10
45.4316
 20
-47.9065
 11
45.3533
 21
-47.8229
  0
LINE
  8
0
 10
45.3533
 20
-47.8229
 11
45.2807
 21
-47.7344
  0
LINE
  8
0
 10
45.2807
 20
-47.7344
 11
45.214
 21
-47.6413
  0
LINE
  8
0
 10
45.214
 20
-47.6413
 11
45.1535
 21
-47.544
  0
LINE
  8
0
 10
45.1535
 20
-47.544
 11
45.0995
 21
-47.443
  0
LINE
  8
0
 10
45.0995
 20
-47.443
 11
45.0522
 21
-47.3387
  0
LINE
  8
0
 10
45.0522
 20
-47.3387
 11
45.0119
 21
-47.2316
  0
LINE
  8
0
 10
45.0119
 20
-47.2316
 11
44.9787
 21
-47.122
  0
LINE
  8
0
 10
44.9787
 20
-47.122
 11
44.9527
 21
-47.0105
  0
LINE
  8
0
 10
44.9527
 20
-47.0105
 11
44.934
 21
-46.8975
  0
LINE
  8
0
 10
44.934
 20
-46.8975
 11
44.9228
 21
-46.7835
  0
LINE
  8
0
 10
44.9228
 20
-46.7835
 11
44.919
 21
-46.669
  0
LINE
  8
0
 10
44.919
 20
-46.669
 11
44.9228
 21
-46.5546
  0
LINE
  8
0
 10
44.9228
 20
-46.5546
 11
44.934
 21
-46.4406
  0
LINE
  8
0
 10
44.934
 20
-46.4406
 11
44.9527
 21
-46.3276
  0
LINE
  8
0
 10
44.9527
 20
-46.3276
 11
44.9787
 21
-46.2161
  0
LINE
  8
0
 10
44.9787
 20
-46.2161
 11
45.0119
 21
-46.1065
  0
LINE
  8
0
 10
45.0119
 20
-46.1065
 11
45.0522
 21
-45.9993
  0
LINE
  8
0
 10
45.0522
 20
-45.9993
 11
45.0995
 21
-45.895
  0
LINE
  8
0
 10
45.0995
 20
-45.895
 11
45.1535
 21
-45.794
  0
LINE
  8
0
 10
45.1535
 20
-45.794
 11
45.214
 21
-45.6968
  0
LINE
  8
0
 10
45.214
 20
-45.6968
 11
45.2807
 21
-45.6037
  0
LINE
  8
0
 10
45.2807
 20
-45.6037
 11
45.3533
 21
-45.5152
  0
LINE
  8
0
 10
45.3533
 20
-45.5152
 11
45.4316
 21
-45.4316
  0
LINE
  8
0
 10
45.4316
 20
-45.4316
 11
45.5152
 21
-45.3533
  0
LINE
  8
0
 10
45.5152
 20
-45.3533
 11
45.6037
 21
-45.2807
  0
LINE
  8
0
 10
45.6037
 20
-45.2807
 11
45.6968
 21
-45.214
  0
LINE
  8
0
 10
45.6968
 20
-45.214
 11
45.794
 21
-45.1535
  0
LINE
  8
0
 10
45.794
 20
-45.1535
 11
45.895
 21
-45.0995
  0
LINE
  8
0
 10
45.895
 20
-45.0995
 11
45.9993
 21
-45.0522
  0
LINE
  8
0
 10
45.9993
 20
-45.0522
 11
46.1065
 21
-45.0119
  0
LINE
  8
0
 10
46.1065
 20
-45.0119
 11
46.2161
 21
-44.9787
  0
LINE
  8
0
 10
46.2161
 20
-44.9787
 11
46.3276
 21
-44.9527
  0
LINE
  8
0
 10
46.3276
 20
-44.9527
 11
46.4406
 21
-44.934
  0
LINE
  8
0
 10
46.4406
 20
-44.934
 11
46.5546
 21
-44.9228
  0
LINE
  8
0
 10
46.5546
 20
-44.9228
 11
46.669
 21
-44.919
  0
LINE
  8
0
 10
46.669
 20
-44.919
 11
46.7835
 21
-44.9228
  0
LINE
  8
0
 10
46.7835
 20
-44.9228
 11
46.8975
 21
-44.934
  0
LINE
  8
0
 10
46.8975
 20
-44.934
 11
47.0105
 21
-44.9527
  0
LINE
  8
0
 10
47.0105
 20
-44.9527
 11
47.122
 21
-44.9787
  0
LINE
  8
0
 10
47.122
 20
-44.9787
 11
47.2316
 21
-45.0119
  0
LINE
  8
0
 10
47.2316
 20
-45.0119
 11
47.3387
 21
-45.0522
  0
LINE
  8
0
 10
47.3387
 20
-45.0522
 11
47.443
 21
-45.0995
  0
LINE
  8
0
 10
47.443
 20
-45.0995
 11
47.544
 21
-45.1535
  0
LINE
  8
0
 10
47.544
 20
-45.1535
 11
47.6413
 21
-45.214
  0
LINE
  8
0
 10
47.6413
 20
-45.214
 11
47.7344
 21
-45.2807
  0
LINE
  8
0
 10
47.7344
 20
-45.2807
 11
47.8229
 21
-45.3533
  0
LINE
  8
0
 10
47.8229
 20
-45.3533
 11
47.9065
 21
-45.4316
  0
LINE
  8
0
 10
47.9065
 20
-45.4316
 11
47.9848
 21
-45.5152
  0
LINE
  8
0
 10
47.9848
 20
-45.5152
 11
48.0574
 21
-45.6037
  0
LINE
  8
0
 10
48.0574
 20
-45.6037
 11
48.1241
 21
-45.6968
  0
LINE
  8
0
 10
48.1241
 20
-45.6968
 11
48.1846
 21
-45.794
  0
LINE
  8
0
 10
48.1846
 20
-45.794
 11
48.2386
 21
-45.895
  0
LINE
  8
0
 10
48.2386
 20
-45.895
 11
48.2858
 21
-45.9993
  0
LINE
  8
0
 10
48.2858
 20
-45.9993
 11
48.3262
 21
-46.1065
  0
LINE
  8
0
 10
48.3262
 20
-46.1065
 11
48.3594
 21
-46.2161
  0
LINE
  8
0
 10
48.3594
 20
-46.2161
 11
48.3854
 21
-46.3276
  0
LINE
  8
0
 10
48.3854
 20
-46.3276
 11
48.4041
 21
-46.4406
  0
LINE
  8
0
 10
48.4041
 20
-46.4406
 11
48.4153
 21
-46.5546
  0
LINE
  8
0
 10
48.4153
 20
-46.5546
 11
48.419
 21
-46.669
  0
LINE
  8
0
 10
48.419
 20
-46.669
 11
48.4153
 21
-46.7835
  0
LINE
  8
0
 10
48.4153
 20
-46.7835
 11
48.4041
 21
-46.8975
  0
LINE
  8
0
 10
48.4041
 20
-46.8975
 11
48.3854
 21
-47.0105
  0
LINE
  8
0
 10
48.3854
 20
-47.0105
 11
48.3594
 21
-47.122
  0
LINE
  8
0
 10
48.3594
 20
-47.122
 11
48.3262
 21
-47.2316
  0
LINE
  8
0
 10
48.3262
 20
-47.2316
 11
48.2858
 21
-47.3387
  0
LINE
  8
0
 10
48.2858
 20
-47.3387
 11
48.2386
 21
-47.443
  0
LINE
  8
0
 10
48.2386
 20
-47.443
 11
48.1846
 21
-47.544
  0
LINE
  8
0
 10
48.1846
 20
-47.544
 11
48.1241
 21
-47.6413
  0
LINE
  8
0
 10
48.1241
 20
-47.6413
 11
48.0574
 21
-47.7344
  0
LINE
  8
0
 10
48.0574
 20
-47.7344
 11
47.9848
 21
-47.8229
  0
LINE
  8
0
 10
47.9848
 20
-47.8229
 11
47.9065
 21
-47.9065
  0
LINE
  8
0
 10
47.9065
 20
-47.9065
 11
47.8229
 21
-47.9848
  0
LINE
  8
0
 10
47.8229
 20
-47.9848
 11
47.7344
 21
-48.0574
  0
LINE
  8
0
 10
47.7344
 20
-48.0574
 11
47.6413
 21
-48.1241
  0
LINE
  8
0
 10
47.6413
 20
-48.1241
 11
47.544
 21
-48.1846
  0
LINE
  8
0
 10
47.544
 20
-48.1846
 11
47.443
 21
-48.2386
  0
LINE
  8
0
 10
47.443
 20
-48.2386
 11
47.3387
 21
-48.2858
  0
LINE
  8
0
 10
47.3387
 20
-48.2858
 11
47.2316
 21
-48.3262
  0
LINE
  8
0
 10
47.2316
 20
-48.3262
 11
47.122
 21
-48.3594
  0
LINE
  8
0
 10
47.122
 20
-48.3594
 11
47.0105
 21
-48.3854
  0
LINE
  8
0
 10
47.0105
 20
-48.3854
 11
46.8975
 21
-48.4041
  0
LINE
  8
0
 10
46.8975
 20
-48.4041
 11
46.7835
 21
-48.4153
  0
LINE
  8
0
 10
46.7835
 20
-48.4153
 11
46.669
 21
-48.419
  0
LINE
  8
0
 10
46.669
 20
-48.419
 11
46.5546
 21
-48.4153
  0
ENDSEC
  0
SECTION
  2
OBJECTS
  0
DICTIONARY
  0
ENDSEC
  0
EOF
