solid OpenSCAD_Model
  facet normal 0 0 -1
    outer loop
      vertex 27 0 0
      vertex 51 -0.00816345 0
      vertex 50.9933 -0.823334 0
    endloop
  endfacet
  facet normal 0 0 -1
    outer loop
      vertex 51 -0.00816345 0
      vertex 27 0 0
      vertex 51 0.00816345 0
    endloop
  endfacet
  facet normal 0 0 -1
    outer loop
      vertex 26.9964 -0.44072 0
      vertex 50.9933 -0.823334 0
      vertex 50.993 -0.839615 0
    endloop
  endfacet
  facet normal -0 0 -1
    outer loop
      vertex 51 0.00816345 0
      vertex 27 0 0
      vertex 50.9933 0.823334 0
    endloop
  endfacet
  facet normal 0 0 -1
    outer loop
      vertex 26.9964 -0.44072 0
      vertex 50.993 -0.839615 0
      vertex 50.9731 -1.65457 0
    endloop
  endfacet
  facet normal 0 0 -1
    outer loop
      vertex 26.9964 0.44072 0
      vertex 50.9933 0.823334 0
      vertex 27 0 0
    endloop
  endfacet
  facet normal 0 0 -1
    outer loop
      vertex 26.9856 -0.879517 0
      vertex 50.9731 -1.65457 0
      vertex 50.9726 -1.6709 0
    endloop
  endfacet
  facet normal -0 0 -1
    outer loop
      vertex 50.9933 0.823334 0
      vertex 26.9964 0.44072 0
      vertex 50.993 0.839615 0
    endloop
  endfacet
  facet normal 0 0 -1
    outer loop
      vertex 26.9856 -0.879517 0
      vertex 50.9726 -1.6709 0
      vertex 50.9394 -2.48543 0
    endloop
  endfacet
  facet normal -0 0 -1
    outer loop
      vertex 50.993 0.839615 0
      vertex 26.9964 0.44072 0
      vertex 50.9731 1.65457 0
    endloop
  endfacet
  facet normal 0 0 -1
    outer loop
      vertex 26.9676 -1.32072 0
      vertex 50.9394 -2.48543 0
      vertex 50.9386 -2.50169 0
    endloop
  endfacet
  facet normal 0 0 -1
    outer loop
      vertex 26.9856 0.879517 0
      vertex 50.9731 1.65457 0
      vertex 26.9964 0.44072 0
    endloop
  endfacet
  facet normal 0 0 -1
    outer loop
      vertex 26.9676 -1.32072 0
      vertex 50.9386 -2.50169 0
      vertex 50.8921 -3.31558 0
    endloop
  endfacet
  facet normal -0 0 -1
    outer loop
      vertex 50.9731 1.65457 0
      vertex 26.9856 0.879517 0
      vertex 50.9726 1.6709 0
    endloop
  endfacet
  facet normal 0 0 -1
    outer loop
      vertex 26.9426 -1.75908 0
      vertex 50.8921 -3.31558 0
      vertex 50.891 -3.33185 0
    endloop
  endfacet
  facet normal -0 0 -1
    outer loop
      vertex 50.9726 1.6709 0
      vertex 26.9856 0.879517 0
      vertex 50.9394 2.48543 0
    endloop
  endfacet
  facet normal 0 0 -1
    outer loop
      vertex 26.9426 -1.75908 0
      vertex 50.891 -3.33185 0
      vertex 50.8313 -4.14485 0
    endloop
  endfacet
  facet normal 0 0 -1
    outer loop
      vertex 26.9676 1.32072 0
      vertex 50.9394 2.48543 0
      vertex 26.9856 0.879517 0
    endloop
  endfacet
  facet normal 0 0 -1
    outer loop
      vertex 26.9103 -2.1987 0
      vertex 50.8313 -4.14485 0
      vertex 50.8299 -4.16109 0
    endloop
  endfacet
  facet normal -0 0 -1
    outer loop
      vertex 50.9394 2.48543 0
      vertex 26.9676 1.32072 0
      vertex 50.9386 2.50169 0
    endloop
  endfacet
  facet normal 0 0 -1
    outer loop
      vertex 27.2714 -6.42427 0
      vertex 50.8299 -4.16109 0
      vertex 50.7569 -4.97302 0
    endloop
  endfacet
  facet normal -0 0 -1
    outer loop
      vertex 50.9386 2.50169 0
      vertex 26.9676 1.32072 0
      vertex 50.8921 3.31558 0
    endloop
  endfacet
  facet normal 0 0 -1
    outer loop
      vertex 27.2714 -6.42427 0
      vertex 50.7569 -4.97302 0
      vertex 50.7553 -4.98927 0
    endloop
  endfacet
  facet normal 0 0 -1
    outer loop
      vertex 26.9426 1.75908 0
      vertex 50.8921 3.31558 0
      vertex 26.9676 1.32072 0
    endloop
  endfacet
  facet normal 0 0 -1
    outer loop
      vertex 27.2714 -6.42427 0
      vertex 50.7553 -4.98927 0
      vertex 50.6691 -5.7999 0
    endloop
  endfacet
  facet normal -0 0 -1
    outer loop
      vertex 50.8921 3.31558 0
      vertex 26.9426 1.75908 0
      vertex 50.891 3.33185 0
    endloop
  endfacet
  facet normal 0 0 -1
    outer loop
      vertex 48.8516 -10.7012 0
      vertex 50.6691 -5.7999 0
      vertex 50.6672 -5.81607 0
    endloop
  endfacet
  facet normal -0 0 -1
    outer loop
      vertex 50.891 3.33185 0
      vertex 26.9426 1.75908 0
      vertex 50.8313 4.14485 0
    endloop
  endfacet
  facet normal 0 0 -1
    outer loop
      vertex 48.8516 -10.7012 0
      vertex 50.6672 -5.81607 0
      vertex 50.5678 -6.6252 0
    endloop
  endfacet
  facet normal 0 0 -1
    outer loop
      vertex 26.9103 2.1987 0
      vertex 50.8313 4.14485 0
      vertex 26.9426 1.75908 0
    endloop
  endfacet
  facet normal 0 0 -1
    outer loop
      vertex 48.8516 -10.7012 0
      vertex 50.5678 -6.6252 0
      vertex 50.5657 -6.64139 0
    endloop
  endfacet
  facet normal -0 0 -1
    outer loop
      vertex 50.8313 4.14485 0
      vertex 26.9103 2.1987 0
      vertex 50.8299 4.16109 0
    endloop
  endfacet
  facet normal 0 0 -1
    outer loop
      vertex 48.8516 -10.7012 0
      vertex 50.5657 -6.64139 0
      vertex 50.4531 -7.44878 0
    endloop
  endfacet
  facet normal 0 -0 -1
    outer loop
      vertex 27.2714 6.42427 0
      vertex 50.8299 4.16109 0
      vertex 26.9103 2.1987 0
    endloop
  endfacet
  facet normal 0 0 -1
    outer loop
      vertex 48.8516 -10.7012 0
      vertex 50.4531 -7.44878 0
      vertex 50.4507 -7.46489 0
    endloop
  endfacet
  facet normal 0 0 -1
    outer loop
      vertex 50.8299 4.16109 0
      vertex 27.2714 6.42427 0
      vertex 50.7569 4.97302 0
    endloop
  endfacet
  facet normal 0 0 -1
    outer loop
      vertex 48.8516 -10.7012 0
      vertex 50.4507 -7.46489 0
      vertex 50.3249 -8.27032 0
    endloop
  endfacet
  facet normal 0 0 -1
    outer loop
      vertex 50.7569 4.97302 0
      vertex 27.2714 6.42427 0
      vertex 50.7553 4.98927 0
    endloop
  endfacet
  facet normal 0 0 -1
    outer loop
      vertex 48.8516 -10.7012 0
      vertex 50.3249 -8.27032 0
      vertex 50.3223 -8.28641 0
    endloop
  endfacet
  facet normal 0 0 -1
    outer loop
      vertex 50.7553 4.98927 0
      vertex 27.2714 6.42427 0
      vertex 50.6691 5.7999 0
    endloop
  endfacet
  facet normal 0 0 -1
    outer loop
      vertex 48.8516 -10.7012 0
      vertex 50.3223 -8.28641 0
      vertex 50.1834 -9.08971 0
    endloop
  endfacet
  facet normal 0 -0 -1
    outer loop
      vertex 48.8516 10.7012 0
      vertex 50.6691 5.7999 0
      vertex 27.2714 6.42427 0
    endloop
  endfacet
  facet normal 0 0 -1
    outer loop
      vertex 48.8516 -10.7012 0
      vertex 50.1834 -9.08971 0
      vertex 50.1805 -9.10577 0
    endloop
  endfacet
  facet normal 0 0 -1
    outer loop
      vertex 50.6691 5.7999 0
      vertex 48.8516 10.7012 0
      vertex 50.6672 5.81607 0
    endloop
  endfacet
  facet normal 0 0 -1
    outer loop
      vertex 48.8516 -10.7012 0
      vertex 50.1805 -9.10577 0
      vertex 50.0285 -9.90669 0
    endloop
  endfacet
  facet normal 0 0 -1
    outer loop
      vertex 50.6691 -5.7999 0
      vertex 48.8516 -10.7012 0
      vertex 27.2714 -6.42427 0
    endloop
  endfacet
  facet normal 0 0 -1
    outer loop
      vertex 50.1805 9.10577 0
      vertex 48.8516 10.7012 0
      vertex 50.0285 9.90669 0
    endloop
  endfacet
  facet normal 0 0 -1
    outer loop
      vertex 48.8516 -10.7012 0
      vertex 50.0285 -9.90669 0
      vertex 49.9932 -10.0411 0
    endloop
  endfacet
  facet normal 0 0 -1
    outer loop
      vertex 50.0285 9.90669 0
      vertex 48.8516 10.7012 0
      vertex 49.9958 10.0333 0
    endloop
  endfacet
  facet normal 0 0 -1
    outer loop
      vertex 48.8516 -10.7012 0
      vertex 49.9932 -10.0411 0
      vertex 49.9432 -10.1619 0
    endloop
  endfacet
  facet normal 0 0 -1
    outer loop
      vertex 49.9958 10.0333 0
      vertex 48.8516 10.7012 0
      vertex 49.9468 10.1546 0
    endloop
  endfacet
  facet normal 0 0 -1
    outer loop
      vertex 48.8516 -10.7012 0
      vertex 49.9432 -10.1619 0
      vertex 49.8779 -10.2753 0
    endloop
  endfacet
  facet normal 0 0 -1
    outer loop
      vertex 49.9468 10.1546 0
      vertex 48.8516 10.7012 0
      vertex 49.8824 10.2685 0
    endloop
  endfacet
  facet normal 0 0 -1
    outer loop
      vertex 48.8516 -10.7012 0
      vertex 49.8779 -10.2753 0
      vertex 49.7984 -10.3791 0
    endloop
  endfacet
  facet normal 0 0 -1
    outer loop
      vertex 49.8824 10.2685 0
      vertex 48.8516 10.7012 0
      vertex 49.8037 10.3729 0
    endloop
  endfacet
  facet normal 0 0 -1
    outer loop
      vertex 48.8516 -10.7012 0
      vertex 49.7984 -10.3791 0
      vertex 49.7059 -10.4716 0
    endloop
  endfacet
  facet normal 0 0 -1
    outer loop
      vertex 49.8037 10.3729 0
      vertex 48.8516 10.7012 0
      vertex 49.712 10.4663 0
    endloop
  endfacet
  facet normal 0 0 -1
    outer loop
      vertex 48.8516 -10.7012 0
      vertex 49.7059 -10.4716 0
      vertex 49.6022 -10.5514 0
    endloop
  endfacet
  facet normal 0 0 -1
    outer loop
      vertex 49.712 10.4663 0
      vertex 48.8516 10.7012 0
      vertex 49.6089 10.5468 0
    endloop
  endfacet
  facet normal 0 0 -1
    outer loop
      vertex 48.8516 -10.7012 0
      vertex 49.6022 -10.5514 0
      vertex 49.489 -10.6168 0
    endloop
  endfacet
  facet normal 0 0 -1
    outer loop
      vertex 49.6089 10.5468 0
      vertex 48.8516 10.7012 0
      vertex 49.4962 10.6132 0
    endloop
  endfacet
  facet normal 0 0 -1
    outer loop
      vertex 48.8516 -10.7012 0
      vertex 49.489 -10.6168 0
      vertex 49.3681 -10.667 0
    endloop
  endfacet
  facet normal 0 0 -1
    outer loop
      vertex 49.4962 10.6132 0
      vertex 48.8516 10.7012 0
      vertex 49.3759 10.6643 0
    endloop
  endfacet
  facet normal 0 0 -1
    outer loop
      vertex 48.8516 -10.7012 0
      vertex 49.3681 -10.667 0
      vertex 49.2418 -10.7009 0
    endloop
  endfacet
  facet normal 0 0 -1
    outer loop
      vertex 49.3759 10.6643 0
      vertex 48.8516 10.7012 0
      vertex 49.2498 10.6993 0
    endloop
  endfacet
  facet normal 0 0 -1
    outer loop
      vertex 48.8516 -10.7012 0
      vertex 49.2418 -10.7009 0
      vertex 49.1122 -10.7181 0
    endloop
  endfacet
  facet normal 0 0 -1
    outer loop
      vertex 49.2498 10.6993 0
      vertex 48.8516 10.7012 0
      vertex 49.1203 10.7175 0
    endloop
  endfacet
  facet normal 0 0 -1
    outer loop
      vertex 48.8516 -10.7012 0
      vertex 49.1122 -10.7181 0
      vertex 48.9813 -10.7182 0
    endloop
  endfacet
  facet normal 0 0 -1
    outer loop
      vertex 50.6672 5.81607 0
      vertex 48.8516 10.7012 0
      vertex 50.5678 6.6252 0
    endloop
  endfacet
  facet normal -0 0 -1
    outer loop
      vertex 49.1203 10.7175 0
      vertex 48.8516 10.7012 0
      vertex 48.9895 10.7187 0
    endloop
  endfacet
  facet normal -0 0 -1
    outer loop
      vertex 50.8299 -4.16109 0
      vertex 27.2714 -6.42427 0
      vertex 26.9103 -2.1987 0
    endloop
  endfacet
  facet normal 0 0 -1
    outer loop
      vertex 50.8921 -3.31558 0
      vertex 26.9426 -1.75908 0
      vertex 26.9676 -1.32072 0
    endloop
  endfacet
  facet normal 0 0 -1
    outer loop
      vertex 26.4833 -5.25694 0
      vertex 27.2714 -6.42427 0
      vertex 27.1527 -6.39308 0
    endloop
  endfacet
  facet normal 0 0 -1
    outer loop
      vertex 50.5657 6.64139 0
      vertex 48.8516 10.7012 0
      vertex 50.4531 7.44878 0
    endloop
  endfacet
  facet normal 0 0 -1
    outer loop
      vertex 26.4833 -5.25694 0
      vertex 27.1527 -6.39308 0
      vertex 27.0314 -6.3441 0
    endloop
  endfacet
  facet normal 0 0 -1
    outer loop
      vertex 50.3223 8.28641 0
      vertex 48.8516 10.7012 0
      vertex 50.1834 9.08971 0
    endloop
  endfacet
  facet normal 0 0 -1
    outer loop
      vertex 50.1834 9.08971 0
      vertex 48.8516 10.7012 0
      vertex 50.1805 9.10577 0
    endloop
  endfacet
  facet normal 0 0 -1
    outer loop
      vertex 50.5678 6.6252 0
      vertex 48.8516 10.7012 0
      vertex 50.5657 6.64139 0
    endloop
  endfacet
  facet normal 0 0 -1
    outer loop
      vertex 50.9933 -0.823334 0
      vertex 26.9964 -0.44072 0
      vertex 27 0 0
    endloop
  endfacet
  facet normal 0 0 -1
    outer loop
      vertex 50.9731 -1.65457 0
      vertex 26.9856 -0.879517 0
      vertex 26.9964 -0.44072 0
    endloop
  endfacet
  facet normal 0 0 -1
    outer loop
      vertex 50.9394 -2.48543 0
      vertex 26.9676 -1.32072 0
      vertex 26.9856 -0.879517 0
    endloop
  endfacet
  facet normal 0 0 -1
    outer loop
      vertex 26.4833 -5.25694 0
      vertex 27.0314 -6.3441 0
      vertex 26.9176 -6.27969 0
    endloop
  endfacet
  facet normal 0 0 -1
    outer loop
      vertex 50.8313 -4.14485 0
      vertex 26.9103 -2.1987 0
      vertex 26.9426 -1.75908 0
    endloop
  endfacet
  facet normal 0 0 -1
    outer loop
      vertex 27.2714 -6.42427 0
      vertex 26.8708 -2.63751 0
      vertex 26.9103 -2.1987 0
    endloop
  endfacet
  facet normal 0 0 -1
    outer loop
      vertex 27.2714 -6.42427 0
      vertex 26.8244 -3.07436 0
      vertex 26.8708 -2.63751 0
    endloop
  endfacet
  facet normal 0 0 -1
    outer loop
      vertex 26.4833 -5.25694 0
      vertex 26.9176 -6.27969 0
      vertex 26.8131 -6.20099 0
    endloop
  endfacet
  facet normal 0 0 -1
    outer loop
      vertex 27.2714 -6.42427 0
      vertex 26.7706 -3.5117 0
      vertex 26.8244 -3.07436 0
    endloop
  endfacet
  facet normal 0 0 -1
    outer loop
      vertex 26.4833 -5.25694 0
      vertex 26.8131 -6.20099 0
      vertex 26.7198 -6.10931 0
    endloop
  endfacet
  facet normal 0 0 -1
    outer loop
      vertex 27.2714 -6.42427 0
      vertex 26.7098 -3.94768 0
      vertex 26.7706 -3.5117 0
    endloop
  endfacet
  facet normal 0 0 -1
    outer loop
      vertex 27.2714 -6.42427 0
      vertex 26.6418 -4.38295 0
      vertex 26.7098 -3.94768 0
    endloop
  endfacet
  facet normal 0 0 -1
    outer loop
      vertex 26.4833 -5.25694 0
      vertex 26.7198 -6.10931 0
      vertex 26.6393 -6.00624 0
    endloop
  endfacet
  facet normal 0 0 -1
    outer loop
      vertex 26.4833 -5.25694 0
      vertex 26.6393 -6.00624 0
      vertex 26.5729 -5.89355 0
    endloop
  endfacet
  facet normal 0 0 -1
    outer loop
      vertex 27.2714 -6.42427 0
      vertex 26.5668 -4.81685 0
      vertex 26.6418 -4.38295 0
    endloop
  endfacet
  facet normal 0 0 -1
    outer loop
      vertex 26.4833 -5.25694 0
      vertex 26.5729 -5.89355 0
      vertex 26.5217 -5.77315 0
    endloop
  endfacet
  facet normal 0 0 -1
    outer loop
      vertex 26.4833 -5.25694 0
      vertex 26.5217 -5.77315 0
      vertex 26.4868 -5.64711 0
    endloop
  endfacet
  facet normal 0 0 -1
    outer loop
      vertex 27.2714 -6.42427 0
      vertex 26.4833 -5.25694 0
      vertex 26.5668 -4.81685 0
    endloop
  endfacet
  facet normal 0 0 -1
    outer loop
      vertex 26.4686 -5.51758 0
      vertex 26.4833 -5.25694 0
      vertex 26.4868 -5.64711 0
    endloop
  endfacet
  facet normal 0 0 -1
    outer loop
      vertex 26.4833 -5.25694 0
      vertex 26.4686 -5.51758 0
      vertex 26.4674 -5.38676 0
    endloop
  endfacet
  facet normal 0 0 -1
    outer loop
      vertex 50.4507 7.46489 0
      vertex 48.8516 10.7012 0
      vertex 50.3249 8.27032 0
    endloop
  endfacet
  facet normal 0 0 -1
    outer loop
      vertex 50.3249 8.27032 0
      vertex 48.8516 10.7012 0
      vertex 50.3223 8.28641 0
    endloop
  endfacet
  facet normal 0 0 -1
    outer loop
      vertex 50.4531 7.44878 0
      vertex 48.8516 10.7012 0
      vertex 50.4507 7.46489 0
    endloop
  endfacet
  facet normal 0 0 -1
    outer loop
      vertex 26.8708 2.63751 0
      vertex 27.2714 6.42427 0
      vertex 26.9103 2.1987 0
    endloop
  endfacet
  facet normal 0 0 -1
    outer loop
      vertex 26.8244 3.07436 0
      vertex 27.2714 6.42427 0
      vertex 26.8708 2.63751 0
    endloop
  endfacet
  facet normal 0 0 -1
    outer loop
      vertex 26.7706 3.5117 0
      vertex 27.2714 6.42427 0
      vertex 26.8244 3.07436 0
    endloop
  endfacet
  facet normal 0 0 -1
    outer loop
      vertex 26.7098 3.94768 0
      vertex 27.2714 6.42427 0
      vertex 26.7706 3.5117 0
    endloop
  endfacet
  facet normal 0 0 -1
    outer loop
      vertex 26.6418 4.38295 0
      vertex 27.2714 6.42427 0
      vertex 26.7098 3.94768 0
    endloop
  endfacet
  facet normal 0 0 -1
    outer loop
      vertex 26.5668 4.81685 0
      vertex 27.2714 6.42427 0
      vertex 26.6418 4.38295 0
    endloop
  endfacet
  facet normal 0 0 -1
    outer loop
      vertex 26.4833 5.25694 0
      vertex 27.2714 6.42427 0
      vertex 26.5668 4.81685 0
    endloop
  endfacet
  facet normal 0 0 -1
    outer loop
      vertex 27.2714 6.42427 0
      vertex 26.4833 5.25694 0
      vertex 27.145 6.3905 0
    endloop
  endfacet
  facet normal 0 0 -1
    outer loop
      vertex 27.145 6.3905 0
      vertex 26.4833 5.25694 0
      vertex 27.0241 6.34053 0
    endloop
  endfacet
  facet normal 0 0 -1
    outer loop
      vertex 27.0241 6.34053 0
      vertex 26.4833 5.25694 0
      vertex 26.9108 6.27521 0
    endloop
  endfacet
  facet normal 0 0 -1
    outer loop
      vertex 26.9108 6.27521 0
      vertex 26.4833 5.25694 0
      vertex 26.807 6.19565 0
    endloop
  endfacet
  facet normal 0 0 -1
    outer loop
      vertex 26.807 6.19565 0
      vertex 26.4833 5.25694 0
      vertex 26.7144 6.10321 0
    endloop
  endfacet
  facet normal 0 0 -1
    outer loop
      vertex 26.7144 6.10321 0
      vertex 26.4833 5.25694 0
      vertex 26.6347 5.9995 0
    endloop
  endfacet
  facet normal 0 0 -1
    outer loop
      vertex 26.6347 5.9995 0
      vertex 26.4833 5.25694 0
      vertex 26.5692 5.88626 0
    endloop
  endfacet
  facet normal 0 0 -1
    outer loop
      vertex 26.5692 5.88626 0
      vertex 26.4833 5.25694 0
      vertex 26.5191 5.76544 0
    endloop
  endfacet
  facet normal 0 0 -1
    outer loop
      vertex 26.5191 5.76544 0
      vertex 26.4833 5.25694 0
      vertex 26.4851 5.63911 0
    endloop
  endfacet
  facet normal 0 0 -1
    outer loop
      vertex 26.4833 5.25694 0
      vertex 26.468 5.50945 0
      vertex 26.4851 5.63911 0
    endloop
  endfacet
  facet normal 0 -0 -1
    outer loop
      vertex 26.468 5.50945 0
      vertex 26.4833 5.25694 0
      vertex 26.4679 5.37863 0
    endloop
  endfacet
  facet normal 0 0 1
    outer loop
      vertex 33.5957 0.547852 0.599999
      vertex 26.9964 0.44072 0.599999
      vertex 27 0 0.599999
    endloop
  endfacet
  facet normal 0 0 1
    outer loop
      vertex 27.2714 6.42427 0.599999
      vertex 26.9856 0.879517 0.599999
      vertex 26.9964 0.44072 0.599999
    endloop
  endfacet
  facet normal 0 0 1
    outer loop
      vertex 27.2714 6.42427 0.599999
      vertex 26.9676 1.32072 0.599999
      vertex 26.9856 0.879517 0.599999
    endloop
  endfacet
  facet normal 0 0 1
    outer loop
      vertex 27.2714 6.42427 0.599999
      vertex 26.9426 1.75908 0.599999
      vertex 26.9676 1.32072 0.599999
    endloop
  endfacet
  facet normal 0 0 1
    outer loop
      vertex 26.4833 5.25694 0.599999
      vertex 27.0241 6.34053 0.599999
      vertex 26.9108 6.27521 0.599999
    endloop
  endfacet
  facet normal 0 0 1
    outer loop
      vertex 27.2714 6.42427 0.599999
      vertex 26.9103 2.1987 0.599999
      vertex 26.9426 1.75908 0.599999
    endloop
  endfacet
  facet normal 0 0 1
    outer loop
      vertex 27.2714 6.42427 0.599999
      vertex 26.8708 2.63751 0.599999
      vertex 26.9103 2.1987 0.599999
    endloop
  endfacet
  facet normal 0 0 1
    outer loop
      vertex 27.2714 6.42427 0.599999
      vertex 26.8244 3.07436 0.599999
      vertex 26.8708 2.63751 0.599999
    endloop
  endfacet
  facet normal 0 0 1
    outer loop
      vertex 26.4833 5.25694 0.599999
      vertex 26.9108 6.27521 0.599999
      vertex 26.807 6.19565 0.599999
    endloop
  endfacet
  facet normal 0 0 1
    outer loop
      vertex 27.2714 6.42427 0.599999
      vertex 26.7706 3.5117 0.599999
      vertex 26.8244 3.07436 0.599999
    endloop
  endfacet
  facet normal 0 0 1
    outer loop
      vertex 26.4833 5.25694 0.599999
      vertex 26.807 6.19565 0.599999
      vertex 26.7144 6.10321 0.599999
    endloop
  endfacet
  facet normal 0 0 1
    outer loop
      vertex 27.2714 6.42427 0.599999
      vertex 26.7098 3.94768 0.599999
      vertex 26.7706 3.5117 0.599999
    endloop
  endfacet
  facet normal 0 0 1
    outer loop
      vertex 27.2714 6.42427 0.599999
      vertex 26.6418 4.38295 0.599999
      vertex 26.7098 3.94768 0.599999
    endloop
  endfacet
  facet normal 0 0 1
    outer loop
      vertex 26.4833 5.25694 0.599999
      vertex 26.7144 6.10321 0.599999
      vertex 26.6347 5.9995 0.599999
    endloop
  endfacet
  facet normal 0 0 1
    outer loop
      vertex 26.4833 5.25694 0.599999
      vertex 26.6347 5.9995 0.599999
      vertex 26.5692 5.88626 0.599999
    endloop
  endfacet
  facet normal 0 0 1
    outer loop
      vertex 27.2714 6.42427 0.599999
      vertex 26.5668 4.81685 0.599999
      vertex 26.6418 4.38295 0.599999
    endloop
  endfacet
  facet normal 0 0 1
    outer loop
      vertex 26.4833 5.25694 0.599999
      vertex 26.5692 5.88626 0.599999
      vertex 26.5191 5.76544 0.599999
    endloop
  endfacet
  facet normal 0 0 1
    outer loop
      vertex 26.4833 5.25694 0.599999
      vertex 26.5191 5.76544 0.599999
      vertex 26.4851 5.63911 0.599999
    endloop
  endfacet
  facet normal 0 0 1
    outer loop
      vertex 27.2714 6.42427 0.599999
      vertex 26.4833 5.25694 0.599999
      vertex 26.5668 4.81685 0.599999
    endloop
  endfacet
  facet normal -0 0 1
    outer loop
      vertex 26.468 5.50945 0.599999
      vertex 26.4833 5.25694 0.599999
      vertex 26.4851 5.63911 0.599999
    endloop
  endfacet
  facet normal 0 0 1
    outer loop
      vertex 26.4833 5.25694 0.599999
      vertex 26.468 5.50945 0.599999
      vertex 26.4679 5.37863 0.599999
    endloop
  endfacet
  facet normal 0 0 1
    outer loop
      vertex 44.3998 0 0.599999
      vertex 51 0.00816345 0.599999
      vertex 50.9933 0.823334 0.599999
    endloop
  endfacet
  facet normal 0 0 1
    outer loop
      vertex 51 0.00816345 0.599999
      vertex 44.3998 0 0.599999
      vertex 51 -0.00816345 0.599999
    endloop
  endfacet
  facet normal 0 0 1
    outer loop
      vertex 44.3939 0.723434 0.599999
      vertex 50.9933 0.823334 0.599999
      vertex 50.993 0.839615 0.599999
    endloop
  endfacet
  facet normal 0 0 1
    outer loop
      vertex 51 -0.00816345 0.599999
      vertex 44.3998 0 0.599999
      vertex 50.9933 -0.823334 0.599999
    endloop
  endfacet
  facet normal 0 0 1
    outer loop
      vertex 44.3939 0.723434 0.599999
      vertex 50.993 0.839615 0.599999
      vertex 50.9731 1.65457 0.599999
    endloop
  endfacet
  facet normal -0 0 1
    outer loop
      vertex 44.3939 -0.723434 0.599999
      vertex 50.9933 -0.823334 0.599999
      vertex 44.3998 0 0.599999
    endloop
  endfacet
  facet normal 0 0 1
    outer loop
      vertex 44.3762 1.44711 0.599999
      vertex 50.9731 1.65457 0.599999
      vertex 50.9726 1.6709 0.599999
    endloop
  endfacet
  facet normal 0 0 1
    outer loop
      vertex 50.9933 -0.823334 0.599999
      vertex 44.3939 -0.723434 0.599999
      vertex 50.993 -0.839615 0.599999
    endloop
  endfacet
  facet normal 0 0 1
    outer loop
      vertex 44.3762 1.44711 0.599999
      vertex 50.9726 1.6709 0.599999
      vertex 50.9394 2.48543 0.599999
    endloop
  endfacet
  facet normal 0 0 1
    outer loop
      vertex 50.993 -0.839615 0.599999
      vertex 44.3939 -0.723434 0.599999
      vertex 50.9731 -1.65457 0.599999
    endloop
  endfacet
  facet normal 0 0 1
    outer loop
      vertex 44.3467 2.17151 0.599999
      vertex 50.9394 2.48543 0.599999
      vertex 50.9386 2.50169 0.599999
    endloop
  endfacet
  facet normal -0 0 1
    outer loop
      vertex 44.3762 -1.44711 0.599999
      vertex 50.9731 -1.65457 0.599999
      vertex 44.3939 -0.723434 0.599999
    endloop
  endfacet
  facet normal 0 0 1
    outer loop
      vertex 44.3467 2.17151 0.599999
      vertex 50.9386 2.50169 0.599999
      vertex 50.8921 3.31558 0.599999
    endloop
  endfacet
  facet normal 0 0 1
    outer loop
      vertex 50.9731 -1.65457 0.599999
      vertex 44.3762 -1.44711 0.599999
      vertex 50.9726 -1.6709 0.599999
    endloop
  endfacet
  facet normal 0 0 1
    outer loop
      vertex 44.3054 2.89371 0.599999
      vertex 50.8921 3.31558 0.599999
      vertex 50.891 3.33185 0.599999
    endloop
  endfacet
  facet normal 0 0 1
    outer loop
      vertex 50.9726 -1.6709 0.599999
      vertex 44.3762 -1.44711 0.599999
      vertex 50.9394 -2.48543 0.599999
    endloop
  endfacet
  facet normal 0 0 1
    outer loop
      vertex 44.2925 3.06926 0.599999
      vertex 50.891 3.33185 0.599999
      vertex 50.8313 4.14485 0.599999
    endloop
  endfacet
  facet normal -0 0 1
    outer loop
      vertex 44.3467 -2.17151 0.599999
      vertex 50.9394 -2.48543 0.599999
      vertex 44.3762 -1.44711 0.599999
    endloop
  endfacet
  facet normal 0 0 1
    outer loop
      vertex 44.2925 3.06926 0.599999
      vertex 50.8313 4.14485 0.599999
      vertex 50.8299 4.16109 0.599999
    endloop
  endfacet
  facet normal 0 0 1
    outer loop
      vertex 50.9394 -2.48543 0.599999
      vertex 44.3467 -2.17151 0.599999
      vertex 50.9386 -2.50169 0.599999
    endloop
  endfacet
  facet normal 0 0 1
    outer loop
      vertex 44.2925 3.06926 0.599999
      vertex 50.8299 4.16109 0.599999
      vertex 50.7569 4.97302 0.599999
    endloop
  endfacet
  facet normal 0 0 1
    outer loop
      vertex 50.9386 -2.50169 0.599999
      vertex 44.3467 -2.17151 0.599999
      vertex 50.8921 -3.31558 0.599999
    endloop
  endfacet
  facet normal 0 0 1
    outer loop
      vertex 44.2925 3.06926 0.599999
      vertex 50.7569 4.97302 0.599999
      vertex 50.7553 4.98927 0.599999
    endloop
  endfacet
  facet normal -0 0 1
    outer loop
      vertex 44.3054 -2.89371 0.599999
      vertex 50.8921 -3.31558 0.599999
      vertex 44.3467 -2.17151 0.599999
    endloop
  endfacet
  facet normal 0 0 1
    outer loop
      vertex 44.2925 3.06926 0.599999
      vertex 50.7553 4.98927 0.599999
      vertex 50.6691 5.7999 0.599999
    endloop
  endfacet
  facet normal 0 0 1
    outer loop
      vertex 50.8921 -3.31558 0.599999
      vertex 44.3054 -2.89371 0.599999
      vertex 50.891 -3.33185 0.599999
    endloop
  endfacet
  facet normal 0 0 1
    outer loop
      vertex 44.2925 3.06926 0.599999
      vertex 50.6691 5.7999 0.599999
      vertex 50.6672 5.81607 0.599999
    endloop
  endfacet
  facet normal -0 0 1
    outer loop
      vertex 44.2925 -3.06926 0.599999
      vertex 50.891 -3.33185 0.599999
      vertex 44.3054 -2.89371 0.599999
    endloop
  endfacet
  facet normal 0 0 1
    outer loop
      vertex 44.2925 3.06926 0.599999
      vertex 50.6672 5.81607 0.599999
      vertex 50.5678 6.6252 0.599999
    endloop
  endfacet
  facet normal 0 0 1
    outer loop
      vertex 50.891 -3.33185 0.599999
      vertex 44.2925 -3.06926 0.599999
      vertex 50.8313 -4.14485 0.599999
    endloop
  endfacet
  facet normal 0 0 1
    outer loop
      vertex 44.2925 3.06926 0.599999
      vertex 50.5678 6.6252 0.599999
      vertex 50.5657 6.64139 0.599999
    endloop
  endfacet
  facet normal 0 0 1
    outer loop
      vertex 50.8313 -4.14485 0.599999
      vertex 44.2925 -3.06926 0.599999
      vertex 50.8299 -4.16109 0.599999
    endloop
  endfacet
  facet normal 0 0 1
    outer loop
      vertex 44.2925 3.06926 0.599999
      vertex 50.5657 6.64139 0.599999
      vertex 50.4531 7.44878 0.599999
    endloop
  endfacet
  facet normal 0 0 1
    outer loop
      vertex 50.8299 -4.16109 0.599999
      vertex 44.2925 -3.06926 0.599999
      vertex 50.7569 -4.97302 0.599999
    endloop
  endfacet
  facet normal 0 0 1
    outer loop
      vertex 44.2925 3.06926 0.599999
      vertex 50.4531 7.44878 0.599999
      vertex 50.4507 7.46489 0.599999
    endloop
  endfacet
  facet normal 0 0 1
    outer loop
      vertex 50.7569 -4.97302 0.599999
      vertex 44.2925 -3.06926 0.599999
      vertex 50.7553 -4.98927 0.599999
    endloop
  endfacet
  facet normal 0 0 1
    outer loop
      vertex 44.2925 3.06926 0.599999
      vertex 50.4507 7.46489 0.599999
      vertex 50.3249 8.27032 0.599999
    endloop
  endfacet
  facet normal 0 0 1
    outer loop
      vertex 50.7553 -4.98927 0.599999
      vertex 44.2925 -3.06926 0.599999
      vertex 50.6691 -5.7999 0.599999
    endloop
  endfacet
  facet normal 0 0 1
    outer loop
      vertex 48.8516 10.7012 0.599999
      vertex 50.3249 8.27032 0.599999
      vertex 50.3223 8.28641 0.599999
    endloop
  endfacet
  facet normal 0 0 1
    outer loop
      vertex 50.6691 -5.7999 0.599999
      vertex 44.2925 -3.06926 0.599999
      vertex 50.6672 -5.81607 0.599999
    endloop
  endfacet
  facet normal 0 0 1
    outer loop
      vertex 48.8516 10.7012 0.599999
      vertex 50.3223 8.28641 0.599999
      vertex 50.1834 9.08971 0.599999
    endloop
  endfacet
  facet normal 0 0 1
    outer loop
      vertex 50.6672 -5.81607 0.599999
      vertex 44.2925 -3.06926 0.599999
      vertex 50.5678 -6.6252 0.599999
    endloop
  endfacet
  facet normal 0 0 1
    outer loop
      vertex 48.8516 10.7012 0.599999
      vertex 50.1834 9.08971 0.599999
      vertex 50.1805 9.10577 0.599999
    endloop
  endfacet
  facet normal 0 0 1
    outer loop
      vertex 50.5678 -6.6252 0.599999
      vertex 44.2925 -3.06926 0.599999
      vertex 50.5657 -6.64139 0.599999
    endloop
  endfacet
  facet normal 0 0 1
    outer loop
      vertex 48.8516 10.7012 0.599999
      vertex 50.1805 9.10577 0.599999
      vertex 50.0285 9.90669 0.599999
    endloop
  endfacet
  facet normal 0 0 1
    outer loop
      vertex 50.5657 -6.64139 0.599999
      vertex 44.2925 -3.06926 0.599999
      vertex 50.4531 -7.44878 0.599999
    endloop
  endfacet
  facet normal 0 0 1
    outer loop
      vertex 48.8516 10.7012 0.599999
      vertex 50.0285 9.90669 0.599999
      vertex 49.9958 10.0333 0.599999
    endloop
  endfacet
  facet normal 0 0 1
    outer loop
      vertex 50.4531 -7.44878 0.599999
      vertex 44.2925 -3.06926 0.599999
      vertex 50.4507 -7.46489 0.599999
    endloop
  endfacet
  facet normal 0 0 1
    outer loop
      vertex 48.8516 10.7012 0.599999
      vertex 49.9958 10.0333 0.599999
      vertex 49.9468 10.1546 0.599999
    endloop
  endfacet
  facet normal 0 0 1
    outer loop
      vertex 50.4507 -7.46489 0.599999
      vertex 44.2925 -3.06926 0.599999
      vertex 50.3249 -8.27032 0.599999
    endloop
  endfacet
  facet normal 0 0 1
    outer loop
      vertex 48.8516 10.7012 0.599999
      vertex 49.9468 10.1546 0.599999
      vertex 49.8824 10.2685 0.599999
    endloop
  endfacet
  facet normal 0 -0 1
    outer loop
      vertex 48.8516 -10.7012 0.599999
      vertex 50.3249 -8.27032 0.599999
      vertex 44.2925 -3.06926 0.599999
    endloop
  endfacet
  facet normal 0 0 1
    outer loop
      vertex 48.8516 10.7012 0.599999
      vertex 49.8824 10.2685 0.599999
      vertex 49.8037 10.3729 0.599999
    endloop
  endfacet
  facet normal 0 0 1
    outer loop
      vertex 50.3249 -8.27032 0.599999
      vertex 48.8516 -10.7012 0.599999
      vertex 50.3223 -8.28641 0.599999
    endloop
  endfacet
  facet normal 0 0 1
    outer loop
      vertex 48.8516 10.7012 0.599999
      vertex 49.8037 10.3729 0.599999
      vertex 49.712 10.4663 0.599999
    endloop
  endfacet
  facet normal 0 0 1
    outer loop
      vertex 50.3223 -8.28641 0.599999
      vertex 48.8516 -10.7012 0.599999
      vertex 50.1834 -9.08971 0.599999
    endloop
  endfacet
  facet normal 0 0 1
    outer loop
      vertex 48.8516 10.7012 0.599999
      vertex 49.712 10.4663 0.599999
      vertex 49.6089 10.5468 0.599999
    endloop
  endfacet
  facet normal 0 0 1
    outer loop
      vertex 50.1834 -9.08971 0.599999
      vertex 48.8516 -10.7012 0.599999
      vertex 50.1805 -9.10577 0.599999
    endloop
  endfacet
  facet normal 0 0 1
    outer loop
      vertex 48.8516 10.7012 0.599999
      vertex 49.6089 10.5468 0.599999
      vertex 49.4962 10.6132 0.599999
    endloop
  endfacet
  facet normal 0 0 1
    outer loop
      vertex 50.1805 -9.10577 0.599999
      vertex 48.8516 -10.7012 0.599999
      vertex 50.0285 -9.90669 0.599999
    endloop
  endfacet
  facet normal 0 0 1
    outer loop
      vertex 48.8516 10.7012 0.599999
      vertex 49.4962 10.6132 0.599999
      vertex 49.3759 10.6643 0.599999
    endloop
  endfacet
  facet normal 0 0 1
    outer loop
      vertex 50.0285 -9.90669 0.599999
      vertex 48.8516 -10.7012 0.599999
      vertex 49.9932 -10.0411 0.599999
    endloop
  endfacet
  facet normal 0 0 1
    outer loop
      vertex 48.8516 10.7012 0.599999
      vertex 49.3759 10.6643 0.599999
      vertex 49.2498 10.6993 0.599999
    endloop
  endfacet
  facet normal 0 0 1
    outer loop
      vertex 49.9932 -10.0411 0.599999
      vertex 48.8516 -10.7012 0.599999
      vertex 49.9432 -10.1619 0.599999
    endloop
  endfacet
  facet normal -0 0 1
    outer loop
      vertex 48.8516 10.7012 0.599999
      vertex 49.2498 10.6993 0.599999
      vertex 49.1203 10.7175 0.599999
    endloop
  endfacet
  facet normal 0 0 1
    outer loop
      vertex 49.9432 -10.1619 0.599999
      vertex 48.8516 -10.7012 0.599999
      vertex 49.8779 -10.2753 0.599999
    endloop
  endfacet
  facet normal 0 0 1
    outer loop
      vertex 48.8516 10.7012 0.599999
      vertex 49.1203 10.7175 0.599999
      vertex 48.9895 10.7187 0.599999
    endloop
  endfacet
  facet normal 0 0 1
    outer loop
      vertex 49.8779 -10.2753 0.599999
      vertex 48.8516 -10.7012 0.599999
      vertex 49.7984 -10.3791 0.599999
    endloop
  endfacet
  facet normal 0 0 1
    outer loop
      vertex 50.3249 8.27032 0.599999
      vertex 48.8516 10.7012 0.599999
      vertex 44.2925 3.06926 0.599999
    endloop
  endfacet
  facet normal 0 0 1
    outer loop
      vertex 49.7984 -10.3791 0.599999
      vertex 48.8516 -10.7012 0.599999
      vertex 49.7059 -10.4716 0.599999
    endloop
  endfacet
  facet normal 0 0 1
    outer loop
      vertex 49.7059 -10.4716 0.599999
      vertex 48.8516 -10.7012 0.599999
      vertex 49.6022 -10.5514 0.599999
    endloop
  endfacet
  facet normal 0 0 1
    outer loop
      vertex 50.9933 0.823334 0.599999
      vertex 44.3939 0.723434 0.599999
      vertex 44.3998 0 0.599999
    endloop
  endfacet
  facet normal 0 0 1
    outer loop
      vertex 50.9731 1.65457 0.599999
      vertex 44.3762 1.44711 0.599999
      vertex 44.3939 0.723434 0.599999
    endloop
  endfacet
  facet normal 0 0 1
    outer loop
      vertex 50.9394 2.48543 0.599999
      vertex 44.3467 2.17151 0.599999
      vertex 44.3762 1.44711 0.599999
    endloop
  endfacet
  facet normal 0 0 1
    outer loop
      vertex 50.8921 3.31558 0.599999
      vertex 44.3054 2.89371 0.599999
      vertex 44.3467 2.17151 0.599999
    endloop
  endfacet
  facet normal 0 0 1
    outer loop
      vertex 50.891 3.33185 0.599999
      vertex 44.2925 3.06926 0.599999
      vertex 44.3054 2.89371 0.599999
    endloop
  endfacet
  facet normal -0 0 1
    outer loop
      vertex 27.2714 6.42427 0.599999
      vertex 44.2925 3.06926 0.599999
      vertex 48.8516 10.7012 0.599999
    endloop
  endfacet
  facet normal 0 0 1
    outer loop
      vertex 33.6002 0 0.599999
      vertex 27 0 0.599999
      vertex 33.5957 -0.547852 0.599999
    endloop
  endfacet
  facet normal 0 0 1
    outer loop
      vertex 44.2925 3.06926 0.599999
      vertex 27.2714 6.42427 0.599999
      vertex 33.5859 0.947357 0.599999
    endloop
  endfacet
  facet normal 0 0 1
    outer loop
      vertex 49.6022 -10.5514 0.599999
      vertex 48.8516 -10.7012 0.599999
      vertex 49.489 -10.6168 0.599999
    endloop
  endfacet
  facet normal 0 0 1
    outer loop
      vertex 49.489 -10.6168 0.599999
      vertex 48.8516 -10.7012 0.599999
      vertex 49.3681 -10.667 0.599999
    endloop
  endfacet
  facet normal 0 0 1
    outer loop
      vertex 49.3681 -10.667 0.599999
      vertex 48.8516 -10.7012 0.599999
      vertex 49.2418 -10.7009 0.599999
    endloop
  endfacet
  facet normal 0 0 1
    outer loop
      vertex 49.2418 -10.7009 0.599999
      vertex 48.8516 -10.7012 0.599999
      vertex 49.1122 -10.7181 0.599999
    endloop
  endfacet
  facet normal 0 0 1
    outer loop
      vertex 49.1122 -10.7181 0.599999
      vertex 48.8516 -10.7012 0.599999
      vertex 48.9813 -10.7182 0.599999
    endloop
  endfacet
  facet normal 0 0 1
    outer loop
      vertex 27.2714 -6.42427 0.599999
      vertex 44.2925 -3.06926 0.599999
      vertex 33.5859 -0.947357 0.599999
    endloop
  endfacet
  facet normal 0 0 1
    outer loop
      vertex 44.2925 -3.06926 0.599999
      vertex 27.2714 -6.42427 0.599999
      vertex 48.8516 -10.7012 0.599999
    endloop
  endfacet
  facet normal -0 0 1
    outer loop
      vertex 26.9964 -0.44072 0.599999
      vertex 33.5957 -0.547852 0.599999
      vertex 27 0 0.599999
    endloop
  endfacet
  facet normal 0 0 1
    outer loop
      vertex 33.5957 -0.547852 0.599999
      vertex 26.9964 -0.44072 0.599999
      vertex 33.5859 -0.947357 0.599999
    endloop
  endfacet
  facet normal 0 0 1
    outer loop
      vertex 27.0241 6.34053 0.599999
      vertex 27.2714 6.42427 0.599999
      vertex 27.145 6.3905 0.599999
    endloop
  endfacet
  facet normal -0 0 1
    outer loop
      vertex 26.9856 -0.879517 0.599999
      vertex 33.5859 -0.947357 0.599999
      vertex 26.9964 -0.44072 0.599999
    endloop
  endfacet
  facet normal 0 0 1
    outer loop
      vertex 26.4833 5.25694 0.599999
      vertex 27.2714 6.42427 0.599999
      vertex 27.0241 6.34053 0.599999
    endloop
  endfacet
  facet normal 0 0 1
    outer loop
      vertex 26.9676 -1.32072 0.599999
      vertex 33.5859 -0.947357 0.599999
      vertex 26.9856 -0.879517 0.599999
    endloop
  endfacet
  facet normal 0 0 1
    outer loop
      vertex 26.9426 -1.75908 0.599999
      vertex 33.5859 -0.947357 0.599999
      vertex 26.9676 -1.32072 0.599999
    endloop
  endfacet
  facet normal 0 0 1
    outer loop
      vertex 26.9103 -2.1987 0.599999
      vertex 33.5859 -0.947357 0.599999
      vertex 26.9426 -1.75908 0.599999
    endloop
  endfacet
  facet normal 0 0 1
    outer loop
      vertex 26.8708 -2.63751 0.599999
      vertex 33.5859 -0.947357 0.599999
      vertex 26.9103 -2.1987 0.599999
    endloop
  endfacet
  facet normal 0 0 1
    outer loop
      vertex 26.8244 -3.07436 0.599999
      vertex 33.5859 -0.947357 0.599999
      vertex 26.8708 -2.63751 0.599999
    endloop
  endfacet
  facet normal 0 0 1
    outer loop
      vertex 26.7706 -3.5117 0.599999
      vertex 33.5859 -0.947357 0.599999
      vertex 26.8244 -3.07436 0.599999
    endloop
  endfacet
  facet normal 0 0 1
    outer loop
      vertex 33.5859 -0.947357 0.599999
      vertex 26.7706 -3.5117 0.599999
      vertex 27.2714 -6.42427 0.599999
    endloop
  endfacet
  facet normal -0 0 1
    outer loop
      vertex 26.7098 -3.94768 0.599999
      vertex 27.2714 -6.42427 0.599999
      vertex 26.7706 -3.5117 0.599999
    endloop
  endfacet
  facet normal -0 0 1
    outer loop
      vertex 26.6418 -4.38295 0.599999
      vertex 27.2714 -6.42427 0.599999
      vertex 26.7098 -3.94768 0.599999
    endloop
  endfacet
  facet normal -0 0 1
    outer loop
      vertex 26.5668 -4.81685 0.599999
      vertex 27.2714 -6.42427 0.599999
      vertex 26.6418 -4.38295 0.599999
    endloop
  endfacet
  facet normal -0 0 1
    outer loop
      vertex 26.4833 -5.25694 0.599999
      vertex 27.2714 -6.42427 0.599999
      vertex 26.5668 -4.81685 0.599999
    endloop
  endfacet
  facet normal 0 0 1
    outer loop
      vertex 27.2714 -6.42427 0.599999
      vertex 26.4833 -5.25694 0.599999
      vertex 27.1527 -6.39308 0.599999
    endloop
  endfacet
  facet normal 0 0 1
    outer loop
      vertex 27.1527 -6.39308 0.599999
      vertex 26.4833 -5.25694 0.599999
      vertex 27.0314 -6.3441 0.599999
    endloop
  endfacet
  facet normal 0 0 1
    outer loop
      vertex 27.0314 -6.3441 0.599999
      vertex 26.4833 -5.25694 0.599999
      vertex 26.9176 -6.27969 0.599999
    endloop
  endfacet
  facet normal 0 0 1
    outer loop
      vertex 26.9176 -6.27969 0.599999
      vertex 26.4833 -5.25694 0.599999
      vertex 26.8131 -6.20099 0.599999
    endloop
  endfacet
  facet normal 0 0 1
    outer loop
      vertex 26.8131 -6.20099 0.599999
      vertex 26.4833 -5.25694 0.599999
      vertex 26.7198 -6.10931 0.599999
    endloop
  endfacet
  facet normal 0 0 1
    outer loop
      vertex 26.7198 -6.10931 0.599999
      vertex 26.4833 -5.25694 0.599999
      vertex 26.6393 -6.00624 0.599999
    endloop
  endfacet
  facet normal 0 0 1
    outer loop
      vertex 26.6393 -6.00624 0.599999
      vertex 26.4833 -5.25694 0.599999
      vertex 26.5729 -5.89355 0.599999
    endloop
  endfacet
  facet normal 0 0 1
    outer loop
      vertex 26.5729 -5.89355 0.599999
      vertex 26.4833 -5.25694 0.599999
      vertex 26.5217 -5.77315 0.599999
    endloop
  endfacet
  facet normal 0 0 1
    outer loop
      vertex 26.5217 -5.77315 0.599999
      vertex 26.4833 -5.25694 0.599999
      vertex 26.4868 -5.64711 0.599999
    endloop
  endfacet
  facet normal 0 0 1
    outer loop
      vertex 26.4833 -5.25694 0.599999
      vertex 26.4686 -5.51758 0.599999
      vertex 26.4868 -5.64711 0.599999
    endloop
  endfacet
  facet normal 0 -0 1
    outer loop
      vertex 26.4686 -5.51758 0.599999
      vertex 26.4833 -5.25694 0.599999
      vertex 26.4674 -5.38676 0.599999
    endloop
  endfacet
  facet normal 0 0 1
    outer loop
      vertex 26.9964 0.44072 0.599999
      vertex 33.5957 0.547852 0.599999
      vertex 33.5859 0.947357 0.599999
    endloop
  endfacet
  facet normal 0 0 1
    outer loop
      vertex 26.9964 0.44072 0.599999
      vertex 33.5859 0.947357 0.599999
      vertex 27.2714 6.42427 0.599999
    endloop
  endfacet
  facet normal 0 0 1
    outer loop
      vertex 33.5957 0.547852 0.599999
      vertex 27 0 0.599999
      vertex 33.6002 0 0.599999
    endloop
  endfacet
  facet normal 0.131562 -0.991308 0
    outer loop
      vertex 49.1122 -10.7181 0
      vertex 49.2418 -10.7009 0.599999
      vertex 49.1122 -10.7181 0.599999
    endloop
  endfacet
  facet normal 0.131562 -0.991308 0
    outer loop
      vertex 49.2418 -10.7009 0.599999
      vertex 49.1122 -10.7181 0
      vertex 49.2418 -10.7009 0
    endloop
  endfacet
  facet normal 0.259233 -0.965815 0
    outer loop
      vertex 49.2418 -10.7009 0
      vertex 49.3681 -10.667 0.599999
      vertex 49.2418 -10.7009 0.599999
    endloop
  endfacet
  facet normal 0.259233 -0.965815 0
    outer loop
      vertex 49.3681 -10.667 0.599999
      vertex 49.2418 -10.7009 0
      vertex 49.3681 -10.667 0
    endloop
  endfacet
  facet normal 0.383476 -0.923551 0
    outer loop
      vertex 49.3681 -10.667 0
      vertex 49.489 -10.6168 0.599999
      vertex 49.3681 -10.667 0.599999
    endloop
  endfacet
  facet normal 0.383476 -0.923551 0
    outer loop
      vertex 49.489 -10.6168 0.599999
      vertex 49.3681 -10.667 0
      vertex 49.489 -10.6168 0
    endloop
  endfacet
  facet normal 0.500252 -0.86588 0
    outer loop
      vertex 49.489 -10.6168 0
      vertex 49.6022 -10.5514 0.599999
      vertex 49.489 -10.6168 0.599999
    endloop
  endfacet
  facet normal 0.500252 -0.86588 0
    outer loop
      vertex 49.6022 -10.5514 0.599999
      vertex 49.489 -10.6168 0
      vertex 49.6022 -10.5514 0
    endloop
  endfacet
  facet normal 0.609858 -0.79251 0
    outer loop
      vertex 49.6022 -10.5514 0
      vertex 49.7059 -10.4716 0.599999
      vertex 49.6022 -10.5514 0.599999
    endloop
  endfacet
  facet normal 0.609858 -0.79251 0
    outer loop
      vertex 49.7059 -10.4716 0.599999
      vertex 49.6022 -10.5514 0
      vertex 49.7059 -10.4716 0
    endloop
  endfacet
  facet normal 0.707107 -0.707107 0
    outer loop
      vertex 49.7059 -10.4716 0.599999
      vertex 49.7984 -10.3791 0
      vertex 49.7984 -10.3791 0.599999
    endloop
  endfacet
  facet normal 0.707107 -0.707107 0
    outer loop
      vertex 49.7984 -10.3791 0
      vertex 49.7059 -10.4716 0.599999
      vertex 49.7059 -10.4716 0
    endloop
  endfacet
  facet normal 0.793902 -0.608046 0
    outer loop
      vertex 49.7984 -10.3791 0.599999
      vertex 49.8779 -10.2753 0
      vertex 49.8779 -10.2753 0.599999
    endloop
  endfacet
  facet normal 0.793902 -0.608046 0
    outer loop
      vertex 49.8779 -10.2753 0
      vertex 49.7984 -10.3791 0.599999
      vertex 49.7984 -10.3791 0
    endloop
  endfacet
  facet normal 0.866592 -0.499017 0
    outer loop
      vertex 49.8779 -10.2753 0.599999
      vertex 49.9432 -10.1619 0
      vertex 49.9432 -10.1619 0.599999
    endloop
  endfacet
  facet normal 0.866592 -0.499017 0
    outer loop
      vertex 49.9432 -10.1619 0
      vertex 49.8779 -10.2753 0.599999
      vertex 49.8779 -10.2753 0
    endloop
  endfacet
  facet normal 0.92398 -0.382442 0
    outer loop
      vertex 49.9432 -10.1619 0.599999
      vertex 49.9932 -10.0411 0
      vertex 49.9932 -10.0411 0.599999
    endloop
  endfacet
  facet normal 0.92398 -0.382442 0
    outer loop
      vertex 49.9932 -10.0411 0
      vertex 49.9432 -10.1619 0.599999
      vertex 49.9432 -10.1619 0
    endloop
  endfacet
  facet normal 0.9672 -0.254015 0
    outer loop
      vertex 49.9932 -10.0411 0.599999
      vertex 50.0285 -9.90669 0
      vertex 50.0285 -9.90669 0.599999
    endloop
  endfacet
  facet normal 0.9672 -0.254015 0
    outer loop
      vertex 50.0285 -9.90669 0
      vertex 49.9932 -10.0411 0.599999
      vertex 49.9932 -10.0411 0
    endloop
  endfacet
  facet normal 0.982464 -0.186454 0
    outer loop
      vertex 50.0285 -9.90669 0.599999
      vertex 50.1805 -9.10577 0
      vertex 50.1805 -9.10577 0.599999
    endloop
  endfacet
  facet normal 0.982464 -0.186454 0
    outer loop
      vertex 50.1805 -9.10577 0
      vertex 50.0285 -9.90669 0.599999
      vertex 50.0285 -9.90669 0
    endloop
  endfacet
  facet normal 0.984085 -0.177699 0
    outer loop
      vertex 50.1805 -9.10577 0.599999
      vertex 50.1834 -9.08971 0
      vertex 50.1834 -9.08971 0.599999
    endloop
  endfacet
  facet normal 0.984085 -0.177699 0
    outer loop
      vertex 50.1834 -9.08971 0
      vertex 50.1805 -9.10577 0.599999
      vertex 50.1805 -9.10577 0
    endloop
  endfacet
  facet normal 0.985378 -0.170383 0
    outer loop
      vertex 50.1834 -9.08971 0.599999
      vertex 50.3223 -8.28641 0
      vertex 50.3223 -8.28641 0.599999
    endloop
  endfacet
  facet normal 0.985378 -0.170383 0
    outer loop
      vertex 50.3223 -8.28641 0
      vertex 50.1834 -9.08971 0.599999
      vertex 50.1834 -9.08971 0
    endloop
  endfacet
  facet normal 0.987194 -0.159522 0
    outer loop
      vertex 50.3223 -8.28641 0.599999
      vertex 50.3249 -8.27032 0
      vertex 50.3249 -8.27032 0.599999
    endloop
  endfacet
  facet normal 0.987194 -0.159522 0
    outer loop
      vertex 50.3249 -8.27032 0
      vertex 50.3223 -8.28641 0.599999
      vertex 50.3223 -8.28641 0
    endloop
  endfacet
  facet normal 0.988021 -0.154319 0
    outer loop
      vertex 50.3249 -8.27032 0.599999
      vertex 50.4507 -7.46489 0
      vertex 50.4507 -7.46489 0.599999
    endloop
  endfacet
  facet normal 0.988021 -0.154319 0
    outer loop
      vertex 50.4507 -7.46489 0
      vertex 50.3249 -8.27032 0.599999
      vertex 50.3249 -8.27032 0
    endloop
  endfacet
  facet normal 0.989084 -0.14735 0
    outer loop
      vertex 50.4507 -7.46489 0.599999
      vertex 50.4531 -7.44878 0
      vertex 50.4531 -7.44878 0.599999
    endloop
  endfacet
  facet normal 0.989084 -0.14735 0
    outer loop
      vertex 50.4531 -7.44878 0
      vertex 50.4507 -7.46489 0.599999
      vertex 50.4507 -7.46489 0
    endloop
  endfacet
  facet normal 0.990415 -0.138125 0
    outer loop
      vertex 50.4531 -7.44878 0.599999
      vertex 50.5657 -6.64139 0
      vertex 50.5657 -6.64139 0.599999
    endloop
  endfacet
  facet normal 0.990415 -0.138125 0
    outer loop
      vertex 50.5657 -6.64139 0
      vertex 50.4531 -7.44878 0.599999
      vertex 50.4531 -7.44878 0
    endloop
  endfacet
  facet normal 0.991692 -0.128632 0
    outer loop
      vertex 50.5657 -6.64139 0.599999
      vertex 50.5678 -6.6252 0
      vertex 50.5678 -6.6252 0.599999
    endloop
  endfacet
  facet normal 0.991692 -0.128632 0
    outer loop
      vertex 50.5678 -6.6252 0
      vertex 50.5657 -6.64139 0.599999
      vertex 50.5657 -6.64139 0
    endloop
  endfacet
  facet normal 0.992539 -0.121931 0
    outer loop
      vertex 50.5678 -6.6252 0.599999
      vertex 50.6672 -5.81607 0
      vertex 50.6672 -5.81607 0.599999
    endloop
  endfacet
  facet normal 0.992539 -0.121931 0
    outer loop
      vertex 50.6672 -5.81607 0
      vertex 50.5678 -6.6252 0.599999
      vertex 50.5678 -6.6252 0
    endloop
  endfacet
  facet normal 0.993167 -0.116699 0
    outer loop
      vertex 50.6672 -5.81607 0.599999
      vertex 50.6691 -5.7999 0
      vertex 50.6691 -5.7999 0.599999
    endloop
  endfacet
  facet normal 0.993167 -0.116699 0
    outer loop
      vertex 50.6691 -5.7999 0
      vertex 50.6672 -5.81607 0.599999
      vertex 50.6672 -5.81607 0
    endloop
  endfacet
  facet normal 0.994394 -0.105741 0
    outer loop
      vertex 50.6691 -5.7999 0.599999
      vertex 50.7553 -4.98927 0
      vertex 50.7553 -4.98927 0.599999
    endloop
  endfacet
  facet normal 0.994394 -0.105741 0
    outer loop
      vertex 50.7553 -4.98927 0
      vertex 50.6691 -5.7999 0.599999
      vertex 50.6691 -5.7999 0
    endloop
  endfacet
  facet normal 0.995188 -0.0979877 0
    outer loop
      vertex 50.7553 -4.98927 0.599999
      vertex 50.7569 -4.97302 0
      vertex 50.7569 -4.97302 0.599999
    endloop
  endfacet
  facet normal 0.995188 -0.0979877 0
    outer loop
      vertex 50.7569 -4.97302 0
      vertex 50.7553 -4.98927 0.599999
      vertex 50.7553 -4.98927 0
    endloop
  endfacet
  facet normal 0.995983 -0.089548 0
    outer loop
      vertex 50.7569 -4.97302 0.599999
      vertex 50.8299 -4.16109 0
      vertex 50.8299 -4.16109 0.599999
    endloop
  endfacet
  facet normal 0.995983 -0.089548 0
    outer loop
      vertex 50.8299 -4.16109 0
      vertex 50.7569 -4.97302 0.599999
      vertex 50.7569 -4.97302 0
    endloop
  endfacet
  facet normal 0.996305 -0.0858883 0
    outer loop
      vertex 50.8299 -4.16109 0.599999
      vertex 50.8313 -4.14485 0
      vertex 50.8313 -4.14485 0.599999
    endloop
  endfacet
  facet normal 0.996305 -0.0858883 0
    outer loop
      vertex 50.8313 -4.14485 0
      vertex 50.8299 -4.16109 0.599999
      vertex 50.8299 -4.16109 0
    endloop
  endfacet
  facet normal 0.997315 -0.0732346 0
    outer loop
      vertex 50.8313 -4.14485 0.599999
      vertex 50.891 -3.33185 0
      vertex 50.891 -3.33185 0.599999
    endloop
  endfacet
  facet normal 0.997315 -0.0732346 0
    outer loop
      vertex 50.891 -3.33185 0
      vertex 50.8313 -4.14485 0.599999
      vertex 50.8313 -4.14485 0
    endloop
  endfacet
  facet normal 0.997722 -0.0674551 0
    outer loop
      vertex 50.891 -3.33185 0.599999
      vertex 50.8921 -3.31558 0
      vertex 50.8921 -3.31558 0.599999
    endloop
  endfacet
  facet normal 0.997722 -0.0674551 0
    outer loop
      vertex 50.8921 -3.31558 0
      vertex 50.891 -3.33185 0.599999
      vertex 50.891 -3.33185 0
    endloop
  endfacet
  facet normal 0.998372 -0.05704 0
    outer loop
      vertex 50.8921 -3.31558 0.599999
      vertex 50.9386 -2.50169 0
      vertex 50.9386 -2.50169 0.599999
    endloop
  endfacet
  facet normal 0.998372 -0.05704 0
    outer loop
      vertex 50.9386 -2.50169 0
      vertex 50.8921 -3.31558 0.599999
      vertex 50.8921 -3.31558 0
    endloop
  endfacet
  facet normal 0.998792 -0.0491411 0
    outer loop
      vertex 50.9386 -2.50169 0.599999
      vertex 50.9394 -2.48543 0
      vertex 50.9394 -2.48543 0.599999
    endloop
  endfacet
  facet normal 0.998792 -0.0491411 0
    outer loop
      vertex 50.9394 -2.48543 0
      vertex 50.9386 -2.50169 0.599999
      vertex 50.9386 -2.50169 0
    endloop
  endfacet
  facet normal 0.99917 -0.0407259 0
    outer loop
      vertex 50.9394 -2.48543 0.599999
      vertex 50.9726 -1.6709 0
      vertex 50.9726 -1.6709 0.599999
    endloop
  endfacet
  facet normal 0.99917 -0.0407259 0
    outer loop
      vertex 50.9726 -1.6709 0
      vertex 50.9394 -2.48543 0.599999
      vertex 50.9394 -2.48543 0
    endloop
  endfacet
  facet normal 0.999532 -0.0306042 0
    outer loop
      vertex 50.9726 -1.6709 0.599999
      vertex 50.9731 -1.65457 0
      vertex 50.9731 -1.65457 0.599999
    endloop
  endfacet
  facet normal 0.999532 -0.0306042 0
    outer loop
      vertex 50.9731 -1.65457 0
      vertex 50.9726 -1.6709 0.599999
      vertex 50.9726 -1.6709 0
    endloop
  endfacet
  facet normal 0.999702 -0.0244112 0
    outer loop
      vertex 50.9731 -1.65457 0.599999
      vertex 50.993 -0.839615 0
      vertex 50.993 -0.839615 0.599999
    endloop
  endfacet
  facet normal 0.999702 -0.0244112 0
    outer loop
      vertex 50.993 -0.839615 0
      vertex 50.9731 -1.65457 0.599999
      vertex 50.9731 -1.65457 0
    endloop
  endfacet
  facet normal 0.99983 -0.0184233 0
    outer loop
      vertex 50.993 -0.839615 0.599999
      vertex 50.9933 -0.823334 0
      vertex 50.9933 -0.823334 0.599999
    endloop
  endfacet
  facet normal 0.99983 -0.0184233 0
    outer loop
      vertex 50.9933 -0.823334 0
      vertex 50.993 -0.839615 0.599999
      vertex 50.993 -0.839615 0
    endloop
  endfacet
  facet normal 0.999966 -0.00821886 0
    outer loop
      vertex 50.9933 -0.823334 0.599999
      vertex 51 -0.00816345 0
      vertex 51 -0.00816345 0.599999
    endloop
  endfacet
  facet normal 0.999966 -0.00821886 0
    outer loop
      vertex 51 -0.00816345 0
      vertex 50.9933 -0.823334 0.599999
      vertex 50.9933 -0.823334 0
    endloop
  endfacet
  facet normal 1 -0 0
    outer loop
      vertex 51 -0.00816345 0.599999
      vertex 51 0.00816345 0
      vertex 51 0.00816345 0.599999
    endloop
  endfacet
  facet normal 1 0 0
    outer loop
      vertex 51 0.00816345 0
      vertex 51 -0.00816345 0.599999
      vertex 51 -0.00816345 0
    endloop
  endfacet
  facet normal 0.999966 0.00821886 0
    outer loop
      vertex 51 0.00816345 0.599999
      vertex 50.9933 0.823334 0
      vertex 50.9933 0.823334 0.599999
    endloop
  endfacet
  facet normal 0.999966 0.00821886 0
    outer loop
      vertex 50.9933 0.823334 0
      vertex 51 0.00816345 0.599999
      vertex 51 0.00816345 0
    endloop
  endfacet
  facet normal 0.99983 0.0184233 0
    outer loop
      vertex 50.9933 0.823334 0.599999
      vertex 50.993 0.839615 0
      vertex 50.993 0.839615 0.599999
    endloop
  endfacet
  facet normal 0.99983 0.0184233 0
    outer loop
      vertex 50.993 0.839615 0
      vertex 50.9933 0.823334 0.599999
      vertex 50.9933 0.823334 0
    endloop
  endfacet
  facet normal 0.999702 0.0244112 0
    outer loop
      vertex 50.993 0.839615 0.599999
      vertex 50.9731 1.65457 0
      vertex 50.9731 1.65457 0.599999
    endloop
  endfacet
  facet normal 0.999702 0.0244112 0
    outer loop
      vertex 50.9731 1.65457 0
      vertex 50.993 0.839615 0.599999
      vertex 50.993 0.839615 0
    endloop
  endfacet
  facet normal 0.999532 0.0306042 0
    outer loop
      vertex 50.9731 1.65457 0.599999
      vertex 50.9726 1.6709 0
      vertex 50.9726 1.6709 0.599999
    endloop
  endfacet
  facet normal 0.999532 0.0306042 0
    outer loop
      vertex 50.9726 1.6709 0
      vertex 50.9731 1.65457 0.599999
      vertex 50.9731 1.65457 0
    endloop
  endfacet
  facet normal 0.99917 0.0407259 0
    outer loop
      vertex 50.9726 1.6709 0.599999
      vertex 50.9394 2.48543 0
      vertex 50.9394 2.48543 0.599999
    endloop
  endfacet
  facet normal 0.99917 0.0407259 0
    outer loop
      vertex 50.9394 2.48543 0
      vertex 50.9726 1.6709 0.599999
      vertex 50.9726 1.6709 0
    endloop
  endfacet
  facet normal 0.998792 0.0491411 0
    outer loop
      vertex 50.9394 2.48543 0.599999
      vertex 50.9386 2.50169 0
      vertex 50.9386 2.50169 0.599999
    endloop
  endfacet
  facet normal 0.998792 0.0491411 0
    outer loop
      vertex 50.9386 2.50169 0
      vertex 50.9394 2.48543 0.599999
      vertex 50.9394 2.48543 0
    endloop
  endfacet
  facet normal 0.998372 0.05704 0
    outer loop
      vertex 50.9386 2.50169 0.599999
      vertex 50.8921 3.31558 0
      vertex 50.8921 3.31558 0.599999
    endloop
  endfacet
  facet normal 0.998372 0.05704 0
    outer loop
      vertex 50.8921 3.31558 0
      vertex 50.9386 2.50169 0.599999
      vertex 50.9386 2.50169 0
    endloop
  endfacet
  facet normal 0.997722 0.0674551 0
    outer loop
      vertex 50.8921 3.31558 0.599999
      vertex 50.891 3.33185 0
      vertex 50.891 3.33185 0.599999
    endloop
  endfacet
  facet normal 0.997722 0.0674551 0
    outer loop
      vertex 50.891 3.33185 0
      vertex 50.8921 3.31558 0.599999
      vertex 50.8921 3.31558 0
    endloop
  endfacet
  facet normal 0.997315 0.0732346 0
    outer loop
      vertex 50.891 3.33185 0.599999
      vertex 50.8313 4.14485 0
      vertex 50.8313 4.14485 0.599999
    endloop
  endfacet
  facet normal 0.997315 0.0732346 0
    outer loop
      vertex 50.8313 4.14485 0
      vertex 50.891 3.33185 0.599999
      vertex 50.891 3.33185 0
    endloop
  endfacet
  facet normal 0.996305 0.0858883 0
    outer loop
      vertex 50.8313 4.14485 0.599999
      vertex 50.8299 4.16109 0
      vertex 50.8299 4.16109 0.599999
    endloop
  endfacet
  facet normal 0.996305 0.0858883 0
    outer loop
      vertex 50.8299 4.16109 0
      vertex 50.8313 4.14485 0.599999
      vertex 50.8313 4.14485 0
    endloop
  endfacet
  facet normal 0.995983 0.089548 0
    outer loop
      vertex 50.8299 4.16109 0.599999
      vertex 50.7569 4.97302 0
      vertex 50.7569 4.97302 0.599999
    endloop
  endfacet
  facet normal 0.995983 0.089548 0
    outer loop
      vertex 50.7569 4.97302 0
      vertex 50.8299 4.16109 0.599999
      vertex 50.8299 4.16109 0
    endloop
  endfacet
  facet normal 0.995188 0.0979877 0
    outer loop
      vertex 50.7569 4.97302 0.599999
      vertex 50.7553 4.98927 0
      vertex 50.7553 4.98927 0.599999
    endloop
  endfacet
  facet normal 0.995188 0.0979877 0
    outer loop
      vertex 50.7553 4.98927 0
      vertex 50.7569 4.97302 0.599999
      vertex 50.7569 4.97302 0
    endloop
  endfacet
  facet normal 0.994394 0.105741 0
    outer loop
      vertex 50.7553 4.98927 0.599999
      vertex 50.6691 5.7999 0
      vertex 50.6691 5.7999 0.599999
    endloop
  endfacet
  facet normal 0.994394 0.105741 0
    outer loop
      vertex 50.6691 5.7999 0
      vertex 50.7553 4.98927 0.599999
      vertex 50.7553 4.98927 0
    endloop
  endfacet
  facet normal 0.993167 0.116699 0
    outer loop
      vertex 50.6691 5.7999 0.599999
      vertex 50.6672 5.81607 0
      vertex 50.6672 5.81607 0.599999
    endloop
  endfacet
  facet normal 0.993167 0.116699 0
    outer loop
      vertex 50.6672 5.81607 0
      vertex 50.6691 5.7999 0.599999
      vertex 50.6691 5.7999 0
    endloop
  endfacet
  facet normal 0.992539 0.121931 0
    outer loop
      vertex 50.6672 5.81607 0.599999
      vertex 50.5678 6.6252 0
      vertex 50.5678 6.6252 0.599999
    endloop
  endfacet
  facet normal 0.992539 0.121931 0
    outer loop
      vertex 50.5678 6.6252 0
      vertex 50.6672 5.81607 0.599999
      vertex 50.6672 5.81607 0
    endloop
  endfacet
  facet normal 0.991692 0.128632 0
    outer loop
      vertex 50.5678 6.6252 0.599999
      vertex 50.5657 6.64139 0
      vertex 50.5657 6.64139 0.599999
    endloop
  endfacet
  facet normal 0.991692 0.128632 0
    outer loop
      vertex 50.5657 6.64139 0
      vertex 50.5678 6.6252 0.599999
      vertex 50.5678 6.6252 0
    endloop
  endfacet
  facet normal 0.990415 0.138125 0
    outer loop
      vertex 50.5657 6.64139 0.599999
      vertex 50.4531 7.44878 0
      vertex 50.4531 7.44878 0.599999
    endloop
  endfacet
  facet normal 0.990415 0.138125 0
    outer loop
      vertex 50.4531 7.44878 0
      vertex 50.5657 6.64139 0.599999
      vertex 50.5657 6.64139 0
    endloop
  endfacet
  facet normal 0.989084 0.14735 0
    outer loop
      vertex 50.4531 7.44878 0.599999
      vertex 50.4507 7.46489 0
      vertex 50.4507 7.46489 0.599999
    endloop
  endfacet
  facet normal 0.989084 0.14735 0
    outer loop
      vertex 50.4507 7.46489 0
      vertex 50.4531 7.44878 0.599999
      vertex 50.4531 7.44878 0
    endloop
  endfacet
  facet normal 0.988021 0.154319 0
    outer loop
      vertex 50.4507 7.46489 0.599999
      vertex 50.3249 8.27032 0
      vertex 50.3249 8.27032 0.599999
    endloop
  endfacet
  facet normal 0.988021 0.154319 0
    outer loop
      vertex 50.3249 8.27032 0
      vertex 50.4507 7.46489 0.599999
      vertex 50.4507 7.46489 0
    endloop
  endfacet
  facet normal 0.987194 0.159522 0
    outer loop
      vertex 50.3249 8.27032 0.599999
      vertex 50.3223 8.28641 0
      vertex 50.3223 8.28641 0.599999
    endloop
  endfacet
  facet normal 0.987194 0.159522 0
    outer loop
      vertex 50.3223 8.28641 0
      vertex 50.3249 8.27032 0.599999
      vertex 50.3249 8.27032 0
    endloop
  endfacet
  facet normal 0.985378 0.170383 0
    outer loop
      vertex 50.3223 8.28641 0.599999
      vertex 50.1834 9.08971 0
      vertex 50.1834 9.08971 0.599999
    endloop
  endfacet
  facet normal 0.985378 0.170383 0
    outer loop
      vertex 50.1834 9.08971 0
      vertex 50.3223 8.28641 0.599999
      vertex 50.3223 8.28641 0
    endloop
  endfacet
  facet normal 0.984085 0.177699 0
    outer loop
      vertex 50.1834 9.08971 0.599999
      vertex 50.1805 9.10577 0
      vertex 50.1805 9.10577 0.599999
    endloop
  endfacet
  facet normal 0.984085 0.177699 0
    outer loop
      vertex 50.1805 9.10577 0
      vertex 50.1834 9.08971 0.599999
      vertex 50.1834 9.08971 0
    endloop
  endfacet
  facet normal 0.982464 0.186454 0
    outer loop
      vertex 50.1805 9.10577 0.599999
      vertex 50.0285 9.90669 0
      vertex 50.0285 9.90669 0.599999
    endloop
  endfacet
  facet normal 0.982464 0.186454 0
    outer loop
      vertex 50.0285 9.90669 0
      vertex 50.1805 9.10577 0.599999
      vertex 50.1805 9.10577 0
    endloop
  endfacet
  facet normal 0.968228 0.250068 0
    outer loop
      vertex 50.0285 9.90669 0.599999
      vertex 49.9958 10.0333 0
      vertex 49.9958 10.0333 0.599999
    endloop
  endfacet
  facet normal 0.968228 0.250068 0
    outer loop
      vertex 49.9958 10.0333 0
      vertex 50.0285 9.90669 0.599999
      vertex 50.0285 9.90669 0
    endloop
  endfacet
  facet normal 0.927206 0.374552 0
    outer loop
      vertex 49.9958 10.0333 0.599999
      vertex 49.9468 10.1546 0
      vertex 49.9468 10.1546 0.599999
    endloop
  endfacet
  facet normal 0.927206 0.374552 0
    outer loop
      vertex 49.9468 10.1546 0
      vertex 49.9958 10.0333 0.599999
      vertex 49.9958 10.0333 0
    endloop
  endfacet
  facet normal 0.870492 0.492183 0
    outer loop
      vertex 49.9468 10.1546 0.599999
      vertex 49.8824 10.2685 0
      vertex 49.8824 10.2685 0.599999
    endloop
  endfacet
  facet normal 0.870492 0.492183 0
    outer loop
      vertex 49.8824 10.2685 0
      vertex 49.9468 10.1546 0.599999
      vertex 49.9468 10.1546 0
    endloop
  endfacet
  facet normal 0.798529 0.601956 0
    outer loop
      vertex 49.8824 10.2685 0.599999
      vertex 49.8037 10.3729 0
      vertex 49.8037 10.3729 0.599999
    endloop
  endfacet
  facet normal 0.798529 0.601956 0
    outer loop
      vertex 49.8037 10.3729 0
      vertex 49.8824 10.2685 0.599999
      vertex 49.8824 10.2685 0
    endloop
  endfacet
  facet normal 0.713571 0.700583 0
    outer loop
      vertex 49.8037 10.3729 0.599999
      vertex 49.712 10.4663 0
      vertex 49.712 10.4663 0.599999
    endloop
  endfacet
  facet normal 0.713571 0.700583 0
    outer loop
      vertex 49.712 10.4663 0
      vertex 49.8037 10.3729 0.599999
      vertex 49.8037 10.3729 0
    endloop
  endfacet
  facet normal 0.615421 0.788198 -0
    outer loop
      vertex 49.712 10.4663 0
      vertex 49.6089 10.5468 0.599999
      vertex 49.712 10.4663 0.599999
    endloop
  endfacet
  facet normal 0.615421 0.788198 0
    outer loop
      vertex 49.6089 10.5468 0.599999
      vertex 49.712 10.4663 0
      vertex 49.6089 10.5468 0
    endloop
  endfacet
  facet normal 0.507621 0.86158 -0
    outer loop
      vertex 49.6089 10.5468 0
      vertex 49.4962 10.6132 0.599999
      vertex 49.6089 10.5468 0.599999
    endloop
  endfacet
  facet normal 0.507621 0.86158 0
    outer loop
      vertex 49.4962 10.6132 0.599999
      vertex 49.6089 10.5468 0
      vertex 49.4962 10.6132 0
    endloop
  endfacet
  facet normal 0.390962 0.920407 -0
    outer loop
      vertex 49.4962 10.6132 0
      vertex 49.3759 10.6643 0.599999
      vertex 49.4962 10.6132 0.599999
    endloop
  endfacet
  facet normal 0.390962 0.920407 0
    outer loop
      vertex 49.3759 10.6643 0.599999
      vertex 49.4962 10.6132 0
      vertex 49.3759 10.6643 0
    endloop
  endfacet
  facet normal 0.267447 0.963573 -0
    outer loop
      vertex 49.3759 10.6643 0
      vertex 49.2498 10.6993 0.599999
      vertex 49.3759 10.6643 0.599999
    endloop
  endfacet
  facet normal 0.267447 0.963573 0
    outer loop
      vertex 49.2498 10.6993 0.599999
      vertex 49.3759 10.6643 0
      vertex 49.2498 10.6993 0
    endloop
  endfacet
  facet normal 0.139173 0.990268 -0
    outer loop
      vertex 49.2498 10.6993 0
      vertex 49.1203 10.7175 0.599999
      vertex 49.2498 10.6993 0.599999
    endloop
  endfacet
  facet normal 0.139173 0.990268 0
    outer loop
      vertex 49.1203 10.7175 0.599999
      vertex 49.2498 10.6993 0
      vertex 49.1203 10.7175 0
    endloop
  endfacet
  facet normal 0.00917393 0.999958 -0
    outer loop
      vertex 49.1203 10.7175 0
      vertex 48.9895 10.7187 0.599999
      vertex 49.1203 10.7175 0.599999
    endloop
  endfacet
  facet normal 0.00917393 0.999958 0
    outer loop
      vertex 48.9895 10.7187 0.599999
      vertex 49.1203 10.7175 0
      vertex 48.9895 10.7187 0
    endloop
  endfacet
  facet normal -0.125894 0.992044 0
    outer loop
      vertex 48.9895 10.7187 0
      vertex 48.8516 10.7012 0.599999
      vertex 48.9895 10.7187 0.599999
    endloop
  endfacet
  facet normal -0.125894 0.992044 0
    outer loop
      vertex 48.8516 10.7012 0.599999
      vertex 48.9895 10.7187 0
      vertex 48.8516 10.7012 0
    endloop
  endfacet
  facet normal -0.194406 0.980921 0
    outer loop
      vertex 48.8516 10.7012 0
      vertex 27.2714 6.42427 0.599999
      vertex 48.8516 10.7012 0.599999
    endloop
  endfacet
  facet normal -0.194406 0.980921 0
    outer loop
      vertex 27.2714 6.42427 0.599999
      vertex 48.8516 10.7012 0
      vertex 27.2714 6.42427 0
    endloop
  endfacet
  facet normal -0.258115 0.966114 0
    outer loop
      vertex 27.2714 6.42427 0
      vertex 27.145 6.3905 0.599999
      vertex 27.2714 6.42427 0.599999
    endloop
  endfacet
  facet normal -0.258115 0.966114 0
    outer loop
      vertex 27.145 6.3905 0.599999
      vertex 27.2714 6.42427 0
      vertex 27.145 6.3905 0
    endloop
  endfacet
  facet normal -0.381976 0.924172 0
    outer loop
      vertex 27.145 6.3905 0
      vertex 27.0241 6.34053 0.599999
      vertex 27.145 6.3905 0.599999
    endloop
  endfacet
  facet normal -0.381976 0.924172 0
    outer loop
      vertex 27.0241 6.34053 0.599999
      vertex 27.145 6.3905 0
      vertex 27.0241 6.34053 0
    endloop
  endfacet
  facet normal -0.499462 0.866336 0
    outer loop
      vertex 27.0241 6.34053 0
      vertex 26.9108 6.27521 0.599999
      vertex 27.0241 6.34053 0.599999
    endloop
  endfacet
  facet normal -0.499462 0.866336 0
    outer loop
      vertex 26.9108 6.27521 0.599999
      vertex 27.0241 6.34053 0
      vertex 26.9108 6.27521 0
    endloop
  endfacet
  facet normal -0.608335 0.79368 0
    outer loop
      vertex 26.9108 6.27521 0
      vertex 26.807 6.19565 0.599999
      vertex 26.9108 6.27521 0.599999
    endloop
  endfacet
  facet normal -0.608335 0.79368 0
    outer loop
      vertex 26.807 6.19565 0.599999
      vertex 26.9108 6.27521 0
      vertex 26.807 6.19565 0
    endloop
  endfacet
  facet normal -0.706495 0.707718 0
    outer loop
      vertex 26.807 6.19565 0
      vertex 26.7144 6.10321 0.599999
      vertex 26.807 6.19565 0.599999
    endloop
  endfacet
  facet normal -0.706495 0.707718 0
    outer loop
      vertex 26.7144 6.10321 0.599999
      vertex 26.807 6.19565 0
      vertex 26.7144 6.10321 0
    endloop
  endfacet
  facet normal -0.792908 0.609341 0
    outer loop
      vertex 26.6347 5.9995 0
      vertex 26.7144 6.10321 0.599999
      vertex 26.7144 6.10321 0
    endloop
  endfacet
  facet normal -0.792908 0.609341 0
    outer loop
      vertex 26.7144 6.10321 0.599999
      vertex 26.6347 5.9995 0
      vertex 26.6347 5.9995 0.599999
    endloop
  endfacet
  facet normal -0.865625 0.500693 0
    outer loop
      vertex 26.5692 5.88626 0
      vertex 26.6347 5.9995 0.599999
      vertex 26.6347 5.9995 0
    endloop
  endfacet
  facet normal -0.865625 0.500693 0
    outer loop
      vertex 26.6347 5.9995 0.599999
      vertex 26.5692 5.88626 0
      vertex 26.5692 5.88626 0.599999
    endloop
  endfacet
  facet normal -0.923732 0.38304 0
    outer loop
      vertex 26.5191 5.76544 0
      vertex 26.5692 5.88626 0.599999
      vertex 26.5692 5.88626 0
    endloop
  endfacet
  facet normal -0.923732 0.38304 0
    outer loop
      vertex 26.5692 5.88626 0.599999
      vertex 26.5191 5.76544 0
      vertex 26.5191 5.76544 0.599999
    endloop
  endfacet
  facet normal -0.965639 0.259888 0
    outer loop
      vertex 26.4851 5.63911 0
      vertex 26.5191 5.76544 0.599999
      vertex 26.5191 5.76544 0
    endloop
  endfacet
  facet normal -0.965639 0.259888 0
    outer loop
      vertex 26.5191 5.76544 0.599999
      vertex 26.4851 5.63911 0
      vertex 26.4851 5.63911 0.599999
    endloop
  endfacet
  facet normal -0.991415 0.130751 0
    outer loop
      vertex 26.468 5.50945 0
      vertex 26.4851 5.63911 0.599999
      vertex 26.4851 5.63911 0
    endloop
  endfacet
  facet normal -0.991415 0.130751 0
    outer loop
      vertex 26.4851 5.63911 0.599999
      vertex 26.468 5.50945 0
      vertex 26.468 5.50945 0.599999
    endloop
  endfacet
  facet normal -1 0.000764409 0
    outer loop
      vertex 26.4679 5.37863 0
      vertex 26.468 5.50945 0.599999
      vertex 26.468 5.50945 0
    endloop
  endfacet
  facet normal -1 0.000764409 0
    outer loop
      vertex 26.468 5.50945 0.599999
      vertex 26.4679 5.37863 0
      vertex 26.4679 5.37863 0.599999
    endloop
  endfacet
  facet normal -0.992087 -0.12555 0
    outer loop
      vertex 26.4833 5.25694 0
      vertex 26.4679 5.37863 0.599999
      vertex 26.4679 5.37863 0
    endloop
  endfacet
  facet normal -0.992087 -0.12555 0
    outer loop
      vertex 26.4679 5.37863 0.599999
      vertex 26.4833 5.25694 0
      vertex 26.4833 5.25694 0.599999
    endloop
  endfacet
  facet normal -0.982472 -0.186408 0
    outer loop
      vertex 26.5668 4.81685 0
      vertex 26.4833 5.25694 0.599999
      vertex 26.4833 5.25694 0
    endloop
  endfacet
  facet normal -0.982472 -0.186408 0
    outer loop
      vertex 26.4833 5.25694 0.599999
      vertex 26.5668 4.81685 0
      vertex 26.5668 4.81685 0.599999
    endloop
  endfacet
  facet normal -0.985388 -0.170325 0
    outer loop
      vertex 26.6418 4.38295 0
      vertex 26.5668 4.81685 0.599999
      vertex 26.5668 4.81685 0
    endloop
  endfacet
  facet normal -0.985388 -0.170325 0
    outer loop
      vertex 26.5668 4.81685 0.599999
      vertex 26.6418 4.38295 0
      vertex 26.6418 4.38295 0.599999
    endloop
  endfacet
  facet normal -0.988016 -0.154353 0
    outer loop
      vertex 26.7098 3.94768 0
      vertex 26.6418 4.38295 0.599999
      vertex 26.6418 4.38295 0
    endloop
  endfacet
  facet normal -0.988016 -0.154353 0
    outer loop
      vertex 26.6418 4.38295 0.599999
      vertex 26.7098 3.94768 0
      vertex 26.7098 3.94768 0.599999
    endloop
  endfacet
  facet normal -0.990416 -0.138119 0
    outer loop
      vertex 26.7706 3.5117 0
      vertex 26.7098 3.94768 0.599999
      vertex 26.7098 3.94768 0
    endloop
  endfacet
  facet normal -0.990416 -0.138119 0
    outer loop
      vertex 26.7098 3.94768 0.599999
      vertex 26.7706 3.5117 0
      vertex 26.7706 3.5117 0.599999
    endloop
  endfacet
  facet normal -0.992518 -0.122096 0
    outer loop
      vertex 26.8244 3.07436 0
      vertex 26.7706 3.5117 0.599999
      vertex 26.7706 3.5117 0
    endloop
  endfacet
  facet normal -0.992518 -0.122096 0
    outer loop
      vertex 26.7706 3.5117 0.599999
      vertex 26.8244 3.07436 0
      vertex 26.8244 3.07436 0.599999
    endloop
  endfacet
  facet normal -0.994406 -0.105621 0
    outer loop
      vertex 26.8708 2.63751 0
      vertex 26.8244 3.07436 0.599999
      vertex 26.8244 3.07436 0
    endloop
  endfacet
  facet normal -0.994406 -0.105621 0
    outer loop
      vertex 26.8244 3.07436 0.599999
      vertex 26.8708 2.63751 0
      vertex 26.8708 2.63751 0.599999
    endloop
  endfacet
  facet normal -0.995973 -0.0896537 0
    outer loop
      vertex 26.9103 2.1987 0
      vertex 26.8708 2.63751 0.599999
      vertex 26.8708 2.63751 0
    endloop
  endfacet
  facet normal -0.995973 -0.0896537 0
    outer loop
      vertex 26.8708 2.63751 0.599999
      vertex 26.9103 2.1987 0
      vertex 26.9103 2.1987 0.599999
    endloop
  endfacet
  facet normal -0.997312 -0.073275 0
    outer loop
      vertex 26.9426 1.75908 0
      vertex 26.9103 2.1987 0.599999
      vertex 26.9103 2.1987 0
    endloop
  endfacet
  facet normal -0.997312 -0.073275 0
    outer loop
      vertex 26.9103 2.1987 0.599999
      vertex 26.9426 1.75908 0
      vertex 26.9426 1.75908 0.599999
    endloop
  endfacet
  facet normal -0.998378 -0.0569382 0
    outer loop
      vertex 26.9676 1.32072 0
      vertex 26.9426 1.75908 0.599999
      vertex 26.9426 1.75908 0
    endloop
  endfacet
  facet normal -0.998378 -0.0569382 0
    outer loop
      vertex 26.9426 1.75908 0.599999
      vertex 26.9676 1.32072 0
      vertex 26.9676 1.32072 0.599999
    endloop
  endfacet
  facet normal -0.999169 -0.0407636 0
    outer loop
      vertex 26.9856 0.879517 0
      vertex 26.9676 1.32072 0.599999
      vertex 26.9676 1.32072 0
    endloop
  endfacet
  facet normal -0.999169 -0.0407636 0
    outer loop
      vertex 26.9676 1.32072 0.599999
      vertex 26.9856 0.879517 0
      vertex 26.9856 0.879517 0.599999
    endloop
  endfacet
  facet normal -0.999697 -0.0246053 0
    outer loop
      vertex 26.9964 0.44072 0
      vertex 26.9856 0.879517 0.599999
      vertex 26.9856 0.879517 0
    endloop
  endfacet
  facet normal -0.999697 -0.0246053 0
    outer loop
      vertex 26.9856 0.879517 0.599999
      vertex 26.9964 0.44072 0
      vertex 26.9964 0.44072 0.599999
    endloop
  endfacet
  facet normal -0.999967 -0.00816818 0
    outer loop
      vertex 27 0 0
      vertex 26.9964 0.44072 0.599999
      vertex 26.9964 0.44072 0
    endloop
  endfacet
  facet normal -0.999967 -0.00816818 0
    outer loop
      vertex 26.9964 0.44072 0.599999
      vertex 27 0 0
      vertex 27 0 0.599999
    endloop
  endfacet
  facet normal -0.999967 0.00816818 0
    outer loop
      vertex 26.9964 -0.44072 0
      vertex 27 0 0.599999
      vertex 27 0 0
    endloop
  endfacet
  facet normal -0.999967 0.00816818 0
    outer loop
      vertex 27 0 0.599999
      vertex 26.9964 -0.44072 0
      vertex 26.9964 -0.44072 0.599999
    endloop
  endfacet
  facet normal -0.999697 0.0246053 0
    outer loop
      vertex 26.9856 -0.879517 0
      vertex 26.9964 -0.44072 0.599999
      vertex 26.9964 -0.44072 0
    endloop
  endfacet
  facet normal -0.999697 0.0246053 0
    outer loop
      vertex 26.9964 -0.44072 0.599999
      vertex 26.9856 -0.879517 0
      vertex 26.9856 -0.879517 0.599999
    endloop
  endfacet
  facet normal -0.999169 0.0407636 0
    outer loop
      vertex 26.9676 -1.32072 0
      vertex 26.9856 -0.879517 0.599999
      vertex 26.9856 -0.879517 0
    endloop
  endfacet
  facet normal -0.999169 0.0407636 0
    outer loop
      vertex 26.9856 -0.879517 0.599999
      vertex 26.9676 -1.32072 0
      vertex 26.9676 -1.32072 0.599999
    endloop
  endfacet
  facet normal -0.998378 0.0569382 0
    outer loop
      vertex 26.9426 -1.75908 0
      vertex 26.9676 -1.32072 0.599999
      vertex 26.9676 -1.32072 0
    endloop
  endfacet
  facet normal -0.998378 0.0569382 0
    outer loop
      vertex 26.9676 -1.32072 0.599999
      vertex 26.9426 -1.75908 0
      vertex 26.9426 -1.75908 0.599999
    endloop
  endfacet
  facet normal -0.997312 0.073275 0
    outer loop
      vertex 26.9103 -2.1987 0
      vertex 26.9426 -1.75908 0.599999
      vertex 26.9426 -1.75908 0
    endloop
  endfacet
  facet normal -0.997312 0.073275 0
    outer loop
      vertex 26.9426 -1.75908 0.599999
      vertex 26.9103 -2.1987 0
      vertex 26.9103 -2.1987 0.599999
    endloop
  endfacet
  facet normal -0.995973 0.0896537 0
    outer loop
      vertex 26.8708 -2.63751 0
      vertex 26.9103 -2.1987 0.599999
      vertex 26.9103 -2.1987 0
    endloop
  endfacet
  facet normal -0.995973 0.0896537 0
    outer loop
      vertex 26.9103 -2.1987 0.599999
      vertex 26.8708 -2.63751 0
      vertex 26.8708 -2.63751 0.599999
    endloop
  endfacet
  facet normal -0.994406 0.105621 0
    outer loop
      vertex 26.8244 -3.07436 0
      vertex 26.8708 -2.63751 0.599999
      vertex 26.8708 -2.63751 0
    endloop
  endfacet
  facet normal -0.994406 0.105621 0
    outer loop
      vertex 26.8708 -2.63751 0.599999
      vertex 26.8244 -3.07436 0
      vertex 26.8244 -3.07436 0.599999
    endloop
  endfacet
  facet normal -0.992518 0.122096 0
    outer loop
      vertex 26.7706 -3.5117 0
      vertex 26.8244 -3.07436 0.599999
      vertex 26.8244 -3.07436 0
    endloop
  endfacet
  facet normal -0.992518 0.122096 0
    outer loop
      vertex 26.8244 -3.07436 0.599999
      vertex 26.7706 -3.5117 0
      vertex 26.7706 -3.5117 0.599999
    endloop
  endfacet
  facet normal -0.990416 0.138119 0
    outer loop
      vertex 26.7098 -3.94768 0
      vertex 26.7706 -3.5117 0.599999
      vertex 26.7706 -3.5117 0
    endloop
  endfacet
  facet normal -0.990416 0.138119 0
    outer loop
      vertex 26.7706 -3.5117 0.599999
      vertex 26.7098 -3.94768 0
      vertex 26.7098 -3.94768 0.599999
    endloop
  endfacet
  facet normal -0.988016 0.154353 0
    outer loop
      vertex 26.6418 -4.38295 0
      vertex 26.7098 -3.94768 0.599999
      vertex 26.7098 -3.94768 0
    endloop
  endfacet
  facet normal -0.988016 0.154353 0
    outer loop
      vertex 26.7098 -3.94768 0.599999
      vertex 26.6418 -4.38295 0
      vertex 26.6418 -4.38295 0.599999
    endloop
  endfacet
  facet normal -0.985388 0.170325 0
    outer loop
      vertex 26.5668 -4.81685 0
      vertex 26.6418 -4.38295 0.599999
      vertex 26.6418 -4.38295 0
    endloop
  endfacet
  facet normal -0.985388 0.170325 0
    outer loop
      vertex 26.6418 -4.38295 0.599999
      vertex 26.5668 -4.81685 0
      vertex 26.5668 -4.81685 0.599999
    endloop
  endfacet
  facet normal -0.982472 0.186408 0
    outer loop
      vertex 26.4833 -5.25694 0
      vertex 26.5668 -4.81685 0.599999
      vertex 26.5668 -4.81685 0
    endloop
  endfacet
  facet normal -0.982472 0.186408 0
    outer loop
      vertex 26.5668 -4.81685 0.599999
      vertex 26.4833 -5.25694 0
      vertex 26.4833 -5.25694 0.599999
    endloop
  endfacet
  facet normal -0.992583 0.121569 0
    outer loop
      vertex 26.4674 -5.38676 0
      vertex 26.4833 -5.25694 0.599999
      vertex 26.4833 -5.25694 0
    endloop
  endfacet
  facet normal -0.992583 0.121569 0
    outer loop
      vertex 26.4833 -5.25694 0.599999
      vertex 26.4674 -5.38676 0
      vertex 26.4674 -5.38676 0.599999
    endloop
  endfacet
  facet normal -0.999958 -0.00917252 0
    outer loop
      vertex 26.4686 -5.51758 0
      vertex 26.4674 -5.38676 0.599999
      vertex 26.4674 -5.38676 0
    endloop
  endfacet
  facet normal -0.999958 -0.00917252 0
    outer loop
      vertex 26.4674 -5.38676 0.599999
      vertex 26.4686 -5.51758 0
      vertex 26.4686 -5.51758 0.599999
    endloop
  endfacet
  facet normal -0.990273 -0.139141 0
    outer loop
      vertex 26.4868 -5.64711 0
      vertex 26.4686 -5.51758 0.599999
      vertex 26.4686 -5.51758 0
    endloop
  endfacet
  facet normal -0.990273 -0.139141 0
    outer loop
      vertex 26.4686 -5.51758 0.599999
      vertex 26.4868 -5.64711 0
      vertex 26.4868 -5.64711 0.599999
    endloop
  endfacet
  facet normal -0.963737 -0.266855 0
    outer loop
      vertex 26.5217 -5.77315 0
      vertex 26.4868 -5.64711 0.599999
      vertex 26.4868 -5.64711 0
    endloop
  endfacet
  facet normal -0.963737 -0.266855 0
    outer loop
      vertex 26.4868 -5.64711 0.599999
      vertex 26.5217 -5.77315 0
      vertex 26.5217 -5.77315 0.599999
    endloop
  endfacet
  facet normal -0.920248 -0.391335 0
    outer loop
      vertex 26.5729 -5.89355 0
      vertex 26.5217 -5.77315 0.599999
      vertex 26.5217 -5.77315 0
    endloop
  endfacet
  facet normal -0.920248 -0.391335 0
    outer loop
      vertex 26.5217 -5.77315 0.599999
      vertex 26.5729 -5.89355 0
      vertex 26.5729 -5.89355 0.599999
    endloop
  endfacet
  facet normal -0.861561 -0.507655 0
    outer loop
      vertex 26.6393 -6.00624 0
      vertex 26.5729 -5.89355 0.599999
      vertex 26.5729 -5.89355 0
    endloop
  endfacet
  facet normal -0.861561 -0.507655 0
    outer loop
      vertex 26.5729 -5.89355 0.599999
      vertex 26.6393 -6.00624 0
      vertex 26.6393 -6.00624 0.599999
    endloop
  endfacet
  facet normal -0.788111 -0.615533 0
    outer loop
      vertex 26.7198 -6.10931 0
      vertex 26.6393 -6.00624 0.599999
      vertex 26.6393 -6.00624 0
    endloop
  endfacet
  facet normal -0.788111 -0.615533 0
    outer loop
      vertex 26.6393 -6.00624 0.599999
      vertex 26.7198 -6.10931 0
      vertex 26.7198 -6.10931 0.599999
    endloop
  endfacet
  facet normal -0.700887 -0.713272 0
    outer loop
      vertex 26.7198 -6.10931 0
      vertex 26.8131 -6.20099 0.599999
      vertex 26.7198 -6.10931 0.599999
    endloop
  endfacet
  facet normal -0.700887 -0.713272 -0
    outer loop
      vertex 26.8131 -6.20099 0.599999
      vertex 26.7198 -6.10931 0
      vertex 26.8131 -6.20099 0
    endloop
  endfacet
  facet normal -0.601589 -0.798806 0
    outer loop
      vertex 26.8131 -6.20099 0
      vertex 26.9176 -6.27969 0.599999
      vertex 26.8131 -6.20099 0.599999
    endloop
  endfacet
  facet normal -0.601589 -0.798806 -0
    outer loop
      vertex 26.9176 -6.27969 0.599999
      vertex 26.8131 -6.20099 0
      vertex 26.9176 -6.27969 0
    endloop
  endfacet
  facet normal -0.492569 -0.870274 0
    outer loop
      vertex 26.9176 -6.27969 0
      vertex 27.0314 -6.3441 0.599999
      vertex 26.9176 -6.27969 0.599999
    endloop
  endfacet
  facet normal -0.492569 -0.870274 -0
    outer loop
      vertex 27.0314 -6.3441 0.599999
      vertex 26.9176 -6.27969 0
      vertex 27.0314 -6.3441 0
    endloop
  endfacet
  facet normal -0.37442 -0.927259 0
    outer loop
      vertex 27.0314 -6.3441 0
      vertex 27.1527 -6.39308 0.599999
      vertex 27.0314 -6.3441 0.599999
    endloop
  endfacet
  facet normal -0.37442 -0.927259 -0
    outer loop
      vertex 27.1527 -6.39308 0.599999
      vertex 27.0314 -6.3441 0
      vertex 27.1527 -6.39308 0
    endloop
  endfacet
  facet normal -0.254136 -0.967168 0
    outer loop
      vertex 27.1527 -6.39308 0
      vertex 27.2714 -6.42427 0.599999
      vertex 27.1527 -6.39308 0.599999
    endloop
  endfacet
  facet normal -0.254136 -0.967168 -0
    outer loop
      vertex 27.2714 -6.42427 0.599999
      vertex 27.1527 -6.39308 0
      vertex 27.2714 -6.42427 0
    endloop
  endfacet
  facet normal -0.194406 -0.980921 0
    outer loop
      vertex 27.2714 -6.42427 0
      vertex 48.8516 -10.7012 0.599999
      vertex 27.2714 -6.42427 0.599999
    endloop
  endfacet
  facet normal -0.194406 -0.980921 -0
    outer loop
      vertex 48.8516 -10.7012 0.599999
      vertex 27.2714 -6.42427 0
      vertex 48.8516 -10.7012 0
    endloop
  endfacet
  facet normal -0.12996 -0.991519 0
    outer loop
      vertex 48.8516 -10.7012 0
      vertex 48.9813 -10.7182 0.599999
      vertex 48.8516 -10.7012 0.599999
    endloop
  endfacet
  facet normal -0.12996 -0.991519 -0
    outer loop
      vertex 48.9813 -10.7182 0.599999
      vertex 48.8516 -10.7012 0
      vertex 48.9813 -10.7182 0
    endloop
  endfacet
  facet normal 0.000763942 -1 0
    outer loop
      vertex 48.9813 -10.7182 0
      vertex 49.1122 -10.7181 0.599999
      vertex 48.9813 -10.7182 0.599999
    endloop
  endfacet
  facet normal 0.000763942 -1 0
    outer loop
      vertex 49.1122 -10.7181 0.599999
      vertex 48.9813 -10.7182 0
      vertex 49.1122 -10.7181 0
    endloop
  endfacet
  facet normal 0 0 1
    outer loop
      vertex 33.6002 0 4.2
      vertex 44.3998 0 4.2
      vertex 44.3939 0.723434 4.2
    endloop
  endfacet
  facet normal -0 0 1
    outer loop
      vertex 33.5859 0.947357 4.2
      vertex 44.3939 0.723434 4.2
      vertex 44.3762 1.44711 4.2
    endloop
  endfacet
  facet normal 0 0 1
    outer loop
      vertex 44.3998 0 4.2
      vertex 33.6002 0 4.2
      vertex 44.3939 -0.723434 4.2
    endloop
  endfacet
  facet normal 0 0 1
    outer loop
      vertex 33.5859 0.947357 4.2
      vertex 44.3762 1.44711 4.2
      vertex 44.3467 2.17151 4.2
    endloop
  endfacet
  facet normal -0 0 1
    outer loop
      vertex 33.5957 -0.547852 4.2
      vertex 44.3939 -0.723434 4.2
      vertex 33.6002 0 4.2
    endloop
  endfacet
  facet normal 0 0 1
    outer loop
      vertex 33.5859 0.947357 4.2
      vertex 44.3467 2.17151 4.2
      vertex 44.3054 2.89371 4.2
    endloop
  endfacet
  facet normal 0 0 1
    outer loop
      vertex 33.5859 -0.947357 4.2
      vertex 44.3939 -0.723434 4.2
      vertex 33.5957 -0.547852 4.2
    endloop
  endfacet
  facet normal 0 0 1
    outer loop
      vertex 33.5859 0.947357 4.2
      vertex 44.3054 2.89371 4.2
      vertex 44.2925 3.06926 4.2
    endloop
  endfacet
  facet normal 0 0 1
    outer loop
      vertex 44.3939 -0.723434 4.2
      vertex 33.5859 -0.947357 4.2
      vertex 44.3762 -1.44711 4.2
    endloop
  endfacet
  facet normal 0 0 1
    outer loop
      vertex 44.3762 -1.44711 4.2
      vertex 33.5859 -0.947357 4.2
      vertex 44.3467 -2.17151 4.2
    endloop
  endfacet
  facet normal 0 0 1
    outer loop
      vertex 44.3939 0.723434 4.2
      vertex 33.5957 0.547852 4.2
      vertex 33.6002 0 4.2
    endloop
  endfacet
  facet normal 0 0 1
    outer loop
      vertex 44.3939 0.723434 4.2
      vertex 33.5859 0.947357 4.2
      vertex 33.5957 0.547852 4.2
    endloop
  endfacet
  facet normal 0 0 1
    outer loop
      vertex 44.3467 -2.17151 4.2
      vertex 33.5859 -0.947357 4.2
      vertex 44.3054 -2.89371 4.2
    endloop
  endfacet
  facet normal 0 0 1
    outer loop
      vertex 44.3054 -2.89371 4.2
      vertex 33.5859 -0.947357 4.2
      vertex 44.2925 -3.06926 4.2
    endloop
  endfacet
  facet normal 0.998369 -0.0570931 0
    outer loop
      vertex 44.3054 -2.89371 4.2
      vertex 44.3467 -2.17151 0.599999
      vertex 44.3467 -2.17151 4.2
    endloop
  endfacet
  facet normal 0.998369 -0.0570931 0
    outer loop
      vertex 44.3467 -2.17151 0.599999
      vertex 44.3054 -2.89371 4.2
      vertex 44.3054 -2.89371 0.599999
    endloop
  endfacet
  facet normal 0.999172 -0.0406896 0
    outer loop
      vertex 44.3467 -2.17151 4.2
      vertex 44.3762 -1.44711 0.599999
      vertex 44.3762 -1.44711 4.2
    endloop
  endfacet
  facet normal 0.999172 -0.0406896 0
    outer loop
      vertex 44.3762 -1.44711 0.599999
      vertex 44.3467 -2.17151 4.2
      vertex 44.3467 -2.17151 0.599999
    endloop
  endfacet
  facet normal 0.999701 -0.0244511 0
    outer loop
      vertex 44.3762 -1.44711 4.2
      vertex 44.3939 -0.723434 0.599999
      vertex 44.3939 -0.723434 4.2
    endloop
  endfacet
  facet normal 0.999701 -0.0244511 0
    outer loop
      vertex 44.3939 -0.723434 0.599999
      vertex 44.3762 -1.44711 4.2
      vertex 44.3762 -1.44711 0.599999
    endloop
  endfacet
  facet normal 0.999967 -0.00815528 0
    outer loop
      vertex 44.3939 -0.723434 4.2
      vertex 44.3998 0 0.599999
      vertex 44.3998 0 4.2
    endloop
  endfacet
  facet normal 0.999967 -0.00815528 0
    outer loop
      vertex 44.3998 0 0.599999
      vertex 44.3939 -0.723434 4.2
      vertex 44.3939 -0.723434 0.599999
    endloop
  endfacet
  facet normal 0.999967 0.00815528 0
    outer loop
      vertex 44.3998 0 4.2
      vertex 44.3939 0.723434 0.599999
      vertex 44.3939 0.723434 4.2
    endloop
  endfacet
  facet normal 0.999967 0.00815528 0
    outer loop
      vertex 44.3939 0.723434 0.599999
      vertex 44.3998 0 4.2
      vertex 44.3998 0 0.599999
    endloop
  endfacet
  facet normal 0.999701 0.0244511 0
    outer loop
      vertex 44.3939 0.723434 4.2
      vertex 44.3762 1.44711 0.599999
      vertex 44.3762 1.44711 4.2
    endloop
  endfacet
  facet normal 0.999701 0.0244511 0
    outer loop
      vertex 44.3762 1.44711 0.599999
      vertex 44.3939 0.723434 4.2
      vertex 44.3939 0.723434 0.599999
    endloop
  endfacet
  facet normal 0.999172 0.0406896 0
    outer loop
      vertex 44.3762 1.44711 4.2
      vertex 44.3467 2.17151 0.599999
      vertex 44.3467 2.17151 4.2
    endloop
  endfacet
  facet normal 0.999172 0.0406896 0
    outer loop
      vertex 44.3467 2.17151 0.599999
      vertex 44.3762 1.44711 4.2
      vertex 44.3762 1.44711 0.599999
    endloop
  endfacet
  facet normal 0.998369 0.0570931 0
    outer loop
      vertex 44.3467 2.17151 4.2
      vertex 44.3054 2.89371 0.599999
      vertex 44.3054 2.89371 4.2
    endloop
  endfacet
  facet normal 0.998369 0.0570931 0
    outer loop
      vertex 44.3054 2.89371 0.599999
      vertex 44.3467 2.17151 4.2
      vertex 44.3467 2.17151 0.599999
    endloop
  endfacet
  facet normal 0.997311 0.0732857 0
    outer loop
      vertex 44.3054 2.89371 4.2
      vertex 44.2925 3.06926 0.599999
      vertex 44.2925 3.06926 4.2
    endloop
  endfacet
  facet normal 0.997311 0.0732857 0
    outer loop
      vertex 44.2925 3.06926 0.599999
      vertex 44.3054 2.89371 4.2
      vertex 44.3054 2.89371 0.599999
    endloop
  endfacet
  facet normal -0.194405 0.980921 0
    outer loop
      vertex 44.2925 3.06926 0.599999
      vertex 33.5859 0.947357 4.2
      vertex 44.2925 3.06926 4.2
    endloop
  endfacet
  facet normal -0.194405 0.980921 0
    outer loop
      vertex 33.5859 0.947357 4.2
      vertex 44.2925 3.06926 0.599999
      vertex 33.5859 0.947357 0.599999
    endloop
  endfacet
  facet normal -0.999699 -0.024523 0
    outer loop
      vertex 33.5957 0.547852 0.599999
      vertex 33.5859 0.947357 4.2
      vertex 33.5859 0.947357 0.599999
    endloop
  endfacet
  facet normal -0.999699 -0.024523 0
    outer loop
      vertex 33.5859 0.947357 4.2
      vertex 33.5957 0.547852 0.599999
      vertex 33.5957 0.547852 4.2
    endloop
  endfacet
  facet normal -0.999966 -0.00821362 0
    outer loop
      vertex 33.6002 0 0.599999
      vertex 33.5957 0.547852 4.2
      vertex 33.5957 0.547852 0.599999
    endloop
  endfacet
  facet normal -0.999966 -0.00821362 0
    outer loop
      vertex 33.5957 0.547852 4.2
      vertex 33.6002 0 0.599999
      vertex 33.6002 0 4.2
    endloop
  endfacet
  facet normal -0.999966 0.00821362 0
    outer loop
      vertex 33.5957 -0.547852 0.599999
      vertex 33.6002 0 4.2
      vertex 33.6002 0 0.599999
    endloop
  endfacet
  facet normal -0.999966 0.00821362 0
    outer loop
      vertex 33.6002 0 4.2
      vertex 33.5957 -0.547852 0.599999
      vertex 33.5957 -0.547852 4.2
    endloop
  endfacet
  facet normal -0.999699 0.024523 0
    outer loop
      vertex 33.5859 -0.947357 0.599999
      vertex 33.5957 -0.547852 4.2
      vertex 33.5957 -0.547852 0.599999
    endloop
  endfacet
  facet normal -0.999699 0.024523 0
    outer loop
      vertex 33.5957 -0.547852 4.2
      vertex 33.5859 -0.947357 0.599999
      vertex 33.5859 -0.947357 4.2
    endloop
  endfacet
  facet normal -0.194405 -0.980921 0
    outer loop
      vertex 33.5859 -0.947357 0.599999
      vertex 44.2925 -3.06926 4.2
      vertex 33.5859 -0.947357 4.2
    endloop
  endfacet
  facet normal -0.194405 -0.980921 -0
    outer loop
      vertex 44.2925 -3.06926 4.2
      vertex 33.5859 -0.947357 0.599999
      vertex 44.2925 -3.06926 0.599999
    endloop
  endfacet
  facet normal 0.997311 -0.0732857 0
    outer loop
      vertex 44.2925 -3.06926 4.2
      vertex 44.3054 -2.89371 0.599999
      vertex 44.3054 -2.89371 4.2
    endloop
  endfacet
  facet normal 0.997311 -0.0732857 0
    outer loop
      vertex 44.3054 -2.89371 0.599999
      vertex 44.2925 -3.06926 4.2
      vertex 44.2925 -3.06926 0.599999
    endloop
  endfacet
endsolid OpenSCAD_Model
