solid OpenSCAD_Model
  facet normal 0.0654075 -0.997859 0
    outer loop
      vertex 0 -7 0
      vertex 0.913683 -6.94011 1.795
      vertex 0 -7 1.795
    endloop
  endfacet
  facet normal 0.0654075 -0.997859 0
    outer loop
      vertex 0.913683 -6.94011 1.795
      vertex 0 -7 0
      vertex 0.913683 -6.94011 0
    endloop
  endfacet
  facet normal 0.980786 0.195088 0
    outer loop
      vertex 6.94011 0.913683 1.795
      vertex 6.76148 1.81173 0
      vertex 6.76148 1.81173 1.795
    endloop
  endfacet
  facet normal 0.980786 0.195088 0
    outer loop
      vertex 6.76148 1.81173 0
      vertex 6.94011 0.913683 1.795
      vertex 6.94011 0.913683 0
    endloop
  endfacet
  facet normal 0.997859 0.0654075 0
    outer loop
      vertex 7 0 1.795
      vertex 6.94011 0.913683 0
      vertex 6.94011 0.913683 1.795
    endloop
  endfacet
  facet normal 0.997859 0.0654075 0
    outer loop
      vertex 6.94011 0.913683 0
      vertex 7 0 1.795
      vertex 7 0 0
    endloop
  endfacet
  facet normal 0.831467 -0.555574 0
    outer loop
      vertex 5.55347 -4.26133 1.795
      vertex 6.06218 -3.5 0
      vertex 6.06218 -3.5 1.795
    endloop
  endfacet
  facet normal 0.831467 -0.555574 0
    outer loop
      vertex 6.06218 -3.5 0
      vertex 5.55347 -4.26133 1.795
      vertex 5.55347 -4.26133 0
    endloop
  endfacet
  facet normal 0.997859 -0.0654075 0
    outer loop
      vertex 6.94011 -0.913683 1.795
      vertex 7 0 0
      vertex 7 0 1.795
    endloop
  endfacet
  facet normal 0.997859 -0.0654075 0
    outer loop
      vertex 7 0 0
      vertex 6.94011 -0.913683 1.795
      vertex 6.94011 -0.913683 0
    endloop
  endfacet
  facet normal 0.831467 0.555574 0
    outer loop
      vertex 6.06218 3.5 1.795
      vertex 5.55347 4.26133 0
      vertex 5.55347 4.26133 1.795
    endloop
  endfacet
  facet normal 0.831467 0.555574 0
    outer loop
      vertex 5.55347 4.26133 0
      vertex 6.06218 3.5 1.795
      vertex 6.06218 3.5 0
    endloop
  endfacet
  facet normal 0.751844 0.659341 0
    outer loop
      vertex 5.55347 4.26133 1.795
      vertex 4.94975 4.94975 0
      vertex 4.94975 4.94975 1.795
    endloop
  endfacet
  facet normal 0.751844 0.659341 0
    outer loop
      vertex 4.94975 4.94975 0
      vertex 5.55347 4.26133 1.795
      vertex 5.55347 4.26133 0
    endloop
  endfacet
  facet normal 0.896873 -0.442288 0
    outer loop
      vertex 6.06218 -3.5 1.795
      vertex 6.46716 -2.67878 0
      vertex 6.46716 -2.67878 1.795
    endloop
  endfacet
  facet normal 0.896873 -0.442288 0
    outer loop
      vertex 6.46716 -2.67878 0
      vertex 6.06218 -3.5 1.795
      vertex 6.06218 -3.5 0
    endloop
  endfacet
  facet normal 0.659341 0.751844 -0
    outer loop
      vertex 4.94975 4.94975 0
      vertex 4.26133 5.55347 1.795
      vertex 4.94975 4.94975 1.795
    endloop
  endfacet
  facet normal 0.659341 0.751844 0
    outer loop
      vertex 4.26133 5.55347 1.795
      vertex 4.94975 4.94975 0
      vertex 4.26133 5.55347 0
    endloop
  endfacet
  facet normal 0.442288 -0.896873 0
    outer loop
      vertex 2.67878 -6.46716 0
      vertex 3.5 -6.06218 1.795
      vertex 2.67878 -6.46716 1.795
    endloop
  endfacet
  facet normal 0.442288 -0.896873 0
    outer loop
      vertex 3.5 -6.06218 1.795
      vertex 2.67878 -6.46716 0
      vertex 3.5 -6.06218 0
    endloop
  endfacet
  facet normal -0.659341 0.751844 0
    outer loop
      vertex -4.26133 5.55347 0
      vertex -4.94975 4.94975 1.795
      vertex -4.26133 5.55347 1.795
    endloop
  endfacet
  facet normal -0.659341 0.751844 0
    outer loop
      vertex -4.94975 4.94975 1.795
      vertex -4.26133 5.55347 0
      vertex -4.94975 4.94975 0
    endloop
  endfacet
  facet normal 0.659341 -0.751844 0
    outer loop
      vertex 4.26133 -5.55347 0
      vertex 4.94975 -4.94975 1.795
      vertex 4.26133 -5.55347 1.795
    endloop
  endfacet
  facet normal 0.659341 -0.751844 0
    outer loop
      vertex 4.94975 -4.94975 1.795
      vertex 4.26133 -5.55347 0
      vertex 4.94975 -4.94975 0
    endloop
  endfacet
  facet normal -0.555574 0.831467 0
    outer loop
      vertex -3.5 6.06218 0
      vertex -4.26133 5.55347 1.795
      vertex -3.5 6.06218 1.795
    endloop
  endfacet
  facet normal -0.555574 0.831467 0
    outer loop
      vertex -4.26133 5.55347 1.795
      vertex -3.5 6.06218 0
      vertex -4.26133 5.55347 0
    endloop
  endfacet
  facet normal -0.321436 -0.946931 0
    outer loop
      vertex -2.67878 -6.46716 0
      vertex -1.81173 -6.76148 1.795
      vertex -2.67878 -6.46716 1.795
    endloop
  endfacet
  facet normal -0.321436 -0.946931 -0
    outer loop
      vertex -1.81173 -6.76148 1.795
      vertex -2.67878 -6.46716 0
      vertex -1.81173 -6.76148 0
    endloop
  endfacet
  facet normal -0.997859 0.0654075 0
    outer loop
      vertex -7 0 0
      vertex -6.94011 0.913683 1.795
      vertex -6.94011 0.913683 0
    endloop
  endfacet
  facet normal -0.997859 0.0654075 0
    outer loop
      vertex -6.94011 0.913683 1.795
      vertex -7 0 0
      vertex -7 0 1.795
    endloop
  endfacet
  facet normal 0.442288 0.896873 -0
    outer loop
      vertex 3.5 6.06218 0
      vertex 2.67878 6.46716 1.795
      vertex 3.5 6.06218 1.795
    endloop
  endfacet
  facet normal 0.442288 0.896873 0
    outer loop
      vertex 2.67878 6.46716 1.795
      vertex 3.5 6.06218 0
      vertex 2.67878 6.46716 0
    endloop
  endfacet
  facet normal 0.195088 -0.980786 0
    outer loop
      vertex 0.913683 -6.94011 0
      vertex 1.81173 -6.76148 1.795
      vertex 0.913683 -6.94011 1.795
    endloop
  endfacet
  facet normal 0.195088 -0.980786 0
    outer loop
      vertex 1.81173 -6.76148 1.795
      vertex 0.913683 -6.94011 0
      vertex 1.81173 -6.76148 0
    endloop
  endfacet
  facet normal -0.751844 0.659341 0
    outer loop
      vertex -5.55347 4.26133 0
      vertex -4.94975 4.94975 1.795
      vertex -4.94975 4.94975 0
    endloop
  endfacet
  facet normal -0.751844 0.659341 0
    outer loop
      vertex -4.94975 4.94975 1.795
      vertex -5.55347 4.26133 0
      vertex -5.55347 4.26133 1.795
    endloop
  endfacet
  facet normal 0 0 -1
    outer loop
      vertex 1.75 0 0
      vertex 7 0 0
      vertex 6.94011 -0.913683 0
    endloop
  endfacet
  facet normal 0 0 -1
    outer loop
      vertex 1.73503 -0.22842 0
      vertex 6.94011 -0.913683 0
      vertex 6.76148 -1.81173 0
    endloop
  endfacet
  facet normal 0 0 -1
    outer loop
      vertex 7 0 0
      vertex 1.75 0 0
      vertex 6.94011 0.913683 0
    endloop
  endfacet
  facet normal 0 0 -1
    outer loop
      vertex 1.69037 -0.452933 0
      vertex 6.76148 -1.81173 0
      vertex 6.46716 -2.67878 0
    endloop
  endfacet
  facet normal 0 0 -1
    outer loop
      vertex 1.73503 0.22842 0
      vertex 6.94011 0.913683 0
      vertex 1.75 0 0
    endloop
  endfacet
  facet normal 0 0 -1
    outer loop
      vertex 1.61679 -0.669696 0
      vertex 6.46716 -2.67878 0
      vertex 6.06218 -3.5 0
    endloop
  endfacet
  facet normal -0 0 -1
    outer loop
      vertex 6.94011 0.913683 0
      vertex 1.73503 0.22842 0
      vertex 6.76148 1.81173 0
    endloop
  endfacet
  facet normal 0 0 -1
    outer loop
      vertex 1.51554 -0.875 0
      vertex 6.06218 -3.5 0
      vertex 5.55347 -4.26133 0
    endloop
  endfacet
  facet normal 0 0 -1
    outer loop
      vertex 1.69037 0.452933 0
      vertex 6.76148 1.81173 0
      vertex 1.73503 0.22842 0
    endloop
  endfacet
  facet normal 0 0 -1
    outer loop
      vertex 1.38837 -1.06533 0
      vertex 5.55347 -4.26133 0
      vertex 4.94975 -4.94975 0
    endloop
  endfacet
  facet normal -0 0 -1
    outer loop
      vertex 6.76148 1.81173 0
      vertex 1.69037 0.452933 0
      vertex 6.46716 2.67878 0
    endloop
  endfacet
  facet normal 0 0 -1
    outer loop
      vertex 1.23744 -1.23744 0
      vertex 4.94975 -4.94975 0
      vertex 4.26133 -5.55347 0
    endloop
  endfacet
  facet normal 0 0 -1
    outer loop
      vertex 1.61679 0.669696 0
      vertex 6.46716 2.67878 0
      vertex 1.69037 0.452933 0
    endloop
  endfacet
  facet normal 0 0 -1
    outer loop
      vertex 1.06533 -1.38837 0
      vertex 4.26133 -5.55347 0
      vertex 3.5 -6.06218 0
    endloop
  endfacet
  facet normal -0 0 -1
    outer loop
      vertex 6.46716 2.67878 0
      vertex 1.61679 0.669696 0
      vertex 6.06218 3.5 0
    endloop
  endfacet
  facet normal 0 0 -1
    outer loop
      vertex 0.875 -1.51554 0
      vertex 3.5 -6.06218 0
      vertex 2.67878 -6.46716 0
    endloop
  endfacet
  facet normal 0 0 -1
    outer loop
      vertex 1.51554 0.875 0
      vertex 6.06218 3.5 0
      vertex 1.61679 0.669696 0
    endloop
  endfacet
  facet normal 0 0 -1
    outer loop
      vertex 0.669696 -1.61679 0
      vertex 2.67878 -6.46716 0
      vertex 1.81173 -6.76148 0
    endloop
  endfacet
  facet normal -0 0 -1
    outer loop
      vertex 6.06218 3.5 0
      vertex 1.51554 0.875 0
      vertex 5.55347 4.26133 0
    endloop
  endfacet
  facet normal 0 0 -1
    outer loop
      vertex 1.38837 1.06533 0
      vertex 5.55347 4.26133 0
      vertex 1.51554 0.875 0
    endloop
  endfacet
  facet normal 0 0 -1
    outer loop
      vertex 6.94011 -0.913683 0
      vertex 1.73503 -0.22842 0
      vertex 1.75 0 0
    endloop
  endfacet
  facet normal 0 0 -1
    outer loop
      vertex 6.76148 -1.81173 0
      vertex 1.69037 -0.452933 0
      vertex 1.73503 -0.22842 0
    endloop
  endfacet
  facet normal 0 0 -1
    outer loop
      vertex 6.46716 -2.67878 0
      vertex 1.61679 -0.669696 0
      vertex 1.69037 -0.452933 0
    endloop
  endfacet
  facet normal 0 0 -1
    outer loop
      vertex 6.06218 -3.5 0
      vertex 1.51554 -0.875 0
      vertex 1.61679 -0.669696 0
    endloop
  endfacet
  facet normal 0 0 -1
    outer loop
      vertex 5.55347 -4.26133 0
      vertex 1.38837 -1.06533 0
      vertex 1.51554 -0.875 0
    endloop
  endfacet
  facet normal 0 0 -1
    outer loop
      vertex 4.94975 -4.94975 0
      vertex 1.23744 -1.23744 0
      vertex 1.38837 -1.06533 0
    endloop
  endfacet
  facet normal 0 0 -1
    outer loop
      vertex 4.26133 -5.55347 0
      vertex 1.06533 -1.38837 0
      vertex 1.23744 -1.23744 0
    endloop
  endfacet
  facet normal 0 0 -1
    outer loop
      vertex 0.452933 -1.69037 0
      vertex 1.81173 -6.76148 0
      vertex 0.913683 -6.94011 0
    endloop
  endfacet
  facet normal 0 0 -1
    outer loop
      vertex 3.5 -6.06218 0
      vertex 0.875 -1.51554 0
      vertex 1.06533 -1.38837 0
    endloop
  endfacet
  facet normal 0 0 -1
    outer loop
      vertex 2.67878 -6.46716 0
      vertex 0.669696 -1.61679 0
      vertex 0.875 -1.51554 0
    endloop
  endfacet
  facet normal 0 0 -1
    outer loop
      vertex 1.81173 -6.76148 0
      vertex 0.452933 -1.69037 0
      vertex 0.669696 -1.61679 0
    endloop
  endfacet
  facet normal 0 0 -1
    outer loop
      vertex 0.913683 -6.94011 0
      vertex 0.22842 -1.73503 0
      vertex 0.452933 -1.69037 0
    endloop
  endfacet
  facet normal 0 0 -1
    outer loop
      vertex 0 -7 0
      vertex 0.22842 -1.73503 0
      vertex 0.913683 -6.94011 0
    endloop
  endfacet
  facet normal 0 0 -1
    outer loop
      vertex 0 -7 0
      vertex 0 -1.75 0
      vertex 0.22842 -1.73503 0
    endloop
  endfacet
  facet normal 0 0 -1
    outer loop
      vertex 0 -7 0
      vertex -0.22842 -1.73503 0
      vertex 0 -1.75 0
    endloop
  endfacet
  facet normal 0 0 -1
    outer loop
      vertex -0.913683 -6.94011 0
      vertex -0.22842 -1.73503 0
      vertex 0 -7 0
    endloop
  endfacet
  facet normal -0 0 -1
    outer loop
      vertex -0.22842 -1.73503 0
      vertex -0.913683 -6.94011 0
      vertex -0.452933 -1.69037 0
    endloop
  endfacet
  facet normal 0 0 -1
    outer loop
      vertex -1.81173 -6.76148 0
      vertex -0.452933 -1.69037 0
      vertex -0.913683 -6.94011 0
    endloop
  endfacet
  facet normal -0 0 -1
    outer loop
      vertex -0.452933 -1.69037 0
      vertex -1.81173 -6.76148 0
      vertex -0.669696 -1.61679 0
    endloop
  endfacet
  facet normal 0 0 -1
    outer loop
      vertex -2.67878 -6.46716 0
      vertex -0.669696 -1.61679 0
      vertex -1.81173 -6.76148 0
    endloop
  endfacet
  facet normal -0 0 -1
    outer loop
      vertex -0.669696 -1.61679 0
      vertex -2.67878 -6.46716 0
      vertex -0.875 -1.51554 0
    endloop
  endfacet
  facet normal 0 0 -1
    outer loop
      vertex -3.5 -6.06218 0
      vertex -0.875 -1.51554 0
      vertex -2.67878 -6.46716 0
    endloop
  endfacet
  facet normal -0 0 -1
    outer loop
      vertex -0.875 -1.51554 0
      vertex -3.5 -6.06218 0
      vertex -1.06533 -1.38837 0
    endloop
  endfacet
  facet normal 0 0 -1
    outer loop
      vertex -4.26133 -5.55347 0
      vertex -1.06533 -1.38837 0
      vertex -3.5 -6.06218 0
    endloop
  endfacet
  facet normal -0 0 -1
    outer loop
      vertex -1.06533 -1.38837 0
      vertex -4.26133 -5.55347 0
      vertex -1.23744 -1.23744 0
    endloop
  endfacet
  facet normal 0 0 -1
    outer loop
      vertex -4.94975 -4.94975 0
      vertex -1.23744 -1.23744 0
      vertex -4.26133 -5.55347 0
    endloop
  endfacet
  facet normal 0 0 -1
    outer loop
      vertex -5.55347 -4.26133 0
      vertex -1.38837 -1.06533 0
      vertex -4.94975 -4.94975 0
    endloop
  endfacet
  facet normal -0 0 -1
    outer loop
      vertex -1.23744 -1.23744 0
      vertex -4.94975 -4.94975 0
      vertex -1.38837 -1.06533 0
    endloop
  endfacet
  facet normal -0 0 -1
    outer loop
      vertex 5.55347 4.26133 0
      vertex 1.38837 1.06533 0
      vertex 4.94975 4.94975 0
    endloop
  endfacet
  facet normal 0 0 -1
    outer loop
      vertex 1.23744 1.23744 0
      vertex 4.94975 4.94975 0
      vertex 1.38837 1.06533 0
    endloop
  endfacet
  facet normal -0 0 -1
    outer loop
      vertex 4.94975 4.94975 0
      vertex 1.23744 1.23744 0
      vertex 4.26133 5.55347 0
    endloop
  endfacet
  facet normal 0 0 -1
    outer loop
      vertex 1.06533 1.38837 0
      vertex 4.26133 5.55347 0
      vertex 1.23744 1.23744 0
    endloop
  endfacet
  facet normal -0 0 -1
    outer loop
      vertex 4.26133 5.55347 0
      vertex 1.06533 1.38837 0
      vertex 3.5 6.06218 0
    endloop
  endfacet
  facet normal 0 0 -1
    outer loop
      vertex 0.875 1.51554 0
      vertex 3.5 6.06218 0
      vertex 1.06533 1.38837 0
    endloop
  endfacet
  facet normal -0 0 -1
    outer loop
      vertex 3.5 6.06218 0
      vertex 0.875 1.51554 0
      vertex 2.67878 6.46716 0
    endloop
  endfacet
  facet normal 0 0 -1
    outer loop
      vertex 0.669696 1.61679 0
      vertex 2.67878 6.46716 0
      vertex 0.875 1.51554 0
    endloop
  endfacet
  facet normal -0 0 -1
    outer loop
      vertex 2.67878 6.46716 0
      vertex 0.669696 1.61679 0
      vertex 1.81173 6.76148 0
    endloop
  endfacet
  facet normal 0 0 -1
    outer loop
      vertex 0.452933 1.69037 0
      vertex 1.81173 6.76148 0
      vertex 0.669696 1.61679 0
    endloop
  endfacet
  facet normal -0 0 -1
    outer loop
      vertex 1.81173 6.76148 0
      vertex 0.452933 1.69037 0
      vertex 0.913683 6.94011 0
    endloop
  endfacet
  facet normal 0 0 -1
    outer loop
      vertex 0.22842 1.73503 0
      vertex 0.913683 6.94011 0
      vertex 0.452933 1.69037 0
    endloop
  endfacet
  facet normal 0 0 -1
    outer loop
      vertex 0 1.75 0
      vertex 0.913683 6.94011 0
      vertex 0.22842 1.73503 0
    endloop
  endfacet
  facet normal 0 0 -1
    outer loop
      vertex 0 1.75 0
      vertex 0 7 0
      vertex 0.913683 6.94011 0
    endloop
  endfacet
  facet normal 0 0 -1
    outer loop
      vertex -0.22842 1.73503 0
      vertex 0 7 0
      vertex 0 1.75 0
    endloop
  endfacet
  facet normal 0 0 -1
    outer loop
      vertex -0.913683 6.94011 0
      vertex -0.22842 1.73503 0
      vertex -0.452933 1.69037 0
    endloop
  endfacet
  facet normal 0 0 -1
    outer loop
      vertex -1.81173 6.76148 0
      vertex -0.452933 1.69037 0
      vertex -0.669696 1.61679 0
    endloop
  endfacet
  facet normal 0 0 -1
    outer loop
      vertex -2.67878 6.46716 0
      vertex -0.669696 1.61679 0
      vertex -0.875 1.51554 0
    endloop
  endfacet
  facet normal 0 0 -1
    outer loop
      vertex -0.22842 1.73503 0
      vertex -0.913683 6.94011 0
      vertex 0 7 0
    endloop
  endfacet
  facet normal 0 0 -1
    outer loop
      vertex -3.5 6.06218 0
      vertex -0.875 1.51554 0
      vertex -1.06533 1.38837 0
    endloop
  endfacet
  facet normal 0 0 -1
    outer loop
      vertex -4.26133 5.55347 0
      vertex -1.06533 1.38837 0
      vertex -1.23744 1.23744 0
    endloop
  endfacet
  facet normal 0 0 -1
    outer loop
      vertex -4.94975 4.94975 0
      vertex -1.23744 1.23744 0
      vertex -1.38837 1.06533 0
    endloop
  endfacet
  facet normal 0 0 -1
    outer loop
      vertex -5.55347 4.26133 0
      vertex -1.38837 1.06533 0
      vertex -1.51554 0.875 0
    endloop
  endfacet
  facet normal 0 0 -1
    outer loop
      vertex -6.06218 3.5 0
      vertex -1.51554 0.875 0
      vertex -1.61679 0.669696 0
    endloop
  endfacet
  facet normal 0 0 -1
    outer loop
      vertex -6.46716 2.67878 0
      vertex -1.61679 0.669696 0
      vertex -1.69037 0.452933 0
    endloop
  endfacet
  facet normal 0 0 -1
    outer loop
      vertex -6.76148 1.81173 0
      vertex -1.69037 0.452933 0
      vertex -1.73503 0.22842 0
    endloop
  endfacet
  facet normal 0 0 -1
    outer loop
      vertex -0.452933 1.69037 0
      vertex -1.81173 6.76148 0
      vertex -0.913683 6.94011 0
    endloop
  endfacet
  facet normal 0 0 -1
    outer loop
      vertex -6.94011 0.913683 0
      vertex -1.73503 0.22842 0
      vertex -1.75 0 0
    endloop
  endfacet
  facet normal -0 0 -1
    outer loop
      vertex -1.38837 -1.06533 0
      vertex -5.55347 -4.26133 0
      vertex -1.51554 -0.875 0
    endloop
  endfacet
  facet normal 0 0 -1
    outer loop
      vertex -6.06218 -3.5 0
      vertex -1.51554 -0.875 0
      vertex -5.55347 -4.26133 0
    endloop
  endfacet
  facet normal 0 0 -1
    outer loop
      vertex -0.669696 1.61679 0
      vertex -2.67878 6.46716 0
      vertex -1.81173 6.76148 0
    endloop
  endfacet
  facet normal -0 0 -1
    outer loop
      vertex -1.51554 -0.875 0
      vertex -6.06218 -3.5 0
      vertex -1.61679 -0.669696 0
    endloop
  endfacet
  facet normal 0 0 -1
    outer loop
      vertex -0.875 1.51554 0
      vertex -3.5 6.06218 0
      vertex -2.67878 6.46716 0
    endloop
  endfacet
  facet normal 0 0 -1
    outer loop
      vertex -6.46716 -2.67878 0
      vertex -1.61679 -0.669696 0
      vertex -6.06218 -3.5 0
    endloop
  endfacet
  facet normal 0 0 -1
    outer loop
      vertex -1.06533 1.38837 0
      vertex -4.26133 5.55347 0
      vertex -3.5 6.06218 0
    endloop
  endfacet
  facet normal -0 0 -1
    outer loop
      vertex -1.61679 -0.669696 0
      vertex -6.46716 -2.67878 0
      vertex -1.69037 -0.452933 0
    endloop
  endfacet
  facet normal 0 0 -1
    outer loop
      vertex -1.23744 1.23744 0
      vertex -4.94975 4.94975 0
      vertex -4.26133 5.55347 0
    endloop
  endfacet
  facet normal 0 0 -1
    outer loop
      vertex -6.76148 -1.81173 0
      vertex -1.69037 -0.452933 0
      vertex -6.46716 -2.67878 0
    endloop
  endfacet
  facet normal 0 0 -1
    outer loop
      vertex -1.38837 1.06533 0
      vertex -5.55347 4.26133 0
      vertex -4.94975 4.94975 0
    endloop
  endfacet
  facet normal -0 0 -1
    outer loop
      vertex -1.69037 -0.452933 0
      vertex -6.76148 -1.81173 0
      vertex -1.73503 -0.22842 0
    endloop
  endfacet
  facet normal 0 0 -1
    outer loop
      vertex -1.51554 0.875 0
      vertex -6.06218 3.5 0
      vertex -5.55347 4.26133 0
    endloop
  endfacet
  facet normal 0 0 -1
    outer loop
      vertex -6.94011 -0.913683 0
      vertex -1.73503 -0.22842 0
      vertex -6.76148 -1.81173 0
    endloop
  endfacet
  facet normal 0 0 -1
    outer loop
      vertex -1.61679 0.669696 0
      vertex -6.46716 2.67878 0
      vertex -6.06218 3.5 0
    endloop
  endfacet
  facet normal -0 0 -1
    outer loop
      vertex -1.73503 -0.22842 0
      vertex -6.94011 -0.913683 0
      vertex -1.75 0 0
    endloop
  endfacet
  facet normal 0 0 -1
    outer loop
      vertex -1.69037 0.452933 0
      vertex -6.76148 1.81173 0
      vertex -6.46716 2.67878 0
    endloop
  endfacet
  facet normal 0 0 -1
    outer loop
      vertex -7 0 0
      vertex -1.75 0 0
      vertex -6.94011 -0.913683 0
    endloop
  endfacet
  facet normal 0 0 -1
    outer loop
      vertex -1.73503 0.22842 0
      vertex -6.94011 0.913683 0
      vertex -6.76148 1.81173 0
    endloop
  endfacet
  facet normal 0 0 -1
    outer loop
      vertex -1.75 0 0
      vertex -7 0 0
      vertex -6.94011 0.913683 0
    endloop
  endfacet
  facet normal 0.0654075 0.997859 -0
    outer loop
      vertex 0.913683 6.94011 0
      vertex 0 7 1.795
      vertex 0.913683 6.94011 1.795
    endloop
  endfacet
  facet normal 0.0654075 0.997859 0
    outer loop
      vertex 0 7 1.795
      vertex 0.913683 6.94011 0
      vertex 0 7 0
    endloop
  endfacet
  facet normal -0.831467 -0.555574 0
    outer loop
      vertex -5.55347 -4.26133 0
      vertex -6.06218 -3.5 1.795
      vertex -6.06218 -3.5 0
    endloop
  endfacet
  facet normal -0.831467 -0.555574 0
    outer loop
      vertex -6.06218 -3.5 1.795
      vertex -5.55347 -4.26133 0
      vertex -5.55347 -4.26133 1.795
    endloop
  endfacet
  facet normal -0.442288 0.896873 0
    outer loop
      vertex -2.67878 6.46716 0
      vertex -3.5 6.06218 1.795
      vertex -2.67878 6.46716 1.795
    endloop
  endfacet
  facet normal -0.442288 0.896873 0
    outer loop
      vertex -3.5 6.06218 1.795
      vertex -2.67878 6.46716 0
      vertex -3.5 6.06218 0
    endloop
  endfacet
  facet normal 0.946931 -0.321436 0
    outer loop
      vertex 6.46716 -2.67878 1.795
      vertex 6.76148 -1.81173 0
      vertex 6.76148 -1.81173 1.795
    endloop
  endfacet
  facet normal 0.946931 -0.321436 0
    outer loop
      vertex 6.76148 -1.81173 0
      vertex 6.46716 -2.67878 1.795
      vertex 6.46716 -2.67878 0
    endloop
  endfacet
  facet normal -0.442288 -0.896873 0
    outer loop
      vertex -3.5 -6.06218 0
      vertex -2.67878 -6.46716 1.795
      vertex -3.5 -6.06218 1.795
    endloop
  endfacet
  facet normal -0.442288 -0.896873 -0
    outer loop
      vertex -2.67878 -6.46716 1.795
      vertex -3.5 -6.06218 0
      vertex -2.67878 -6.46716 0
    endloop
  endfacet
  facet normal -0.980786 0.195088 0
    outer loop
      vertex -6.94011 0.913683 0
      vertex -6.76148 1.81173 1.795
      vertex -6.76148 1.81173 0
    endloop
  endfacet
  facet normal -0.980786 0.195088 0
    outer loop
      vertex -6.76148 1.81173 1.795
      vertex -6.94011 0.913683 0
      vertex -6.94011 0.913683 1.795
    endloop
  endfacet
  facet normal -0.659341 -0.751844 0
    outer loop
      vertex -4.94975 -4.94975 0
      vertex -4.26133 -5.55347 1.795
      vertex -4.94975 -4.94975 1.795
    endloop
  endfacet
  facet normal -0.659341 -0.751844 -0
    outer loop
      vertex -4.26133 -5.55347 1.795
      vertex -4.94975 -4.94975 0
      vertex -4.26133 -5.55347 0
    endloop
  endfacet
  facet normal 0.321436 -0.946931 0
    outer loop
      vertex 1.81173 -6.76148 0
      vertex 2.67878 -6.46716 1.795
      vertex 1.81173 -6.76148 1.795
    endloop
  endfacet
  facet normal 0.321436 -0.946931 0
    outer loop
      vertex 2.67878 -6.46716 1.795
      vertex 1.81173 -6.76148 0
      vertex 2.67878 -6.46716 0
    endloop
  endfacet
  facet normal 0 0 1
    outer loop
      vertex 1.75 0 1.795
      vertex 7 0 1.795
      vertex 6.94011 0.913683 1.795
    endloop
  endfacet
  facet normal 0 0 1
    outer loop
      vertex 1.73503 0.22842 1.795
      vertex 6.94011 0.913683 1.795
      vertex 6.76148 1.81173 1.795
    endloop
  endfacet
  facet normal 0 0 1
    outer loop
      vertex 7 0 1.795
      vertex 1.75 0 1.795
      vertex 6.94011 -0.913683 1.795
    endloop
  endfacet
  facet normal 0 0 1
    outer loop
      vertex 1.69037 0.452933 1.795
      vertex 6.76148 1.81173 1.795
      vertex 6.46716 2.67878 1.795
    endloop
  endfacet
  facet normal -0 0 1
    outer loop
      vertex 1.73503 -0.22842 1.795
      vertex 6.94011 -0.913683 1.795
      vertex 1.75 0 1.795
    endloop
  endfacet
  facet normal 0 0 1
    outer loop
      vertex 1.61679 0.669696 1.795
      vertex 6.46716 2.67878 1.795
      vertex 6.06218 3.5 1.795
    endloop
  endfacet
  facet normal 0 0 1
    outer loop
      vertex 6.94011 -0.913683 1.795
      vertex 1.73503 -0.22842 1.795
      vertex 6.76148 -1.81173 1.795
    endloop
  endfacet
  facet normal 0 0 1
    outer loop
      vertex 1.51554 0.875 1.795
      vertex 6.06218 3.5 1.795
      vertex 5.55347 4.26133 1.795
    endloop
  endfacet
  facet normal -0 0 1
    outer loop
      vertex 1.69037 -0.452933 1.795
      vertex 6.76148 -1.81173 1.795
      vertex 1.73503 -0.22842 1.795
    endloop
  endfacet
  facet normal 0 0 1
    outer loop
      vertex 1.38837 1.06533 1.795
      vertex 5.55347 4.26133 1.795
      vertex 4.94975 4.94975 1.795
    endloop
  endfacet
  facet normal 0 0 1
    outer loop
      vertex 6.76148 -1.81173 1.795
      vertex 1.69037 -0.452933 1.795
      vertex 6.46716 -2.67878 1.795
    endloop
  endfacet
  facet normal 0 0 1
    outer loop
      vertex 1.23744 1.23744 1.795
      vertex 4.94975 4.94975 1.795
      vertex 4.26133 5.55347 1.795
    endloop
  endfacet
  facet normal -0 0 1
    outer loop
      vertex 1.61679 -0.669696 1.795
      vertex 6.46716 -2.67878 1.795
      vertex 1.69037 -0.452933 1.795
    endloop
  endfacet
  facet normal 0 0 1
    outer loop
      vertex 1.06533 1.38837 1.795
      vertex 4.26133 5.55347 1.795
      vertex 3.5 6.06218 1.795
    endloop
  endfacet
  facet normal 0 0 1
    outer loop
      vertex 6.46716 -2.67878 1.795
      vertex 1.61679 -0.669696 1.795
      vertex 6.06218 -3.5 1.795
    endloop
  endfacet
  facet normal 0 0 1
    outer loop
      vertex 0.875 1.51554 1.795
      vertex 3.5 6.06218 1.795
      vertex 2.67878 6.46716 1.795
    endloop
  endfacet
  facet normal -0 0 1
    outer loop
      vertex 1.51554 -0.875 1.795
      vertex 6.06218 -3.5 1.795
      vertex 1.61679 -0.669696 1.795
    endloop
  endfacet
  facet normal 0 0 1
    outer loop
      vertex 0.669696 1.61679 1.795
      vertex 2.67878 6.46716 1.795
      vertex 1.81173 6.76148 1.795
    endloop
  endfacet
  facet normal 0 0 1
    outer loop
      vertex 6.06218 -3.5 1.795
      vertex 1.51554 -0.875 1.795
      vertex 5.55347 -4.26133 1.795
    endloop
  endfacet
  facet normal -0 0 1
    outer loop
      vertex 1.38837 -1.06533 1.795
      vertex 5.55347 -4.26133 1.795
      vertex 1.51554 -0.875 1.795
    endloop
  endfacet
  facet normal 0 0 1
    outer loop
      vertex 6.94011 0.913683 1.795
      vertex 1.73503 0.22842 1.795
      vertex 1.75 0 1.795
    endloop
  endfacet
  facet normal 0 0 1
    outer loop
      vertex 6.76148 1.81173 1.795
      vertex 1.69037 0.452933 1.795
      vertex 1.73503 0.22842 1.795
    endloop
  endfacet
  facet normal 0 0 1
    outer loop
      vertex 6.46716 2.67878 1.795
      vertex 1.61679 0.669696 1.795
      vertex 1.69037 0.452933 1.795
    endloop
  endfacet
  facet normal 0 0 1
    outer loop
      vertex 6.06218 3.5 1.795
      vertex 1.51554 0.875 1.795
      vertex 1.61679 0.669696 1.795
    endloop
  endfacet
  facet normal 0 0 1
    outer loop
      vertex 5.55347 4.26133 1.795
      vertex 1.38837 1.06533 1.795
      vertex 1.51554 0.875 1.795
    endloop
  endfacet
  facet normal 0 0 1
    outer loop
      vertex 4.94975 4.94975 1.795
      vertex 1.23744 1.23744 1.795
      vertex 1.38837 1.06533 1.795
    endloop
  endfacet
  facet normal 0 0 1
    outer loop
      vertex 4.26133 5.55347 1.795
      vertex 1.06533 1.38837 1.795
      vertex 1.23744 1.23744 1.795
    endloop
  endfacet
  facet normal 0 0 1
    outer loop
      vertex 0.452933 1.69037 1.795
      vertex 1.81173 6.76148 1.795
      vertex 0.913683 6.94011 1.795
    endloop
  endfacet
  facet normal 0 0 1
    outer loop
      vertex 3.5 6.06218 1.795
      vertex 0.875 1.51554 1.795
      vertex 1.06533 1.38837 1.795
    endloop
  endfacet
  facet normal 0 0 1
    outer loop
      vertex 2.67878 6.46716 1.795
      vertex 0.669696 1.61679 1.795
      vertex 0.875 1.51554 1.795
    endloop
  endfacet
  facet normal 0 0 1
    outer loop
      vertex 1.81173 6.76148 1.795
      vertex 0.452933 1.69037 1.795
      vertex 0.669696 1.61679 1.795
    endloop
  endfacet
  facet normal 0 0 1
    outer loop
      vertex 0.913683 6.94011 1.795
      vertex 0.22842 1.73503 1.795
      vertex 0.452933 1.69037 1.795
    endloop
  endfacet
  facet normal 0 0 1
    outer loop
      vertex 0 7 1.795
      vertex 0.22842 1.73503 1.795
      vertex 0.913683 6.94011 1.795
    endloop
  endfacet
  facet normal 0 0 1
    outer loop
      vertex 0 7 1.795
      vertex 0 1.75 1.795
      vertex 0.22842 1.73503 1.795
    endloop
  endfacet
  facet normal 0 0 1
    outer loop
      vertex 0 7 1.795
      vertex -0.22842 1.73503 1.795
      vertex 0 1.75 1.795
    endloop
  endfacet
  facet normal -0 0 1
    outer loop
      vertex -0.913683 6.94011 1.795
      vertex -0.22842 1.73503 1.795
      vertex 0 7 1.795
    endloop
  endfacet
  facet normal 0 0 1
    outer loop
      vertex -0.22842 1.73503 1.795
      vertex -0.913683 6.94011 1.795
      vertex -0.452933 1.69037 1.795
    endloop
  endfacet
  facet normal -0 0 1
    outer loop
      vertex -1.81173 6.76148 1.795
      vertex -0.452933 1.69037 1.795
      vertex -0.913683 6.94011 1.795
    endloop
  endfacet
  facet normal 0 0 1
    outer loop
      vertex -0.452933 1.69037 1.795
      vertex -1.81173 6.76148 1.795
      vertex -0.669696 1.61679 1.795
    endloop
  endfacet
  facet normal -0 0 1
    outer loop
      vertex -2.67878 6.46716 1.795
      vertex -0.669696 1.61679 1.795
      vertex -1.81173 6.76148 1.795
    endloop
  endfacet
  facet normal 0 0 1
    outer loop
      vertex -0.669696 1.61679 1.795
      vertex -2.67878 6.46716 1.795
      vertex -0.875 1.51554 1.795
    endloop
  endfacet
  facet normal -0 0 1
    outer loop
      vertex -3.5 6.06218 1.795
      vertex -0.875 1.51554 1.795
      vertex -2.67878 6.46716 1.795
    endloop
  endfacet
  facet normal 0 0 1
    outer loop
      vertex -0.875 1.51554 1.795
      vertex -3.5 6.06218 1.795
      vertex -1.06533 1.38837 1.795
    endloop
  endfacet
  facet normal -0 0 1
    outer loop
      vertex -4.26133 5.55347 1.795
      vertex -1.06533 1.38837 1.795
      vertex -3.5 6.06218 1.795
    endloop
  endfacet
  facet normal 0 0 1
    outer loop
      vertex -1.06533 1.38837 1.795
      vertex -4.26133 5.55347 1.795
      vertex -1.23744 1.23744 1.795
    endloop
  endfacet
  facet normal -0 0 1
    outer loop
      vertex -4.94975 4.94975 1.795
      vertex -1.23744 1.23744 1.795
      vertex -4.26133 5.55347 1.795
    endloop
  endfacet
  facet normal -0 0 1
    outer loop
      vertex -5.55347 4.26133 1.795
      vertex -1.38837 1.06533 1.795
      vertex -4.94975 4.94975 1.795
    endloop
  endfacet
  facet normal 0 0 1
    outer loop
      vertex -1.23744 1.23744 1.795
      vertex -4.94975 4.94975 1.795
      vertex -1.38837 1.06533 1.795
    endloop
  endfacet
  facet normal 0 0 1
    outer loop
      vertex 5.55347 -4.26133 1.795
      vertex 1.38837 -1.06533 1.795
      vertex 4.94975 -4.94975 1.795
    endloop
  endfacet
  facet normal -0 0 1
    outer loop
      vertex 1.23744 -1.23744 1.795
      vertex 4.94975 -4.94975 1.795
      vertex 1.38837 -1.06533 1.795
    endloop
  endfacet
  facet normal 0 0 1
    outer loop
      vertex 4.94975 -4.94975 1.795
      vertex 1.23744 -1.23744 1.795
      vertex 4.26133 -5.55347 1.795
    endloop
  endfacet
  facet normal -0 0 1
    outer loop
      vertex 1.06533 -1.38837 1.795
      vertex 4.26133 -5.55347 1.795
      vertex 1.23744 -1.23744 1.795
    endloop
  endfacet
  facet normal 0 0 1
    outer loop
      vertex 4.26133 -5.55347 1.795
      vertex 1.06533 -1.38837 1.795
      vertex 3.5 -6.06218 1.795
    endloop
  endfacet
  facet normal -0 0 1
    outer loop
      vertex 0.875 -1.51554 1.795
      vertex 3.5 -6.06218 1.795
      vertex 1.06533 -1.38837 1.795
    endloop
  endfacet
  facet normal 0 0 1
    outer loop
      vertex 3.5 -6.06218 1.795
      vertex 0.875 -1.51554 1.795
      vertex 2.67878 -6.46716 1.795
    endloop
  endfacet
  facet normal -0 0 1
    outer loop
      vertex 0.669696 -1.61679 1.795
      vertex 2.67878 -6.46716 1.795
      vertex 0.875 -1.51554 1.795
    endloop
  endfacet
  facet normal 0 0 1
    outer loop
      vertex 2.67878 -6.46716 1.795
      vertex 0.669696 -1.61679 1.795
      vertex 1.81173 -6.76148 1.795
    endloop
  endfacet
  facet normal -0 0 1
    outer loop
      vertex 0.452933 -1.69037 1.795
      vertex 1.81173 -6.76148 1.795
      vertex 0.669696 -1.61679 1.795
    endloop
  endfacet
  facet normal 0 0 1
    outer loop
      vertex 1.81173 -6.76148 1.795
      vertex 0.452933 -1.69037 1.795
      vertex 0.913683 -6.94011 1.795
    endloop
  endfacet
  facet normal -0 0 1
    outer loop
      vertex 0.22842 -1.73503 1.795
      vertex 0.913683 -6.94011 1.795
      vertex 0.452933 -1.69037 1.795
    endloop
  endfacet
  facet normal -0 0 1
    outer loop
      vertex 0 -1.75 1.795
      vertex 0.913683 -6.94011 1.795
      vertex 0.22842 -1.73503 1.795
    endloop
  endfacet
  facet normal 0 0 1
    outer loop
      vertex 0 -1.75 1.795
      vertex 0 -7 1.795
      vertex 0.913683 -6.94011 1.795
    endloop
  endfacet
  facet normal 0 0 1
    outer loop
      vertex -0.22842 -1.73503 1.795
      vertex 0 -7 1.795
      vertex 0 -1.75 1.795
    endloop
  endfacet
  facet normal 0 0 1
    outer loop
      vertex -0.913683 -6.94011 1.795
      vertex -0.22842 -1.73503 1.795
      vertex -0.452933 -1.69037 1.795
    endloop
  endfacet
  facet normal 0 0 1
    outer loop
      vertex -1.81173 -6.76148 1.795
      vertex -0.452933 -1.69037 1.795
      vertex -0.669696 -1.61679 1.795
    endloop
  endfacet
  facet normal 0 0 1
    outer loop
      vertex -2.67878 -6.46716 1.795
      vertex -0.669696 -1.61679 1.795
      vertex -0.875 -1.51554 1.795
    endloop
  endfacet
  facet normal 0 0 1
    outer loop
      vertex -0.22842 -1.73503 1.795
      vertex -0.913683 -6.94011 1.795
      vertex 0 -7 1.795
    endloop
  endfacet
  facet normal 0 0 1
    outer loop
      vertex -3.5 -6.06218 1.795
      vertex -0.875 -1.51554 1.795
      vertex -1.06533 -1.38837 1.795
    endloop
  endfacet
  facet normal 0 0 1
    outer loop
      vertex -4.26133 -5.55347 1.795
      vertex -1.06533 -1.38837 1.795
      vertex -1.23744 -1.23744 1.795
    endloop
  endfacet
  facet normal 0 0 1
    outer loop
      vertex -4.94975 -4.94975 1.795
      vertex -1.23744 -1.23744 1.795
      vertex -1.38837 -1.06533 1.795
    endloop
  endfacet
  facet normal 0 0 1
    outer loop
      vertex -5.55347 -4.26133 1.795
      vertex -1.38837 -1.06533 1.795
      vertex -1.51554 -0.875 1.795
    endloop
  endfacet
  facet normal 0 0 1
    outer loop
      vertex -6.06218 -3.5 1.795
      vertex -1.51554 -0.875 1.795
      vertex -1.61679 -0.669696 1.795
    endloop
  endfacet
  facet normal 0 0 1
    outer loop
      vertex -6.46716 -2.67878 1.795
      vertex -1.61679 -0.669696 1.795
      vertex -1.69037 -0.452933 1.795
    endloop
  endfacet
  facet normal 0 0 1
    outer loop
      vertex -6.76148 -1.81173 1.795
      vertex -1.69037 -0.452933 1.795
      vertex -1.73503 -0.22842 1.795
    endloop
  endfacet
  facet normal 0 0 1
    outer loop
      vertex -0.452933 -1.69037 1.795
      vertex -1.81173 -6.76148 1.795
      vertex -0.913683 -6.94011 1.795
    endloop
  endfacet
  facet normal 0 0 1
    outer loop
      vertex -6.94011 -0.913683 1.795
      vertex -1.73503 -0.22842 1.795
      vertex -1.75 0 1.795
    endloop
  endfacet
  facet normal 0 0 1
    outer loop
      vertex -1.38837 1.06533 1.795
      vertex -5.55347 4.26133 1.795
      vertex -1.51554 0.875 1.795
    endloop
  endfacet
  facet normal -0 0 1
    outer loop
      vertex -6.06218 3.5 1.795
      vertex -1.51554 0.875 1.795
      vertex -5.55347 4.26133 1.795
    endloop
  endfacet
  facet normal 0 0 1
    outer loop
      vertex -0.669696 -1.61679 1.795
      vertex -2.67878 -6.46716 1.795
      vertex -1.81173 -6.76148 1.795
    endloop
  endfacet
  facet normal 0 0 1
    outer loop
      vertex -1.51554 0.875 1.795
      vertex -6.06218 3.5 1.795
      vertex -1.61679 0.669696 1.795
    endloop
  endfacet
  facet normal 0 0 1
    outer loop
      vertex -0.875 -1.51554 1.795
      vertex -3.5 -6.06218 1.795
      vertex -2.67878 -6.46716 1.795
    endloop
  endfacet
  facet normal -0 0 1
    outer loop
      vertex -6.46716 2.67878 1.795
      vertex -1.61679 0.669696 1.795
      vertex -6.06218 3.5 1.795
    endloop
  endfacet
  facet normal 0 0 1
    outer loop
      vertex -1.06533 -1.38837 1.795
      vertex -4.26133 -5.55347 1.795
      vertex -3.5 -6.06218 1.795
    endloop
  endfacet
  facet normal 0 0 1
    outer loop
      vertex -1.61679 0.669696 1.795
      vertex -6.46716 2.67878 1.795
      vertex -1.69037 0.452933 1.795
    endloop
  endfacet
  facet normal 0 0 1
    outer loop
      vertex -1.23744 -1.23744 1.795
      vertex -4.94975 -4.94975 1.795
      vertex -4.26133 -5.55347 1.795
    endloop
  endfacet
  facet normal -0 0 1
    outer loop
      vertex -6.76148 1.81173 1.795
      vertex -1.69037 0.452933 1.795
      vertex -6.46716 2.67878 1.795
    endloop
  endfacet
  facet normal 0 0 1
    outer loop
      vertex -1.38837 -1.06533 1.795
      vertex -5.55347 -4.26133 1.795
      vertex -4.94975 -4.94975 1.795
    endloop
  endfacet
  facet normal 0 0 1
    outer loop
      vertex -1.69037 0.452933 1.795
      vertex -6.76148 1.81173 1.795
      vertex -1.73503 0.22842 1.795
    endloop
  endfacet
  facet normal 0 0 1
    outer loop
      vertex -1.51554 -0.875 1.795
      vertex -6.06218 -3.5 1.795
      vertex -5.55347 -4.26133 1.795
    endloop
  endfacet
  facet normal -0 0 1
    outer loop
      vertex -6.94011 0.913683 1.795
      vertex -1.73503 0.22842 1.795
      vertex -6.76148 1.81173 1.795
    endloop
  endfacet
  facet normal 0 0 1
    outer loop
      vertex -1.61679 -0.669696 1.795
      vertex -6.46716 -2.67878 1.795
      vertex -6.06218 -3.5 1.795
    endloop
  endfacet
  facet normal 0 0 1
    outer loop
      vertex -1.73503 0.22842 1.795
      vertex -6.94011 0.913683 1.795
      vertex -1.75 0 1.795
    endloop
  endfacet
  facet normal 0 0 1
    outer loop
      vertex -1.69037 -0.452933 1.795
      vertex -6.76148 -1.81173 1.795
      vertex -6.46716 -2.67878 1.795
    endloop
  endfacet
  facet normal 0 0 1
    outer loop
      vertex -7 0 1.795
      vertex -1.75 0 1.795
      vertex -6.94011 0.913683 1.795
    endloop
  endfacet
  facet normal 0 0 1
    outer loop
      vertex -1.73503 -0.22842 1.795
      vertex -6.94011 -0.913683 1.795
      vertex -6.76148 -1.81173 1.795
    endloop
  endfacet
  facet normal 0 0 1
    outer loop
      vertex -1.75 0 1.795
      vertex -7 0 1.795
      vertex -6.94011 -0.913683 1.795
    endloop
  endfacet
  facet normal -0.980786 -0.195088 0
    outer loop
      vertex -6.76148 -1.81173 0
      vertex -6.94011 -0.913683 1.795
      vertex -6.94011 -0.913683 0
    endloop
  endfacet
  facet normal -0.980786 -0.195088 0
    outer loop
      vertex -6.94011 -0.913683 1.795
      vertex -6.76148 -1.81173 0
      vertex -6.76148 -1.81173 1.795
    endloop
  endfacet
  facet normal 0.896873 0.442288 0
    outer loop
      vertex 6.46716 2.67878 1.795
      vertex 6.06218 3.5 0
      vertex 6.06218 3.5 1.795
    endloop
  endfacet
  facet normal 0.896873 0.442288 0
    outer loop
      vertex 6.06218 3.5 0
      vertex 6.46716 2.67878 1.795
      vertex 6.46716 2.67878 0
    endloop
  endfacet
  facet normal 0.555574 -0.831467 0
    outer loop
      vertex 3.5 -6.06218 0
      vertex 4.26133 -5.55347 1.795
      vertex 3.5 -6.06218 1.795
    endloop
  endfacet
  facet normal 0.555574 -0.831467 0
    outer loop
      vertex 4.26133 -5.55347 1.795
      vertex 3.5 -6.06218 0
      vertex 4.26133 -5.55347 0
    endloop
  endfacet
  facet normal 0.751844 -0.659341 0
    outer loop
      vertex 4.94975 -4.94975 1.795
      vertex 5.55347 -4.26133 0
      vertex 5.55347 -4.26133 1.795
    endloop
  endfacet
  facet normal 0.751844 -0.659341 0
    outer loop
      vertex 5.55347 -4.26133 0
      vertex 4.94975 -4.94975 1.795
      vertex 4.94975 -4.94975 0
    endloop
  endfacet
  facet normal 0.980786 -0.195088 0
    outer loop
      vertex 6.76148 -1.81173 1.795
      vertex 6.94011 -0.913683 0
      vertex 6.94011 -0.913683 1.795
    endloop
  endfacet
  facet normal 0.980786 -0.195088 0
    outer loop
      vertex 6.94011 -0.913683 0
      vertex 6.76148 -1.81173 1.795
      vertex 6.76148 -1.81173 0
    endloop
  endfacet
  facet normal -0.0654075 0.997859 0
    outer loop
      vertex 0 7 0
      vertex -0.913683 6.94011 1.795
      vertex 0 7 1.795
    endloop
  endfacet
  facet normal -0.0654075 0.997859 0
    outer loop
      vertex -0.913683 6.94011 1.795
      vertex 0 7 0
      vertex -0.913683 6.94011 0
    endloop
  endfacet
  facet normal 0.195088 0.980786 -0
    outer loop
      vertex 1.81173 6.76148 0
      vertex 0.913683 6.94011 1.795
      vertex 1.81173 6.76148 1.795
    endloop
  endfacet
  facet normal 0.195088 0.980786 0
    outer loop
      vertex 0.913683 6.94011 1.795
      vertex 1.81173 6.76148 0
      vertex 0.913683 6.94011 0
    endloop
  endfacet
  facet normal -0.896873 -0.442288 0
    outer loop
      vertex -6.06218 -3.5 0
      vertex -6.46716 -2.67878 1.795
      vertex -6.46716 -2.67878 0
    endloop
  endfacet
  facet normal -0.896873 -0.442288 0
    outer loop
      vertex -6.46716 -2.67878 1.795
      vertex -6.06218 -3.5 0
      vertex -6.06218 -3.5 1.795
    endloop
  endfacet
  facet normal -0.946931 -0.321436 0
    outer loop
      vertex -6.46716 -2.67878 0
      vertex -6.76148 -1.81173 1.795
      vertex -6.76148 -1.81173 0
    endloop
  endfacet
  facet normal -0.946931 -0.321436 0
    outer loop
      vertex -6.76148 -1.81173 1.795
      vertex -6.46716 -2.67878 0
      vertex -6.46716 -2.67878 1.795
    endloop
  endfacet
  facet normal 0.555574 0.831467 -0
    outer loop
      vertex 4.26133 5.55347 0
      vertex 3.5 6.06218 1.795
      vertex 4.26133 5.55347 1.795
    endloop
  endfacet
  facet normal 0.555574 0.831467 0
    outer loop
      vertex 3.5 6.06218 1.795
      vertex 4.26133 5.55347 0
      vertex 3.5 6.06218 0
    endloop
  endfacet
  facet normal -0.896873 0.442288 0
    outer loop
      vertex -6.46716 2.67878 0
      vertex -6.06218 3.5 1.795
      vertex -6.06218 3.5 0
    endloop
  endfacet
  facet normal -0.896873 0.442288 0
    outer loop
      vertex -6.06218 3.5 1.795
      vertex -6.46716 2.67878 0
      vertex -6.46716 2.67878 1.795
    endloop
  endfacet
  facet normal 0.946931 0.321436 0
    outer loop
      vertex 6.76148 1.81173 1.795
      vertex 6.46716 2.67878 0
      vertex 6.46716 2.67878 1.795
    endloop
  endfacet
  facet normal 0.946931 0.321436 0
    outer loop
      vertex 6.46716 2.67878 0
      vertex 6.76148 1.81173 1.795
      vertex 6.76148 1.81173 0
    endloop
  endfacet
  facet normal -0.997859 -0.0654075 0
    outer loop
      vertex -6.94011 -0.913683 0
      vertex -7 0 1.795
      vertex -7 0 0
    endloop
  endfacet
  facet normal -0.997859 -0.0654075 0
    outer loop
      vertex -7 0 1.795
      vertex -6.94011 -0.913683 0
      vertex -6.94011 -0.913683 1.795
    endloop
  endfacet
  facet normal -0.321436 0.946931 0
    outer loop
      vertex -1.81173 6.76148 0
      vertex -2.67878 6.46716 1.795
      vertex -1.81173 6.76148 1.795
    endloop
  endfacet
  facet normal -0.321436 0.946931 0
    outer loop
      vertex -2.67878 6.46716 1.795
      vertex -1.81173 6.76148 0
      vertex -2.67878 6.46716 0
    endloop
  endfacet
  facet normal -0.946931 0.321436 0
    outer loop
      vertex -6.76148 1.81173 0
      vertex -6.46716 2.67878 1.795
      vertex -6.46716 2.67878 0
    endloop
  endfacet
  facet normal -0.946931 0.321436 0
    outer loop
      vertex -6.46716 2.67878 1.795
      vertex -6.76148 1.81173 0
      vertex -6.76148 1.81173 1.795
    endloop
  endfacet
  facet normal -0.195088 0.980786 0
    outer loop
      vertex -0.913683 6.94011 0
      vertex -1.81173 6.76148 1.795
      vertex -0.913683 6.94011 1.795
    endloop
  endfacet
  facet normal -0.195088 0.980786 0
    outer loop
      vertex -1.81173 6.76148 1.795
      vertex -0.913683 6.94011 0
      vertex -1.81173 6.76148 0
    endloop
  endfacet
  facet normal -0.0654075 -0.997859 0
    outer loop
      vertex -0.913683 -6.94011 0
      vertex 0 -7 1.795
      vertex -0.913683 -6.94011 1.795
    endloop
  endfacet
  facet normal -0.0654075 -0.997859 -0
    outer loop
      vertex 0 -7 1.795
      vertex -0.913683 -6.94011 0
      vertex 0 -7 0
    endloop
  endfacet
  facet normal -0.751844 -0.659341 0
    outer loop
      vertex -4.94975 -4.94975 0
      vertex -5.55347 -4.26133 1.795
      vertex -5.55347 -4.26133 0
    endloop
  endfacet
  facet normal -0.751844 -0.659341 0
    outer loop
      vertex -5.55347 -4.26133 1.795
      vertex -4.94975 -4.94975 0
      vertex -4.94975 -4.94975 1.795
    endloop
  endfacet
  facet normal -0.195088 -0.980786 0
    outer loop
      vertex -1.81173 -6.76148 0
      vertex -0.913683 -6.94011 1.795
      vertex -1.81173 -6.76148 1.795
    endloop
  endfacet
  facet normal -0.195088 -0.980786 -0
    outer loop
      vertex -0.913683 -6.94011 1.795
      vertex -1.81173 -6.76148 0
      vertex -0.913683 -6.94011 0
    endloop
  endfacet
  facet normal -0.555574 -0.831467 0
    outer loop
      vertex -4.26133 -5.55347 0
      vertex -3.5 -6.06218 1.795
      vertex -4.26133 -5.55347 1.795
    endloop
  endfacet
  facet normal -0.555574 -0.831467 -0
    outer loop
      vertex -3.5 -6.06218 1.795
      vertex -4.26133 -5.55347 0
      vertex -3.5 -6.06218 0
    endloop
  endfacet
  facet normal 0.321436 0.946931 -0
    outer loop
      vertex 2.67878 6.46716 0
      vertex 1.81173 6.76148 1.795
      vertex 2.67878 6.46716 1.795
    endloop
  endfacet
  facet normal 0.321436 0.946931 0
    outer loop
      vertex 1.81173 6.76148 1.795
      vertex 2.67878 6.46716 0
      vertex 1.81173 6.76148 0
    endloop
  endfacet
  facet normal -0.831467 0.555574 0
    outer loop
      vertex -6.06218 3.5 0
      vertex -5.55347 4.26133 1.795
      vertex -5.55347 4.26133 0
    endloop
  endfacet
  facet normal -0.831467 0.555574 0
    outer loop
      vertex -5.55347 4.26133 1.795
      vertex -6.06218 3.5 0
      vertex -6.06218 3.5 1.795
    endloop
  endfacet
  facet normal -0.980784 -0.195097 0
    outer loop
      vertex 1.73503 0.22842 0
      vertex 1.69037 0.452933 1.795
      vertex 1.69037 0.452933 0
    endloop
  endfacet
  facet normal -0.980784 -0.195097 0
    outer loop
      vertex 1.69037 0.452933 1.795
      vertex 1.73503 0.22842 0
      vertex 1.73503 0.22842 1.795
    endloop
  endfacet
  facet normal -0.997859 -0.0653969 0
    outer loop
      vertex 1.75 0 0
      vertex 1.73503 0.22842 1.795
      vertex 1.73503 0.22842 0
    endloop
  endfacet
  facet normal -0.997859 -0.0653969 0
    outer loop
      vertex 1.73503 0.22842 1.795
      vertex 1.75 0 0
      vertex 1.75 0 1.795
    endloop
  endfacet
  facet normal -0.946932 -0.321435 0
    outer loop
      vertex 1.69037 0.452933 0
      vertex 1.61679 0.669696 1.795
      vertex 1.61679 0.669696 0
    endloop
  endfacet
  facet normal -0.946932 -0.321435 0
    outer loop
      vertex 1.61679 0.669696 1.795
      vertex 1.69037 0.452933 0
      vertex 1.69037 0.452933 1.795
    endloop
  endfacet
  facet normal 0.321435 0.946932 -0
    outer loop
      vertex -0.452933 -1.69037 0
      vertex -0.669696 -1.61679 1.795
      vertex -0.452933 -1.69037 1.795
    endloop
  endfacet
  facet normal 0.321435 0.946932 0
    outer loop
      vertex -0.669696 -1.61679 1.795
      vertex -0.452933 -1.69037 0
      vertex -0.669696 -1.61679 0
    endloop
  endfacet
  facet normal 0.442307 0.896864 -0
    outer loop
      vertex -0.669696 -1.61679 0
      vertex -0.875 -1.51554 1.795
      vertex -0.669696 -1.61679 1.795
    endloop
  endfacet
  facet normal 0.442307 0.896864 0
    outer loop
      vertex -0.875 -1.51554 1.795
      vertex -0.669696 -1.61679 0
      vertex -0.875 -1.51554 0
    endloop
  endfacet
  facet normal -0.896864 -0.442307 0
    outer loop
      vertex 1.61679 0.669696 0
      vertex 1.51554 0.875 1.795
      vertex 1.51554 0.875 0
    endloop
  endfacet
  facet normal -0.896864 -0.442307 0
    outer loop
      vertex 1.51554 0.875 1.795
      vertex 1.61679 0.669696 0
      vertex 1.61679 0.669696 1.795
    endloop
  endfacet
  facet normal -0.831479 -0.555557 0
    outer loop
      vertex 1.51554 0.875 0
      vertex 1.38837 1.06533 1.795
      vertex 1.38837 1.06533 0
    endloop
  endfacet
  facet normal -0.831479 -0.555557 0
    outer loop
      vertex 1.38837 1.06533 1.795
      vertex 1.51554 0.875 0
      vertex 1.51554 0.875 1.795
    endloop
  endfacet
  facet normal 0.0653969 -0.997859 0
    outer loop
      vertex -0.22842 1.73503 0
      vertex 0 1.75 1.795
      vertex -0.22842 1.73503 1.795
    endloop
  endfacet
  facet normal 0.0653969 -0.997859 0
    outer loop
      vertex 0 1.75 1.795
      vertex -0.22842 1.73503 0
      vertex 0 1.75 0
    endloop
  endfacet
  facet normal -0.0653969 0.997859 0
    outer loop
      vertex 0.22842 -1.73503 0
      vertex 0 -1.75 1.795
      vertex 0.22842 -1.73503 1.795
    endloop
  endfacet
  facet normal -0.0653969 0.997859 0
    outer loop
      vertex 0 -1.75 1.795
      vertex 0.22842 -1.73503 0
      vertex 0 -1.75 0
    endloop
  endfacet
  facet normal -0.442307 -0.896864 0
    outer loop
      vertex 0.669696 1.61679 0
      vertex 0.875 1.51554 1.795
      vertex 0.669696 1.61679 1.795
    endloop
  endfacet
  facet normal -0.442307 -0.896864 -0
    outer loop
      vertex 0.875 1.51554 1.795
      vertex 0.669696 1.61679 0
      vertex 0.875 1.51554 0
    endloop
  endfacet
  facet normal 0.442307 -0.896864 0
    outer loop
      vertex -0.875 1.51554 0
      vertex -0.669696 1.61679 1.795
      vertex -0.875 1.51554 1.795
    endloop
  endfacet
  facet normal 0.442307 -0.896864 0
    outer loop
      vertex -0.669696 1.61679 1.795
      vertex -0.875 1.51554 0
      vertex -0.669696 1.61679 0
    endloop
  endfacet
  facet normal 0.65933 -0.751854 0
    outer loop
      vertex -1.23744 1.23744 0
      vertex -1.06533 1.38837 1.795
      vertex -1.23744 1.23744 1.795
    endloop
  endfacet
  facet normal 0.65933 -0.751854 0
    outer loop
      vertex -1.06533 1.38837 1.795
      vertex -1.23744 1.23744 0
      vertex -1.06533 1.38837 0
    endloop
  endfacet
  facet normal -0.751854 -0.65933 0
    outer loop
      vertex 1.38837 1.06533 0
      vertex 1.23744 1.23744 1.795
      vertex 1.23744 1.23744 0
    endloop
  endfacet
  facet normal -0.751854 -0.65933 0
    outer loop
      vertex 1.23744 1.23744 1.795
      vertex 1.38837 1.06533 0
      vertex 1.38837 1.06533 1.795
    endloop
  endfacet
  facet normal 0.980784 -0.195097 0
    outer loop
      vertex -1.73503 0.22842 1.795
      vertex -1.69037 0.452933 0
      vertex -1.69037 0.452933 1.795
    endloop
  endfacet
  facet normal 0.980784 -0.195097 0
    outer loop
      vertex -1.69037 0.452933 0
      vertex -1.73503 0.22842 1.795
      vertex -1.73503 0.22842 0
    endloop
  endfacet
  facet normal -0.946932 0.321435 0
    outer loop
      vertex 1.61679 -0.669696 0
      vertex 1.69037 -0.452933 1.795
      vertex 1.69037 -0.452933 0
    endloop
  endfacet
  facet normal -0.946932 0.321435 0
    outer loop
      vertex 1.69037 -0.452933 1.795
      vertex 1.61679 -0.669696 0
      vertex 1.61679 -0.669696 1.795
    endloop
  endfacet
  facet normal 0.980784 0.195097 0
    outer loop
      vertex -1.69037 -0.452933 1.795
      vertex -1.73503 -0.22842 0
      vertex -1.73503 -0.22842 1.795
    endloop
  endfacet
  facet normal 0.980784 0.195097 0
    outer loop
      vertex -1.73503 -0.22842 0
      vertex -1.69037 -0.452933 1.795
      vertex -1.69037 -0.452933 0
    endloop
  endfacet
  facet normal 0.997859 -0.0653969 0
    outer loop
      vertex -1.75 0 1.795
      vertex -1.73503 0.22842 0
      vertex -1.73503 0.22842 1.795
    endloop
  endfacet
  facet normal 0.997859 -0.0653969 0
    outer loop
      vertex -1.73503 0.22842 0
      vertex -1.75 0 1.795
      vertex -1.75 0 0
    endloop
  endfacet
  facet normal -0.997859 0.0653969 0
    outer loop
      vertex 1.73503 -0.22842 0
      vertex 1.75 0 1.795
      vertex 1.75 0 0
    endloop
  endfacet
  facet normal -0.997859 0.0653969 0
    outer loop
      vertex 1.75 0 1.795
      vertex 1.73503 -0.22842 0
      vertex 1.73503 -0.22842 1.795
    endloop
  endfacet
  facet normal -0.831479 0.555557 0
    outer loop
      vertex 1.38837 -1.06533 0
      vertex 1.51554 -0.875 1.795
      vertex 1.51554 -0.875 0
    endloop
  endfacet
  facet normal -0.831479 0.555557 0
    outer loop
      vertex 1.51554 -0.875 1.795
      vertex 1.38837 -1.06533 0
      vertex 1.38837 -1.06533 1.795
    endloop
  endfacet
  facet normal 0.946932 0.321435 0
    outer loop
      vertex -1.61679 -0.669696 1.795
      vertex -1.69037 -0.452933 0
      vertex -1.69037 -0.452933 1.795
    endloop
  endfacet
  facet normal 0.946932 0.321435 0
    outer loop
      vertex -1.69037 -0.452933 0
      vertex -1.61679 -0.669696 1.795
      vertex -1.61679 -0.669696 0
    endloop
  endfacet
  facet normal -0.195097 0.980784 0
    outer loop
      vertex 0.452933 -1.69037 0
      vertex 0.22842 -1.73503 1.795
      vertex 0.452933 -1.69037 1.795
    endloop
  endfacet
  facet normal -0.195097 0.980784 0
    outer loop
      vertex 0.22842 -1.73503 1.795
      vertex 0.452933 -1.69037 0
      vertex 0.22842 -1.73503 0
    endloop
  endfacet
  facet normal -0.555557 -0.831479 0
    outer loop
      vertex 0.875 1.51554 0
      vertex 1.06533 1.38837 1.795
      vertex 0.875 1.51554 1.795
    endloop
  endfacet
  facet normal -0.555557 -0.831479 -0
    outer loop
      vertex 1.06533 1.38837 1.795
      vertex 0.875 1.51554 0
      vertex 1.06533 1.38837 0
    endloop
  endfacet
  facet normal 0.321435 -0.946932 0
    outer loop
      vertex -0.669696 1.61679 0
      vertex -0.452933 1.69037 1.795
      vertex -0.669696 1.61679 1.795
    endloop
  endfacet
  facet normal 0.321435 -0.946932 0
    outer loop
      vertex -0.452933 1.69037 1.795
      vertex -0.669696 1.61679 0
      vertex -0.452933 1.69037 0
    endloop
  endfacet
  facet normal 0.751854 -0.65933 0
    outer loop
      vertex -1.38837 1.06533 1.795
      vertex -1.23744 1.23744 0
      vertex -1.23744 1.23744 1.795
    endloop
  endfacet
  facet normal 0.751854 -0.65933 0
    outer loop
      vertex -1.23744 1.23744 0
      vertex -1.38837 1.06533 1.795
      vertex -1.38837 1.06533 0
    endloop
  endfacet
  facet normal -0.65933 -0.751854 0
    outer loop
      vertex 1.06533 1.38837 0
      vertex 1.23744 1.23744 1.795
      vertex 1.06533 1.38837 1.795
    endloop
  endfacet
  facet normal -0.65933 -0.751854 -0
    outer loop
      vertex 1.23744 1.23744 1.795
      vertex 1.06533 1.38837 0
      vertex 1.23744 1.23744 0
    endloop
  endfacet
  facet normal 0.555557 -0.831479 0
    outer loop
      vertex -1.06533 1.38837 0
      vertex -0.875 1.51554 1.795
      vertex -1.06533 1.38837 1.795
    endloop
  endfacet
  facet normal 0.555557 -0.831479 0
    outer loop
      vertex -0.875 1.51554 1.795
      vertex -1.06533 1.38837 0
      vertex -0.875 1.51554 0
    endloop
  endfacet
  facet normal 0.896864 0.442307 0
    outer loop
      vertex -1.51554 -0.875 1.795
      vertex -1.61679 -0.669696 0
      vertex -1.61679 -0.669696 1.795
    endloop
  endfacet
  facet normal 0.896864 0.442307 0
    outer loop
      vertex -1.61679 -0.669696 0
      vertex -1.51554 -0.875 1.795
      vertex -1.51554 -0.875 0
    endloop
  endfacet
  facet normal 0.997859 0.0653969 0
    outer loop
      vertex -1.73503 -0.22842 1.795
      vertex -1.75 0 0
      vertex -1.75 0 1.795
    endloop
  endfacet
  facet normal 0.997859 0.0653969 0
    outer loop
      vertex -1.75 0 0
      vertex -1.73503 -0.22842 1.795
      vertex -1.73503 -0.22842 0
    endloop
  endfacet
  facet normal -0.980784 0.195097 0
    outer loop
      vertex 1.69037 -0.452933 0
      vertex 1.73503 -0.22842 1.795
      vertex 1.73503 -0.22842 0
    endloop
  endfacet
  facet normal -0.980784 0.195097 0
    outer loop
      vertex 1.73503 -0.22842 1.795
      vertex 1.69037 -0.452933 0
      vertex 1.69037 -0.452933 1.795
    endloop
  endfacet
  facet normal 0.896864 -0.442307 0
    outer loop
      vertex -1.61679 0.669696 1.795
      vertex -1.51554 0.875 0
      vertex -1.51554 0.875 1.795
    endloop
  endfacet
  facet normal 0.896864 -0.442307 0
    outer loop
      vertex -1.51554 0.875 0
      vertex -1.61679 0.669696 1.795
      vertex -1.61679 0.669696 0
    endloop
  endfacet
  facet normal 0.555557 0.831479 -0
    outer loop
      vertex -0.875 -1.51554 0
      vertex -1.06533 -1.38837 1.795
      vertex -0.875 -1.51554 1.795
    endloop
  endfacet
  facet normal 0.555557 0.831479 0
    outer loop
      vertex -1.06533 -1.38837 1.795
      vertex -0.875 -1.51554 0
      vertex -1.06533 -1.38837 0
    endloop
  endfacet
  facet normal 0.195097 -0.980784 0
    outer loop
      vertex -0.452933 1.69037 0
      vertex -0.22842 1.73503 1.795
      vertex -0.452933 1.69037 1.795
    endloop
  endfacet
  facet normal 0.195097 -0.980784 0
    outer loop
      vertex -0.22842 1.73503 1.795
      vertex -0.452933 1.69037 0
      vertex -0.22842 1.73503 0
    endloop
  endfacet
  facet normal -0.751854 0.65933 0
    outer loop
      vertex 1.23744 -1.23744 0
      vertex 1.38837 -1.06533 1.795
      vertex 1.38837 -1.06533 0
    endloop
  endfacet
  facet normal -0.751854 0.65933 0
    outer loop
      vertex 1.38837 -1.06533 1.795
      vertex 1.23744 -1.23744 0
      vertex 1.23744 -1.23744 1.795
    endloop
  endfacet
  facet normal -0.0653969 -0.997859 0
    outer loop
      vertex 0 1.75 0
      vertex 0.22842 1.73503 1.795
      vertex 0 1.75 1.795
    endloop
  endfacet
  facet normal -0.0653969 -0.997859 -0
    outer loop
      vertex 0.22842 1.73503 1.795
      vertex 0 1.75 0
      vertex 0.22842 1.73503 0
    endloop
  endfacet
  facet normal 0.946932 -0.321435 0
    outer loop
      vertex -1.69037 0.452933 1.795
      vertex -1.61679 0.669696 0
      vertex -1.61679 0.669696 1.795
    endloop
  endfacet
  facet normal 0.946932 -0.321435 0
    outer loop
      vertex -1.61679 0.669696 0
      vertex -1.69037 0.452933 1.795
      vertex -1.69037 0.452933 0
    endloop
  endfacet
  facet normal -0.321435 0.946932 0
    outer loop
      vertex 0.669696 -1.61679 0
      vertex 0.452933 -1.69037 1.795
      vertex 0.669696 -1.61679 1.795
    endloop
  endfacet
  facet normal -0.321435 0.946932 0
    outer loop
      vertex 0.452933 -1.69037 1.795
      vertex 0.669696 -1.61679 0
      vertex 0.452933 -1.69037 0
    endloop
  endfacet
  facet normal -0.65933 0.751854 0
    outer loop
      vertex 1.23744 -1.23744 0
      vertex 1.06533 -1.38837 1.795
      vertex 1.23744 -1.23744 1.795
    endloop
  endfacet
  facet normal -0.65933 0.751854 0
    outer loop
      vertex 1.06533 -1.38837 1.795
      vertex 1.23744 -1.23744 0
      vertex 1.06533 -1.38837 0
    endloop
  endfacet
  facet normal 0.0653969 0.997859 -0
    outer loop
      vertex 0 -1.75 0
      vertex -0.22842 -1.73503 1.795
      vertex 0 -1.75 1.795
    endloop
  endfacet
  facet normal 0.0653969 0.997859 0
    outer loop
      vertex -0.22842 -1.73503 1.795
      vertex 0 -1.75 0
      vertex -0.22842 -1.73503 0
    endloop
  endfacet
  facet normal 0.65933 0.751854 -0
    outer loop
      vertex -1.06533 -1.38837 0
      vertex -1.23744 -1.23744 1.795
      vertex -1.06533 -1.38837 1.795
    endloop
  endfacet
  facet normal 0.65933 0.751854 0
    outer loop
      vertex -1.23744 -1.23744 1.795
      vertex -1.06533 -1.38837 0
      vertex -1.23744 -1.23744 0
    endloop
  endfacet
  facet normal 0.195097 0.980784 -0
    outer loop
      vertex -0.22842 -1.73503 0
      vertex -0.452933 -1.69037 1.795
      vertex -0.22842 -1.73503 1.795
    endloop
  endfacet
  facet normal 0.195097 0.980784 0
    outer loop
      vertex -0.452933 -1.69037 1.795
      vertex -0.22842 -1.73503 0
      vertex -0.452933 -1.69037 0
    endloop
  endfacet
  facet normal -0.555557 0.831479 0
    outer loop
      vertex 1.06533 -1.38837 0
      vertex 0.875 -1.51554 1.795
      vertex 1.06533 -1.38837 1.795
    endloop
  endfacet
  facet normal -0.555557 0.831479 0
    outer loop
      vertex 0.875 -1.51554 1.795
      vertex 1.06533 -1.38837 0
      vertex 0.875 -1.51554 0
    endloop
  endfacet
  facet normal 0.831479 0.555557 0
    outer loop
      vertex -1.38837 -1.06533 1.795
      vertex -1.51554 -0.875 0
      vertex -1.51554 -0.875 1.795
    endloop
  endfacet
  facet normal 0.831479 0.555557 0
    outer loop
      vertex -1.51554 -0.875 0
      vertex -1.38837 -1.06533 1.795
      vertex -1.38837 -1.06533 0
    endloop
  endfacet
  facet normal 0.751854 0.65933 0
    outer loop
      vertex -1.23744 -1.23744 1.795
      vertex -1.38837 -1.06533 0
      vertex -1.38837 -1.06533 1.795
    endloop
  endfacet
  facet normal 0.751854 0.65933 0
    outer loop
      vertex -1.38837 -1.06533 0
      vertex -1.23744 -1.23744 1.795
      vertex -1.23744 -1.23744 0
    endloop
  endfacet
  facet normal -0.195097 -0.980784 0
    outer loop
      vertex 0.22842 1.73503 0
      vertex 0.452933 1.69037 1.795
      vertex 0.22842 1.73503 1.795
    endloop
  endfacet
  facet normal -0.195097 -0.980784 -0
    outer loop
      vertex 0.452933 1.69037 1.795
      vertex 0.22842 1.73503 0
      vertex 0.452933 1.69037 0
    endloop
  endfacet
  facet normal -0.442307 0.896864 0
    outer loop
      vertex 0.875 -1.51554 0
      vertex 0.669696 -1.61679 1.795
      vertex 0.875 -1.51554 1.795
    endloop
  endfacet
  facet normal -0.442307 0.896864 0
    outer loop
      vertex 0.669696 -1.61679 1.795
      vertex 0.875 -1.51554 0
      vertex 0.669696 -1.61679 0
    endloop
  endfacet
  facet normal -0.896864 0.442307 0
    outer loop
      vertex 1.51554 -0.875 0
      vertex 1.61679 -0.669696 1.795
      vertex 1.61679 -0.669696 0
    endloop
  endfacet
  facet normal -0.896864 0.442307 0
    outer loop
      vertex 1.61679 -0.669696 1.795
      vertex 1.51554 -0.875 0
      vertex 1.51554 -0.875 1.795
    endloop
  endfacet
  facet normal -0.321435 -0.946932 0
    outer loop
      vertex 0.452933 1.69037 0
      vertex 0.669696 1.61679 1.795
      vertex 0.452933 1.69037 1.795
    endloop
  endfacet
  facet normal -0.321435 -0.946932 -0
    outer loop
      vertex 0.669696 1.61679 1.795
      vertex 0.452933 1.69037 0
      vertex 0.669696 1.61679 0
    endloop
  endfacet
  facet normal 0.831479 -0.555557 0
    outer loop
      vertex -1.51554 0.875 1.795
      vertex -1.38837 1.06533 0
      vertex -1.38837 1.06533 1.795
    endloop
  endfacet
  facet normal 0.831479 -0.555557 0
    outer loop
      vertex -1.38837 1.06533 0
      vertex -1.51554 0.875 1.795
      vertex -1.51554 0.875 0
    endloop
  endfacet
endsolid OpenSCAD_Model
